<svg width="200" height="200" viewBox="0 0 200 200" fill="none" xmlns="http://www.w3.org/2000/svg">
<path d="M99.9977 25.5C58.8118 25.5 25.3047 59.0071 25.3047 100.193C29.4076 199.284 170.603 199.255 174.691 100.192C174.691 59.0071 141.184 25.5 99.9977 25.5ZM99.9977 168.467C62.3513 168.467 31.7236 137.839 31.7236 100.193C35.474 9.6181 164.535 9.64437 168.272 100.194C168.272 137.839 137.644 168.467 99.9977 168.467Z" fill="#505050"/>
<path d="M123.811 103.403H99.9829C98.2104 103.403 96.7734 101.966 96.7734 100.194V66.8349C96.9386 62.5862 103.021 62.5707 103.192 66.8349V96.9844H123.811C125.583 96.9844 127.02 98.4213 127.02 100.194C127.02 101.966 125.583 103.403 123.811 103.403Z" fill="#009EDB"/>
</svg>
