<svg width="200" height="200" viewBox="0 0 200 200" fill="none" xmlns="http://www.w3.org/2000/svg">
<path d="M170.747 102.041C171.82 100.901 171.74 98.8868 170.595 97.8229L135.189 63.0293C133.978 61.84 132.033 61.8573 130.844 63.0672C129.655 64.2774 129.672 66.2227 130.882 67.412L160.932 96.9423H59.8613C58.1646 96.9423 56.7891 98.3179 56.7891 100.015C56.7891 101.711 58.1646 103.087 59.8613 103.087H160.932L130.882 132.617C129.672 133.806 129.655 135.751 130.844 136.962C132.034 138.172 133.979 138.188 135.189 137C135.385 136.78 170.596 102.242 170.747 102.041Z" fill="#F71919"/>
<path d="M97.6414 171.5H43.3511C35.1492 171.5 28.4766 164.919 28.4766 156.83V43.1701C28.4766 35.0808 35.1492 28.5 43.3511 28.5H97.6414C105.843 28.5 112.516 35.0808 112.516 43.1701V71.0051C112.516 72.7018 111.14 74.0773 109.444 74.0773C107.747 74.0773 106.371 72.7018 106.371 71.0051V43.1701C106.371 38.4689 102.455 34.6445 97.6414 34.6445H43.3511C38.5374 34.6445 34.6211 38.4689 34.6211 43.1701V156.83C34.6211 161.531 38.5371 165.355 43.3511 165.355H97.6414C102.455 165.355 106.371 161.531 106.371 156.83V128.995C106.371 127.298 107.747 125.922 109.444 125.922C111.14 125.922 112.516 127.298 112.516 128.995V156.83C112.516 164.919 105.843 171.5 97.6414 171.5Z" fill="#505050"/>
</svg>
