<svg width="221" height="60" viewBox="0 0 221 60" fill="none" xmlns="http://www.w3.org/2000/svg">
<path d="M29.9471 60C13.4392 60 0 46.5608 0 29.9471C0 13.3333 13.4392 0 29.9471 0C46.5608 0 60 13.4392 60 29.9471C60 46.455 46.5608 60 29.9471 60ZM29.8413 18.2011C29.8413 18.2011 32.2751 20.7407 32.2751 22.8571C32.2751 25.0794 30.582 25.6085 29.9471 25.6085H29.7355C29.1005 25.6085 27.4074 25.0794 27.4074 22.8571C27.4074 20.7407 29.8413 18.2011 29.8413 18.2011ZM7.30159 31.6402H10.0529V26.5608H14.6032V24.4444H10.0529V21.5873H14.8148V19.4709H7.30159V31.6402ZM32.381 18.5185H35.2381L31.8519 6.45503H28.1481L24.6561 18.5185H27.3016L28.0423 15.7672H31.5344L32.381 18.5185ZM31.1111 13.7566H28.5714L29.7355 8.46561H29.9471L31.1111 13.7566ZM43.8095 25.6085C43.8095 29.2064 45.5026 31.8519 48.8889 31.8519C52.381 31.8519 54.0741 29.1005 54.0741 25.6085C54.0741 22.0106 52.381 19.3651 48.8889 19.3651C45.5026 19.3651 43.8095 22.1164 43.8095 25.6085ZM46.7725 25.6085C46.7725 23.2804 47.3016 21.3757 48.9947 21.3757C50.6878 21.3757 51.2169 23.2804 51.2169 25.6085C51.2169 27.9365 50.582 29.8413 48.9947 29.8413C47.3016 29.8413 46.7725 27.9365 46.7725 25.6085ZM28.6772 56.6138C28.8889 55.4497 28.9947 53.545 28.9947 51.3228V51.0053C28.9947 47.9365 28.8889 46.8783 26.7725 46.1376C23.5979 45.0794 22.2222 41.4815 22.963 37.037L12.381 9.94709C6.87831 14.8148 3.28042 22.0106 3.28042 29.9471C3.28042 44.2328 14.6032 55.9788 28.6772 56.6138ZM29.9471 39.3651C25.7143 38.4127 24.127 34.4974 24.127 31.1111L14.8148 8.04233C14.1799 8.46561 13.6508 8.88889 13.0159 9.41799C15.1323 14.2857 24.3386 36.1905 24.3386 36.1905C25.9259 40.1058 28.9947 38.836 29.6296 42.1164C29.8413 42.8571 29.8413 43.2804 29.8413 43.2804H30.1587C30.1587 43.2804 30.1587 42.963 30.3704 42.1164C31.1111 38.836 34.0741 40.2116 35.6614 36.1905C35.6614 36.1905 44.8677 14.2857 46.9841 9.41799C46.455 8.99471 45.8201 8.46561 45.1852 8.04233L35.873 31.0053C35.873 34.4974 34.2857 38.3069 29.9471 39.3651ZM29.9471 32.381C28.1481 31.9577 25.9259 30.1587 25.6085 27.9365C25.5026 27.0899 25.3968 26.7725 25.5026 25.0794L17.3545 6.45503C16.7196 6.77249 16.0847 7.19577 15.4497 7.61905C17.8836 13.1217 25.3968 29.9471 25.3968 29.9471C26.5608 32.4868 28.6772 32.4868 29.418 33.9683C29.8413 34.8148 29.8413 35.6614 29.9471 35.6614H30.2646C30.2646 35.5556 30.2646 34.8148 30.7937 33.9683C31.5344 32.4868 33.545 32.381 34.8148 29.9471C34.8148 29.9471 42.328 13.1217 44.7619 7.61905C44.127 7.19577 43.4921 6.77249 42.8571 6.45503L34.709 24.9735C34.8148 26.6667 34.709 26.9841 34.6032 27.8307C34.0741 30.1587 31.8519 31.9577 29.9471 32.381ZM30.0529 29.2064L30.1587 28.1481C30.6878 25.8201 32.381 26.1376 33.545 23.8095C33.545 23.7037 39.3651 11.3228 41.7989 6.13757C38.2011 4.33862 34.1799 3.28042 29.9471 3.28042C25.7143 3.28042 21.5873 4.33862 18.0952 6.13757C20.5291 11.3228 26.3492 23.8095 26.3492 23.8095C27.5132 26.1376 29.2064 25.8201 29.7355 28.1481L29.8413 29.2064H30.0529ZM56.7196 29.9471C56.7196 22.0106 53.2275 14.8148 47.619 9.94709L36.9312 37.1429C37.672 41.5873 36.2963 45.1852 33.1217 46.2434C31.0053 46.8783 30.8995 47.9365 30.8995 51.1111V51.4286C30.8995 53.6508 31.1111 55.5556 31.2169 56.7196C45.3968 55.9788 56.7196 44.2328 56.7196 29.9471ZM11.746 37.8836L12.4868 39.3651C12.8042 40 13.2275 40.6349 13.2275 40.6349L12.4868 41.0582C12.4868 41.0582 11.9577 40.2116 11.4286 39.1534C11.3228 39.2593 10.4762 39.6825 10.2646 39.6825C10.3704 39.7884 11.2169 41.4815 11.2169 41.4815L10.582 41.9048C10.582 41.9048 9.73545 40.2116 9.62963 40.1058C9.52381 40.2116 7.61905 41.164 7.61905 41.164L7.19577 40.2116L11.746 37.8836ZM14.6032 42.4339L15.2381 43.1746L11.3228 46.455L10.6878 45.7143L14.6032 42.4339ZM18.2011 45.8201L18.9418 46.3492L17.9894 51.746L17.1429 51.2169C17.1429 51.2169 17.3545 50.1587 17.3545 50.0529C17.3545 50.0529 16.8254 49.7355 16.2963 49.3122C15.7672 48.9947 15.3439 48.5714 15.2381 48.4656C15.1323 48.5714 14.1799 49.1005 14.1799 49.1005L13.4392 48.4656L18.2011 45.8201ZM15.873 48.1481C15.9788 48.254 16.2963 48.4656 16.6138 48.7831C16.9312 48.9947 17.3545 49.2063 17.4603 49.3122C17.4603 49.1005 17.8836 47.3016 17.9894 46.9841C17.672 47.09 16.0847 48.0423 15.873 48.1481ZM21.3757 47.8307C21.3757 47.8307 22.2222 48.254 23.3862 48.6772C24.2328 48.9947 24.8677 49.2063 25.5026 49.3122L25.291 50.0529C25.291 50.0529 24.6561 49.9471 23.5979 49.6296C23.4921 49.8413 22.2222 53.6508 22.2222 53.6508L21.2698 53.3333C21.2698 53.3333 22.6455 49.5238 22.6455 49.3122C21.6931 48.9947 21.0582 48.5714 21.0582 48.5714L21.3757 47.8307ZM37.4603 48.8889C37.7778 49.1005 37.9894 49.418 38.2011 49.8413C38.3069 50.0529 38.3069 50.1587 38.3069 50.3704C38.3069 51.1111 37.7778 51.6402 36.9312 51.9577C36.9312 51.9577 36.5079 52.0635 36.2963 52.1693C36.2963 52.381 36.9312 54.0741 36.9312 54.0741L35.9788 54.1799L34.4974 49.3122L35.873 48.8889C36.5079 48.6772 37.037 48.6772 37.4603 48.8889ZM35.5556 49.7355C35.5556 49.8413 35.9788 51.1111 35.9788 51.2169C36.1905 51.1111 36.6138 51.0053 36.6138 51.0053C36.7196 51.0053 37.037 50.7937 37.2487 50.582C37.2487 50.4762 37.3545 50.3704 37.3545 50.2645V50.0529C37.2487 49.8413 37.1429 49.7355 37.037 49.6296C36.7196 49.5238 36.4021 49.5238 36.1905 49.6296C36.0847 49.6296 35.6614 49.7355 35.5556 49.7355ZM40.4233 46.7725L44.8677 49.9471L44.127 50.4762C44.127 50.4762 43.2804 49.8413 43.1746 49.7355C43.1746 49.7355 42.6455 50.0529 42.2222 50.3704C41.7989 50.6878 41.2698 50.8995 41.164 50.8995C41.164 51.0053 41.3757 52.0635 41.3757 52.0635L40.5291 52.4868L39.7884 47.0899L40.4233 46.7725ZM40.9524 50.1587C41.0582 50.0529 41.3757 49.9471 41.7989 49.7355C42.1164 49.5238 42.328 49.418 42.4339 49.3122C42.2222 49.2063 40.8466 48.1481 40.6349 47.9365C40.6349 48.254 40.9524 49.9471 40.9524 50.1587ZM45.5026 42.328L49.3122 45.7143L48.6772 46.5608C48.6772 46.5608 45.0794 45.5026 44.5503 45.3968C44.9735 45.8201 47.1958 48.1481 47.1958 48.1481L46.455 48.6772L42.8571 44.9735L43.7037 44.2328C43.7037 44.2328 47.1958 45.291 47.7249 45.3968C47.3016 44.9735 44.8677 42.963 44.8677 42.963L45.5026 42.328ZM47.1958 39.6825L51.6402 42.2222L51.2169 42.963L46.7725 40.4233L47.1958 39.6825ZM49.2063 35.4497L49.9471 35.873L49.8413 35.9788C49.6296 36.2963 49.5238 36.4021 49.3122 36.8254C49.2063 36.9312 49.2063 37.2487 49.3122 37.4603C49.418 37.5661 49.5238 37.672 49.6296 37.672C49.9471 37.7778 50.2645 37.4603 50.582 37.1429C51.0053 36.6138 51.6402 36.0847 52.5926 36.4021C53.545 36.7196 53.8624 37.5661 53.4392 38.7302C53.3333 39.0476 53.1217 39.3651 52.9101 39.6825V39.7884L52.1693 39.4709L52.2751 39.3651C52.381 39.2593 52.6984 38.836 52.8042 38.5185C52.9101 38.2011 52.9101 37.5661 52.381 37.4603C51.9577 37.3545 51.6402 37.672 51.2169 37.9894C50.7937 38.4127 50.2646 39.0476 49.418 38.7302C48.9947 38.6243 48.7831 38.4127 48.5714 38.0952C48.3598 37.672 48.3598 37.2487 48.5714 36.7196C48.6772 36.1905 48.8889 35.7672 49.2063 35.4497Z" fill="#009EDB"/>
<path d="M75 6.01488H80.9259V7.708H77.1164V10.8826H80.7143V12.5757H77.1164V17.7609H75V6.01488ZM85.6878 8.97784C87.4868 8.97784 89.4974 9.93022 89.4974 13.4223C89.4974 17.126 87.4868 17.9726 85.6878 17.9726C83.8889 17.9726 81.7725 17.126 81.7725 13.4223C81.7725 9.8244 83.8889 8.97784 85.6878 8.97784ZM85.6878 16.3853C87.0635 16.3853 87.381 14.7979 87.381 13.4223C87.381 12.0466 87.0635 10.4593 85.6878 10.4593C84.3122 10.4593 83.9947 12.0466 83.9947 13.4223C83.9947 14.7979 84.3122 16.3853 85.6878 16.3853ZM94.7884 8.97784C96.5873 8.97784 98.5979 9.93022 98.5979 13.4223C98.5979 17.126 96.5873 17.9726 94.7884 17.9726C92.9894 17.9726 90.9788 17.126 90.9788 13.4223C90.873 9.8244 92.9894 8.97784 94.7884 8.97784ZM94.7884 16.3853C96.164 16.3853 96.4815 14.7979 96.4815 13.4223C96.4815 12.0466 96.164 10.4593 94.7884 10.4593C93.4127 10.4593 93.0952 12.0466 93.0952 13.4223C93.0952 14.7979 93.4127 16.3853 94.7884 16.3853ZM107.381 5.0625V16.2794C107.381 16.9144 107.381 17.4435 107.487 17.7609H105.476C105.476 17.5493 105.37 17.0202 105.37 16.3853C105.053 17.126 104.418 17.8667 103.042 17.8667C100.926 17.8667 99.9735 15.7503 99.9735 13.4223C99.9735 10.5651 101.138 8.87202 102.937 8.87202C104.206 8.87202 104.841 9.61276 105.159 10.2477V5.0625H107.381ZM103.677 16.3853C104.947 16.3853 105.37 15.0096 105.37 13.4223C105.37 11.7292 104.947 10.4593 103.783 10.4593C102.619 10.4593 102.196 11.6233 102.196 13.3165C102.09 15.327 102.407 16.3853 103.677 16.3853ZM114.153 9.61276C114.788 9.2953 115.529 8.97784 116.905 8.97784C119.656 8.97784 120.291 10.2477 120.291 12.4699V16.2794C120.291 16.9144 120.397 17.4435 120.397 17.8667H118.492C118.386 17.5493 118.386 17.126 118.386 16.7027C117.857 17.4435 117.222 17.9726 115.952 17.9726C114.577 17.9726 113.307 17.0202 113.307 15.4329C113.307 13.1048 115.212 12.4699 117.857 12.4699H118.28V12.1524C118.28 11.3059 117.857 10.4593 116.693 10.4593C115.635 10.4593 114.683 10.9884 114.259 11.3059L114.153 9.61276ZM118.28 13.5281H118.069C116.27 13.5281 115.212 13.9514 115.212 15.2212C115.212 16.0678 115.741 16.5969 116.587 16.5969C117.857 16.5969 118.28 15.6445 118.28 14.0572V13.5281ZM122.196 10.4593C122.196 9.93023 122.196 9.40112 122.09 8.97784H124.101C124.101 9.40112 124.206 9.8244 124.206 10.3535C124.524 9.8244 125.053 8.87202 126.534 8.87202C128.545 8.87202 129.074 10.3535 129.074 12.1524V17.7609H126.958V12.5757C126.958 11.2001 126.64 10.671 125.794 10.671C124.735 10.671 124.312 11.6233 124.312 12.6815V17.7609H122.196V10.4593ZM138.069 5.0625V16.2794C138.069 16.9144 138.069 17.4435 138.175 17.7609H136.164C136.164 17.5493 136.058 17.0202 136.058 16.3853C135.741 17.126 135.106 17.8667 133.73 17.8667C131.614 17.8667 130.661 15.7503 130.661 13.4223C130.661 10.5651 131.825 8.87202 133.624 8.87202C134.894 8.87202 135.529 9.61276 135.847 10.2477V5.0625H138.069ZM134.365 16.3853C135.635 16.3853 136.058 15.0096 136.058 13.4223C136.058 11.7292 135.635 10.4593 134.471 10.4593C133.307 10.4593 132.884 11.6233 132.884 13.3165C132.778 15.327 133.095 16.3853 134.365 16.3853ZM149.709 14.9038H145.688L144.841 17.7609H142.725L146.64 5.90906H148.968L152.778 17.7609H150.556L149.709 14.9038ZM149.286 13.3165L147.804 7.81382L146.217 13.3165H149.286ZM154.048 19.1366C154.577 19.454 155.529 19.8773 156.587 19.8773C158.598 19.8773 158.915 18.5017 158.915 17.126V16.2794C158.598 16.9144 157.963 17.7609 156.587 17.7609C155.423 17.7609 153.519 16.9144 153.519 13.4223C153.519 10.9884 154.365 8.87202 156.693 8.87202C157.963 8.87202 158.598 9.61276 159.021 10.3535H159.127C159.127 9.93022 159.127 9.50695 159.233 8.97784H161.138C161.138 9.40112 161.032 9.93022 161.032 10.3535V16.8085C161.032 19.5599 160.185 21.4646 157.011 21.4646C155.635 21.4646 154.471 21.1472 154.048 20.9355V19.1366ZM157.116 16.2794C158.386 16.2794 158.915 15.327 158.915 13.3165C158.915 11.5175 158.175 10.4593 157.222 10.5651C156.164 10.5651 155.741 11.6233 155.741 13.4223C155.741 15.4329 156.376 16.2794 157.116 16.2794ZM162.937 10.4593C162.937 9.93023 162.937 9.40112 162.831 8.97784H164.735C164.735 9.50695 164.841 10.036 164.841 10.5651C165.053 9.93023 165.794 8.87202 167.063 8.87202H167.381V10.8826C167.169 10.8826 166.958 10.7768 166.746 10.7768C165.899 10.7768 164.947 11.3059 164.947 12.8932V17.7609H162.831L162.937 10.4593ZM169.074 5.37996H171.19V7.49636H169.074V5.37996ZM169.074 9.08366H171.19V17.7609H169.074V9.08366ZM179.127 17.5493C178.598 17.7609 177.857 17.8667 177.011 17.8667C174.153 17.8667 172.884 15.8562 172.884 13.4223C172.884 10.8826 174.153 8.87202 177.116 8.87202C177.751 8.87202 178.598 9.08366 178.915 9.18948L178.81 10.8826C178.386 10.671 177.963 10.4593 177.328 10.4593C175.741 10.4593 175 11.5175 175 13.4223C175 15.0096 175.741 16.2794 177.434 16.2794C177.963 16.2794 178.598 16.0678 178.915 15.8562L179.127 17.5493ZM187.381 16.3853C187.381 16.9144 187.381 17.4435 187.487 17.8667H185.476C185.476 17.4435 185.37 17.0202 185.37 16.4911C184.947 17.126 184.418 17.9726 183.042 17.9726C181.032 17.9726 180.503 16.4911 180.503 14.6921V9.08366H182.619V14.2689C182.619 15.6445 183.042 16.1736 183.889 16.1736C185.053 16.1736 185.37 15.1154 185.37 14.0572V9.08366H187.487L187.381 16.3853ZM189.497 5.0625H191.614V17.7609H189.497V5.0625ZM194.365 7.28472L196.481 6.6498V9.08366H198.175V10.671H196.481V15.2212C196.481 16.1736 196.799 16.3853 197.434 16.3853C197.857 16.3853 198.069 16.2794 198.28 16.1736V17.6551C197.963 17.7609 197.54 17.9726 196.905 17.9726C195.317 17.9726 194.471 17.2318 194.471 15.4329V10.671H193.095V9.08366H194.471L194.365 7.28472ZM206.429 16.3853C206.429 16.9144 206.429 17.4435 206.534 17.8667H204.524C204.524 17.4435 204.418 17.0202 204.418 16.4911C203.995 17.126 203.466 17.9726 202.09 17.9726C200.079 17.9726 199.55 16.4911 199.55 14.6921V9.08366H201.667V14.2689C201.667 15.6445 202.09 16.1736 202.937 16.1736C204.101 16.1736 204.418 15.1154 204.418 14.0572V9.08366H206.534L206.429 16.3853ZM208.439 10.4593C208.439 9.93023 208.439 9.40112 208.333 8.97784H210.238C210.238 9.50695 210.344 10.036 210.344 10.5651C210.556 9.93023 211.296 8.87202 212.566 8.87202H212.884V10.8826C212.672 10.8826 212.46 10.7768 212.249 10.7768C211.402 10.7768 210.45 11.3059 210.45 12.8932V17.7609H208.333L208.439 10.4593ZM220.503 17.3376C220.079 17.5493 219.127 17.8667 217.857 17.8667C215 17.8667 213.836 15.8562 213.836 13.5281C213.836 10.8826 215.212 8.87202 217.434 8.87202C219.339 8.87202 220.926 9.93022 220.926 13.5281V13.9514H215.847C215.847 15.4329 216.481 16.3853 218.069 16.3853C219.339 16.3853 219.974 15.962 220.397 15.7503L220.503 17.3376ZM218.915 12.6815C218.915 11.0942 218.386 10.3535 217.434 10.3535C216.376 10.3535 215.847 11.5175 215.847 12.6815H218.915Z" fill="#009EDB"/>
<path d="M79.6561 24.3696C82.0899 24.3696 84.3121 26.1686 84.3121 30.4014C84.3121 34.6342 82.0899 36.4331 79.6561 36.4331C77.2222 36.4331 75 34.6342 75 30.4014C75 26.1686 77.2222 24.3696 79.6561 24.3696ZM79.6561 34.8458C81.0317 34.8458 82.0899 33.6818 82.0899 30.4014C82.0899 27.1209 81.0317 25.9569 79.6561 25.9569C78.2804 25.9569 77.2222 27.1209 77.2222 30.4014C77.2222 33.6818 78.2804 34.8458 79.6561 34.8458ZM86.2169 29.0257C86.2169 28.4966 86.2169 27.9675 86.1111 27.5442H88.0159C88.0159 28.0733 88.1217 28.6024 88.1217 29.1315C88.3333 28.4966 89.0741 27.4384 90.3439 27.4384H90.6614V29.449C90.4497 29.449 90.2381 29.3432 90.0264 29.3432C89.1799 29.3432 88.2275 29.8723 88.2275 31.4596V36.3273H86.1111L86.2169 29.0257ZM92.1429 37.7029C92.672 38.0204 93.6243 38.4437 94.6825 38.4437C96.6931 38.4437 97.0106 37.068 97.0106 35.6924V34.8458C96.6931 35.4807 96.0582 36.3273 94.6825 36.3273C93.4127 36.3273 91.6138 35.4807 91.6138 31.9887C91.6138 29.5548 92.4603 27.4384 94.7883 27.4384C96.0582 27.4384 96.6931 28.1791 97.1164 28.9199H97.2222C97.2222 28.4966 97.2222 28.0733 97.328 27.5442H99.2328C99.2328 27.9675 99.127 28.4966 99.127 28.9199V35.3749C99.127 38.1262 98.2804 40.031 95.1058 40.031C93.7302 40.031 92.5661 39.7135 92.1429 39.5019V37.7029ZM95.2116 34.8458C96.4815 34.8458 97.0106 33.8934 97.0106 31.8828C97.0106 30.0839 96.2698 29.0257 95.3175 29.1315C94.2593 29.1315 93.836 30.1897 93.836 31.9887C93.836 33.9992 94.4709 34.8458 95.2116 34.8458ZM101.455 28.1791C102.09 27.8617 102.831 27.5442 104.206 27.5442C106.958 27.5442 107.487 28.8141 107.487 31.0363V34.8458C107.487 35.4807 107.593 36.0098 107.593 36.4331H105.688C105.582 36.1156 105.582 35.6924 105.582 35.2691C105.053 36.0098 104.418 36.5389 103.148 36.5389C101.772 36.5389 100.503 35.5865 100.503 33.9992C100.503 31.6712 102.407 31.0363 105.053 31.0363H105.476V30.7188C105.476 29.8723 105.053 29.0257 103.889 29.0257C102.831 29.0257 101.878 29.5548 101.455 29.8723V28.1791ZM105.582 32.0945H105.37C103.571 32.0945 102.513 32.5178 102.513 33.7876C102.513 34.6342 103.042 35.1633 103.889 35.1633C105.159 35.1633 105.582 34.2109 105.582 32.6236V32.0945ZM109.392 29.0257C109.392 28.4966 109.392 27.9675 109.286 27.5442H111.296C111.296 27.9675 111.402 28.3908 111.402 28.9199C111.72 28.3908 112.249 27.4384 113.73 27.4384C115.741 27.4384 116.27 28.9199 116.27 30.7188V36.3273H114.153V31.1421C114.153 29.7664 113.836 29.2373 112.989 29.2373C111.931 29.2373 111.508 30.1897 111.508 31.2479V36.3273H109.392V29.0257ZM118.386 23.9463H120.503V26.0627H118.386V23.9463ZM118.386 27.65H120.503V36.3273H118.386V27.65ZM122.196 34.5283L125.899 29.2373H122.302V27.65H128.016V29.449L124.312 34.74H128.122V36.3273H122.196V34.5283ZM129.921 28.1791C130.556 27.8617 131.296 27.5442 132.672 27.5442C135.423 27.5442 135.952 28.8141 135.952 31.0363V34.8458C135.952 35.4807 136.058 36.0098 136.058 36.4331H134.153C134.048 36.1156 134.048 35.6924 134.048 35.2691C133.519 36.0098 132.884 36.5389 131.614 36.5389C130.238 36.5389 128.968 35.5865 128.968 33.9992C128.968 31.6712 130.873 31.0363 133.519 31.0363H133.942V30.7188C133.942 29.8723 133.518 29.0257 132.354 29.0257C131.296 29.0257 130.344 29.5548 129.921 29.8723V28.1791ZM134.048 32.0945H133.836C132.037 32.0945 130.979 32.5178 130.979 33.7876C130.979 34.6342 131.508 35.1633 132.354 35.1633C133.624 35.1633 134.048 34.2109 134.048 32.6236V32.0945ZM138.704 25.8511L140.82 25.2162V27.65H142.513V29.2373H140.82V33.7876C140.82 34.74 141.138 34.9516 141.772 34.9516C142.196 34.9516 142.407 34.8458 142.619 34.74V36.2215C142.302 36.3273 141.878 36.5389 141.243 36.5389C139.656 36.5389 138.81 35.7982 138.81 33.9992V29.2373H137.328V27.65H138.704V25.8511ZM144.101 23.9463H146.217V26.0627H144.101V23.9463ZM144.101 27.65H146.217V36.3273H144.101V27.65ZM151.931 27.5442C153.73 27.5442 155.741 28.4966 155.741 31.9887C155.741 35.6924 153.73 36.5389 151.931 36.5389C150.132 36.5389 148.122 35.6924 148.122 31.9887C148.122 28.3908 150.132 27.5442 151.931 27.5442ZM151.931 34.9516C153.307 34.9516 153.624 33.3643 153.624 31.9887C153.624 30.613 153.307 29.0257 151.931 29.0257C150.556 29.0257 150.238 30.613 150.238 31.9887C150.238 33.3643 150.556 34.9516 151.931 34.9516ZM157.434 29.0257C157.434 28.4966 157.434 27.9675 157.328 27.5442H159.339C159.339 27.9675 159.444 28.3908 159.444 28.9199C159.762 28.3908 160.291 27.4384 161.772 27.4384C163.783 27.4384 164.312 28.9199 164.312 30.7188V36.3273H162.196V31.1421C162.196 29.7664 161.878 29.2373 161.032 29.2373C159.974 29.2373 159.55 30.1897 159.55 31.2479V36.3273H157.434V29.0257ZM175.429 27.5918C177.228 27.5918 179.238 28.5442 179.238 32.0363C179.238 35.74 177.228 36.5865 175.429 36.5865C173.63 36.5865 171.513 35.74 171.513 32.1421C171.513 28.5442 173.63 27.5918 175.429 27.5918ZM175.429 35.1051C176.804 35.1051 177.122 33.5178 177.122 32.1421C177.122 30.7664 176.804 29.1791 175.429 29.1791C174.053 29.1791 173.735 30.7664 173.735 32.1421C173.735 33.5178 174.053 35.1051 175.429 35.1051ZM181.566 29.285H180.085V27.6977H181.566V25.8987C181.566 24.6289 182.201 23.4648 184.106 23.4648C184.635 23.4648 185.164 23.5707 185.587 23.6765L185.481 25.158C185.27 25.0522 184.952 25.0521 184.635 25.0521C184 25.0521 183.683 25.4754 183.683 26.1104V27.5918H185.27V29.1791H183.683V36.3749H181.566V29.285ZM191.725 26.0045L193.841 25.3696V27.8035H195.534V29.3908H193.735V33.941C193.735 34.8934 194.053 35.1051 194.688 35.1051C195.111 35.1051 195.323 34.9992 195.534 34.8934V36.3749C195.217 36.4807 194.794 36.6924 194.159 36.6924C192.571 36.6924 191.725 35.9516 191.725 34.1527V29.3908H190.349V27.8035H191.725V26.0045ZM196.91 23.7823H199.026V28.8617C199.45 28.3326 199.873 27.5918 201.143 27.5918C203.153 27.5918 203.683 29.0733 203.683 30.8723V36.4807H201.566V31.2955C201.566 29.9199 201.249 29.3908 200.402 29.3908C199.344 29.3908 198.921 30.3432 198.921 31.4014V36.4807H196.804L196.91 23.7823ZM212.042 36.0574C211.619 36.2691 210.667 36.5865 209.397 36.5865C206.54 36.5865 205.376 34.576 205.376 32.2479C205.376 29.6024 206.751 27.5918 208.974 27.5918C210.878 27.5918 212.466 28.65 212.466 32.2479V32.6712H207.386C207.386 34.1527 208.021 35.1051 209.608 35.1051C210.878 35.1051 211.513 34.6818 211.937 34.4701L212.042 36.0574ZM210.455 31.4014C210.455 29.8141 209.926 29.0733 208.974 29.0733C207.915 29.0733 207.386 30.2373 207.386 31.4014H210.455Z" fill="#009EDB"/>
<path d="M77.2222 42.8778V50.4969C77.2222 52.5074 77.8571 53.1424 79.127 53.1424C80.3968 53.1424 80.9259 52.5074 80.9259 50.4969V42.8778H83.0423V50.4969C83.0423 53.5656 81.2434 54.8355 79.0212 54.8355C76.7989 54.8355 75 53.5656 75 50.4969V42.8778H77.2222ZM85.2645 47.4281C85.2645 46.899 85.2645 46.3699 85.1587 45.9466H87.1693C87.1693 46.3699 87.2751 46.7932 87.2751 47.3223C87.5926 46.7932 88.1217 45.8408 89.6032 45.8408C91.6138 45.8408 92.1429 47.3223 92.1429 49.1212V54.7297H90.0265V49.5445C90.0265 48.1688 89.709 47.6397 88.8624 47.6397C87.8042 47.6397 87.381 48.5921 87.381 49.6503V54.7297H85.2645V47.4281ZM94.1534 42.3487H96.2698V44.4651H94.1534V42.3487ZM94.2593 46.0524H96.3757V54.7297H94.2593V46.0524ZM99.2328 44.2535L101.349 43.6185V46.0524H103.042V47.6397H101.349V52.19C101.349 53.1424 101.667 53.354 102.302 53.354C102.725 53.354 102.937 53.2482 103.148 53.1424V54.6238C102.831 54.7297 102.407 54.9413 101.772 54.9413C100.185 54.9413 99.3386 54.2006 99.3386 52.4016V47.6397H97.7513V46.0524H99.127L99.2328 44.2535ZM110.767 54.3064C110.344 54.518 109.392 54.8355 108.122 54.8355C105.265 54.8355 104.101 52.8249 104.101 50.4969C104.101 47.8514 105.476 45.8408 107.698 45.8408C109.603 45.8408 111.19 46.899 111.19 50.4969V50.9201H106.111C106.111 52.4016 106.746 53.354 108.333 53.354C109.603 53.354 110.238 52.9307 110.661 52.7191L110.767 54.3064ZM109.18 49.6503C109.18 48.063 108.651 47.3223 107.698 47.3223C106.64 47.3223 106.111 48.4863 106.111 49.6503H109.18ZM119.974 42.0312V53.2482C119.974 53.8831 119.974 54.4122 120.079 54.7297H118.069C118.069 54.518 117.963 53.9889 117.963 53.354C117.646 54.0947 117.011 54.8355 115.635 54.8355C113.519 54.8355 112.566 52.7191 112.566 50.391C112.566 47.5339 113.73 45.8408 115.529 45.8408C116.799 45.8408 117.434 46.5815 117.751 47.2164V42.0312H119.974ZM116.164 53.354C117.434 53.354 117.857 51.9783 117.857 50.391C117.857 48.6979 117.434 47.4281 116.27 47.4281C115.106 47.4281 114.683 48.5921 114.683 50.2852C114.683 52.2958 115 53.354 116.164 53.354ZM126.534 42.8778H129.074L132.989 52.19V42.8778H135V54.7297H132.46L128.545 45.5233V54.7297H126.534V42.8778ZM137.646 46.4757C138.28 46.1582 139.021 45.8408 140.397 45.8408C143.148 45.8408 143.677 47.1106 143.677 49.3328V53.1424C143.677 53.7773 143.783 54.3064 143.783 54.7297H141.878C141.772 54.4122 141.772 53.9889 141.772 53.5656C141.243 54.3064 140.608 54.8355 139.339 54.8355C137.963 54.8355 136.693 53.8831 136.693 52.2958C136.693 49.9678 138.598 49.3328 141.243 49.3328H141.667V49.0154C141.667 48.1688 141.243 47.3223 140.079 47.3223C139.021 47.3223 138.069 47.8514 137.646 48.1688V46.4757ZM141.772 50.4969H141.561C139.762 50.4969 138.704 50.9201 138.704 52.19C138.704 53.0365 139.233 53.5656 140.079 53.5656C141.349 53.5656 141.772 52.6133 141.772 51.1318V50.4969ZM146.534 44.2535L148.651 43.6185V46.0524H150.344V47.6397H148.545V52.19C148.545 53.1424 148.862 53.354 149.497 53.354C149.921 53.354 150.132 53.2482 150.344 53.1424V54.6238C150.026 54.7297 149.603 54.9413 148.968 54.9413C147.381 54.9413 146.534 54.2006 146.534 52.4016V47.6397H145.159V46.0524H146.534V44.2535ZM151.825 42.3487H153.942V44.4651H151.825V42.3487ZM151.825 46.0524H153.942V54.7297H151.825V46.0524ZM159.656 45.8408C161.455 45.8408 163.466 46.7932 163.466 50.2852C163.466 53.9889 161.455 54.8355 159.656 54.8355C157.857 54.8355 155.847 53.9889 155.847 50.2852C155.847 46.7932 157.857 45.8408 159.656 45.8408ZM159.656 53.354C161.032 53.354 161.349 51.7667 161.349 50.391C161.349 49.0154 161.032 47.4281 159.656 47.4281C158.28 47.4281 157.963 49.0154 157.963 50.391C157.963 51.7667 158.28 53.354 159.656 53.354ZM165.159 47.4281C165.159 46.899 165.159 46.3699 165.053 45.9466H167.063C167.063 46.3699 167.169 46.7932 167.169 47.3223C167.487 46.7932 168.016 45.8408 169.497 45.8408C171.508 45.8408 172.037 47.3223 172.037 49.1212V54.7297H169.921V49.5445C169.921 48.1688 169.603 47.6397 168.757 47.6397C167.698 47.6397 167.275 48.5921 167.275 49.6503V54.7297H165.159V47.4281ZM173.73 52.7191C174.048 52.8249 174.894 53.2482 175.952 53.2482C176.693 53.2482 177.328 53.0365 177.328 52.4016C177.328 52.0842 177.116 51.7667 176.376 51.3434L175.529 50.8143C174.683 50.2852 173.73 49.7561 173.73 48.3805C173.73 47.2164 174.894 45.9466 176.693 45.9466C177.857 45.9466 178.704 46.2641 178.915 46.2641L178.81 47.8514C178.28 47.6397 177.751 47.4281 177.011 47.4281C176.164 47.4281 175.847 47.7455 175.847 48.2746C175.847 48.6979 176.27 49.0154 176.799 49.4387L177.857 50.0736C178.915 50.8143 179.444 51.2376 179.444 52.2958C179.444 53.8831 178.069 54.8355 176.164 54.8355C175.106 54.8355 174.153 54.6238 173.73 54.4122V52.7191Z" fill="#009EDB"/>
</svg>
