<svg width="24" height="23" viewBox="0 0 24 23" fill="none" xmlns="http://www.w3.org/2000/svg">
<g opacity="0.3" clip-path="url(#clip0_1137_8466)">
<path d="M17.8637 5.97046V19.1571H4.67712V21.0408H17.8637C18.8998 21.0408 19.7475 20.1931 19.7475 19.1571V5.97046H17.8637Z" fill="#222222"/>
<path d="M14.0961 2.20288H2.79328C1.75719 2.20288 0.909485 3.05059 0.909485 4.08668V15.3895C0.909485 16.4256 1.75719 17.2733 2.79328 17.2733H14.0961C15.1322 17.2733 15.9799 16.4256 15.9799 15.3895V4.08668C15.9799 3.05059 15.1322 2.20288 14.0961 2.20288ZM7.50278 15.3895H2.79328V10.68H7.50278V15.3895ZM14.0961 15.3895H9.38658V10.68H14.0961V15.3895ZM14.0961 8.79618H2.79328V4.08668H14.0961V8.79618Z" fill="#222222"/>
</g>
<defs>
<clipPath id="clip0_1137_8466">
<rect width="22.6056" height="22.6056" fill="white" transform="translate(0.573303 0.319092)"/>
</clipPath>
</defs>
</svg>
