<svg width="21" height="20" viewBox="0 0 21 20" fill="none" xmlns="http://www.w3.org/2000/svg">
<path id="Vector" fill-rule="evenodd" clip-rule="evenodd" d="M10.6124 0C16.1978 0 20.7247 4.47685 20.7247 10C20.7247 15.5231 16.1978 20 10.6124 20C5.02764 20 0.5 15.5231 0.5 10C0.5 4.47685 5.02764 0 10.6124 0ZM16.391 6.2782C16.3761 6.1439 16.3594 6.01047 16.3419 5.88056C16.0917 6.00872 15.8292 6.14216 15.5606 6.27996C15.6896 6.53715 15.8125 6.80312 15.9372 7.07348C15.9047 7.2508 15.8705 7.43252 15.8371 7.61157C16.0969 7.64405 16.3524 7.6739 16.6025 7.7055C16.5393 7.40442 16.4674 7.10948 16.3989 6.82067C16.2927 6.67671 16.1926 6.53186 16.089 6.39318C16.1882 6.35456 16.2909 6.31595 16.391 6.2782ZM15.5106 17.4589C17.8254 15.9201 18.6672 13.0355 18.6654 13.0339C19.0964 11.5601 19.4361 10.2996 19.4212 10.2319C19.4054 10.1652 19.2553 10.1038 19.128 10.2477C19.0016 10.3917 18.6189 10.8701 18.6162 10.9649C18.6145 11.0588 18.5566 11.3713 18.4986 11.4512C18.4389 11.5328 18.2239 11.5469 18.1607 11.2985C18.0975 11.0518 17.8315 10.2644 17.7411 10.1257C17.6498 9.98612 17.1995 9.56827 16.9607 9.51034C16.7219 9.45241 15.9828 9.23735 15.9038 9.16272C15.8266 9.08899 15.5817 8.90992 15.5439 8.93362C15.5044 8.95732 15.4517 9.14166 15.5123 9.28913C15.572 9.43572 15.7985 9.78508 15.8863 9.73769C15.9749 9.68941 16.2944 9.64376 16.4077 9.74208C16.5218 9.84039 16.5358 10.2802 16.204 10.5058C15.8704 10.7331 14.7802 11.0219 14.5968 10.6313C14.4133 10.2407 13.8612 9.20397 13.8199 9.21012C13.7787 9.21714 13.8331 9.62446 14.0367 10.0985C14.2421 10.5734 14.8785 11.7031 15.0673 11.6083C15.2569 11.5126 15.687 11.4354 15.6238 11.6487C15.5597 11.8611 15.2226 12.559 15.0278 12.7363C14.8338 12.9136 14.3194 13.5641 14.3264 13.8002C14.3334 14.0363 14.2474 14.6762 14.1368 14.7509C14.0271 14.8272 13.5522 15.2495 13.3275 15.5312C13.1027 15.8139 12.3873 16.4319 12.2091 16.4538C12.0309 16.474 11.4481 16.3274 11.3032 16.0834C11.1584 15.8411 10.7634 14.9019 10.8055 14.743C10.8468 14.5832 10.8705 13.881 10.759 13.5641C10.6475 13.249 10.0322 12.3843 9.6477 12.4054C9.26235 12.4265 8.09397 12.308 7.87891 12.1025C7.66385 11.898 7.13365 11.0773 7.16437 10.7393C7.19509 10.4014 7.46019 9.30322 7.66736 9.05129C7.87452 8.7976 8.75585 8.07781 9.15875 8.00583C9.56165 7.93385 10.644 7.83729 10.6686 7.94263C10.6932 8.04621 10.8977 8.41049 11.0636 8.51847C11.2304 8.62556 11.7237 8.83624 11.7852 8.74845C11.8501 8.66154 12.2197 8.48334 12.4716 8.54918C12.7227 8.61414 13.4258 8.75898 13.489 8.72123C13.5531 8.68349 13.7339 8.5088 13.7585 8.41838C13.783 8.32621 13.7102 8.06022 13.5416 8.0295C13.374 7.99966 12.8771 7.84253 12.8192 7.7486C12.7613 7.65468 12.5761 7.3931 12.5357 7.37377C12.4953 7.35358 12.3601 7.39572 12.3276 7.51071C12.2952 7.6257 12.1459 7.85921 12.0687 7.7644C11.9906 7.66959 11.7861 7.36235 11.7904 7.28512C11.7939 7.20787 11.722 6.94716 11.6193 6.87078C11.5157 6.79441 11.2023 6.57671 11.1409 6.54862C11.0803 6.52053 10.9249 6.50824 10.9319 6.58198C10.9381 6.65572 11.0557 6.91643 11.1821 6.99719C11.3094 7.07707 11.5912 7.35007 11.5271 7.42205C11.4621 7.49315 11.2146 7.59058 11.1207 7.47384C11.0268 7.35621 10.7344 6.99631 10.6686 6.92608C10.6028 6.85674 10.3078 6.73033 10.156 6.80143C10.0041 6.87166 9.51342 7.19206 9.40369 7.35006C9.29396 7.50807 8.87524 7.92152 8.71461 7.89869C8.55397 7.87587 8.13351 7.66168 8.13263 7.46856C8.13176 7.27543 8.29678 6.79265 8.49605 6.80141C8.69531 6.81018 9.1825 6.7584 9.12104 6.6636C9.06047 6.56792 8.87614 6.26243 8.84101 6.18782C8.80502 6.11321 8.84102 5.88849 8.99376 5.84196C9.14562 5.79631 9.61524 5.60319 9.70038 5.50926C9.78553 5.41533 10.0638 5.16955 10.1305 5.16339C10.1972 5.159 10.3587 5.11073 10.3465 5.06157C10.3342 5.01329 10.3342 4.85265 10.3772 4.81051C10.4211 4.76662 10.5598 4.7122 10.5914 4.78242C10.623 4.85265 10.8582 5.04928 11.0426 5.05454C11.2287 5.0598 11.7501 4.99221 11.7949 4.89039C11.8423 4.78856 12.0134 4.5498 12.0819 4.5691C12.153 4.58754 12.3127 4.58403 12.2847 4.52083C12.2557 4.4585 12.2618 4.27856 12.3619 4.25923C12.462 4.23904 12.6964 4.16706 12.6604 4.1416C12.6244 4.11615 12.4602 4.06084 12.3698 4.07577C12.2811 4.08981 12.0099 4.08893 11.9722 4.03802C11.9327 3.98623 11.8326 3.85895 11.8273 3.85895C11.822 3.85807 11.8115 3.85456 11.8133 3.85105C11.815 3.84666 11.8071 3.82296 11.7913 3.80364C11.7764 3.78433 11.7667 3.72464 11.8001 3.7106C11.8343 3.69655 11.9406 3.63072 11.9651 3.59034C11.9888 3.55084 12.0257 3.44901 11.9923 3.44725C11.959 3.44462 11.8308 3.46042 11.7834 3.49114C11.7351 3.52187 11.5727 3.65178 11.5315 3.70796C11.4894 3.76326 11.4226 3.95376 11.4771 3.98886C11.5324 4.02309 11.6403 4.20217 11.5929 4.2996C11.5455 4.39704 11.3489 4.69461 11.2673 4.71744C11.1839 4.74115 10.9241 4.71744 10.8784 4.60772C10.8319 4.49799 10.6335 4.26185 10.5387 4.29785C10.443 4.33384 10.1542 4.42514 10.1094 4.40582C10.0655 4.38739 9.95581 4.26099 9.96547 4.16706C9.976 4.07401 10.0691 3.8256 10.1498 3.78872C10.2297 3.75273 10.4895 3.6035 10.5554 3.52713C10.6203 3.44988 10.9003 3.26466 11.0478 3.23744C11.1944 3.20935 11.8589 3.16722 12.2153 3.18741C12.5708 3.2076 13.992 3.26377 14.5573 3.24534C15.1226 3.22515 15.5615 2.82487 14.9242 2.38246L14.2782 2.08664C14.251 2.07523 14.2229 2.06206 14.1957 2.05065C14.1254 2.01905 14.0535 1.98833 13.9815 1.95848C13.8998 1.92513 13.8182 1.89353 13.7366 1.8628C13.7076 1.85139 13.6786 1.84086 13.6497 1.83032C12.7095 1.48974 11.6948 1.30363 10.6371 1.30363C8.53473 1.30363 7.5227 1.87772 7.5227 1.87772C6.18493 2.63702 5.13147 3.26466 5.18248 3.27255C5.19477 3.2743 5.2132 3.28133 5.23602 3.29098C5.25446 3.28659 5.2685 3.28308 5.2764 3.28396C5.29484 3.28659 5.32468 3.31995 5.35716 3.36472C5.3914 3.39281 5.42036 3.42353 5.43265 3.45513C5.44407 3.48322 5.46601 3.53501 5.48883 3.59207C5.49322 3.60261 5.49937 3.61314 5.502 3.62104C5.5178 3.65527 5.53711 3.70619 5.55643 3.75973C5.58013 3.8203 5.60032 3.87122 5.60558 3.88965C5.60646 3.89404 5.60734 3.8993 5.60734 3.90457C5.62051 3.94232 5.63016 3.97392 5.63543 3.98972C5.6407 4.00991 5.61612 4.05907 5.57749 4.117C5.56082 4.16879 5.53799 4.21795 5.50639 4.24955C5.45021 4.30749 5.32732 4.44794 5.2448 4.55328C5.18862 4.63931 5.13946 4.72797 5.12893 4.75869C5.12366 4.77625 5.09469 4.80609 5.0587 4.83769C5.03325 4.87192 5.00603 4.90089 4.98321 4.91406C4.94283 4.93688 4.84803 5.03256 4.77341 5.13527C4.70846 5.27396 4.63735 5.46621 4.61365 5.56012C4.57678 5.70671 4.48373 5.81819 4.40825 5.80767C4.33188 5.79714 4.10539 5.54873 4.06503 5.27747C4.02465 5.00711 3.78589 4.57084 3.58312 4.82891C3.3821 5.08697 2.9353 5.80942 2.94847 5.79801C2.95023 5.79625 2.95374 5.79889 2.95725 5.80591C2.96603 5.78835 2.97305 5.77782 2.9748 5.77694C2.98007 5.77167 3.01694 5.91563 3.06522 6.11314C3.08716 6.19302 3.10999 6.28256 3.13017 6.38087C3.13193 6.38614 3.13281 6.39316 3.13369 6.39755C3.18987 6.63193 3.2478 6.87771 3.28555 7.03483C3.31978 7.17265 3.27852 7.35083 3.20479 7.5264C3.19162 7.74322 3.15651 7.91703 3.08365 7.9653C2.88088 8.10224 2.32785 8.53939 2.22253 8.64297C2.11631 8.74655 1.84244 9.33908 1.80381 9.73935V10.1133V10.8673C1.95391 11.653 2.1479 12.3219 2.23394 12.3509C2.25852 12.3596 2.31031 12.3851 2.37176 12.4202C2.37966 12.407 2.38844 12.4009 2.39985 12.4044C2.43408 12.4149 2.52801 12.4904 2.64124 12.5896C2.73341 12.6546 2.82207 12.7248 2.88263 12.7898C2.91775 12.8266 2.96778 12.881 3.02484 12.9443C3.09857 13.0145 3.16353 13.0768 3.20918 13.1198C3.27765 13.1865 3.35753 13.2936 3.4339 13.4077C3.53836 13.5332 3.61912 13.6404 3.63579 13.6869C3.66388 13.7703 3.81926 13.9897 3.99746 14.1776C4.25377 14.3768 4.62069 14.6209 4.80415 14.7165C5.09296 14.8675 5.26501 15.2037 5.186 15.4609C5.10699 15.7181 4.86209 16.3054 4.75499 16.3089C4.64789 16.3106 5.40806 17.0269 6.67914 17.8933C6.67914 17.8933 8.18633 18.9212 10.6371 18.9212C12.1575 18.9212 13.5875 18.5385 14.8367 17.8644C14.8604 17.8503 14.8832 17.838 14.9069 17.824C14.9982 17.7739 15.0895 17.7221 15.1799 17.6686C15.251 17.6247 15.3221 17.5791 15.3932 17.5352C15.4327 17.5097 15.4722 17.4851 15.5108 17.4588L15.5106 17.4589ZM15.012 6.66719C14.4976 6.39508 13.9753 6.1247 13.4538 5.86838C13.3099 6.11153 13.1677 6.37049 13.0176 6.63119C13.0931 6.75672 13.1703 6.88137 13.2458 7.0104C13.5478 6.97003 13.8418 6.92789 14.1333 6.89014C14.3483 6.95247 14.5704 7.01655 14.7846 7.08414C14.8601 6.94106 14.9382 6.80151 15.012 6.66719Z" fill="#F2F3F9"/>
</svg>
