<svg width="618" height="202" viewBox="0 0 618 202" fill="none" xmlns="http://www.w3.org/2000/svg">
<rect width="618" height="202" fill="white"/>
<path d="M9.59304 10.0994C9.12429 10.0994 8.70644 10.0189 8.33949 9.85795C7.97491 9.69697 7.6849 9.47325 7.46946 9.18679C7.25639 8.89796 7.14039 8.56297 7.12145 8.18182H8.01634C8.03527 8.41619 8.11577 8.61861 8.25781 8.78906C8.39986 8.95715 8.5857 9.08736 8.81534 9.17969C9.04498 9.27202 9.29948 9.31818 9.57884 9.31818C9.89134 9.31818 10.1683 9.26373 10.4098 9.15483C10.6513 9.04593 10.8407 8.89441 10.978 8.70028C11.1153 8.50616 11.1839 8.28125 11.1839 8.02557C11.1839 7.75805 11.1177 7.52249 10.9851 7.31889C10.8525 7.11293 10.6584 6.95194 10.4027 6.83594C10.147 6.71993 9.83452 6.66193 9.4652 6.66193H8.88281V5.88068H9.4652C9.75402 5.88068 10.0073 5.8286 10.2251 5.72443C10.4453 5.62026 10.617 5.47348 10.7401 5.28409C10.8655 5.0947 10.9283 4.87216 10.9283 4.61648C10.9283 4.37026 10.8738 4.15601 10.7649 3.97372C10.656 3.79143 10.5021 3.64938 10.3033 3.54759C10.1068 3.44579 9.87476 3.39489 9.60724 3.39489C9.3563 3.39489 9.11956 3.44105 8.89702 3.53338C8.67685 3.62334 8.49692 3.75473 8.35724 3.92756C8.21757 4.09801 8.14181 4.30398 8.12997 4.54545H7.2777C7.2919 4.1643 7.40672 3.83049 7.62216 3.54403C7.83759 3.25521 8.11932 3.0303 8.46733 2.86932C8.81771 2.70833 9.20241 2.62784 9.62145 2.62784C10.0713 2.62784 10.4571 2.71899 10.7791 2.90128C11.1011 3.0812 11.3485 3.31913 11.5213 3.61506C11.6941 3.91098 11.7805 4.23059 11.7805 4.57386C11.7805 4.98343 11.6728 5.33262 11.4574 5.62145C11.2443 5.91027 10.9543 6.11032 10.5874 6.22159V6.27841C11.0466 6.35417 11.4053 6.54948 11.6634 6.86435C11.9214 7.17685 12.0504 7.56392 12.0504 8.02557C12.0504 8.42093 11.9427 8.77604 11.7273 9.09091C11.5142 9.40341 11.223 9.64962 10.8537 9.82955C10.4844 10.0095 10.0642 10.0994 9.59304 10.0994ZM15.875 10.0994C15.34 10.0994 14.8842 9.95384 14.5078 9.66264C14.1314 9.36908 13.8438 8.94413 13.6449 8.38778C13.446 7.82907 13.3466 7.15436 13.3466 6.36364C13.3466 5.57765 13.446 4.90649 13.6449 4.35014C13.8461 3.79143 14.1349 3.36529 14.5114 3.07173C14.8902 2.7758 15.3447 2.62784 15.875 2.62784C16.4053 2.62784 16.8587 2.7758 17.2351 3.07173C17.6139 3.36529 17.9027 3.79143 18.1016 4.35014C18.3028 4.90649 18.4034 5.57765 18.4034 6.36364C18.4034 7.15436 18.304 7.82907 18.1051 8.38778C17.9062 8.94413 17.6186 9.36908 17.2422 9.66264C16.8658 9.95384 16.41 10.0994 15.875 10.0994ZM15.875 9.31818C16.4053 9.31818 16.8172 9.0625 17.1108 8.55114C17.4044 8.03977 17.5511 7.31061 17.5511 6.36364C17.5511 5.7339 17.4837 5.19768 17.3487 4.75497C17.2161 4.31226 17.0244 3.97491 16.7734 3.7429C16.5249 3.51089 16.2254 3.39489 15.875 3.39489C15.3494 3.39489 14.9387 3.65412 14.6428 4.17259C14.3468 4.68868 14.1989 5.41903 14.1989 6.36364C14.1989 6.99337 14.2652 7.52841 14.3977 7.96875C14.5303 8.40909 14.7209 8.74408 14.9695 8.97372C15.2204 9.20336 15.5223 9.31818 15.875 9.31818Z" fill="#7B8092"/>
<path d="M7.61417 38.668V38.0288L10.0147 35.4009C10.2965 35.0932 10.5285 34.8256 10.7108 34.5984C10.8931 34.3687 11.028 34.1533 11.1156 33.9521C11.2056 33.7485 11.2505 33.5354 11.2505 33.3129C11.2505 33.0572 11.189 32.8358 11.0659 32.6488C10.9451 32.4618 10.7794 32.3174 10.5687 32.2156C10.358 32.1138 10.1213 32.0629 9.85849 32.0629C9.57913 32.0629 9.33529 32.1209 9.12695 32.2369C8.92099 32.3505 8.76119 32.5103 8.64755 32.7163C8.53628 32.9222 8.48065 33.1637 8.48065 33.4407H7.64258C7.64258 33.0146 7.74083 32.6405 7.93732 32.3185C8.13382 31.9966 8.40134 31.7456 8.73988 31.5657C9.08079 31.3858 9.46313 31.2958 9.8869 31.2958C10.313 31.2958 10.6906 31.3858 11.0197 31.5657C11.3488 31.7456 11.6068 31.9883 11.7939 32.2937C11.9809 32.5991 12.0744 32.9388 12.0744 33.3129C12.0744 33.5804 12.0259 33.842 11.9288 34.0977C11.8341 34.351 11.6684 34.6339 11.4316 34.9464C11.1973 35.2565 10.8717 35.6353 10.4551 36.0827L8.82156 37.8299V37.8867H12.2022V38.668H7.61417ZM15.9416 38.7674C15.5249 38.7674 15.1497 38.6845 14.8159 38.5188C14.4821 38.3531 14.2145 38.1258 14.0133 37.837C13.8121 37.5482 13.702 37.2191 13.6831 36.8498H14.5353C14.5685 37.1789 14.7176 37.4511 14.9828 37.6665C15.2503 37.8796 15.5699 37.9862 15.9416 37.9862C16.2399 37.9862 16.505 37.9163 16.737 37.7766C16.9714 37.637 17.1549 37.4452 17.2875 37.2013C17.4224 36.9551 17.4899 36.677 17.4899 36.3668C17.4899 36.0496 17.42 35.7667 17.2804 35.5181C17.1431 35.2672 16.9537 35.0695 16.7122 34.9251C16.4707 34.7807 16.1949 34.7073 15.8848 34.7049C15.6622 34.7025 15.4338 34.7369 15.1994 34.8079C14.965 34.8765 14.7721 34.9653 14.6206 35.0742L13.7967 34.9748L14.237 31.3952H18.0154V32.1765H14.9757L14.72 34.3214H14.7626C14.9118 34.203 15.0988 34.1048 15.3237 34.0266C15.5486 33.9485 15.783 33.9094 16.0268 33.9094C16.4719 33.9094 16.8684 34.016 17.2164 34.229C17.5668 34.4397 17.8414 34.7286 18.0403 35.0955C18.2415 35.4625 18.3422 35.8815 18.3422 36.3526C18.3422 36.8166 18.238 37.2309 18.0297 37.5955C17.8237 37.9577 17.5396 38.2442 17.1774 38.4549C16.8152 38.6632 16.4032 38.7674 15.9416 38.7674Z" fill="#7B8092"/>
<path d="M7.44815 67.332V66.6928L9.84872 64.065C10.1304 63.7572 10.3625 63.4897 10.5447 63.2624C10.727 63.0328 10.862 62.8174 10.9496 62.6161C11.0395 62.4125 11.0845 62.1995 11.0845 61.9769C11.0845 61.7212 11.023 61.4999 10.8999 61.3129C10.7791 61.1258 10.6134 60.9814 10.4027 60.8796C10.192 60.7778 9.95526 60.7269 9.69247 60.7269C9.41312 60.7269 9.16927 60.7849 8.96094 60.9009C8.75497 61.0146 8.59517 61.1744 8.48153 61.3803C8.37027 61.5863 8.31463 61.8278 8.31463 62.1048H7.47656C7.47656 61.6786 7.57481 61.3046 7.77131 60.9826C7.9678 60.6606 8.23532 60.4097 8.57386 60.2298C8.91477 60.0498 9.29711 59.9599 9.72088 59.9599C10.147 59.9599 10.5246 60.0498 10.8537 60.2298C11.1828 60.4097 11.4408 60.6523 11.6278 60.9577C11.8149 61.2631 11.9084 61.6029 11.9084 61.9769C11.9084 62.2444 11.8598 62.506 11.7628 62.7617C11.6681 63.015 11.5024 63.2979 11.2656 63.6104C11.0312 63.9206 10.7057 64.2994 10.2891 64.7468L8.65554 66.494V66.5508H12.0362V67.332H7.44815ZM15.875 67.4315C15.34 67.4315 14.8842 67.2859 14.5078 66.9947C14.1314 66.7011 13.8438 66.2762 13.6449 65.7198C13.446 65.1611 13.3466 64.4864 13.3466 63.6957C13.3466 62.9097 13.446 62.2385 13.6449 61.6822C13.8461 61.1235 14.1349 60.6973 14.5114 60.4038C14.8902 60.1078 15.3447 59.9599 15.875 59.9599C16.4053 59.9599 16.8587 60.1078 17.2351 60.4038C17.6139 60.6973 17.9027 61.1235 18.1016 61.6822C18.3028 62.2385 18.4034 62.9097 18.4034 63.6957C18.4034 64.4864 18.304 65.1611 18.1051 65.7198C17.9062 66.2762 17.6186 66.7011 17.2422 66.9947C16.8658 67.2859 16.41 67.4315 15.875 67.4315ZM15.875 66.6502C16.4053 66.6502 16.8172 66.3945 17.1108 65.8832C17.4044 65.3718 17.5511 64.6426 17.5511 63.6957C17.5511 63.0659 17.4837 62.5297 17.3487 62.087C17.2161 61.6443 17.0244 61.3069 16.7734 61.0749C16.5249 60.8429 16.2254 60.7269 15.875 60.7269C15.3494 60.7269 14.9387 60.9862 14.6428 61.5046C14.3468 62.0207 14.1989 62.7511 14.1989 63.6957C14.1989 64.3254 14.2652 64.8604 14.3977 65.3008C14.5303 65.7411 14.7209 66.0761 14.9695 66.3058C15.2204 66.5354 15.5223 66.6502 15.875 66.6502Z" fill="#7B8092"/>
<path d="M11.5772 88.7273V96H10.6966V89.6506H10.6539L8.87837 90.8295V89.9347L10.6966 88.7273H11.5772ZM15.9416 96.0994C15.5249 96.0994 15.1497 96.0166 14.8159 95.8509C14.4821 95.6851 14.2145 95.4579 14.0133 95.169C13.8121 94.8802 13.702 94.5511 13.6831 94.1818H14.5353C14.5685 94.5109 14.7176 94.7831 14.9828 94.9986C15.2503 95.2116 15.5699 95.3182 15.9416 95.3182C16.2399 95.3182 16.505 95.2483 16.737 95.1087C16.9714 94.969 17.1549 94.7772 17.2875 94.5334C17.4224 94.2872 17.4899 94.009 17.4899 93.6989C17.4899 93.3816 17.42 93.0987 17.2804 92.8501C17.1431 92.5992 16.9537 92.4015 16.7122 92.2571C16.4707 92.1127 16.1949 92.0393 15.8848 92.0369C15.6622 92.0346 15.4338 92.0689 15.1994 92.1399C14.965 92.2086 14.7721 92.2973 14.6206 92.4062L13.7967 92.3068L14.237 88.7273H18.0154V89.5085H14.9757L14.72 91.6534H14.7626C14.9118 91.535 15.0988 91.4368 15.3237 91.3587C15.5486 91.2805 15.783 91.2415 16.0268 91.2415C16.4719 91.2415 16.8684 91.348 17.2164 91.5611C17.5668 91.7718 17.8414 92.0606 18.0403 92.4276C18.2415 92.7945 18.3422 93.2135 18.3422 93.6847C18.3422 94.1487 18.238 94.563 18.0297 94.9276C17.8237 95.2898 17.5396 95.5762 17.1774 95.7869C16.8152 95.9953 16.4032 96.0994 15.9416 96.0994Z" fill="#7B8092"/>
<path d="M11.4112 117.395V124.668H10.5305V118.319H10.4879L8.71236 119.498V118.603L10.5305 117.395H11.4112ZM15.875 124.767C15.34 124.767 14.8842 124.622 14.5078 124.331C14.1314 124.037 13.8438 123.612 13.6449 123.056C13.446 122.497 13.3466 121.822 13.3466 121.032C13.3466 120.246 13.446 119.574 13.6449 119.018C13.8461 118.459 14.1349 118.033 14.5114 117.74C14.8902 117.444 15.3447 117.296 15.875 117.296C16.4053 117.296 16.8587 117.444 17.2351 117.74C17.6139 118.033 17.9027 118.459 18.1016 119.018C18.3028 119.574 18.4034 120.246 18.4034 121.032C18.4034 121.822 18.304 122.497 18.1051 123.056C17.9062 123.612 17.6186 124.037 17.2422 124.331C16.8658 124.622 16.41 124.767 15.875 124.767ZM15.875 123.986C16.4053 123.986 16.8172 123.73 17.1108 123.219C17.4044 122.708 17.5511 121.979 17.5511 121.032C17.5511 120.402 17.4837 119.866 17.3487 119.423C17.2161 118.98 17.0244 118.643 16.7734 118.411C16.5249 118.179 16.2254 118.063 15.875 118.063C15.3494 118.063 14.9387 118.322 14.6428 118.841C14.3468 119.357 14.1989 120.087 14.1989 121.032C14.1989 121.661 14.2652 122.196 14.3977 122.637C14.5303 123.077 14.7209 123.412 14.9695 123.642C15.2204 123.871 15.5223 123.986 15.875 123.986Z" fill="#7B8092"/>
<path d="M15.9416 153.431C15.5249 153.431 15.1497 153.349 14.8159 153.183C14.4821 153.017 14.2145 152.79 14.0133 152.501C13.8121 152.212 13.702 151.883 13.6831 151.514H14.5353C14.5685 151.843 14.7176 152.115 14.9828 152.331C15.2503 152.544 15.5699 152.65 15.9416 152.65C16.2399 152.65 16.505 152.58 16.737 152.441C16.9714 152.301 17.1549 152.109 17.2875 151.865C17.4224 151.619 17.4899 151.341 17.4899 151.031C17.4899 150.714 17.42 150.431 17.2804 150.182C17.1431 149.931 16.9537 149.734 16.7122 149.589C16.4707 149.445 16.1949 149.371 15.8848 149.369C15.6622 149.367 15.4338 149.401 15.1994 149.472C14.965 149.541 14.7721 149.629 14.6206 149.738L13.7967 149.639L14.237 146.059H18.0154V146.841H14.9757L14.72 148.985H14.7626C14.9118 148.867 15.0988 148.769 15.3237 148.691C15.5486 148.613 15.783 148.574 16.0268 148.574C16.4719 148.574 16.8684 148.68 17.2164 148.893C17.5668 149.104 17.8414 149.393 18.0403 149.76C18.2415 150.127 18.3422 150.546 18.3422 151.017C18.3422 151.481 18.238 151.895 18.0297 152.26C17.8237 152.622 17.5396 152.908 17.1774 153.119C16.8152 153.327 16.4032 153.431 15.9416 153.431Z" fill="#7B8092"/>
<path d="M15.875 182.099C15.34 182.099 14.8842 181.954 14.5078 181.663C14.1314 181.369 13.8438 180.944 13.6449 180.388C13.446 179.829 13.3466 179.154 13.3466 178.364C13.3466 177.578 13.446 176.906 13.6449 176.35C13.8461 175.791 14.1349 175.365 14.5114 175.072C14.8902 174.776 15.3447 174.628 15.875 174.628C16.4053 174.628 16.8587 174.776 17.2351 175.072C17.6139 175.365 17.9027 175.791 18.1016 176.35C18.3028 176.906 18.4034 177.578 18.4034 178.364C18.4034 179.154 18.304 179.829 18.1051 180.388C17.9062 180.944 17.6186 181.369 17.2422 181.663C16.8658 181.954 16.41 182.099 15.875 182.099ZM15.875 181.318C16.4053 181.318 16.8172 181.062 17.1108 180.551C17.4044 180.04 17.5511 179.311 17.5511 178.364C17.5511 177.734 17.4837 177.198 17.3487 176.755C17.2161 176.312 17.0244 175.975 16.7734 175.743C16.5249 175.511 16.2254 175.395 15.875 175.395C15.3494 175.395 14.9387 175.654 14.6428 176.173C14.3468 176.689 14.1989 177.419 14.1989 178.364C14.1989 178.993 14.2652 179.528 14.3977 179.969C14.5303 180.409 14.7209 180.744 14.9695 180.974C15.2204 181.203 15.5223 181.318 15.875 181.318Z" fill="#7B8092"/>
<path d="M39 184.164L617 184.164" stroke="#D8DDE7"/>
<rect x="52" y="66" width="15" height="117" fill="#F1F2F9"/>
<rect x="127" y="29" width="15" height="154" fill="#F1F2F9"/>
<rect x="202" width="15" height="183" fill="#F1F2F9"/>
<rect x="277" y="47" width="15" height="136" fill="#F1F2F9"/>
<rect x="352" y="29" width="15" height="154" fill="#F1F2F9"/>
<rect x="427" y="72" width="15" height="111" fill="#F1F2F9"/>
<rect x="502" y="47" width="15" height="136" fill="#F1F2F9"/>
<rect x="578" y="29" width="15" height="154" fill="#F1F2F9"/>
<path d="M47.1952 198V197.361L49.5958 194.733C49.8775 194.425 50.1095 194.158 50.2918 193.93C50.4741 193.701 50.609 193.485 50.6966 193.284C50.7866 193.08 50.8316 192.867 50.8316 192.645C50.8316 192.389 50.77 192.168 50.6469 191.981C50.5262 191.794 50.3605 191.649 50.1498 191.548C49.9391 191.446 49.7023 191.395 49.4395 191.395C49.1602 191.395 48.9163 191.453 48.708 191.569C48.502 191.683 48.3422 191.842 48.2286 192.048C48.1173 192.254 48.0617 192.496 48.0617 192.773H47.2236C47.2236 192.347 47.3219 191.973 47.5184 191.651C47.7149 191.329 47.9824 191.078 48.3209 190.898C48.6618 190.718 49.0442 190.628 49.468 190.628C49.8941 190.628 50.2717 190.718 50.6008 190.898C50.9298 191.078 51.1879 191.32 51.3749 191.626C51.5619 191.931 51.6555 192.271 51.6555 192.645C51.6555 192.912 51.6069 193.174 51.5099 193.43C51.4152 193.683 51.2494 193.966 51.0127 194.278C50.7783 194.589 50.4528 194.967 50.0361 195.415L48.4026 197.162V197.219H51.7833V198H47.1952ZM55.6221 198.099C55.087 198.099 54.6313 197.954 54.2549 197.663C53.8785 197.369 53.5908 196.944 53.392 196.388C53.1931 195.829 53.0937 195.154 53.0937 194.364C53.0937 193.578 53.1931 192.906 53.392 192.35C53.5932 191.791 53.882 191.365 54.2584 191.072C54.6372 190.776 55.0918 190.628 55.6221 190.628C56.1524 190.628 56.6057 190.776 56.9822 191.072C57.3609 191.365 57.6498 191.791 57.8486 192.35C58.0499 192.906 58.1505 193.578 58.1505 194.364C58.1505 195.154 58.051 195.829 57.8522 196.388C57.6533 196.944 57.3657 197.369 56.9893 197.663C56.6128 197.954 56.1571 198.099 55.6221 198.099ZM55.6221 197.318C56.1524 197.318 56.5643 197.062 56.8579 196.551C57.1514 196.04 57.2982 195.311 57.2982 194.364C57.2982 193.734 57.2307 193.198 57.0958 192.755C56.9632 192.312 56.7715 191.975 56.5205 191.743C56.2719 191.511 55.9724 191.395 55.6221 191.395C55.0965 191.395 54.6858 191.654 54.3898 192.173C54.0939 192.689 53.9459 193.419 53.9459 194.364C53.9459 194.993 54.0122 195.528 54.1448 195.969C54.2774 196.409 54.468 196.744 54.7165 196.974C54.9675 197.203 55.2693 197.318 55.6221 197.318ZM62.0567 190.727V198H61.176V191.651H61.1334L59.3579 192.83V191.935L61.176 190.727H62.0567ZM66.4779 198.099C65.9902 198.099 65.5593 198.013 65.1853 197.84C64.8136 197.665 64.5236 197.425 64.3153 197.119C64.1069 196.812 64.0039 196.461 64.0063 196.068C64.0039 195.76 64.0643 195.476 64.1874 195.216C64.3105 194.953 64.4786 194.734 64.6917 194.559C64.9071 194.381 65.1474 194.269 65.4126 194.222V194.179C65.0645 194.089 64.7876 193.894 64.5816 193.593C64.3756 193.29 64.2738 192.946 64.2762 192.56C64.2738 192.19 64.3673 191.86 64.5567 191.569C64.7461 191.278 65.0065 191.048 65.338 190.88C65.6718 190.712 66.0518 190.628 66.4779 190.628C66.8993 190.628 67.2757 190.712 67.6072 190.88C67.9386 191.048 68.199 191.278 68.3884 191.569C68.5802 191.86 68.6772 192.19 68.6796 192.56C68.6772 192.946 68.5719 193.29 68.3635 193.593C68.1576 193.894 67.8841 194.089 67.5432 194.179V194.222C67.806 194.269 68.0428 194.381 68.2535 194.559C68.4642 194.734 68.6323 194.953 68.7577 195.216C68.8832 195.476 68.9471 195.76 68.9495 196.068C68.9471 196.461 68.8406 196.812 68.6299 197.119C68.4215 197.425 68.1315 197.665 67.7599 197.84C67.3905 198.013 66.9632 198.099 66.4779 198.099ZM66.4779 197.318C66.807 197.318 67.0911 197.265 67.3302 197.158C67.5693 197.052 67.7539 196.902 67.8841 196.707C68.0144 196.513 68.0806 196.286 68.083 196.026C68.0806 195.751 68.0096 195.508 67.8699 195.298C67.7303 195.087 67.5397 194.921 67.2982 194.8C67.0591 194.68 66.7857 194.619 66.4779 194.619C66.1678 194.619 65.8908 194.68 65.6469 194.8C65.4055 194.921 65.2149 195.087 65.0752 195.298C64.9379 195.508 64.8704 195.751 64.8728 196.026C64.8704 196.286 64.9331 196.513 65.061 196.707C65.1912 196.902 65.377 197.052 65.6185 197.158C65.86 197.265 66.1465 197.318 66.4779 197.318ZM66.4779 193.866C66.7383 193.866 66.9691 193.814 67.1704 193.71C67.374 193.606 67.5338 193.46 67.6498 193.273C67.7658 193.086 67.825 192.867 67.8273 192.616C67.825 192.37 67.767 192.156 67.6533 191.974C67.5397 191.789 67.3823 191.647 67.181 191.548C66.9798 191.446 66.7454 191.395 66.4779 191.395C66.2056 191.395 65.9677 191.446 65.7641 191.548C65.5605 191.647 65.4031 191.789 65.2918 191.974C65.1805 192.156 65.1261 192.37 65.1285 192.616C65.1261 192.867 65.1817 193.086 65.2954 193.273C65.4114 193.46 65.5712 193.606 65.7748 193.71C65.9784 193.814 66.2127 193.866 66.4779 193.866Z" fill="#73777F"/>
<path d="M129.753 193V192.361C129.753 192.167 129.788 191.961 129.856 191.743C129.927 191.523 130.029 191.311 130.162 191.107C130.297 190.901 130.459 190.723 130.648 190.571L131.103 190.94C130.954 191.153 130.824 191.376 130.712 191.608C130.603 191.838 130.549 192.084 130.549 192.347V193H129.753ZM134.572 190.727V198H133.692V191.651H133.649L131.873 192.83V191.935L133.692 190.727H134.572ZM138.979 190.628C139.278 190.63 139.576 190.687 139.874 190.798C140.172 190.91 140.445 191.094 140.691 191.352C140.937 191.608 141.135 191.957 141.284 192.4C141.433 192.843 141.508 193.398 141.508 194.065C141.508 194.712 141.446 195.286 141.323 195.788C141.202 196.287 141.027 196.709 140.797 197.052C140.57 197.395 140.293 197.656 139.967 197.833C139.642 198.011 139.275 198.099 138.866 198.099C138.458 198.099 138.095 198.019 137.775 197.858C137.458 197.695 137.198 197.469 136.994 197.18C136.793 196.888 136.664 196.551 136.607 196.168H137.474C137.552 196.501 137.707 196.777 137.939 196.995C138.173 197.21 138.482 197.318 138.866 197.318C139.427 197.318 139.869 197.073 140.194 196.583C140.521 196.093 140.684 195.401 140.684 194.506H140.627C140.494 194.705 140.337 194.876 140.155 195.021C139.972 195.165 139.77 195.276 139.547 195.354C139.325 195.433 139.088 195.472 138.837 195.472C138.421 195.472 138.038 195.369 137.69 195.163C137.345 194.954 137.068 194.669 136.859 194.307C136.653 193.942 136.55 193.526 136.55 193.057C136.55 192.612 136.65 192.205 136.849 191.835C137.05 191.464 137.332 191.168 137.694 190.947C138.058 190.727 138.487 190.621 138.979 190.628ZM138.979 191.409C138.681 191.409 138.412 191.484 138.173 191.633C137.936 191.78 137.748 191.978 137.609 192.229C137.471 192.478 137.403 192.754 137.403 193.057C137.403 193.36 137.469 193.636 137.601 193.884C137.736 194.13 137.92 194.327 138.152 194.474C138.386 194.618 138.653 194.69 138.951 194.69C139.176 194.69 139.385 194.647 139.579 194.559C139.774 194.469 139.943 194.347 140.087 194.193C140.234 194.037 140.349 193.861 140.432 193.664C140.515 193.465 140.556 193.258 140.556 193.043C140.556 192.759 140.487 192.492 140.35 192.244C140.215 191.995 140.028 191.794 139.789 191.64C139.552 191.486 139.282 191.409 138.979 191.409Z" fill="#73777F"/>
<path d="M203.764 193V192.361C203.764 192.167 203.799 191.961 203.867 191.743C203.938 191.523 204.04 191.311 204.173 191.107C204.308 190.901 204.47 190.723 204.659 190.571L205.114 190.94C204.964 191.153 204.834 191.376 204.723 191.608C204.614 191.838 204.56 192.084 204.56 192.347V193H203.764ZM206.026 198V197.361L208.427 194.733C208.709 194.425 208.941 194.158 209.123 193.93C209.305 193.701 209.44 193.485 209.528 193.284C209.618 193.08 209.663 192.867 209.663 192.645C209.663 192.389 209.601 192.168 209.478 191.981C209.357 191.794 209.192 191.649 208.981 191.548C208.77 191.446 208.533 191.395 208.271 191.395C207.991 191.395 207.747 191.453 207.539 191.569C207.333 191.683 207.173 191.842 207.06 192.048C206.948 192.254 206.893 192.496 206.893 192.773H206.055C206.055 192.347 206.153 191.973 206.349 191.651C206.546 191.329 206.813 191.078 207.152 190.898C207.493 190.718 207.875 190.628 208.299 190.628C208.725 190.628 209.103 190.718 209.432 190.898C209.761 191.078 210.019 191.32 210.206 191.626C210.393 191.931 210.487 192.271 210.487 192.645C210.487 192.912 210.438 193.174 210.341 193.43C210.246 193.683 210.08 193.966 209.844 194.278C209.609 194.589 209.284 194.967 208.867 195.415L207.234 197.162V197.219H210.614V198H206.026ZM214.453 198.099C213.918 198.099 213.462 197.954 213.086 197.663C212.71 197.369 212.422 196.944 212.223 196.388C212.024 195.829 211.925 195.154 211.925 194.364C211.925 193.578 212.024 192.906 212.223 192.35C212.424 191.791 212.713 191.365 213.089 191.072C213.468 190.776 213.923 190.628 214.453 190.628C214.983 190.628 215.437 190.776 215.813 191.072C216.192 191.365 216.481 191.791 216.68 192.35C216.881 192.906 216.982 193.578 216.982 194.364C216.982 195.154 216.882 195.829 216.683 196.388C216.484 196.944 216.197 197.369 215.82 197.663C215.444 197.954 214.988 198.099 214.453 198.099ZM214.453 197.318C214.983 197.318 215.395 197.062 215.689 196.551C215.982 196.04 216.129 195.311 216.129 194.364C216.129 193.734 216.062 193.198 215.927 192.755C215.794 192.312 215.603 191.975 215.352 191.743C215.103 191.511 214.804 191.395 214.453 191.395C213.928 191.395 213.517 191.654 213.221 192.173C212.925 192.689 212.777 193.419 212.777 194.364C212.777 194.993 212.843 195.528 212.976 195.969C213.108 196.409 213.299 196.744 213.548 196.974C213.799 197.203 214.1 197.318 214.453 197.318Z" fill="#73777F"/>
<path d="M279.276 193V192.361C279.276 192.167 279.31 191.961 279.379 191.743C279.45 191.523 279.552 191.311 279.684 191.107C279.819 190.901 279.981 190.723 280.171 190.571L280.625 190.94C280.476 191.153 280.346 191.376 280.235 191.608C280.126 191.838 280.071 192.084 280.071 192.347V193H279.276ZM281.538 198V197.361L283.939 194.733C284.22 194.425 284.452 194.158 284.635 193.93C284.817 193.701 284.952 193.485 285.039 193.284C285.129 193.08 285.174 192.867 285.174 192.645C285.174 192.389 285.113 192.168 284.99 191.981C284.869 191.794 284.703 191.649 284.493 191.548C284.282 191.446 284.045 191.395 283.782 191.395C283.503 191.395 283.259 191.453 283.051 191.569C282.845 191.683 282.685 191.842 282.571 192.048C282.46 192.254 282.404 192.496 282.404 192.773H281.566C281.566 192.347 281.665 191.973 281.861 191.651C282.058 191.329 282.325 191.078 282.664 190.898C283.005 190.718 283.387 190.628 283.811 190.628C284.237 190.628 284.614 190.718 284.944 190.898C285.273 191.078 285.531 191.32 285.718 191.626C285.905 191.931 285.998 192.271 285.998 192.645C285.998 192.912 285.95 193.174 285.853 193.43C285.758 193.683 285.592 193.966 285.355 194.278C285.121 194.589 284.796 194.967 284.379 195.415L282.745 197.162V197.219H286.126V198H281.538ZM290.15 190.727V198H289.269V191.651H289.226L287.451 192.83V191.935L289.269 190.727H290.15Z" fill="#73777F"/>
<path d="M353.292 193V192.361C353.292 192.167 353.326 191.961 353.395 191.743C353.466 191.523 353.567 191.311 353.7 191.107C353.835 190.901 353.997 190.723 354.186 190.571L354.641 190.94C354.492 191.153 354.362 191.376 354.25 191.608C354.141 191.838 354.087 192.084 354.087 192.347V193H353.292ZM355.554 198V197.361L357.954 194.733C358.236 194.425 358.468 194.158 358.65 193.93C358.833 193.701 358.967 193.485 359.055 193.284C359.145 193.08 359.19 192.867 359.19 192.645C359.19 192.389 359.128 192.168 359.005 191.981C358.885 191.794 358.719 191.649 358.508 191.548C358.297 191.446 358.061 191.395 357.798 191.395C357.519 191.395 357.275 191.453 357.066 191.569C356.86 191.683 356.701 191.842 356.587 192.048C356.476 192.254 356.42 192.496 356.42 192.773H355.582C355.582 192.347 355.68 191.973 355.877 191.651C356.073 191.329 356.341 191.078 356.679 190.898C357.02 190.718 357.403 190.628 357.826 190.628C358.252 190.628 358.63 190.718 358.959 190.898C359.288 191.078 359.546 191.32 359.733 191.626C359.92 191.931 360.014 192.271 360.014 192.645C360.014 192.912 359.965 193.174 359.868 193.43C359.774 193.683 359.608 193.966 359.371 194.278C359.137 194.589 358.811 194.967 358.395 195.415L356.761 197.162V197.219H360.142V198H355.554ZM361.608 198V197.361L364.009 194.733C364.291 194.425 364.523 194.158 364.705 193.93C364.887 193.701 365.022 193.485 365.11 193.284C365.2 193.08 365.245 192.867 365.245 192.645C365.245 192.389 365.183 192.168 365.06 191.981C364.939 191.794 364.774 191.649 364.563 191.548C364.352 191.446 364.115 191.395 363.853 191.395C363.573 191.395 363.329 191.453 363.121 191.569C362.915 191.683 362.755 191.842 362.642 192.048C362.53 192.254 362.475 192.496 362.475 192.773H361.637C361.637 192.347 361.735 191.973 361.931 191.651C362.128 191.329 362.395 191.078 362.734 190.898C363.075 190.718 363.457 190.628 363.881 190.628C364.307 190.628 364.685 190.718 365.014 190.898C365.343 191.078 365.601 191.32 365.788 191.626C365.975 191.931 366.069 192.271 366.069 192.645C366.069 192.912 366.02 193.174 365.923 193.43C365.828 193.683 365.663 193.966 365.426 194.278C365.191 194.589 364.866 194.967 364.449 195.415L362.816 197.162V197.219H366.196V198H361.608Z" fill="#73777F"/>
<path d="M427.846 193V192.361C427.846 192.167 427.881 191.961 427.949 191.743C428.02 191.523 428.122 191.311 428.255 191.107C428.39 190.901 428.552 190.723 428.741 190.571L429.196 190.94C429.047 191.153 428.916 191.376 428.805 191.608C428.696 191.838 428.642 192.084 428.642 192.347V193H427.846ZM430.108 198V197.361L432.509 194.733C432.791 194.425 433.023 194.158 433.205 193.93C433.387 193.701 433.522 193.485 433.61 193.284C433.7 193.08 433.745 192.867 433.745 192.645C433.745 192.389 433.683 192.168 433.56 191.981C433.439 191.794 433.274 191.649 433.063 191.548C432.852 191.446 432.615 191.395 432.353 191.395C432.073 191.395 431.829 191.453 431.621 191.569C431.415 191.683 431.255 191.842 431.142 192.048C431.03 192.254 430.975 192.496 430.975 192.773H430.137C430.137 192.347 430.235 191.973 430.431 191.651C430.628 191.329 430.895 191.078 431.234 190.898C431.575 190.718 431.957 190.628 432.381 190.628C432.807 190.628 433.185 190.718 433.514 190.898C433.843 191.078 434.101 191.32 434.288 191.626C434.475 191.931 434.569 192.271 434.569 192.645C434.569 192.912 434.52 193.174 434.423 193.43C434.328 193.683 434.163 193.966 433.926 194.278C433.691 194.589 433.366 194.967 432.949 195.415L431.316 197.162V197.219H434.696V198H430.108ZM438.62 198.099C438.152 198.099 437.734 198.019 437.367 197.858C437.002 197.697 436.712 197.473 436.497 197.187C436.284 196.898 436.168 196.563 436.149 196.182H437.044C437.063 196.416 437.143 196.619 437.285 196.789C437.427 196.957 437.613 197.087 437.843 197.18C438.072 197.272 438.327 197.318 438.606 197.318C438.919 197.318 439.196 197.264 439.437 197.155C439.679 197.046 439.868 196.894 440.005 196.7C440.143 196.506 440.211 196.281 440.211 196.026C440.211 195.758 440.145 195.522 440.012 195.319C439.88 195.113 439.686 194.952 439.43 194.836C439.174 194.72 438.862 194.662 438.493 194.662H437.91V193.881H438.493C438.781 193.881 439.035 193.829 439.252 193.724C439.473 193.62 439.644 193.473 439.767 193.284C439.893 193.095 439.956 192.872 439.956 192.616C439.956 192.37 439.901 192.156 439.792 191.974C439.683 191.791 439.529 191.649 439.331 191.548C439.134 191.446 438.902 191.395 438.635 191.395C438.384 191.395 438.147 191.441 437.924 191.533C437.704 191.623 437.524 191.755 437.385 191.928C437.245 192.098 437.169 192.304 437.157 192.545H436.305C436.319 192.164 436.434 191.83 436.65 191.544C436.865 191.255 437.147 191.03 437.495 190.869C437.845 190.708 438.23 190.628 438.649 190.628C439.099 190.628 439.484 190.719 439.806 190.901C440.128 191.081 440.376 191.319 440.549 191.615C440.721 191.911 440.808 192.231 440.808 192.574C440.808 192.983 440.7 193.333 440.485 193.621C440.272 193.91 439.982 194.11 439.615 194.222V194.278C440.074 194.354 440.433 194.549 440.691 194.864C440.949 195.177 441.078 195.564 441.078 196.026C441.078 196.421 440.97 196.776 440.755 197.091C440.542 197.403 440.25 197.65 439.881 197.83C439.512 198.009 439.092 198.099 438.62 198.099Z" fill="#73777F"/>
<path d="M502.323 193V192.276C502.323 192.067 502.362 191.851 502.44 191.626C502.521 191.398 502.63 191.184 502.767 190.983C502.907 190.779 503.063 190.608 503.236 190.468L503.832 190.855C503.693 191.066 503.575 191.286 503.481 191.516C503.388 191.743 503.343 191.994 503.346 192.268V193H502.323ZM504.716 198V197.048L507.241 194.573C507.482 194.329 507.683 194.113 507.844 193.923C508.005 193.734 508.126 193.55 508.206 193.373C508.287 193.195 508.327 193.006 508.327 192.805C508.327 192.575 508.275 192.379 508.171 192.215C508.067 192.049 507.924 191.922 507.741 191.832C507.559 191.742 507.352 191.697 507.12 191.697C506.881 191.697 506.671 191.746 506.491 191.846C506.311 191.943 506.172 192.081 506.072 192.261C505.975 192.441 505.927 192.656 505.927 192.904H504.673C504.673 192.442 504.778 192.041 504.989 191.7C505.2 191.359 505.49 191.095 505.859 190.908C506.231 190.721 506.657 190.628 507.138 190.628C507.625 190.628 508.054 190.719 508.423 190.901C508.792 191.084 509.079 191.333 509.282 191.651C509.488 191.968 509.591 192.33 509.591 192.737C509.591 193.009 509.539 193.277 509.435 193.54C509.331 193.803 509.147 194.094 508.885 194.413C508.624 194.733 508.258 195.12 507.787 195.575L506.534 196.849V196.899H509.701V198H504.716ZM510.639 196.651V195.603L513.725 190.727H514.598V192.219H514.066L511.988 195.511V195.567H516.296V196.651H510.639ZM514.108 198V196.331L514.123 195.862V190.727H515.366V198H514.108Z" fill="#141630"/>
<path d="M576.352 193V192.361C576.352 192.167 576.386 191.961 576.455 191.743C576.526 191.523 576.628 191.311 576.76 191.107C576.895 190.901 577.058 190.723 577.247 190.571L577.702 190.94C577.552 191.153 577.422 191.376 577.311 191.608C577.202 191.838 577.148 192.084 577.148 192.347V193H576.352ZM578.614 198V197.361L581.015 194.733C581.296 194.425 581.528 194.158 581.711 193.93C581.893 193.701 582.028 193.485 582.116 193.284C582.206 193.08 582.251 192.867 582.251 192.645C582.251 192.389 582.189 192.168 582.066 191.981C581.945 191.794 581.779 191.649 581.569 191.548C581.358 191.446 581.121 191.395 580.858 191.395C580.579 191.395 580.335 191.453 580.127 191.569C579.921 191.683 579.761 191.842 579.648 192.048C579.536 192.254 579.481 192.496 579.481 192.773H578.643C578.643 192.347 578.741 191.973 578.937 191.651C579.134 191.329 579.401 191.078 579.74 190.898C580.081 190.718 580.463 190.628 580.887 190.628C581.313 190.628 581.691 190.718 582.02 190.898C582.349 191.078 582.607 191.32 582.794 191.626C582.981 191.931 583.074 192.271 583.074 192.645C583.074 192.912 583.026 193.174 582.929 193.43C582.834 193.683 582.668 193.966 582.432 194.278C582.197 194.589 581.872 194.967 581.455 195.415L579.822 197.162V197.219H583.202V198H578.614ZM586.942 198.099C586.525 198.099 586.15 198.017 585.816 197.851C585.482 197.685 585.215 197.458 585.013 197.169C584.812 196.88 584.702 196.551 584.683 196.182H585.535C585.568 196.511 585.718 196.783 585.983 196.999C586.25 197.212 586.57 197.318 586.942 197.318C587.24 197.318 587.505 197.248 587.737 197.109C587.971 196.969 588.155 196.777 588.287 196.533C588.422 196.287 588.49 196.009 588.49 195.699C588.49 195.382 588.42 195.099 588.28 194.85C588.143 194.599 587.954 194.402 587.712 194.257C587.471 194.113 587.195 194.039 586.885 194.037C586.662 194.035 586.434 194.069 586.199 194.14C585.965 194.209 585.772 194.297 585.621 194.406L584.797 194.307L585.237 190.727H589.015V191.509H585.976L585.72 193.653H585.763C585.912 193.535 586.099 193.437 586.324 193.359C586.549 193.281 586.783 193.241 587.027 193.241C587.472 193.241 587.868 193.348 588.216 193.561C588.567 193.772 588.841 194.061 589.04 194.428C589.242 194.795 589.342 195.214 589.342 195.685C589.342 196.149 589.238 196.563 589.03 196.928C588.824 197.29 588.54 197.576 588.177 197.787C587.815 197.995 587.403 198.099 586.942 198.099Z" fill="#73777F"/>
</svg>
