<svg width="545" height="267" viewBox="0 0 545 267" fill="none" xmlns="http://www.w3.org/2000/svg">
<rect width="545" height="267" fill="white"/>
<path d="M4.16122 10.7273V18H3.28054V11.6506H3.23793L1.46236 12.8295V11.9347L3.28054 10.7273H4.16122ZM8.625 18.0994C8.08996 18.0994 7.63423 17.9538 7.25781 17.6626C6.88139 17.3691 6.59375 16.9441 6.39489 16.3878C6.19602 15.8291 6.09659 15.1544 6.09659 14.3636C6.09659 13.5777 6.19602 12.9065 6.39489 12.3501C6.59612 11.7914 6.88494 11.3653 7.26136 11.0717C7.64015 10.7758 8.0947 10.6278 8.625 10.6278C9.1553 10.6278 9.60866 10.7758 9.98509 11.0717C10.3639 11.3653 10.6527 11.7914 10.8516 12.3501C11.0528 12.9065 11.1534 13.5777 11.1534 14.3636C11.1534 15.1544 11.054 15.8291 10.8551 16.3878C10.6562 16.9441 10.3686 17.3691 9.99219 17.6626C9.61577 17.9538 9.16004 18.0994 8.625 18.0994ZM8.625 17.3182C9.1553 17.3182 9.56723 17.0625 9.8608 16.5511C10.1544 16.0398 10.3011 15.3106 10.3011 14.3636C10.3011 13.7339 10.2337 13.1977 10.0987 12.755C9.96615 12.3123 9.77438 11.9749 9.52344 11.7429C9.27486 11.5109 8.97538 11.3949 8.625 11.3949C8.09943 11.3949 7.68868 11.6541 7.39276 12.1726C7.09683 12.6887 6.94886 13.419 6.94886 14.3636C6.94886 14.9934 7.01515 15.5284 7.14773 15.9688C7.2803 16.4091 7.47088 16.7441 7.71946 16.9737C7.97041 17.2034 8.27225 17.3182 8.625 17.3182ZM14.875 18.0994C14.34 18.0994 13.8842 17.9538 13.5078 17.6626C13.1314 17.3691 12.8438 16.9441 12.6449 16.3878C12.446 15.8291 12.3466 15.1544 12.3466 14.3636C12.3466 13.5777 12.446 12.9065 12.6449 12.3501C12.8461 11.7914 13.1349 11.3653 13.5114 11.0717C13.8902 10.7758 14.3447 10.6278 14.875 10.6278C15.4053 10.6278 15.8587 10.7758 16.2351 11.0717C16.6139 11.3653 16.9027 11.7914 17.1016 12.3501C17.3028 12.9065 17.4034 13.5777 17.4034 14.3636C17.4034 15.1544 17.304 15.8291 17.1051 16.3878C16.9062 16.9441 16.6186 17.3691 16.2422 17.6626C15.8658 17.9538 15.41 18.0994 14.875 18.0994ZM14.875 17.3182C15.4053 17.3182 15.8172 17.0625 16.1108 16.5511C16.4044 16.0398 16.5511 15.3106 16.5511 14.3636C16.5511 13.7339 16.4837 13.1977 16.3487 12.755C16.2161 12.3123 16.0244 11.9749 15.7734 11.7429C15.5249 11.5109 15.2254 11.3949 14.875 11.3949C14.3494 11.3949 13.9387 11.6541 13.6428 12.1726C13.3468 12.6887 13.1989 13.419 13.1989 14.3636C13.1989 14.9934 13.2652 15.5284 13.3977 15.9688C13.5303 16.4091 13.7209 16.7441 13.9695 16.9737C14.2204 17.2034 14.5223 17.3182 14.875 17.3182Z" fill="#7B8092"/>
<path d="M8.67028 64.2987C8.18259 64.2987 7.75172 64.2122 7.37766 64.0394C7.00598 63.8642 6.71597 63.6239 6.50763 63.3185C6.2993 63.0108 6.19632 62.6604 6.19869 62.2674C6.19632 61.9596 6.25669 61.6755 6.37979 61.4151C6.5029 61.1523 6.67099 60.9334 6.88406 60.7582C7.09949 60.5806 7.33978 60.4682 7.60494 60.4208V60.3782C7.25692 60.2882 6.97994 60.0929 6.77397 59.7923C6.568 59.4892 6.46621 59.1448 6.46857 58.7589C6.46621 58.3896 6.55972 58.0593 6.74911 57.7681C6.93851 57.4769 7.19892 57.2473 7.53036 57.0792C7.86417 56.9111 8.24414 56.8271 8.67028 56.8271C9.09168 56.8271 9.4681 56.9111 9.79954 57.0792C10.131 57.2473 10.3914 57.4769 10.5808 57.7681C10.7725 58.0593 10.8696 58.3896 10.872 58.7589C10.8696 59.1448 10.7643 59.4892 10.5559 59.7923C10.35 60.0929 10.0765 60.2882 9.73562 60.3782V60.4208C9.9984 60.4682 10.2351 60.5806 10.4458 60.7582C10.6565 60.9334 10.8246 61.1523 10.9501 61.4151C11.0756 61.6755 11.1395 61.9596 11.1419 62.2674C11.1395 62.6604 11.033 63.0108 10.8223 63.3185C10.6139 63.6239 10.3239 63.8642 9.95224 64.0394C9.58292 64.2122 9.1556 64.2987 8.67028 64.2987ZM8.67028 63.5174C8.99935 63.5174 9.28344 63.4641 9.52255 63.3576C9.76166 63.2511 9.94632 63.1007 10.0765 62.9066C10.2067 62.7125 10.273 62.4852 10.2754 62.2248C10.273 61.9502 10.202 61.7075 10.0623 61.4968C9.92264 61.2861 9.73207 61.1204 9.49059 60.9996C9.25148 60.8789 8.97804 60.8185 8.67028 60.8185C8.36014 60.8185 8.08316 60.8789 7.83931 60.9996C7.59783 61.1204 7.40726 61.2861 7.26758 61.4968C7.13027 61.7075 7.0628 61.9502 7.06516 62.2248C7.0628 62.4852 7.12553 62.7125 7.25337 62.9066C7.38358 63.1007 7.56942 63.2511 7.8109 63.3576C8.05238 63.4641 8.33884 63.5174 8.67028 63.5174ZM8.67028 60.0657C8.93069 60.0657 9.16152 60.0136 9.36275 59.9094C9.56635 59.8053 9.72615 59.6597 9.84215 59.4727C9.95816 59.2856 10.0173 59.0666 10.0197 58.8157C10.0173 58.5695 9.95934 58.3552 9.8457 58.1729C9.73207 57.9883 9.57463 57.8462 9.3734 57.7468C9.17217 57.645 8.9378 57.5941 8.67028 57.5941C8.39802 57.5941 8.1601 57.645 7.9565 57.7468C7.7529 57.8462 7.59547 57.9883 7.4842 58.1729C7.37293 58.3552 7.31848 58.5695 7.32085 58.8157C7.31848 59.0666 7.37411 59.2856 7.48775 59.4727C7.60375 59.6597 7.76355 59.8053 7.96715 59.9094C8.17075 60.0136 8.40513 60.0657 8.67028 60.0657ZM14.875 64.2987C14.34 64.2987 13.8842 64.1531 13.5078 63.8619C13.1314 63.5683 12.8438 63.1433 12.6449 62.587C12.446 62.0283 12.3466 61.3536 12.3466 60.5629C12.3466 59.7769 12.446 59.1057 12.6449 58.5494C12.8461 57.9906 13.1349 57.5645 13.5114 57.271C13.8902 56.975 14.3447 56.8271 14.875 56.8271C15.4053 56.8271 15.8587 56.975 16.2351 57.271C16.6139 57.5645 16.9027 57.9906 17.1016 58.5494C17.3028 59.1057 17.4034 59.7769 17.4034 60.5629C17.4034 61.3536 17.304 62.0283 17.1051 62.587C16.9062 63.1433 16.6186 63.5683 16.2422 63.8619C15.8658 64.1531 15.41 64.2987 14.875 64.2987ZM14.875 63.5174C15.4053 63.5174 15.8172 63.2617 16.1108 62.7504C16.4044 62.239 16.5511 61.5098 16.5511 60.5629C16.5511 59.9331 16.4837 59.3969 16.3487 58.9542C16.2161 58.5115 16.0244 58.1741 15.7734 57.9421C15.5249 57.7101 15.2254 57.5941 14.875 57.5941C14.3494 57.5941 13.9387 57.8533 13.6428 58.3718C13.3468 58.8879 13.1989 59.6183 13.1989 60.5629C13.1989 61.1926 13.2652 61.7276 13.3977 62.168C13.5303 62.6083 13.7209 62.9433 13.9695 63.1729C14.2204 63.4026 14.5223 63.5174 14.875 63.5174Z" fill="#7B8092"/>
<path d="M8.67738 110.498C8.37908 110.493 8.08079 110.436 7.78249 110.327C7.4842 110.219 7.21194 110.035 6.96573 109.777C6.71952 109.517 6.52184 109.165 6.37269 108.722C6.22354 108.277 6.14897 107.719 6.14897 107.046C6.14897 106.402 6.20934 105.832 6.33008 105.335C6.45082 104.835 6.62601 104.415 6.85565 104.074C7.08529 103.731 7.36228 103.47 7.68661 103.293C8.01332 103.115 8.38145 103.026 8.79102 103.026C9.19821 103.026 9.56043 103.108 9.87766 103.271C10.1973 103.432 10.4577 103.657 10.6589 103.946C10.8601 104.235 10.9904 104.567 11.0495 104.944H10.1831C10.1026 104.617 9.94632 104.346 9.71431 104.131C9.4823 103.915 9.17454 103.808 8.79102 103.808C8.22757 103.808 7.78368 104.053 7.45934 104.543C7.13737 105.033 6.9752 105.72 6.97283 106.606H7.02965C7.16223 106.405 7.31966 106.233 7.50195 106.091C7.68661 105.946 7.89021 105.835 8.11275 105.757C8.33529 105.679 8.57085 105.64 8.81942 105.64C9.23609 105.64 9.61725 105.744 9.96289 105.952C10.3085 106.158 10.5855 106.444 10.7939 106.808C11.0022 107.17 11.1064 107.586 11.1064 108.055C11.1064 108.504 11.0057 108.916 10.8045 109.29C10.6033 109.662 10.3204 109.958 9.95579 110.178C9.59357 110.396 9.16744 110.503 8.67738 110.498ZM8.67738 109.717C8.97567 109.717 9.24319 109.642 9.47994 109.493C9.71905 109.344 9.90726 109.144 10.0446 108.893C10.1842 108.642 10.2541 108.362 10.2541 108.055C10.2541 107.754 10.1866 107.481 10.0517 107.234C9.91909 106.986 9.73562 106.788 9.50124 106.641C9.26924 106.495 9.00408 106.421 8.70579 106.421C8.48088 106.421 8.27137 106.466 8.07724 106.556C7.88311 106.644 7.71265 106.764 7.56587 106.918C7.42146 107.072 7.30782 107.249 7.22496 107.447C7.1421 107.644 7.10067 107.851 7.10067 108.069C7.10067 108.358 7.16815 108.628 7.30309 108.879C7.4404 109.129 7.62743 109.332 7.86417 109.486C8.10328 109.64 8.37435 109.717 8.67738 109.717ZM14.875 110.498C14.34 110.498 13.8842 110.352 13.5078 110.061C13.1314 109.768 12.8438 109.343 12.6449 108.786C12.446 108.228 12.3466 107.553 12.3466 106.762C12.3466 105.976 12.446 105.305 12.6449 104.749C12.8461 104.19 13.1349 103.764 13.5114 103.47C13.8902 103.174 14.3447 103.026 14.875 103.026C15.4053 103.026 15.8587 103.174 16.2351 103.47C16.6139 103.764 16.9027 104.19 17.1016 104.749C17.3028 105.305 17.4034 105.976 17.4034 106.762C17.4034 107.553 17.304 108.228 17.1051 108.786C16.9062 109.343 16.6186 109.768 16.2422 110.061C15.8658 110.352 15.41 110.498 14.875 110.498ZM14.875 109.717C15.4053 109.717 15.8172 109.461 16.1108 108.95C16.4044 108.438 16.5511 107.709 16.5511 106.762C16.5511 106.132 16.4837 105.596 16.3487 105.153C16.2161 104.711 16.0244 104.373 15.7734 104.141C15.5249 103.909 15.2254 103.793 14.875 103.793C14.3494 103.793 13.9387 104.053 13.6428 104.571C13.3468 105.087 13.1989 105.817 13.1989 106.762C13.1989 107.392 13.2652 107.927 13.3977 108.367C13.5303 108.808 13.7209 109.143 13.9695 109.372C14.2204 109.602 14.5223 109.717 14.875 109.717Z" fill="#7B8092"/>
<path d="M5.91637 155.11V154.386L9.11239 149.329H9.63796V150.451H9.28285L6.86808 154.272V154.329H11.1721V155.11H5.91637ZM9.33967 156.602V154.89V154.553V149.329H10.1777V156.602H9.33967ZM14.875 156.701C14.34 156.701 13.8842 156.555 13.5078 156.264C13.1314 155.971 12.8438 155.546 12.6449 154.989C12.446 154.431 12.3466 153.756 12.3466 152.965C12.3466 152.179 12.446 151.508 12.6449 150.952C12.8461 150.393 13.1349 149.967 13.5114 149.673C13.8902 149.377 14.3447 149.229 14.875 149.229C15.4053 149.229 15.8587 149.377 16.2351 149.673C16.6139 149.967 16.9027 150.393 17.1016 150.952C17.3028 151.508 17.4034 152.179 17.4034 152.965C17.4034 153.756 17.304 154.431 17.1051 154.989C16.9062 155.546 16.6186 155.971 16.2422 156.264C15.8658 156.555 15.41 156.701 14.875 156.701ZM14.875 155.92C15.4053 155.92 15.8172 155.664 16.1108 155.153C16.4044 154.641 16.5511 153.912 16.5511 152.965C16.5511 152.335 16.4837 151.799 16.3487 151.357C16.2161 150.914 16.0244 150.576 15.7734 150.344C15.5249 150.112 15.2254 149.996 14.875 149.996C14.3494 149.996 13.9387 150.256 13.6428 150.774C13.3468 151.29 13.1989 152.021 13.1989 152.965C13.1989 153.595 13.2652 154.13 13.3977 154.57C13.5303 155.011 13.7209 155.346 13.9695 155.575C14.2204 155.805 14.5223 155.92 14.875 155.92Z" fill="#7B8092"/>
<path d="M6.44815 202.801V202.162L8.84872 199.534C9.13045 199.226 9.36245 198.958 9.54474 198.731C9.72704 198.502 9.86198 198.286 9.94957 198.085C10.0395 197.881 10.0845 197.668 10.0845 197.446C10.0845 197.19 10.023 196.969 9.89986 196.782C9.77912 196.595 9.6134 196.45 9.4027 196.348C9.192 196.247 8.95526 196.196 8.69247 196.196C8.41312 196.196 8.16927 196.254 7.96094 196.37C7.75497 196.483 7.59517 196.643 7.48153 196.849C7.37027 197.055 7.31463 197.297 7.31463 197.574H6.47656C6.47656 197.147 6.57481 196.773 6.77131 196.451C6.9678 196.129 7.23532 195.878 7.57386 195.699C7.91477 195.519 8.29711 195.429 8.72088 195.429C9.14702 195.429 9.52462 195.519 9.85369 195.699C10.1828 195.878 10.4408 196.121 10.6278 196.426C10.8149 196.732 10.9084 197.072 10.9084 197.446C10.9084 197.713 10.8598 197.975 10.7628 198.23C10.6681 198.484 10.5024 198.767 10.2656 199.079C10.0312 199.389 9.70573 199.768 9.28906 200.216L7.65554 201.963V202.02H11.0362V202.801H6.44815ZM14.875 202.9C14.34 202.9 13.8842 202.755 13.5078 202.463C13.1314 202.17 12.8438 201.745 12.6449 201.189C12.446 200.63 12.3466 199.955 12.3466 199.164C12.3466 198.378 12.446 197.707 12.6449 197.151C12.8461 196.592 13.1349 196.166 13.5114 195.873C13.8902 195.577 14.3447 195.429 14.875 195.429C15.4053 195.429 15.8587 195.577 16.2351 195.873C16.6139 196.166 16.9027 196.592 17.1016 197.151C17.3028 197.707 17.4034 198.378 17.4034 199.164C17.4034 199.955 17.304 200.63 17.1051 201.189C16.9062 201.745 16.6186 202.17 16.2422 202.463C15.8658 202.755 15.41 202.9 14.875 202.9ZM14.875 202.119C15.4053 202.119 15.8172 201.863 16.1108 201.352C16.4044 200.841 16.5511 200.111 16.5511 199.164C16.5511 198.535 16.4837 197.998 16.3487 197.556C16.2161 197.113 16.0244 196.776 15.7734 196.544C15.5249 196.312 15.2254 196.196 14.875 196.196C14.3494 196.196 13.9387 196.455 13.6428 196.973C13.3468 197.489 13.1989 198.22 13.1989 199.164C13.1989 199.794 13.2652 200.329 13.3977 200.77C13.5303 201.21 13.7209 201.545 13.9695 201.775C14.2204 202.004 14.5223 202.119 14.875 202.119Z" fill="#7B8092"/>
<path d="M14.875 249.099C14.34 249.099 13.8842 248.954 13.5078 248.663C13.1314 248.369 12.8438 247.944 12.6449 247.388C12.446 246.829 12.3466 246.154 12.3466 245.364C12.3466 244.578 12.446 243.906 12.6449 243.35C12.8461 242.791 13.1349 242.365 13.5114 242.072C13.8902 241.776 14.3447 241.628 14.875 241.628C15.4053 241.628 15.8587 241.776 16.2351 242.072C16.6139 242.365 16.9027 242.791 17.1016 243.35C17.3028 243.906 17.4034 244.578 17.4034 245.364C17.4034 246.154 17.304 246.829 17.1051 247.388C16.9062 247.944 16.6186 248.369 16.2422 248.663C15.8658 248.954 15.41 249.099 14.875 249.099ZM14.875 248.318C15.4053 248.318 15.8172 248.062 16.1108 247.551C16.4044 247.04 16.5511 246.311 16.5511 245.364C16.5511 244.734 16.4837 244.198 16.3487 243.755C16.2161 243.312 16.0244 242.975 15.7734 242.743C15.5249 242.511 15.2254 242.395 14.875 242.395C14.3494 242.395 13.9387 242.654 13.6428 243.173C13.3468 243.689 13.1989 244.419 13.1989 245.364C13.1989 245.993 13.2652 246.528 13.3977 246.969C13.5303 247.409 13.7209 247.744 13.9695 247.974C14.2204 248.203 14.5223 248.318 14.875 248.318Z" fill="#7B8092"/>
<path d="M36 244.961L545 244.961" stroke="#D8DDE7"/>
<rect x="47" y="126" width="15" height="119" fill="#F1F2F9"/>
<rect x="104.625" y="100" width="15" height="145" fill="#F1F2F9"/>
<rect x="162.25" y="100" width="15" height="145" fill="#F1F2F9"/>
<rect x="219.875" y="126" width="15" height="119" fill="#F1F2F9"/>
<rect x="277.5" y="110" width="14" height="135" fill="#F1F2F9"/>
<rect x="334.125" y="100" width="14" height="145" fill="#F1F2F9"/>
<rect x="390.75" y="88" width="15" height="157" fill="#F1F2F9"/>
<rect x="448.375" y="88" width="15" height="157" fill="#F1F2F9"/>
<rect x="506" y="88" width="15" height="157" fill="#F1F2F9"/>
<path d="M48.7077 251.727H49.5884V256.926C49.5884 257.39 49.5032 257.784 49.3327 258.109C49.1623 258.433 48.922 258.679 48.6119 258.847C48.3017 259.015 47.936 259.099 47.5146 259.099C47.1168 259.099 46.7629 259.027 46.4528 258.883C46.1426 258.736 45.8988 258.528 45.7212 258.258C45.5437 257.988 45.4549 257.667 45.4549 257.295H46.3214C46.3214 257.501 46.3723 257.681 46.4741 257.835C46.5782 257.987 46.7203 258.105 46.9002 258.19C47.0801 258.276 47.2849 258.318 47.5146 258.318C47.7679 258.318 47.9833 258.265 48.1609 258.158C48.3384 258.052 48.4734 257.896 48.5657 257.69C48.6604 257.481 48.7077 257.227 48.7077 256.926V251.727ZM52.8448 259.128C52.4992 259.128 52.1855 259.063 51.9038 258.933C51.622 258.8 51.3983 258.609 51.2326 258.361C51.0669 258.11 50.984 257.807 50.984 257.452C50.984 257.139 51.0456 256.886 51.1687 256.692C51.2918 256.495 51.4563 256.341 51.6623 256.23C51.8683 256.119 52.0955 256.036 52.3441 255.982C52.5951 255.925 52.8472 255.88 53.1005 255.847C53.4319 255.804 53.7006 255.772 53.9066 255.751C54.1149 255.727 54.2665 255.688 54.3612 255.634C54.4582 255.579 54.5067 255.484 54.5067 255.349V255.321C54.5067 254.971 54.4109 254.698 54.2191 254.504C54.0297 254.31 53.7421 254.213 53.3562 254.213C52.9561 254.213 52.6424 254.301 52.4151 254.476C52.1879 254.651 52.0281 254.838 51.9357 255.037L51.1403 254.753C51.2823 254.421 51.4717 254.163 51.7085 253.979C51.9476 253.792 52.208 253.661 52.4897 253.588C52.7738 253.512 53.0531 253.474 53.3278 253.474C53.503 253.474 53.7042 253.496 53.9315 253.538C54.1611 253.579 54.3825 253.663 54.5955 253.79C54.811 253.918 54.9897 254.111 55.1317 254.369C55.2738 254.627 55.3448 254.973 55.3448 255.406V259H54.5067V258.261H54.4641C54.4073 258.38 54.3126 258.506 54.18 258.641C54.0475 258.776 53.8711 258.891 53.6509 258.986C53.4308 259.08 53.1621 259.128 52.8448 259.128ZM52.9727 258.375C53.3041 258.375 53.5835 258.31 53.8107 258.18C54.0404 258.049 54.2132 257.881 54.3292 257.675C54.4476 257.469 54.5067 257.253 54.5067 257.026V256.259C54.4712 256.301 54.3931 256.34 54.2724 256.376C54.154 256.409 54.0167 256.438 53.8604 256.464C53.7066 256.488 53.5562 256.509 53.4094 256.528C53.265 256.545 53.1478 256.559 53.0579 256.571C52.8401 256.599 52.6365 256.646 52.4471 256.71C52.2601 256.771 52.1085 256.865 51.9925 256.99C51.8789 257.113 51.8221 257.281 51.8221 257.494C51.8221 257.786 51.9298 258.006 52.1452 258.155C52.363 258.302 52.6388 258.375 52.9727 258.375ZM57.7125 255.719V259H56.8745V253.545H57.6841V254.398H57.7551C57.883 254.121 58.0771 253.898 58.3375 253.73C58.598 253.56 58.9341 253.474 59.3461 253.474C59.7154 253.474 60.0385 253.55 60.3155 253.702C60.5925 253.851 60.8079 254.078 60.9618 254.384C61.1157 254.687 61.1926 255.07 61.1926 255.534V259H60.3546V255.591C60.3546 255.162 60.2433 254.829 60.0208 254.589C59.7982 254.348 59.4928 254.227 59.1046 254.227C58.8371 254.227 58.598 254.285 58.3873 254.401C58.1789 254.517 58.0144 254.687 57.8936 254.909C57.7729 255.132 57.7125 255.402 57.7125 255.719Z" fill="#73777F"/>
<path d="M102.506 259V251.727H106.866V252.509H103.386V254.966H106.54V255.747H103.386V259H102.506ZM110.148 259.114C109.622 259.114 109.169 258.998 108.788 258.766C108.409 258.531 108.116 258.205 107.911 257.786C107.707 257.364 107.605 256.874 107.605 256.315C107.605 255.757 107.707 255.264 107.911 254.838C108.116 254.41 108.403 254.076 108.77 253.837C109.139 253.595 109.57 253.474 110.062 253.474C110.347 253.474 110.627 253.522 110.904 253.616C111.181 253.711 111.433 253.865 111.661 254.078C111.888 254.289 112.069 254.568 112.204 254.916C112.339 255.264 112.406 255.693 112.406 256.202V256.557H108.202V255.832H111.554C111.554 255.525 111.492 255.25 111.369 255.009C111.249 254.767 111.076 254.576 110.851 254.437C110.628 254.297 110.366 254.227 110.062 254.227C109.729 254.227 109.44 254.31 109.196 254.476C108.955 254.639 108.769 254.852 108.638 255.115C108.508 255.378 108.443 255.66 108.443 255.96V256.443C108.443 256.855 108.514 257.204 108.656 257.491C108.801 257.775 109.001 257.991 109.256 258.141C109.512 258.287 109.809 258.361 110.148 258.361C110.368 258.361 110.567 258.33 110.744 258.268C110.924 258.205 111.079 258.11 111.21 257.984C111.34 257.857 111.44 257.698 111.511 257.509L112.321 257.736C112.236 258.01 112.093 258.252 111.891 258.46C111.69 258.666 111.442 258.827 111.146 258.943C110.85 259.057 110.517 259.114 110.148 259.114ZM113.795 259V251.727H114.633V254.412H114.704C114.765 254.317 114.851 254.196 114.96 254.05C115.071 253.901 115.229 253.768 115.435 253.652C115.644 253.534 115.925 253.474 116.281 253.474C116.74 253.474 117.145 253.589 117.495 253.819C117.845 254.049 118.119 254.374 118.315 254.795C118.512 255.217 118.61 255.714 118.61 256.287C118.61 256.865 118.512 257.365 118.315 257.789C118.119 258.21 117.847 258.537 117.499 258.769C117.151 258.999 116.749 259.114 116.295 259.114C115.944 259.114 115.664 259.056 115.453 258.94C115.242 258.821 115.08 258.687 114.967 258.538C114.853 258.387 114.765 258.261 114.704 258.162H114.604V259H113.795ZM114.619 256.273C114.619 256.685 114.679 257.048 114.8 257.363C114.92 257.675 115.097 257.92 115.329 258.098C115.561 258.273 115.845 258.361 116.181 258.361C116.531 258.361 116.824 258.268 117.058 258.084C117.295 257.897 117.473 257.646 117.591 257.331C117.712 257.014 117.772 256.661 117.772 256.273C117.772 255.889 117.713 255.544 117.594 255.236C117.478 254.926 117.302 254.681 117.065 254.501C116.831 254.318 116.536 254.227 116.181 254.227C115.84 254.227 115.554 254.314 115.322 254.487C115.09 254.657 114.915 254.896 114.796 255.204C114.678 255.509 114.619 255.866 114.619 256.273Z" fill="#73777F"/>
<path d="M160.005 251.727H161.056L163.527 257.764H163.613L166.084 251.727H167.135V259H166.312V253.474H166.241L163.968 259H163.172L160.9 253.474H160.829V259H160.005V251.727ZM170.393 259.128C170.047 259.128 169.733 259.063 169.452 258.933C169.17 258.8 168.946 258.609 168.78 258.361C168.615 258.11 168.532 257.807 168.532 257.452C168.532 257.139 168.593 256.886 168.717 256.692C168.84 256.495 169.004 256.341 169.21 256.23C169.416 256.119 169.643 256.036 169.892 255.982C170.143 255.925 170.395 255.88 170.648 255.847C170.98 255.804 171.248 255.772 171.454 255.751C171.663 255.727 171.814 255.688 171.909 255.634C172.006 255.579 172.055 255.484 172.055 255.349V255.321C172.055 254.971 171.959 254.698 171.767 254.504C171.578 254.31 171.29 254.213 170.904 254.213C170.504 254.213 170.19 254.301 169.963 254.476C169.736 254.651 169.576 254.838 169.484 255.037L168.688 254.753C168.83 254.421 169.02 254.163 169.256 253.979C169.495 253.792 169.756 253.661 170.038 253.588C170.322 253.512 170.601 253.474 170.876 253.474C171.051 253.474 171.252 253.496 171.479 253.538C171.709 253.579 171.93 253.663 172.143 253.79C172.359 253.918 172.538 254.111 172.68 254.369C172.822 254.627 172.893 254.973 172.893 255.406V259H172.055V258.261H172.012C171.955 258.38 171.86 258.506 171.728 258.641C171.595 258.776 171.419 258.891 171.199 258.986C170.979 259.08 170.71 259.128 170.393 259.128ZM170.521 258.375C170.852 258.375 171.131 258.31 171.359 258.18C171.588 258.049 171.761 257.881 171.877 257.675C171.995 257.469 172.055 257.253 172.055 257.026V256.259C172.019 256.301 171.941 256.34 171.82 256.376C171.702 256.409 171.565 256.438 171.408 256.464C171.254 256.488 171.104 256.509 170.957 256.528C170.813 256.545 170.696 256.559 170.606 256.571C170.388 256.599 170.184 256.646 169.995 256.71C169.808 256.771 169.656 256.865 169.54 256.99C169.427 257.113 169.37 257.281 169.37 257.494C169.37 257.786 169.478 258.006 169.693 258.155C169.911 258.302 170.187 258.375 170.521 258.375ZM174.422 259V253.545H175.232V254.369H175.289C175.388 254.099 175.568 253.88 175.829 253.712C176.089 253.544 176.383 253.46 176.709 253.46C176.771 253.46 176.848 253.461 176.94 253.464C177.032 253.466 177.102 253.47 177.15 253.474V254.327C177.121 254.32 177.056 254.309 176.954 254.295C176.855 254.278 176.749 254.27 176.638 254.27C176.373 254.27 176.136 254.326 175.928 254.437C175.722 254.546 175.559 254.697 175.438 254.891C175.32 255.083 175.26 255.302 175.26 255.548V259H174.422Z" fill="#73777F"/>
<path d="M219.018 259H218.095L220.765 251.727H221.674L224.345 259H223.421L221.248 252.878H221.191L219.018 259ZM219.359 256.159H223.08V256.94H219.359V256.159ZM225.364 261.045V253.545H226.173V254.412H226.273C226.334 254.317 226.42 254.196 226.528 254.05C226.64 253.901 226.798 253.768 227.004 253.652C227.213 253.534 227.494 253.474 227.85 253.474C228.309 253.474 228.714 253.589 229.064 253.819C229.414 254.049 229.688 254.374 229.884 254.795C230.081 255.217 230.179 255.714 230.179 256.287C230.179 256.865 230.081 257.365 229.884 257.789C229.688 258.21 229.416 258.537 229.068 258.769C228.72 258.999 228.318 259.114 227.864 259.114C227.513 259.114 227.233 259.056 227.022 258.94C226.811 258.821 226.649 258.687 226.536 258.538C226.422 258.387 226.334 258.261 226.273 258.162H226.202V261.045H225.364ZM226.188 256.273C226.188 256.685 226.248 257.048 226.369 257.363C226.489 257.675 226.666 257.92 226.898 258.098C227.13 258.273 227.414 258.361 227.75 258.361C228.1 258.361 228.393 258.268 228.627 258.084C228.864 257.897 229.042 257.646 229.16 257.331C229.281 257.014 229.341 256.661 229.341 256.273C229.341 255.889 229.282 255.544 229.163 255.236C229.047 254.926 228.871 254.681 228.634 254.501C228.4 254.318 228.105 254.227 227.75 254.227C227.409 254.227 227.123 254.314 226.891 254.487C226.659 254.657 226.484 254.896 226.365 255.204C226.247 255.509 226.188 255.866 226.188 256.273ZM231.457 259V253.545H232.267V254.369H232.324C232.423 254.099 232.603 253.88 232.864 253.712C233.124 253.544 233.418 253.46 233.744 253.46C233.806 253.46 233.883 253.461 233.975 253.464C234.068 253.466 234.137 253.47 234.185 253.474V254.327C234.156 254.32 234.091 254.309 233.989 254.295C233.89 254.278 233.785 254.27 233.673 254.27C233.408 254.27 233.171 254.326 232.963 254.437C232.757 254.546 232.594 254.697 232.473 254.891C232.355 255.083 232.296 255.302 232.296 255.548V259H231.457Z" fill="#73777F"/>
<path d="M275.43 251.727H276.481L278.952 257.764H279.037L281.509 251.727H282.56V259H281.736V253.474H281.665L279.393 259H278.597L276.324 253.474H276.253V259H275.43V251.727ZM285.817 259.128C285.472 259.128 285.158 259.063 284.876 258.933C284.595 258.8 284.371 258.609 284.205 258.361C284.04 258.11 283.957 257.807 283.957 257.452C283.957 257.139 284.018 256.886 284.141 256.692C284.264 256.495 284.429 256.341 284.635 256.23C284.841 256.119 285.068 256.036 285.317 255.982C285.568 255.925 285.82 255.88 286.073 255.847C286.405 255.804 286.673 255.772 286.879 255.751C287.088 255.727 287.239 255.688 287.334 255.634C287.431 255.579 287.479 255.484 287.479 255.349V255.321C287.479 254.971 287.384 254.698 287.192 254.504C287.002 254.31 286.715 254.213 286.329 254.213C285.929 254.213 285.615 254.301 285.388 254.476C285.161 254.651 285.001 254.838 284.908 255.037L284.113 254.753C284.255 254.421 284.444 254.163 284.681 253.979C284.92 253.792 285.181 253.661 285.462 253.588C285.746 253.512 286.026 253.474 286.3 253.474C286.476 253.474 286.677 253.496 286.904 253.538C287.134 253.579 287.355 253.663 287.568 253.79C287.784 253.918 287.962 254.111 288.104 254.369C288.246 254.627 288.317 254.973 288.317 255.406V259H287.479V258.261H287.437C287.38 258.38 287.285 258.506 287.153 258.641C287.02 258.776 286.844 258.891 286.624 258.986C286.403 259.08 286.135 259.128 285.817 259.128ZM285.945 258.375C286.277 258.375 286.556 258.31 286.783 258.18C287.013 258.049 287.186 257.881 287.302 257.675C287.42 257.469 287.479 257.253 287.479 257.026V256.259C287.444 256.301 287.366 256.34 287.245 256.376C287.127 256.409 286.989 256.438 286.833 256.464C286.679 256.488 286.529 256.509 286.382 256.528C286.238 256.545 286.121 256.559 286.031 256.571C285.813 256.599 285.609 256.646 285.42 256.71C285.233 256.771 285.081 256.865 284.965 256.99C284.852 257.113 284.795 257.281 284.795 257.494C284.795 257.786 284.902 258.006 285.118 258.155C285.336 258.302 285.612 258.375 285.945 258.375ZM290.192 261.045C290.05 261.045 289.923 261.034 289.812 261.01C289.7 260.989 289.623 260.967 289.581 260.946L289.794 260.207C289.997 260.259 290.177 260.278 290.334 260.264C290.49 260.25 290.628 260.18 290.749 260.055C290.872 259.932 290.985 259.732 291.086 259.455L291.243 259.028L289.226 253.545H290.135L291.64 257.892H291.697L293.203 253.545H294.112L291.797 259.795C291.693 260.077 291.564 260.31 291.41 260.495C291.256 260.682 291.077 260.821 290.873 260.911C290.672 261 290.445 261.045 290.192 261.045Z" fill="#73777F"/>
<path d="M337.995 251.727H338.876V256.926C338.876 257.39 338.79 257.784 338.62 258.109C338.449 258.433 338.209 258.679 337.899 258.847C337.589 259.015 337.223 259.099 336.802 259.099C336.404 259.099 336.05 259.027 335.74 258.883C335.43 258.736 335.186 258.528 335.008 258.258C334.831 257.988 334.742 257.667 334.742 257.295H335.608C335.608 257.501 335.659 257.681 335.761 257.835C335.865 257.987 336.007 258.105 336.187 258.19C336.367 258.276 336.572 258.318 336.802 258.318C337.055 258.318 337.27 258.265 337.448 258.158C337.626 258.052 337.76 257.896 337.853 257.69C337.948 257.481 337.995 257.227 337.995 256.926V251.727ZM343.964 256.77V253.545H344.802V259H343.964V258.077H343.907C343.78 258.354 343.581 258.589 343.311 258.783C343.041 258.975 342.7 259.071 342.288 259.071C341.947 259.071 341.644 258.996 341.379 258.847C341.114 258.696 340.906 258.469 340.754 258.165C340.603 257.86 340.527 257.475 340.527 257.011V253.545H341.365V256.955C341.365 257.352 341.476 257.67 341.699 257.906C341.924 258.143 342.21 258.261 342.558 258.261C342.766 258.261 342.978 258.208 343.194 258.102C343.412 257.995 343.594 257.832 343.741 257.612C343.89 257.391 343.964 257.111 343.964 256.77ZM347.175 255.719V259H346.337V253.545H347.147V254.398H347.218C347.346 254.121 347.54 253.898 347.8 253.73C348.061 253.56 348.397 253.474 348.809 253.474C349.178 253.474 349.501 253.55 349.778 253.702C350.055 253.851 350.271 254.078 350.425 254.384C350.579 254.687 350.656 255.07 350.656 255.534V259H349.817V255.591C349.817 255.162 349.706 254.829 349.484 254.589C349.261 254.348 348.956 254.227 348.567 254.227C348.3 254.227 348.061 254.285 347.85 254.401C347.642 254.517 347.477 254.687 347.357 254.909C347.236 255.132 347.175 255.402 347.175 255.719Z" fill="#73777F"/>
<path d="M397.108 251.727H397.989V256.926C397.989 257.39 397.904 257.784 397.733 258.109C397.563 258.433 397.322 258.679 397.012 258.847C396.702 259.015 396.336 259.099 395.915 259.099C395.517 259.099 395.163 259.027 394.853 258.883C394.543 258.736 394.299 258.528 394.122 258.258C393.944 257.988 393.855 257.667 393.855 257.295H394.722C394.722 257.501 394.773 257.681 394.874 257.835C394.979 257.987 395.121 258.105 395.301 258.19C395.481 258.276 395.685 258.318 395.915 258.318C396.168 258.318 396.384 258.265 396.561 258.158C396.739 258.052 396.874 257.896 396.966 257.69C397.061 257.481 397.108 257.227 397.108 256.926V251.727ZM403.078 256.77V253.545H403.916V259H403.078V258.077H403.021C402.893 258.354 402.694 258.589 402.424 258.783C402.154 258.975 401.813 259.071 401.401 259.071C401.061 259.071 400.758 258.996 400.492 258.847C400.227 258.696 400.019 258.469 399.867 258.165C399.716 257.86 399.64 257.475 399.64 257.011V253.545H400.478V256.955C400.478 257.352 400.589 257.67 400.812 257.906C401.037 258.143 401.323 258.261 401.671 258.261C401.88 258.261 402.092 258.208 402.307 258.102C402.525 257.995 402.707 257.832 402.854 257.612C403.003 257.391 403.078 257.111 403.078 256.77ZM406.289 251.727V259H405.451V251.727H406.289Z" fill="#73777F"/>
<path d="M449.973 259H449.05L451.72 251.727H452.629L455.3 259H454.376L452.203 252.878H452.146L449.973 259ZM450.314 256.159H454.035V256.94H450.314V256.159ZM459.756 256.77V253.545H460.594V259H459.756V258.077H459.699C459.572 258.354 459.373 258.589 459.103 258.783C458.833 258.975 458.492 259.071 458.08 259.071C457.739 259.071 457.436 258.996 457.171 258.847C456.906 258.696 456.698 258.469 456.546 258.165C456.395 257.86 456.319 257.475 456.319 257.011V253.545H457.157V256.955C457.157 257.352 457.268 257.67 457.491 257.906C457.716 258.143 458.002 258.261 458.35 258.261C458.558 258.261 458.77 258.208 458.986 258.102C459.204 257.995 459.386 257.832 459.533 257.612C459.682 257.391 459.756 257.111 459.756 256.77ZM464.331 261.159C463.926 261.159 463.578 261.107 463.287 261.003C462.996 260.901 462.753 260.766 462.559 260.598C462.367 260.432 462.215 260.255 462.101 260.065L462.769 259.597C462.844 259.696 462.94 259.81 463.056 259.938C463.172 260.068 463.331 260.18 463.532 260.275C463.736 260.372 464.002 260.42 464.331 260.42C464.771 260.42 465.135 260.314 465.421 260.101C465.708 259.888 465.851 259.554 465.851 259.099V257.991H465.78C465.718 258.091 465.631 258.214 465.517 258.361C465.406 258.505 465.245 258.634 465.034 258.748C464.826 258.859 464.544 258.915 464.189 258.915C463.749 258.915 463.353 258.811 463.003 258.602C462.655 258.394 462.379 258.091 462.176 257.693C461.974 257.295 461.874 256.812 461.874 256.244C461.874 255.686 461.972 255.199 462.168 254.785C462.365 254.368 462.638 254.046 462.989 253.819C463.339 253.589 463.744 253.474 464.203 253.474C464.558 253.474 464.84 253.534 465.048 253.652C465.259 253.768 465.42 253.901 465.531 254.05C465.645 254.196 465.733 254.317 465.794 254.412H465.879V253.545H466.689V259.156C466.689 259.625 466.582 260.006 466.369 260.3C466.159 260.596 465.875 260.812 465.517 260.95C465.162 261.089 464.767 261.159 464.331 261.159ZM464.303 258.162C464.639 258.162 464.923 258.085 465.155 257.931C465.387 257.777 465.563 257.556 465.684 257.267C465.805 256.978 465.865 256.633 465.865 256.23C465.865 255.837 465.806 255.49 465.688 255.19C465.569 254.889 465.394 254.653 465.162 254.483C464.93 254.312 464.644 254.227 464.303 254.227C463.948 254.227 463.652 254.317 463.415 254.497C463.18 254.677 463.004 254.919 462.886 255.222C462.77 255.525 462.712 255.861 462.712 256.23C462.712 256.609 462.771 256.944 462.889 257.235C463.01 257.524 463.188 257.751 463.422 257.917C463.659 258.08 463.952 258.162 464.303 258.162Z" fill="#73777F"/>
<path d="M511.834 253.727C511.801 253.416 511.661 253.175 511.415 253.002C511.171 252.829 510.854 252.743 510.463 252.743C510.188 252.743 509.953 252.784 509.756 252.867C509.56 252.95 509.41 253.062 509.305 253.205C509.201 253.347 509.148 253.509 509.146 253.691C509.146 253.843 509.18 253.974 509.249 254.085C509.32 254.196 509.415 254.291 509.536 254.369C509.657 254.445 509.791 254.509 509.938 254.561C510.084 254.613 510.232 254.657 510.381 254.692L511.063 254.863C511.338 254.927 511.602 255.013 511.855 255.122C512.111 255.231 512.339 255.368 512.54 255.534C512.744 255.7 512.905 255.9 513.023 256.134C513.142 256.369 513.201 256.643 513.201 256.958C513.201 257.384 513.092 257.759 512.874 258.084C512.656 258.406 512.342 258.658 511.93 258.84C511.52 259.02 511.024 259.11 510.442 259.11C509.876 259.11 509.385 259.022 508.968 258.847C508.554 258.672 508.229 258.416 507.995 258.08C507.763 257.744 507.638 257.335 507.619 256.852H508.915C508.934 257.105 509.012 257.316 509.149 257.484C509.286 257.652 509.465 257.777 509.685 257.86C509.908 257.943 510.156 257.984 510.431 257.984C510.718 257.984 510.969 257.942 511.184 257.857C511.402 257.769 511.572 257.648 511.695 257.494C511.818 257.338 511.881 257.156 511.884 256.947C511.881 256.758 511.826 256.602 511.717 256.479C511.608 256.353 511.455 256.249 511.259 256.166C511.064 256.081 510.837 256.005 510.577 255.939L509.749 255.726C509.15 255.572 508.677 255.339 508.329 255.026C507.983 254.711 507.81 254.294 507.81 253.773C507.81 253.344 507.926 252.969 508.158 252.647C508.393 252.325 508.711 252.075 509.114 251.898C509.516 251.718 509.972 251.628 510.481 251.628C510.997 251.628 511.449 251.718 511.837 251.898C512.228 252.075 512.535 252.323 512.757 252.64C512.98 252.955 513.094 253.317 513.102 253.727H511.834ZM516.733 259.107C516.187 259.107 515.714 258.993 515.317 258.766C514.921 258.536 514.617 258.212 514.404 257.793C514.191 257.371 514.084 256.875 514.084 256.305C514.084 255.744 514.191 255.251 514.404 254.827C514.619 254.401 514.92 254.07 515.306 253.833C515.692 253.594 516.145 253.474 516.666 253.474C517.002 253.474 517.319 253.529 517.618 253.638C517.918 253.744 518.184 253.91 518.413 254.135C518.645 254.36 518.827 254.646 518.96 254.994C519.093 255.34 519.159 255.752 519.159 256.23V256.624H514.688V255.758H517.927C517.924 255.512 517.871 255.293 517.767 255.101C517.663 254.907 517.517 254.754 517.33 254.643C517.145 254.531 516.93 254.476 516.684 254.476C516.421 254.476 516.19 254.54 515.991 254.668C515.792 254.793 515.637 254.959 515.526 255.165C515.417 255.368 515.362 255.592 515.359 255.836V256.592C515.359 256.91 515.417 257.182 515.533 257.409C515.649 257.634 515.811 257.807 516.02 257.928C516.228 258.046 516.472 258.105 516.751 258.105C516.938 258.105 517.108 258.079 517.259 258.027C517.411 257.973 517.542 257.893 517.653 257.789C517.765 257.685 517.849 257.556 517.905 257.402L519.106 257.537C519.03 257.854 518.885 258.131 518.672 258.368C518.462 258.602 518.192 258.785 517.863 258.915C517.534 259.043 517.157 259.107 516.733 259.107ZM520.246 261.045V253.545H521.511V254.447H521.585C521.652 254.315 521.745 254.174 521.866 254.025C521.987 253.873 522.15 253.744 522.356 253.638C522.562 253.529 522.825 253.474 523.144 253.474C523.566 253.474 523.946 253.582 524.284 253.798C524.625 254.011 524.895 254.327 525.094 254.746C525.295 255.162 525.396 255.674 525.396 256.28C525.396 256.879 525.297 257.388 525.101 257.807C524.904 258.226 524.637 258.545 524.298 258.766C523.96 258.986 523.576 259.096 523.148 259.096C522.835 259.096 522.576 259.044 522.37 258.94C522.164 258.835 521.998 258.71 521.873 258.563C521.75 258.414 521.654 258.273 521.585 258.141H521.532V261.045H520.246ZM521.507 256.273C521.507 256.625 521.557 256.934 521.656 257.2C521.758 257.465 521.904 257.672 522.093 257.821C522.285 257.968 522.517 258.041 522.789 258.041C523.073 258.041 523.311 257.965 523.503 257.814C523.695 257.66 523.839 257.451 523.936 257.185C524.036 256.918 524.085 256.614 524.085 256.273C524.085 255.934 524.037 255.634 523.94 255.371C523.843 255.108 523.698 254.902 523.506 254.753C523.315 254.604 523.076 254.529 522.789 254.529C522.514 254.529 522.281 254.601 522.089 254.746C521.898 254.89 521.752 255.093 521.653 255.353C521.556 255.613 521.507 255.92 521.507 256.273Z" fill="#141630"/>
</svg>
