<svg width="1400" height="268" viewBox="0 0 1400 268" fill="none" xmlns="http://www.w3.org/2000/svg">
<rect width="1400" height="268" fill="white"/>
<path d="M41 245H1152" stroke="#D8DDE7"/>
<path d="M61.9521 260V259.361L64.3526 256.733C64.6344 256.425 64.8664 256.158 65.0487 255.93C65.2309 255.701 65.3659 255.485 65.4535 255.284C65.5434 255.08 65.5884 254.867 65.5884 254.645C65.5884 254.389 65.5269 254.168 65.4038 253.981C65.283 253.794 65.1173 253.649 64.9066 253.548C64.6959 253.446 64.4592 253.395 64.1964 253.395C63.917 253.395 63.6732 253.453 63.4648 253.569C63.2589 253.683 63.0991 253.842 62.9854 254.048C62.8742 254.254 62.8185 254.496 62.8185 254.773H61.9805C61.9805 254.347 62.0787 253.973 62.2752 253.651C62.4717 253.329 62.7392 253.078 63.0778 252.898C63.4187 252.718 63.801 252.628 64.2248 252.628C64.6509 252.628 65.0285 252.718 65.3576 252.898C65.6867 253.078 65.9447 253.32 66.1317 253.626C66.3188 253.931 66.4123 254.271 66.4123 254.645C66.4123 254.912 66.3638 255.174 66.2667 255.43C66.172 255.683 66.0063 255.966 65.7695 256.278C65.5352 256.589 65.2096 256.967 64.793 257.415L63.1594 259.162V259.219H66.5401V260H61.9521ZM70.3789 260.099C69.8439 260.099 69.3881 259.954 69.0117 259.663C68.6353 259.369 68.3477 258.944 68.1488 258.388C67.9499 257.829 67.8505 257.154 67.8505 256.364C67.8505 255.578 67.9499 254.906 68.1488 254.35C68.35 253.791 68.6388 253.365 69.0153 253.072C69.3941 252.776 69.8486 252.628 70.3789 252.628C70.9092 252.628 71.3626 252.776 71.739 253.072C72.1178 253.365 72.4066 253.791 72.6055 254.35C72.8067 254.906 72.9073 255.578 72.9073 256.364C72.9073 257.154 72.8079 257.829 72.609 258.388C72.4102 258.944 72.1225 259.369 71.7461 259.663C71.3697 259.954 70.9139 260.099 70.3789 260.099ZM70.3789 259.318C70.9092 259.318 71.3211 259.062 71.6147 258.551C71.9083 258.04 72.055 257.311 72.055 256.364C72.055 255.734 71.9876 255.198 71.8526 254.755C71.7201 254.312 71.5283 253.975 71.2773 253.743C71.0288 253.511 70.7293 253.395 70.3789 253.395C69.8533 253.395 69.4426 253.654 69.1467 254.173C68.8507 254.689 68.7028 255.419 68.7028 256.364C68.7028 256.993 68.7691 257.528 68.9016 257.969C69.0342 258.409 69.2248 258.744 69.4734 258.974C69.7243 259.203 70.0262 259.318 70.3789 259.318ZM76.8136 252.727V260H75.9329V253.651H75.8903L74.1147 254.83V253.935L75.9329 252.727H76.8136ZM81.462 252.727V260H80.5813V253.651H80.5387L78.7631 254.83V253.935L80.5813 252.727H81.462Z" fill="#73777F"/>
<path d="M175.255 252.727V260H174.374V253.651H174.332L172.556 254.83V253.935L174.374 252.727H175.255ZM177.347 260V259.361L179.747 256.733C180.029 256.425 180.261 256.158 180.443 255.93C180.625 255.701 180.76 255.485 180.848 255.284C180.938 255.08 180.983 254.867 180.983 254.645C180.983 254.389 180.921 254.168 180.798 253.981C180.678 253.794 180.512 253.649 180.301 253.548C180.09 253.446 179.854 253.395 179.591 253.395C179.312 253.395 179.068 253.453 178.859 253.569C178.653 253.683 178.494 253.842 178.38 254.048C178.269 254.254 178.213 254.496 178.213 254.773H177.375C177.375 254.347 177.473 253.973 177.67 253.651C177.866 253.329 178.134 253.078 178.472 252.898C178.813 252.718 179.196 252.628 179.619 252.628C180.045 252.628 180.423 252.718 180.752 252.898C181.081 253.078 181.339 253.32 181.526 253.626C181.713 253.931 181.807 254.271 181.807 254.645C181.807 254.912 181.758 255.174 181.661 255.43C181.567 255.683 181.401 255.966 181.164 256.278C180.93 256.589 180.604 256.967 180.188 257.415L178.554 259.162V259.219H181.935V260H177.347Z" fill="#73777F"/>
<path d="M278.403 252.727V260H277.523V253.651H277.48L275.705 254.83V253.935L277.523 252.727H278.403ZM282.952 260.099C282.484 260.099 282.066 260.019 281.699 259.858C281.334 259.697 281.044 259.473 280.829 259.187C280.616 258.898 280.5 258.563 280.481 258.182H281.376C281.395 258.416 281.475 258.619 281.617 258.789C281.759 258.957 281.945 259.087 282.175 259.18C282.404 259.272 282.659 259.318 282.938 259.318C283.251 259.318 283.528 259.264 283.769 259.155C284.011 259.046 284.2 258.894 284.337 258.7C284.475 258.506 284.543 258.281 284.543 258.026C284.543 257.758 284.477 257.522 284.344 257.319C284.212 257.113 284.018 256.952 283.762 256.836C283.506 256.72 283.194 256.662 282.825 256.662H282.242V255.881H282.825C283.113 255.881 283.367 255.829 283.585 255.724C283.805 255.62 283.976 255.473 284.099 255.284C284.225 255.095 284.288 254.872 284.288 254.616C284.288 254.37 284.233 254.156 284.124 253.974C284.015 253.791 283.862 253.649 283.663 253.548C283.466 253.446 283.234 253.395 282.967 253.395C282.716 253.395 282.479 253.441 282.256 253.533C282.036 253.623 281.856 253.755 281.717 253.928C281.577 254.098 281.501 254.304 281.489 254.545H280.637C280.651 254.164 280.766 253.83 280.982 253.544C281.197 253.255 281.479 253.03 281.827 252.869C282.177 252.708 282.562 252.628 282.981 252.628C283.431 252.628 283.817 252.719 284.138 252.901C284.46 253.081 284.708 253.319 284.881 253.615C285.054 253.911 285.14 254.231 285.14 254.574C285.14 254.983 285.032 255.333 284.817 255.621C284.604 255.91 284.314 256.11 283.947 256.222V256.278C284.406 256.354 284.765 256.549 285.023 256.864C285.281 257.177 285.41 257.564 285.41 258.026C285.41 258.421 285.302 258.776 285.087 259.091C284.874 259.403 284.582 259.65 284.213 259.83C283.844 260.009 283.424 260.099 282.952 260.099Z" fill="#73777F"/>
<path d="M381.676 252.727V260H380.795V253.651H380.753L378.977 254.83V253.935L380.795 252.727H381.676ZM383.597 258.509V257.784L386.793 252.727H387.319V253.849H386.964L384.549 257.67V257.727H388.853V258.509H383.597ZM387.02 260V258.288V257.951V252.727H387.858V260H387.02Z" fill="#73777F"/>
<path d="M485.147 252.727V260H484.266V253.651H484.223L482.448 254.83V253.935L484.266 252.727H485.147ZM489.511 260.099C489.094 260.099 488.719 260.017 488.385 259.851C488.051 259.685 487.784 259.458 487.583 259.169C487.381 258.88 487.271 258.551 487.252 258.182H488.105C488.138 258.511 488.287 258.783 488.552 258.999C488.82 259.212 489.139 259.318 489.511 259.318C489.809 259.318 490.074 259.248 490.306 259.109C490.541 258.969 490.724 258.777 490.857 258.533C490.992 258.287 491.059 258.009 491.059 257.699C491.059 257.382 490.989 257.099 490.85 256.85C490.712 256.599 490.523 256.402 490.282 256.257C490.04 256.113 489.764 256.039 489.454 256.037C489.232 256.035 489.003 256.069 488.769 256.14C488.534 256.209 488.341 256.297 488.19 256.406L487.366 256.307L487.806 252.727H491.585V253.509H488.545L488.289 255.653H488.332C488.481 255.535 488.668 255.437 488.893 255.359C489.118 255.281 489.352 255.241 489.596 255.241C490.041 255.241 490.438 255.348 490.786 255.561C491.136 255.772 491.411 256.061 491.61 256.428C491.811 256.795 491.911 257.214 491.911 257.685C491.911 258.149 491.807 258.563 491.599 258.928C491.393 259.29 491.109 259.576 490.747 259.787C490.384 259.995 489.973 260.099 489.511 260.099Z" fill="#73777F"/>
<path d="M588.365 252.727V260H587.485V253.651H587.442L585.666 254.83V253.935L587.485 252.727H588.365ZM592.872 260.099C592.573 260.095 592.275 260.038 591.977 259.929C591.679 259.82 591.406 259.637 591.16 259.379C590.914 259.118 590.716 258.767 590.567 258.324C590.418 257.879 590.343 257.32 590.343 256.648C590.343 256.004 590.404 255.433 590.524 254.936C590.645 254.437 590.82 254.016 591.05 253.675C591.28 253.332 591.557 253.072 591.881 252.894C592.208 252.717 592.576 252.628 592.985 252.628C593.393 252.628 593.755 252.71 594.072 252.873C594.392 253.034 594.652 253.259 594.853 253.548C595.054 253.836 595.185 254.169 595.244 254.545H594.377C594.297 254.219 594.141 253.948 593.909 253.732C593.677 253.517 593.369 253.409 592.985 253.409C592.422 253.409 591.978 253.654 591.654 254.144C591.332 254.634 591.17 255.322 591.167 256.207H591.224C591.357 256.006 591.514 255.835 591.696 255.692C591.881 255.548 592.085 255.437 592.307 255.359C592.53 255.281 592.765 255.241 593.014 255.241C593.43 255.241 593.812 255.346 594.157 255.554C594.503 255.76 594.78 256.045 594.988 256.41C595.197 256.772 595.301 257.188 595.301 257.656C595.301 258.106 595.2 258.518 594.999 258.892C594.798 259.264 594.515 259.56 594.15 259.78C593.788 259.998 593.362 260.104 592.872 260.099ZM592.872 259.318C593.17 259.318 593.438 259.244 593.674 259.094C593.913 258.945 594.102 258.745 594.239 258.494C594.379 258.243 594.448 257.964 594.448 257.656C594.448 257.356 594.381 257.082 594.246 256.836C594.113 256.587 593.93 256.39 593.696 256.243C593.464 256.096 593.198 256.023 592.9 256.023C592.675 256.023 592.466 256.068 592.272 256.158C592.077 256.245 591.907 256.366 591.76 256.52C591.616 256.674 591.502 256.85 591.419 257.049C591.336 257.246 591.295 257.453 591.295 257.67C591.295 257.959 591.362 258.229 591.497 258.48C591.635 258.731 591.822 258.933 592.059 259.087C592.298 259.241 592.569 259.318 592.872 259.318Z" fill="#73777F"/>
<path d="M691.926 252.727V260H691.045V253.651H691.003L689.227 254.83V253.935L691.045 252.727H691.926ZM694.245 260L697.498 253.565V253.509H693.748V252.727H698.407V253.551L695.168 260H694.245Z" fill="#73777F"/>
<path d="M795.006 252.727V260H794.125V253.651H794.083L792.307 254.83V253.935L794.125 252.727H795.006ZM799.427 260.099C798.939 260.099 798.509 260.013 798.134 259.84C797.763 259.665 797.473 259.425 797.264 259.119C797.056 258.812 796.953 258.461 796.956 258.068C796.953 257.76 797.014 257.476 797.137 257.216C797.26 256.953 797.428 256.734 797.641 256.559C797.856 256.381 798.097 256.269 798.362 256.222V256.179C798.014 256.089 797.737 255.894 797.531 255.593C797.325 255.29 797.223 254.946 797.225 254.56C797.223 254.19 797.317 253.86 797.506 253.569C797.695 253.278 797.956 253.048 798.287 252.88C798.621 252.712 799.001 252.628 799.427 252.628C799.849 252.628 800.225 252.712 800.556 252.88C800.888 253.048 801.148 253.278 801.338 253.569C801.529 253.86 801.626 254.19 801.629 254.56C801.626 254.946 801.521 255.29 801.313 255.593C801.107 255.894 800.833 256.089 800.492 256.179V256.222C800.755 256.269 800.992 256.381 801.203 256.559C801.413 256.734 801.581 256.953 801.707 257.216C801.832 257.476 801.896 257.76 801.899 258.068C801.896 258.461 801.79 258.812 801.579 259.119C801.371 259.425 801.081 259.665 800.709 259.84C800.34 260.013 799.912 260.099 799.427 260.099ZM799.427 259.318C799.756 259.318 800.04 259.265 800.279 259.158C800.518 259.052 800.703 258.902 800.833 258.707C800.964 258.513 801.03 258.286 801.032 258.026C801.03 257.751 800.959 257.508 800.819 257.298C800.679 257.087 800.489 256.921 800.247 256.8C800.008 256.68 799.735 256.619 799.427 256.619C799.117 256.619 798.84 256.68 798.596 256.8C798.355 256.921 798.164 257.087 798.024 257.298C797.887 257.508 797.82 257.751 797.822 258.026C797.82 258.286 797.882 258.513 798.01 258.707C798.14 258.902 798.326 259.052 798.568 259.158C798.809 259.265 799.096 259.318 799.427 259.318ZM799.427 255.866C799.688 255.866 799.918 255.814 800.12 255.71C800.323 255.606 800.483 255.46 800.599 255.273C800.715 255.086 800.774 254.867 800.777 254.616C800.774 254.37 800.716 254.156 800.603 253.974C800.489 253.789 800.331 253.647 800.13 253.548C799.929 253.446 799.695 253.395 799.427 253.395C799.155 253.395 798.917 253.446 798.713 253.548C798.51 253.647 798.352 253.789 798.241 253.974C798.13 254.156 798.075 254.37 798.078 254.616C798.075 254.867 798.131 255.086 798.245 255.273C798.361 255.46 798.52 255.606 798.724 255.71C798.928 255.814 799.162 255.866 799.427 255.866Z" fill="#73777F"/>
<path d="M898.264 252.727V260H897.383V253.651H897.34L895.565 254.83V253.935L897.383 252.727H898.264ZM902.671 252.628C902.969 252.63 903.267 252.687 903.566 252.798C903.864 252.91 904.136 253.094 904.382 253.352C904.629 253.608 904.826 253.957 904.975 254.4C905.125 254.843 905.199 255.398 905.199 256.065C905.199 256.712 905.138 257.286 905.014 257.788C904.894 258.287 904.719 258.709 904.489 259.052C904.262 259.395 903.985 259.656 903.658 259.833C903.334 260.011 902.967 260.099 902.557 260.099C902.15 260.099 901.786 260.019 901.467 259.858C901.15 259.695 900.889 259.469 900.686 259.18C900.484 258.888 900.355 258.551 900.299 258.168H901.165C901.243 258.501 901.398 258.777 901.63 258.995C901.865 259.21 902.174 259.318 902.557 259.318C903.118 259.318 903.561 259.073 903.885 258.583C904.212 258.093 904.375 257.401 904.375 256.506H904.318C904.186 256.705 904.028 256.876 903.846 257.021C903.664 257.165 903.461 257.276 903.239 257.354C903.016 257.433 902.78 257.472 902.529 257.472C902.112 257.472 901.73 257.369 901.382 257.163C901.036 256.954 900.759 256.669 900.551 256.307C900.345 255.942 900.242 255.526 900.242 255.057C900.242 254.612 900.341 254.205 900.54 253.835C900.741 253.464 901.023 253.168 901.385 252.947C901.75 252.727 902.178 252.621 902.671 252.628ZM902.671 253.409C902.372 253.409 902.104 253.484 901.865 253.633C901.628 253.78 901.44 253.978 901.3 254.229C901.163 254.478 901.094 254.754 901.094 255.057C901.094 255.36 901.16 255.636 901.293 255.884C901.428 256.13 901.611 256.327 901.843 256.474C902.078 256.618 902.344 256.69 902.642 256.69C902.867 256.69 903.077 256.647 903.271 256.559C903.465 256.469 903.634 256.347 903.779 256.193C903.925 256.037 904.04 255.861 904.123 255.664C904.206 255.465 904.247 255.258 904.247 255.043C904.247 254.759 904.179 254.492 904.041 254.244C903.907 253.995 903.719 253.794 903.48 253.64C903.244 253.486 902.974 253.409 902.671 253.409Z" fill="#73777F"/>
<path d="M998.304 260V259.361L1000.7 256.733C1000.99 256.425 1001.22 256.158 1001.4 255.93C1001.58 255.701 1001.72 255.485 1001.81 255.284C1001.9 255.08 1001.94 254.867 1001.94 254.645C1001.94 254.389 1001.88 254.168 1001.76 253.981C1001.63 253.794 1001.47 253.649 1001.26 253.548C1001.05 253.446 1000.81 253.395 1000.55 253.395C1000.27 253.395 1000.02 253.453 999.816 253.569C999.61 253.683 999.451 253.842 999.337 254.048C999.226 254.254 999.17 254.496 999.17 254.773H998.332C998.332 254.347 998.43 253.973 998.627 253.651C998.823 253.329 999.091 253.078 999.429 252.898C999.77 252.718 1000.15 252.628 1000.58 252.628C1001 252.628 1001.38 252.718 1001.71 252.898C1002.04 253.078 1002.3 253.32 1002.48 253.626C1002.67 253.931 1002.76 254.271 1002.76 254.645C1002.76 254.912 1002.72 255.174 1002.62 255.43C1002.52 255.683 1002.36 255.966 1002.12 256.278C1001.89 256.589 1001.56 256.967 1001.14 257.415L999.511 259.162V259.219H1002.89V260H998.304ZM1006.73 260.099C1006.2 260.099 1005.74 259.954 1005.36 259.663C1004.99 259.369 1004.7 258.944 1004.5 258.388C1004.3 257.829 1004.2 257.154 1004.2 256.364C1004.2 255.578 1004.3 254.906 1004.5 254.35C1004.7 253.791 1004.99 253.365 1005.37 253.072C1005.75 252.776 1006.2 252.628 1006.73 252.628C1007.26 252.628 1007.71 252.776 1008.09 253.072C1008.47 253.365 1008.76 253.791 1008.96 254.35C1009.16 254.906 1009.26 255.578 1009.26 256.364C1009.26 257.154 1009.16 257.829 1008.96 258.388C1008.76 258.944 1008.47 259.369 1008.1 259.663C1007.72 259.954 1007.27 260.099 1006.73 260.099ZM1006.73 259.318C1007.26 259.318 1007.67 259.062 1007.97 258.551C1008.26 258.04 1008.41 257.311 1008.41 256.364C1008.41 255.734 1008.34 255.198 1008.2 254.755C1008.07 254.312 1007.88 253.975 1007.63 253.743C1007.38 253.511 1007.08 253.395 1006.73 253.395C1006.2 253.395 1005.79 253.654 1005.5 254.173C1005.2 254.689 1005.05 255.419 1005.05 256.364C1005.05 256.993 1005.12 257.528 1005.25 257.969C1005.39 258.409 1005.58 258.744 1005.82 258.974C1006.08 259.203 1006.38 259.318 1006.73 259.318Z" fill="#73777F"/>
<path d="M1102.14 260V259.048L1104.66 256.573C1104.9 256.329 1105.11 256.113 1105.27 255.923C1105.43 255.734 1105.55 255.55 1105.63 255.373C1105.71 255.195 1105.75 255.006 1105.75 254.805C1105.75 254.575 1105.7 254.379 1105.59 254.215C1105.49 254.049 1105.35 253.922 1105.16 253.832C1104.98 253.742 1104.77 253.697 1104.54 253.697C1104.3 253.697 1104.09 253.746 1103.91 253.846C1103.73 253.943 1103.59 254.081 1103.5 254.261C1103.4 254.441 1103.35 254.656 1103.35 254.904H1102.1C1102.1 254.442 1102.2 254.041 1102.41 253.7C1102.62 253.359 1102.91 253.095 1103.28 252.908C1103.65 252.721 1104.08 252.628 1104.56 252.628C1105.05 252.628 1105.48 252.719 1105.85 252.901C1106.22 253.084 1106.5 253.333 1106.71 253.651C1106.91 253.968 1107.01 254.33 1107.01 254.737C1107.01 255.009 1106.96 255.277 1106.86 255.54C1106.75 255.803 1106.57 256.094 1106.31 256.413C1106.05 256.733 1105.68 257.12 1105.21 257.575L1103.96 258.849V258.899H1107.12V260H1102.14ZM1111.31 252.727V260H1109.99V254.009H1109.95L1108.25 255.096V253.888L1110.05 252.727H1111.31Z" fill="#141630"/>
<rect x="65" y="116" width="15" height="129" fill="#F1F2F9"/>
<rect x="168.5" y="84" width="15" height="161" fill="#F1F2F9"/>
<rect x="272" y="104" width="15" height="141" fill="#F1F2F9"/>
<rect x="375.5" y="68" width="15" height="177" fill="#F1F2F9"/>
<rect x="479" y="84" width="15" height="161" fill="#F1F2F9"/>
<rect x="582.5" y="84" width="15" height="161" fill="#F1F2F9"/>
<rect x="686" y="160" width="15" height="85" fill="#F1F2F9"/>
<rect x="789.5" y="138" width="15" height="107" fill="#F1F2F9"/>
<rect x="893" y="116" width="15" height="129" fill="#F1F2F9"/>
<rect x="1250" y="84" width="15" height="161" fill="#F1F2F9"/>
<rect x="1370" y="68" width="15" height="177" fill="#F1F2F9"/>
<path d="M3.4913 2.72727V10H2.61062V3.65057H2.568L0.792436 4.82955V3.93466L2.61062 2.72727H3.4913ZM5.41246 8.50852V7.78409L8.60849 2.72727H9.13406V3.84943H8.77894L6.36417 7.67045V7.72727H10.6681V8.50852H5.41246ZM8.83576 10V8.28835V7.95099V2.72727H9.67383V10H8.83576ZM14.3711 10.0994C13.8361 10.0994 13.3803 9.95384 13.0039 9.66264C12.6275 9.36908 12.3398 8.94413 12.141 8.38778C11.9421 7.82907 11.8427 7.15436 11.8427 6.36364C11.8427 5.57765 11.9421 4.90649 12.141 4.35014C12.3422 3.79143 12.631 3.36529 13.0075 3.07173C13.3862 2.7758 13.8408 2.62784 14.3711 2.62784C14.9014 2.62784 15.3548 2.7758 15.7312 3.07173C16.11 3.36529 16.3988 3.79143 16.5977 4.35014C16.7989 4.90649 16.8995 5.57765 16.8995 6.36364C16.8995 7.15436 16.8001 7.82907 16.6012 8.38778C16.4023 8.94413 16.1147 9.36908 15.7383 9.66264C15.3619 9.95384 14.9061 10.0994 14.3711 10.0994ZM14.3711 9.31818C14.9014 9.31818 15.3133 9.0625 15.6069 8.55114C15.9004 8.03977 16.0472 7.31061 16.0472 6.36364C16.0472 5.7339 15.9798 5.19768 15.8448 4.75497C15.7122 4.31226 15.5205 3.97491 15.2695 3.7429C15.021 3.51089 14.7215 3.39489 14.3711 3.39489C13.8455 3.39489 13.4348 3.65412 13.1388 4.17259C12.8429 4.68868 12.695 5.41903 12.695 6.36364C12.695 6.99337 12.7612 7.52841 12.8938 7.96875C13.0264 8.40909 13.217 8.74408 13.4656 8.97372C13.7165 9.20336 14.0183 9.31818 14.3711 9.31818ZM18.3768 10V2.72727H20.9194C21.426 2.72727 21.8439 2.81487 22.1729 2.99006C22.502 3.16288 22.747 3.39607 22.908 3.68963C23.069 3.98082 23.1495 4.30398 23.1495 4.65909C23.1495 4.97159 23.0939 5.22964 22.9826 5.43324C22.8737 5.63684 22.7293 5.79782 22.5494 5.91619C22.3718 6.03456 22.1789 6.12216 21.9705 6.17898V6.25C22.1931 6.2642 22.4168 6.34233 22.6417 6.48438C22.8666 6.62642 23.0548 6.83002 23.2063 7.09517C23.3578 7.36032 23.4336 7.68466 23.4336 8.06818C23.4336 8.43277 23.3507 8.76065 23.185 9.05185C23.0193 9.34304 22.7577 9.57386 22.4002 9.74432C22.0427 9.91477 21.5775 10 21.0046 10H18.3768ZM19.2575 9.21875H21.0046C21.5799 9.21875 21.9883 9.10748 22.2298 8.88494C22.4736 8.66004 22.5955 8.38778 22.5955 8.06818C22.5955 7.82197 22.5328 7.5947 22.4073 7.38636C22.2818 7.17566 22.1031 7.00758 21.8711 6.8821C21.6391 6.75426 21.3645 6.69034 21.0472 6.69034H19.2575V9.21875ZM19.2575 5.9233H20.891C21.1561 5.9233 21.3952 5.87121 21.6083 5.76705C21.8237 5.66288 21.9942 5.5161 22.1197 5.3267C22.2475 5.13731 22.3114 4.91477 22.3114 4.65909C22.3114 4.33949 22.2002 4.06842 21.9776 3.84588C21.7551 3.62098 21.4023 3.50852 20.9194 3.50852H19.2575V5.9233Z" fill="#7B8092"/>
<path d="M3.85263 36.8718V44.1445H2.97195V37.7951H2.92933L1.15376 38.9741V38.0792L2.97195 36.8718H3.85263ZM5.94425 44.1445V43.5053L8.34482 40.8775C8.62654 40.5697 8.85855 40.3022 9.04084 40.0749C9.22313 39.8453 9.35807 39.6299 9.44567 39.4286C9.53563 39.225 9.58061 39.012 9.58061 38.7894C9.58061 38.5337 9.51906 38.3124 9.39595 38.1254C9.27521 37.9383 9.10949 37.7939 8.89879 37.6921C8.68809 37.5903 8.45135 37.5394 8.18857 37.5394C7.90921 37.5394 7.66536 37.5974 7.45703 37.7134C7.25107 37.8271 7.09126 37.9869 6.97763 38.1928C6.86636 38.3988 6.81072 38.6403 6.81072 38.9173H5.97266C5.97266 38.4911 6.0709 38.1171 6.2674 37.7951C6.4639 37.4731 6.73142 37.2222 7.06996 37.0423C7.41087 36.8623 7.79321 36.7724 8.21697 36.7724C8.64311 36.7724 9.02072 36.8623 9.34979 37.0423C9.67886 37.2222 9.93691 37.4648 10.1239 37.7702C10.311 38.0756 10.4045 38.4154 10.4045 38.7894C10.4045 39.0569 10.3559 39.3185 10.2589 39.5742C10.1642 39.8275 9.99846 40.1104 9.76172 40.4229C9.52734 40.7331 9.20182 41.1119 8.78516 41.5593L7.15163 43.3065V43.3633H10.5323V44.1445H5.94425ZM14.3711 44.244C13.8361 44.244 13.3803 44.0984 13.0039 43.8072C12.6275 43.5136 12.3398 43.0887 12.141 42.5323C11.9421 41.9736 11.8427 41.2989 11.8427 40.5082C11.8427 39.7222 11.9421 39.051 12.141 38.4947C12.3422 37.936 12.631 37.5098 13.0075 37.2163C13.3862 36.9203 13.8408 36.7724 14.3711 36.7724C14.9014 36.7724 15.3548 36.9203 15.7312 37.2163C16.11 37.5098 16.3988 37.936 16.5977 38.4947C16.7989 39.051 16.8995 39.7222 16.8995 40.5082C16.8995 41.2989 16.8001 41.9736 16.6012 42.5323C16.4023 43.0887 16.1147 43.5136 15.7383 43.8072C15.3619 44.0984 14.9061 44.244 14.3711 44.244ZM14.3711 43.4627C14.9014 43.4627 15.3133 43.207 15.6069 42.6957C15.9004 42.1843 16.0472 41.4551 16.0472 40.5082C16.0472 39.8784 15.9798 39.3422 15.8448 38.8995C15.7122 38.4568 15.5205 38.1194 15.2695 37.8874C15.021 37.6554 14.7215 37.5394 14.3711 37.5394C13.8455 37.5394 13.4348 37.7987 13.1388 38.3171C12.8429 38.8332 12.695 39.5636 12.695 40.5082C12.695 41.1379 12.7612 41.6729 12.8938 42.1133C13.0264 42.5536 13.217 42.8886 13.4656 43.1183C13.7165 43.3479 14.0183 43.4627 14.3711 43.4627ZM18.3768 44.1445V36.8718H20.9194C21.426 36.8718 21.8439 36.9594 22.1729 37.1346C22.502 37.3074 22.747 37.5406 22.908 37.8342C23.069 38.1254 23.1495 38.4485 23.1495 38.8036C23.1495 39.1161 23.0939 39.3742 22.9826 39.5778C22.8737 39.7814 22.7293 39.9424 22.5494 40.0607C22.3718 40.1791 22.1789 40.2667 21.9705 40.3235V40.3945C22.1931 40.4087 22.4168 40.4869 22.6417 40.6289C22.8666 40.771 23.0548 40.9746 23.2063 41.2397C23.3578 41.5049 23.4336 41.8292 23.4336 42.2127C23.4336 42.5773 23.3507 42.9052 23.185 43.1964C23.0193 43.4876 22.7577 43.7184 22.4002 43.8888C22.0427 44.0593 21.5775 44.1445 21.0046 44.1445H18.3768ZM19.2575 43.3633H21.0046C21.5799 43.3633 21.9883 43.252 22.2298 43.0295C22.4736 42.8046 22.5955 42.5323 22.5955 42.2127C22.5955 41.9665 22.5328 41.7392 22.4073 41.5309C22.2818 41.3202 22.1031 41.1521 21.8711 41.0266C21.6391 40.8988 21.3645 40.8349 21.0472 40.8349H19.2575V43.3633ZM19.2575 40.0678H20.891C21.1561 40.0678 21.3952 40.0157 21.6083 39.9116C21.8237 39.8074 21.9942 39.6606 22.1197 39.4712C22.2475 39.2818 22.3114 39.0593 22.3114 38.8036C22.3114 38.484 22.2002 38.2129 21.9776 37.9904C21.7551 37.7655 21.4023 37.6531 20.9194 37.6531H19.2575V40.0678Z" fill="#7B8092"/>
<path d="M3.65732 71.0124V78.2852H2.77663V71.9357H2.73402L0.958452 73.1147V72.2198L2.77663 71.0124H3.65732ZM8.12109 78.3846C7.58606 78.3846 7.13033 78.239 6.75391 77.9478C6.37749 77.6542 6.08984 77.2293 5.89098 76.6729C5.69212 76.1142 5.59268 75.4395 5.59268 74.6488C5.59268 73.8628 5.69212 73.1916 5.89098 72.6353C6.09221 72.0766 6.38104 71.6504 6.75746 71.3569C7.13625 71.061 7.59079 70.913 8.12109 70.913C8.6514 70.913 9.10476 71.061 9.48118 71.3569C9.85997 71.6504 10.1488 72.0766 10.3477 72.6353C10.5489 73.1916 10.6495 73.8628 10.6495 74.6488C10.6495 75.4395 10.5501 76.1142 10.3512 76.6729C10.1523 77.2293 9.8647 77.6542 9.48828 77.9478C9.11186 78.239 8.65613 78.3846 8.12109 78.3846ZM8.12109 77.6033C8.6514 77.6033 9.06333 77.3477 9.35689 76.8363C9.65045 76.3249 9.79723 75.5958 9.79723 74.6488C9.79723 74.0191 9.72976 73.4828 9.59482 73.0401C9.46224 72.5974 9.27048 72.2601 9.01953 72.0281C8.77095 71.796 8.47147 71.68 8.12109 71.68C7.59553 71.68 7.18478 71.9393 6.88885 72.4577C6.59292 72.9738 6.44496 73.7042 6.44496 74.6488C6.44496 75.2785 6.51125 75.8136 6.64382 76.2539C6.7764 76.6942 6.96697 77.0292 7.21555 77.2589C7.4665 77.4885 7.76835 77.6033 8.12109 77.6033ZM14.3711 78.3846C13.8361 78.3846 13.3803 78.239 13.0039 77.9478C12.6275 77.6542 12.3398 77.2293 12.141 76.6729C11.9421 76.1142 11.8427 75.4395 11.8427 74.6488C11.8427 73.8628 11.9421 73.1916 12.141 72.6353C12.3422 72.0766 12.631 71.6504 13.0075 71.3569C13.3862 71.061 13.8408 70.913 14.3711 70.913C14.9014 70.913 15.3548 71.061 15.7312 71.3569C16.11 71.6504 16.3988 72.0766 16.5977 72.6353C16.7989 73.1916 16.8995 73.8628 16.8995 74.6488C16.8995 75.4395 16.8001 76.1142 16.6012 76.6729C16.4023 77.2293 16.1147 77.6542 15.7383 77.9478C15.3619 78.239 14.9061 78.3846 14.3711 78.3846ZM14.3711 77.6033C14.9014 77.6033 15.3133 77.3477 15.6069 76.8363C15.9004 76.3249 16.0472 75.5958 16.0472 74.6488C16.0472 74.0191 15.9798 73.4828 15.8448 73.0401C15.7122 72.5974 15.5205 72.2601 15.2695 72.0281C15.021 71.796 14.7215 71.68 14.3711 71.68C13.8455 71.68 13.4348 71.9393 13.1388 72.4577C12.8429 72.9738 12.695 73.7042 12.695 74.6488C12.695 75.2785 12.7612 75.8136 12.8938 76.2539C13.0264 76.6942 13.217 77.0292 13.4656 77.2589C13.7165 77.4885 14.0183 77.6033 14.3711 77.6033ZM18.3768 78.2852V71.0124H20.9194C21.426 71.0124 21.8439 71.1 22.1729 71.2752C22.502 71.448 22.747 71.6812 22.908 71.9748C23.069 72.266 23.1495 72.5891 23.1495 72.9442C23.1495 73.2567 23.0939 73.5148 22.9826 73.7184C22.8737 73.922 22.7293 74.083 22.5494 74.2013C22.3718 74.3197 22.1789 74.4073 21.9705 74.4641V74.5352C22.1931 74.5494 22.4168 74.6275 22.6417 74.7695C22.8666 74.9116 23.0548 75.1152 23.2063 75.3803C23.3578 75.6455 23.4336 75.9698 23.4336 76.3533C23.4336 76.7179 23.3507 77.0458 23.185 77.337C23.0193 77.6282 22.7577 77.859 22.4002 78.0295C22.0427 78.1999 21.5775 78.2852 21.0046 78.2852H18.3768ZM19.2575 77.5039H21.0046C21.5799 77.5039 21.9883 77.3926 22.2298 77.1701C22.4736 76.9452 22.5955 76.6729 22.5955 76.3533C22.5955 76.1071 22.5328 75.8799 22.4073 75.6715C22.2818 75.4608 22.1031 75.2927 21.8711 75.1673C21.6391 75.0394 21.3645 74.9755 21.0472 74.9755H19.2575V77.5039ZM19.2575 74.2085H20.891C21.1561 74.2085 21.3952 74.1564 21.6083 74.0522C21.8237 73.948 21.9942 73.8013 22.1197 73.6119C22.2475 73.4225 22.3114 73.1999 22.3114 72.9442C22.3114 72.6246 22.2002 72.3536 21.9776 72.131C21.7551 71.9061 21.4023 71.7937 20.9194 71.7937H19.2575V74.2085Z" fill="#7B8092"/>
<path d="M8.16637 112.529C7.67868 112.529 7.24781 112.443 6.87376 112.27C6.50207 112.095 6.21206 111.854 6.00373 111.549C5.7954 111.241 5.69241 110.891 5.69478 110.498C5.69241 110.19 5.75278 109.906 5.87589 109.646C5.99899 109.383 6.16708 109.164 6.38015 108.989C6.59558 108.811 6.83588 108.699 7.10103 108.651V108.609C6.75302 108.519 6.47603 108.323 6.27006 108.023C6.0641 107.72 5.9623 107.375 5.96467 106.989C5.9623 106.62 6.05581 106.29 6.24521 105.999C6.4346 105.707 6.69502 105.478 7.02646 105.31C7.36026 105.142 7.74023 105.058 8.16637 105.058C8.58777 105.058 8.96419 105.142 9.29563 105.31C9.62707 105.478 9.88749 105.707 10.0769 105.999C10.2686 106.29 10.3657 106.62 10.3681 106.989C10.3657 107.375 10.2604 107.72 10.052 108.023C9.84606 108.323 9.57262 108.519 9.23171 108.609V108.651C9.4945 108.699 9.73124 108.811 9.94194 108.989C10.1526 109.164 10.3207 109.383 10.4462 109.646C10.5717 109.906 10.6356 110.19 10.638 110.498C10.6356 110.891 10.5291 111.241 10.3184 111.549C10.11 111.854 9.82002 112.095 9.44833 112.27C9.07901 112.443 8.65169 112.529 8.16637 112.529ZM8.16637 111.748C8.49544 111.748 8.77953 111.695 9.01864 111.588C9.25775 111.482 9.44241 111.331 9.57262 111.137C9.70283 110.943 9.76912 110.716 9.77148 110.455C9.76912 110.181 9.69809 109.938 9.55842 109.727C9.41874 109.517 9.22816 109.351 8.98668 109.23C8.74757 109.109 8.47414 109.049 8.16637 109.049C7.85624 109.049 7.57925 109.109 7.3354 109.23C7.09393 109.351 6.90335 109.517 6.76367 109.727C6.62636 109.938 6.55889 110.181 6.56126 110.455C6.55889 110.716 6.62163 110.943 6.74947 111.137C6.87968 111.331 7.06552 111.482 7.307 111.588C7.54847 111.695 7.83493 111.748 8.16637 111.748ZM8.16637 108.296C8.42679 108.296 8.65761 108.244 8.85884 108.14C9.06244 108.036 9.22224 107.89 9.33825 107.703C9.45425 107.516 9.51344 107.297 9.5158 107.046C9.51344 106.8 9.45543 106.586 9.3418 106.403C9.22816 106.219 9.07073 106.077 8.8695 105.977C8.66826 105.875 8.43389 105.825 8.16637 105.825C7.89412 105.825 7.65619 105.875 7.45259 105.977C7.24899 106.077 7.09156 106.219 6.98029 106.403C6.86902 106.586 6.81457 106.8 6.81694 107.046C6.81457 107.297 6.87021 107.516 6.98384 107.703C7.09985 107.89 7.25965 108.036 7.46325 108.14C7.66684 108.244 7.90122 108.296 8.16637 108.296ZM14.3711 112.529C13.8361 112.529 13.3803 112.384 13.0039 112.092C12.6275 111.799 12.3398 111.374 12.141 110.817C11.9421 110.259 11.8427 109.584 11.8427 108.793C11.8427 108.007 11.9421 107.336 12.141 106.78C12.3422 106.221 12.631 105.795 13.0075 105.501C13.3862 105.205 13.8408 105.058 14.3711 105.058C14.9014 105.058 15.3548 105.205 15.7312 105.501C16.11 105.795 16.3988 106.221 16.5977 106.78C16.7989 107.336 16.8995 108.007 16.8995 108.793C16.8995 109.584 16.8001 110.259 16.6012 110.817C16.4023 111.374 16.1147 111.799 15.7383 112.092C15.3619 112.384 14.9061 112.529 14.3711 112.529ZM14.3711 111.748C14.9014 111.748 15.3133 111.492 15.6069 110.981C15.9004 110.469 16.0472 109.74 16.0472 108.793C16.0472 108.164 15.9798 107.627 15.8448 107.185C15.7122 106.742 15.5205 106.405 15.2695 106.173C15.021 105.941 14.7215 105.825 14.3711 105.825C13.8455 105.825 13.4348 106.084 13.1388 106.602C12.8429 107.118 12.695 107.849 12.695 108.793C12.695 109.423 12.7612 109.958 12.8938 110.398C13.0264 110.839 13.217 111.174 13.4656 111.403C13.7165 111.633 14.0183 111.748 14.3711 111.748ZM18.3768 112.43V105.157H20.9194C21.426 105.157 21.8439 105.245 22.1729 105.42C22.502 105.593 22.747 105.826 22.908 106.119C23.069 106.411 23.1495 106.734 23.1495 107.089C23.1495 107.401 23.0939 107.659 22.9826 107.863C22.8737 108.067 22.7293 108.228 22.5494 108.346C22.3718 108.464 22.1789 108.552 21.9705 108.609V108.68C22.1931 108.694 22.4168 108.772 22.6417 108.914C22.8666 109.056 23.0548 109.26 23.2063 109.525C23.3578 109.79 23.4336 110.114 23.4336 110.498C23.4336 110.862 23.3507 111.19 23.185 111.482C23.0193 111.773 22.7577 112.004 22.4002 112.174C22.0427 112.344 21.5775 112.43 21.0046 112.43H18.3768ZM19.2575 111.648H21.0046C21.5799 111.648 21.9883 111.537 22.2298 111.315C22.4736 111.09 22.5955 110.817 22.5955 110.498C22.5955 110.252 22.5328 110.024 22.4073 109.816C22.2818 109.605 22.1031 109.437 21.8711 109.312C21.6391 109.184 21.3645 109.12 21.0472 109.12H19.2575V111.648ZM19.2575 108.353H20.891C21.1561 108.353 21.3952 108.301 21.6083 108.197C21.8237 108.093 21.9942 107.946 22.1197 107.756C22.2475 107.567 22.3114 107.344 22.3114 107.089C22.3114 106.769 22.2002 106.498 21.9776 106.276C21.7551 106.051 21.4023 105.938 20.9194 105.938H19.2575V108.353Z" fill="#7B8092"/>
<path d="M8.17347 146.67C7.87518 146.665 7.57688 146.608 7.27859 146.499C6.98029 146.39 6.70804 146.207 6.46183 145.949C6.21561 145.688 6.01793 145.337 5.86879 144.894C5.71964 144.449 5.64506 143.89 5.64506 143.218C5.64506 142.574 5.70543 142.004 5.82617 141.506C5.94691 141.007 6.1221 140.587 6.35174 140.246C6.58138 139.902 6.85837 139.642 7.18271 139.464C7.50941 139.287 7.87754 139.198 8.28711 139.198C8.69431 139.198 9.05652 139.28 9.37376 139.443C9.69336 139.604 9.95378 139.829 10.155 140.118C10.3562 140.407 10.4864 140.739 10.5456 141.116H9.67915C9.59866 140.789 9.44241 140.518 9.2104 140.303C8.9784 140.087 8.67063 139.979 8.28711 139.979C7.72366 139.979 7.27977 140.224 6.95543 140.714C6.63346 141.205 6.4713 141.892 6.46893 142.778H6.52575C6.65832 142.576 6.81576 142.405 6.99805 142.263C7.18271 142.118 7.3863 142.007 7.60884 141.929C7.83138 141.851 8.06694 141.812 8.31552 141.812C8.73219 141.812 9.11334 141.916 9.45898 142.124C9.80463 142.33 10.0816 142.616 10.29 142.98C10.4983 143.342 10.6025 143.758 10.6025 144.227C10.6025 144.676 10.5018 145.088 10.3006 145.462C10.0994 145.834 9.81647 146.13 9.45188 146.35C9.08967 146.568 8.66353 146.674 8.17347 146.67ZM8.17347 145.888C8.47177 145.888 8.73929 145.814 8.97603 145.665C9.21514 145.516 9.40335 145.316 9.54066 145.065C9.68034 144.814 9.75018 144.534 9.75018 144.227C9.75018 143.926 9.68271 143.652 9.54776 143.406C9.41519 143.158 9.23171 142.96 8.99734 142.813C8.76533 142.666 8.50018 142.593 8.20188 142.593C7.97698 142.593 7.76746 142.638 7.57333 142.728C7.3792 142.816 7.20875 142.936 7.06197 143.09C6.91755 143.244 6.80392 143.42 6.72106 143.619C6.6382 143.816 6.59677 144.023 6.59677 144.241C6.59677 144.53 6.66424 144.799 6.79918 145.05C6.93649 145.301 7.12352 145.504 7.36026 145.658C7.59937 145.812 7.87044 145.888 8.17347 145.888ZM14.3711 146.67C13.8361 146.67 13.3803 146.524 13.0039 146.233C12.6275 145.939 12.3398 145.514 12.141 144.958C11.9421 144.399 11.8427 143.725 11.8427 142.934C11.8427 142.148 11.9421 141.477 12.141 140.92C12.3422 140.362 12.631 139.936 13.0075 139.642C13.3862 139.346 13.8408 139.198 14.3711 139.198C14.9014 139.198 15.3548 139.346 15.7312 139.642C16.11 139.936 16.3988 140.362 16.5977 140.92C16.7989 141.477 16.8995 142.148 16.8995 142.934C16.8995 143.725 16.8001 144.399 16.6012 144.958C16.4023 145.514 16.1147 145.939 15.7383 146.233C15.3619 146.524 14.9061 146.67 14.3711 146.67ZM14.3711 145.888C14.9014 145.888 15.3133 145.633 15.6069 145.121C15.9004 144.61 16.0472 143.881 16.0472 142.934C16.0472 142.304 15.9798 141.768 15.8448 141.325C15.7122 140.883 15.5205 140.545 15.2695 140.313C15.021 140.081 14.7215 139.965 14.3711 139.965C13.8455 139.965 13.4348 140.224 13.1388 140.743C12.8429 141.259 12.695 141.989 12.695 142.934C12.695 143.564 12.7612 144.099 12.8938 144.539C13.0264 144.979 13.217 145.314 13.4656 145.544C13.7165 145.774 14.0183 145.888 14.3711 145.888ZM18.3768 146.57V139.298H20.9194C21.426 139.298 21.8439 139.385 22.1729 139.56C22.502 139.733 22.747 139.966 22.908 140.26C23.069 140.551 23.1495 140.874 23.1495 141.229C23.1495 141.542 23.0939 141.8 22.9826 142.004C22.8737 142.207 22.7293 142.368 22.5494 142.487C22.3718 142.605 22.1789 142.692 21.9705 142.749V142.82C22.1931 142.835 22.4168 142.913 22.6417 143.055C22.8666 143.197 23.0548 143.4 23.2063 143.665C23.3578 143.931 23.4336 144.255 23.4336 144.638C23.4336 145.003 23.3507 145.331 23.185 145.622C23.0193 145.913 22.7577 146.144 22.4002 146.315C22.0427 146.485 21.5775 146.57 21.0046 146.57H18.3768ZM19.2575 145.789H21.0046C21.5799 145.789 21.9883 145.678 22.2298 145.455C22.4736 145.23 22.5955 144.958 22.5955 144.638C22.5955 144.392 22.5328 144.165 22.4073 143.957C22.2818 143.746 22.1031 143.578 21.8711 143.452C21.6391 143.325 21.3645 143.261 21.0472 143.261H19.2575V145.789ZM19.2575 142.494H20.891C21.1561 142.494 21.3952 142.442 21.6083 142.337C21.8237 142.233 21.9942 142.086 22.1197 141.897C22.2475 141.708 22.3114 141.485 22.3114 141.229C22.3114 140.91 22.2002 140.639 21.9776 140.416C21.7551 140.191 21.4023 140.079 20.9194 140.079H19.2575V142.494Z" fill="#7B8092"/>
<path d="M5.41246 179.223V178.499L8.60849 173.442H9.13406V174.564H8.77894L6.36417 178.385V178.442H10.6681V179.223H5.41246ZM8.83576 180.715V179.003V178.666V173.442H9.67383V180.715H8.83576ZM14.3711 180.814C13.8361 180.814 13.3803 180.669 13.0039 180.377C12.6275 180.084 12.3398 179.659 12.141 179.103C11.9421 178.544 11.8427 177.869 11.8427 177.078C11.8427 176.292 11.9421 175.621 12.141 175.065C12.3422 174.506 12.631 174.08 13.0075 173.787C13.3862 173.491 13.8408 173.343 14.3711 173.343C14.9014 173.343 15.3548 173.491 15.7312 173.787C16.11 174.08 16.3988 174.506 16.5977 175.065C16.7989 175.621 16.8995 176.292 16.8995 177.078C16.8995 177.869 16.8001 178.544 16.6012 179.103C16.4023 179.659 16.1147 180.084 15.7383 180.377C15.3619 180.669 14.9061 180.814 14.3711 180.814ZM14.3711 180.033C14.9014 180.033 15.3133 179.777 15.6069 179.266C15.9004 178.755 16.0472 178.025 16.0472 177.078C16.0472 176.449 15.9798 175.913 15.8448 175.47C15.7122 175.027 15.5205 174.69 15.2695 174.458C15.021 174.226 14.7215 174.11 14.3711 174.11C13.8455 174.11 13.4348 174.369 13.1388 174.887C12.8429 175.404 12.695 176.134 12.695 177.078C12.695 177.708 12.7612 178.243 12.8938 178.684C13.0264 179.124 13.217 179.459 13.4656 179.689C13.7165 179.918 14.0183 180.033 14.3711 180.033ZM18.3768 180.715V173.442H20.9194C21.426 173.442 21.8439 173.53 22.1729 173.705C22.502 173.878 22.747 174.111 22.908 174.404C23.069 174.696 23.1495 175.019 23.1495 175.374C23.1495 175.686 23.0939 175.944 22.9826 176.148C22.8737 176.352 22.7293 176.513 22.5494 176.631C22.3718 176.749 22.1789 176.837 21.9705 176.894V176.965C22.1931 176.979 22.4168 177.057 22.6417 177.199C22.8666 177.341 23.0548 177.545 23.2063 177.81C23.3578 178.075 23.4336 178.4 23.4336 178.783C23.4336 179.148 23.3507 179.475 23.185 179.767C23.0193 180.058 22.7577 180.289 22.4002 180.459C22.0427 180.63 21.5775 180.715 21.0046 180.715H18.3768ZM19.2575 179.934H21.0046C21.5799 179.934 21.9883 179.822 22.2298 179.6C22.4736 179.375 22.5955 179.103 22.5955 178.783C22.5955 178.537 22.5328 178.31 22.4073 178.101C22.2818 177.891 22.1031 177.722 21.8711 177.597C21.6391 177.469 21.3645 177.405 21.0472 177.405H19.2575V179.934ZM19.2575 176.638H20.891C21.1561 176.638 21.3952 176.586 21.6083 176.482C21.8237 176.378 21.9942 176.231 22.1197 176.042C22.2475 175.852 22.3114 175.63 22.3114 175.374C22.3114 175.054 22.2002 174.783 21.9776 174.561C21.7551 174.336 21.4023 174.223 20.9194 174.223H19.2575V176.638Z" fill="#7B8092"/>
<path d="M5.94425 214.855V214.216L8.34482 211.588C8.62654 211.281 8.85855 211.013 9.04084 210.786C9.22313 210.556 9.35807 210.341 9.44567 210.14C9.53563 209.936 9.58061 209.723 9.58061 209.5C9.58061 209.245 9.51906 209.023 9.39595 208.836C9.27521 208.649 9.10949 208.505 8.89879 208.403C8.68809 208.301 8.45135 208.25 8.18857 208.25C7.90921 208.25 7.66536 208.308 7.45703 208.424C7.25107 208.538 7.09126 208.698 6.97763 208.904C6.86636 209.11 6.81072 209.351 6.81072 209.628H5.97266C5.97266 209.202 6.0709 208.828 6.2674 208.506C6.4639 208.184 6.73142 207.933 7.06996 207.753C7.41087 207.573 7.79321 207.483 8.21697 207.483C8.64311 207.483 9.02072 207.573 9.34979 207.753C9.67886 207.933 9.93691 208.176 10.1239 208.481C10.311 208.787 10.4045 209.126 10.4045 209.5C10.4045 209.768 10.3559 210.029 10.2589 210.285C10.1642 210.538 9.99846 210.821 9.76172 211.134C9.52734 211.444 9.20182 211.823 8.78516 212.27L7.15163 214.017V214.074H10.5323V214.855H5.94425ZM14.3711 214.955C13.8361 214.955 13.3803 214.809 13.0039 214.518C12.6275 214.225 12.3398 213.8 12.141 213.243C11.9421 212.685 11.8427 212.01 11.8427 211.219C11.8427 210.433 11.9421 209.762 12.141 209.206C12.3422 208.647 12.631 208.221 13.0075 207.927C13.3862 207.631 13.8408 207.483 14.3711 207.483C14.9014 207.483 15.3548 207.631 15.7312 207.927C16.11 208.221 16.3988 208.647 16.5977 209.206C16.7989 209.762 16.8995 210.433 16.8995 211.219C16.8995 212.01 16.8001 212.685 16.6012 213.243C16.4023 213.8 16.1147 214.225 15.7383 214.518C15.3619 214.809 14.9061 214.955 14.3711 214.955ZM14.3711 214.174C14.9014 214.174 15.3133 213.918 15.6069 213.407C15.9004 212.895 16.0472 212.166 16.0472 211.219C16.0472 210.589 15.9798 210.053 15.8448 209.61C15.7122 209.168 15.5205 208.83 15.2695 208.598C15.021 208.366 14.7215 208.25 14.3711 208.25C13.8455 208.25 13.4348 208.51 13.1388 209.028C12.8429 209.544 12.695 210.275 12.695 211.219C12.695 211.849 12.7612 212.384 12.8938 212.824C13.0264 213.265 13.217 213.6 13.4656 213.829C13.7165 214.059 14.0183 214.174 14.3711 214.174ZM18.3768 214.855V207.583H20.9194C21.426 207.583 21.8439 207.67 22.1729 207.846C22.502 208.018 22.747 208.252 22.908 208.545C23.069 208.836 23.1495 209.159 23.1495 209.515C23.1495 209.827 23.0939 210.085 22.9826 210.289C22.8737 210.492 22.7293 210.653 22.5494 210.772C22.3718 210.89 22.1789 210.978 21.9705 211.034V211.105C22.1931 211.12 22.4168 211.198 22.6417 211.34C22.8666 211.482 23.0548 211.685 23.2063 211.951C23.3578 212.216 23.4336 212.54 23.4336 212.924C23.4336 213.288 23.3507 213.616 23.185 213.907C23.0193 214.199 22.7577 214.429 22.4002 214.6C22.0427 214.77 21.5775 214.855 21.0046 214.855H18.3768ZM19.2575 214.074H21.0046C21.5799 214.074 21.9883 213.963 22.2298 213.74C22.4736 213.516 22.5955 213.243 22.5955 212.924C22.5955 212.677 22.5328 212.45 22.4073 212.242C22.2818 212.031 22.1031 211.863 21.8711 211.738C21.6391 211.61 21.3645 211.546 21.0472 211.546H19.2575V214.074ZM19.2575 210.779H20.891C21.1561 210.779 21.3952 210.727 21.6083 210.623C21.8237 210.518 21.9942 210.372 22.1197 210.182C22.2475 209.993 22.3114 209.77 22.3114 209.515C22.3114 209.195 22.2002 208.924 21.9776 208.701C21.7551 208.476 21.4023 208.364 20.9194 208.364H19.2575V210.779Z" fill="#7B8092"/>
<path d="M20.875 249.099C20.34 249.099 19.8842 248.954 19.5078 248.663C19.1314 248.369 18.8438 247.944 18.6449 247.388C18.446 246.829 18.3466 246.154 18.3466 245.364C18.3466 244.578 18.446 243.906 18.6449 243.35C18.8461 242.791 19.1349 242.365 19.5114 242.072C19.8902 241.776 20.3447 241.628 20.875 241.628C21.4053 241.628 21.8587 241.776 22.2351 242.072C22.6139 242.365 22.9027 242.791 23.1016 243.35C23.3028 243.906 23.4034 244.578 23.4034 245.364C23.4034 246.154 23.304 246.829 23.1051 247.388C22.9062 247.944 22.6186 248.369 22.2422 248.663C21.8658 248.954 21.41 249.099 20.875 249.099ZM20.875 248.318C21.4053 248.318 21.8172 248.062 22.1108 247.551C22.4044 247.04 22.5511 246.311 22.5511 245.364C22.5511 244.734 22.4837 244.198 22.3487 243.755C22.2161 243.312 22.0244 242.975 21.7734 242.743C21.5249 242.511 21.2254 242.395 20.875 242.395C20.3494 242.395 19.9387 242.654 19.6428 243.173C19.3468 243.689 19.1989 244.419 19.1989 245.364C19.1989 245.993 19.2652 246.528 19.3977 246.969C19.5303 247.409 19.7209 247.744 19.9695 247.974C20.2204 248.203 20.5223 248.318 20.875 248.318Z" fill="#7B8092"/>
</svg>
