<svg width="618" height="217" viewBox="0 0 618 217" fill="none" xmlns="http://www.w3.org/2000/svg">
<rect width="618" height="217" fill="white"/>
<path d="M40.9521 215V214.361L43.3526 211.733C43.6344 211.425 43.8664 211.158 44.0487 210.93C44.2309 210.701 44.3659 210.485 44.4535 210.284C44.5434 210.08 44.5884 209.867 44.5884 209.645C44.5884 209.389 44.5269 209.168 44.4038 208.981C44.283 208.794 44.1173 208.649 43.9066 208.548C43.6959 208.446 43.4592 208.395 43.1964 208.395C42.917 208.395 42.6732 208.453 42.4648 208.569C42.2589 208.683 42.0991 208.842 41.9854 209.048C41.8742 209.254 41.8185 209.496 41.8185 209.773H40.9805C40.9805 209.347 41.0787 208.973 41.2752 208.651C41.4717 208.329 41.7392 208.078 42.0778 207.898C42.4187 207.718 42.801 207.628 43.2248 207.628C43.6509 207.628 44.0285 207.718 44.3576 207.898C44.6867 208.078 44.9447 208.32 45.1317 208.626C45.3188 208.931 45.4123 209.271 45.4123 209.645C45.4123 209.912 45.3638 210.174 45.2667 210.43C45.172 210.683 45.0063 210.966 44.7695 211.278C44.5352 211.589 44.2096 211.967 43.793 212.415L42.1594 214.162V214.219H45.5401V215H40.9521ZM49.3789 215.099C48.8439 215.099 48.3881 214.954 48.0117 214.663C47.6353 214.369 47.3477 213.944 47.1488 213.388C46.9499 212.829 46.8505 212.154 46.8505 211.364C46.8505 210.578 46.9499 209.906 47.1488 209.35C47.35 208.791 47.6388 208.365 48.0153 208.072C48.3941 207.776 48.8486 207.628 49.3789 207.628C49.9092 207.628 50.3626 207.776 50.739 208.072C51.1178 208.365 51.4066 208.791 51.6055 209.35C51.8067 209.906 51.9073 210.578 51.9073 211.364C51.9073 212.154 51.8079 212.829 51.609 213.388C51.4102 213.944 51.1225 214.369 50.7461 214.663C50.3697 214.954 49.9139 215.099 49.3789 215.099ZM49.3789 214.318C49.9092 214.318 50.3211 214.062 50.6147 213.551C50.9083 213.04 51.055 212.311 51.055 211.364C51.055 210.734 50.9876 210.198 50.8526 209.755C50.7201 209.312 50.5283 208.975 50.2773 208.743C50.0288 208.511 49.7293 208.395 49.3789 208.395C48.8533 208.395 48.4426 208.654 48.1467 209.173C47.8507 209.689 47.7028 210.419 47.7028 211.364C47.7028 211.993 47.7691 212.528 47.9016 212.969C48.0342 213.409 48.2248 213.744 48.4734 213.974C48.7243 214.203 49.0262 214.318 49.3789 214.318ZM55.8136 207.727V215H54.9329V208.651H54.8903L53.1147 209.83V208.935L54.9329 207.727H55.8136ZM60.462 207.727V215H59.5813V208.651H59.5387L57.7631 209.83V208.935L59.5813 207.727H60.462Z" fill="#73777F"/>
<path d="M103.958 207.727V215H103.077V208.651H103.035L101.259 209.83V208.935L103.077 207.727H103.958ZM106.05 215V214.361L108.45 211.733C108.732 211.425 108.964 211.158 109.146 210.93C109.329 210.701 109.464 210.485 109.551 210.284C109.641 210.08 109.686 209.867 109.686 209.645C109.686 209.389 109.625 209.168 109.501 208.981C109.381 208.794 109.215 208.649 109.004 208.548C108.794 208.446 108.557 208.395 108.294 208.395C108.015 208.395 107.771 208.453 107.562 208.569C107.357 208.683 107.197 208.842 107.083 209.048C106.972 209.254 106.916 209.496 106.916 209.773H106.078C106.078 209.347 106.176 208.973 106.373 208.651C106.569 208.329 106.837 208.078 107.175 207.898C107.516 207.718 107.899 207.628 108.322 207.628C108.749 207.628 109.126 207.718 109.455 207.898C109.784 208.078 110.042 208.32 110.229 208.626C110.416 208.931 110.51 209.271 110.51 209.645C110.51 209.912 110.461 210.174 110.364 210.43C110.27 210.683 110.104 210.966 109.867 211.278C109.633 211.589 109.307 211.967 108.891 212.415L107.257 214.162V214.219H110.638V215H106.05Z" fill="#73777F"/>
<path d="M156.802 207.727V215H155.921V208.651H155.879L154.103 209.83V208.935L155.921 207.727H156.802ZM161.351 215.099C160.882 215.099 160.464 215.019 160.097 214.858C159.733 214.697 159.443 214.473 159.227 214.187C159.014 213.898 158.898 213.563 158.879 213.182H159.774C159.793 213.416 159.874 213.619 160.016 213.789C160.158 213.957 160.344 214.087 160.573 214.18C160.803 214.272 161.057 214.318 161.337 214.318C161.649 214.318 161.926 214.264 162.168 214.155C162.409 214.046 162.598 213.894 162.736 213.7C162.873 213.506 162.942 213.281 162.942 213.026C162.942 212.758 162.875 212.522 162.743 212.319C162.61 212.113 162.416 211.952 162.161 211.836C161.905 211.72 161.592 211.662 161.223 211.662H160.641V210.881H161.223C161.512 210.881 161.765 210.829 161.983 210.724C162.203 210.62 162.375 210.473 162.498 210.284C162.623 210.095 162.686 209.872 162.686 209.616C162.686 209.37 162.632 209.156 162.523 208.974C162.414 208.791 162.26 208.649 162.061 208.548C161.865 208.446 161.633 208.395 161.365 208.395C161.114 208.395 160.877 208.441 160.655 208.533C160.435 208.623 160.255 208.755 160.115 208.928C159.975 209.098 159.9 209.304 159.888 209.545H159.036C159.05 209.164 159.165 208.83 159.38 208.544C159.595 208.255 159.877 208.03 160.225 207.869C160.576 207.708 160.96 207.628 161.379 207.628C161.829 207.628 162.215 207.719 162.537 207.901C162.859 208.081 163.106 208.319 163.279 208.615C163.452 208.911 163.538 209.231 163.538 209.574C163.538 209.983 163.431 210.333 163.215 210.621C163.002 210.91 162.712 211.11 162.345 211.222V211.278C162.804 211.354 163.163 211.549 163.421 211.864C163.679 212.177 163.808 212.564 163.808 213.026C163.808 213.421 163.701 213.776 163.485 214.091C163.272 214.403 162.981 214.65 162.612 214.83C162.242 215.009 161.822 215.099 161.351 215.099Z" fill="#73777F"/>
<path d="M209.777 207.727V215H208.897V208.651H208.854L207.079 209.83V208.935L208.897 207.727H209.777ZM211.699 213.509V212.784L214.895 207.727H215.42V208.849H215.065L212.65 212.67V212.727H216.954V213.509H211.699ZM215.122 215V213.288V212.951V207.727H215.96V215H215.122Z" fill="#73777F"/>
<path d="M262.943 207.727V215H262.063V208.651H262.02L260.245 209.83V208.935L262.063 207.727H262.943ZM267.308 215.099C266.891 215.099 266.516 215.017 266.182 214.851C265.848 214.685 265.581 214.458 265.38 214.169C265.178 213.88 265.068 213.551 265.049 213.182H265.902C265.935 213.511 266.084 213.783 266.349 213.999C266.617 214.212 266.936 214.318 267.308 214.318C267.606 214.318 267.871 214.248 268.103 214.109C268.338 213.969 268.521 213.777 268.654 213.533C268.789 213.287 268.856 213.009 268.856 212.699C268.856 212.382 268.786 212.099 268.647 211.85C268.509 211.599 268.32 211.402 268.078 211.257C267.837 211.113 267.561 211.039 267.251 211.037C267.028 211.035 266.8 211.069 266.566 211.14C266.331 211.209 266.138 211.297 265.987 211.406L265.163 211.307L265.603 207.727H269.382V208.509H266.342L266.086 210.653H266.129C266.278 210.535 266.465 210.437 266.69 210.359C266.915 210.281 267.149 210.241 267.393 210.241C267.838 210.241 268.235 210.348 268.583 210.561C268.933 210.772 269.208 211.061 269.407 211.428C269.608 211.795 269.708 212.214 269.708 212.685C269.708 213.149 269.604 213.563 269.396 213.928C269.19 214.29 268.906 214.576 268.544 214.787C268.181 214.995 267.769 215.099 267.308 215.099Z" fill="#73777F"/>
<path d="M315.865 207.727V215H314.985V208.651H314.942L313.166 209.83V208.935L314.985 207.727H315.865ZM320.372 215.099C320.073 215.095 319.775 215.038 319.477 214.929C319.179 214.82 318.906 214.637 318.66 214.379C318.414 214.118 318.216 213.767 318.067 213.324C317.918 212.879 317.843 212.32 317.843 211.648C317.843 211.004 317.904 210.433 318.024 209.936C318.145 209.437 318.32 209.016 318.55 208.675C318.78 208.332 319.057 208.072 319.381 207.894C319.708 207.717 320.076 207.628 320.485 207.628C320.893 207.628 321.255 207.71 321.572 207.873C321.892 208.034 322.152 208.259 322.353 208.548C322.554 208.836 322.685 209.169 322.744 209.545H321.877C321.797 209.219 321.641 208.948 321.409 208.732C321.177 208.517 320.869 208.409 320.485 208.409C319.922 208.409 319.478 208.654 319.154 209.144C318.832 209.634 318.67 210.322 318.667 211.207H318.724C318.857 211.006 319.014 210.835 319.196 210.692C319.381 210.548 319.585 210.437 319.807 210.359C320.03 210.281 320.265 210.241 320.514 210.241C320.93 210.241 321.312 210.346 321.657 210.554C322.003 210.76 322.28 211.045 322.488 211.41C322.697 211.772 322.801 212.188 322.801 212.656C322.801 213.106 322.7 213.518 322.499 213.892C322.298 214.264 322.015 214.56 321.65 214.78C321.288 214.998 320.862 215.104 320.372 215.099ZM320.372 214.318C320.67 214.318 320.938 214.244 321.174 214.094C321.413 213.945 321.602 213.745 321.739 213.494C321.879 213.243 321.948 212.964 321.948 212.656C321.948 212.356 321.881 212.082 321.746 211.836C321.613 211.587 321.43 211.39 321.196 211.243C320.964 211.096 320.698 211.023 320.4 211.023C320.175 211.023 319.966 211.068 319.772 211.158C319.577 211.245 319.407 211.366 319.26 211.52C319.116 211.674 319.002 211.85 318.919 212.049C318.836 212.246 318.795 212.453 318.795 212.67C318.795 212.959 318.862 213.229 318.997 213.48C319.135 213.731 319.322 213.933 319.559 214.087C319.798 214.241 320.069 214.318 320.372 214.318Z" fill="#73777F"/>
<path d="M369.129 207.727V215H368.248V208.651H368.206L366.43 209.83V208.935L368.248 207.727H369.129ZM371.448 215L374.701 208.565V208.509H370.951V207.727H375.61V208.551L372.371 215H371.448Z" fill="#73777F"/>
<path d="M421.904 207.727V215H421.024V208.651H420.981L419.206 209.83V208.935L421.024 207.727H421.904ZM426.326 215.099C425.838 215.099 425.407 215.013 425.033 214.84C424.661 214.665 424.371 214.425 424.163 214.119C423.955 213.812 423.852 213.461 423.854 213.068C423.852 212.76 423.912 212.476 424.035 212.216C424.158 211.953 424.326 211.734 424.539 211.559C424.755 211.381 424.995 211.269 425.26 211.222V211.179C424.912 211.089 424.635 210.894 424.429 210.593C424.223 210.29 424.121 209.946 424.124 209.56C424.121 209.19 424.215 208.86 424.404 208.569C424.594 208.278 424.854 208.048 425.186 207.88C425.519 207.712 425.899 207.628 426.326 207.628C426.747 207.628 427.123 207.712 427.455 207.88C427.786 208.048 428.047 208.278 428.236 208.569C428.428 208.86 428.525 209.19 428.527 209.56C428.525 209.946 428.42 210.29 428.211 210.593C428.005 210.894 427.732 211.089 427.391 211.179V211.222C427.654 211.269 427.89 211.381 428.101 211.559C428.312 211.734 428.48 211.953 428.605 212.216C428.731 212.476 428.795 212.76 428.797 213.068C428.795 213.461 428.688 213.812 428.478 214.119C428.269 214.425 427.979 214.665 427.608 214.84C427.238 215.013 426.811 215.099 426.326 215.099ZM426.326 214.318C426.655 214.318 426.939 214.265 427.178 214.158C427.417 214.052 427.602 213.902 427.732 213.707C427.862 213.513 427.928 213.286 427.931 213.026C427.928 212.751 427.857 212.508 427.718 212.298C427.578 212.087 427.387 211.921 427.146 211.8C426.907 211.68 426.633 211.619 426.326 211.619C426.015 211.619 425.738 211.68 425.495 211.8C425.253 211.921 425.063 212.087 424.923 212.298C424.786 212.508 424.718 212.751 424.72 213.026C424.718 213.286 424.781 213.513 424.909 213.707C425.039 213.902 425.225 214.052 425.466 214.158C425.708 214.265 425.994 214.318 426.326 214.318ZM426.326 210.866C426.586 210.866 426.817 210.814 427.018 210.71C427.222 210.606 427.381 210.46 427.497 210.273C427.613 210.086 427.673 209.867 427.675 209.616C427.673 209.37 427.615 209.156 427.501 208.974C427.387 208.789 427.23 208.647 427.029 208.548C426.827 208.446 426.593 208.395 426.326 208.395C426.053 208.395 425.815 208.446 425.612 208.548C425.408 208.647 425.251 208.789 425.139 208.974C425.028 209.156 424.974 209.37 424.976 209.616C424.974 209.867 425.029 210.086 425.143 210.273C425.259 210.46 425.419 210.606 425.622 210.71C425.826 210.814 426.06 210.866 426.326 210.866Z" fill="#73777F"/>
<path d="M474.865 207.727V215H473.985V208.651H473.942L472.166 209.83V208.935L473.985 207.727H474.865ZM479.272 207.628C479.571 207.63 479.869 207.687 480.167 207.798C480.465 207.91 480.738 208.094 480.984 208.352C481.23 208.608 481.428 208.957 481.577 209.4C481.726 209.843 481.801 210.398 481.801 211.065C481.801 211.712 481.739 212.286 481.616 212.788C481.495 213.287 481.32 213.709 481.09 214.052C480.863 214.395 480.586 214.656 480.259 214.833C479.935 215.011 479.568 215.099 479.159 215.099C478.751 215.099 478.388 215.019 478.068 214.858C477.751 214.695 477.491 214.469 477.287 214.18C477.086 213.888 476.957 213.551 476.9 213.168H477.767C477.845 213.501 478 213.777 478.232 213.995C478.466 214.21 478.775 214.318 479.159 214.318C479.72 214.318 480.162 214.073 480.487 213.583C480.813 213.093 480.977 212.401 480.977 211.506H480.92C480.787 211.705 480.63 211.876 480.448 212.021C480.265 212.165 480.063 212.276 479.84 212.354C479.618 212.433 479.381 212.472 479.13 212.472C478.714 212.472 478.331 212.369 477.983 212.163C477.638 211.954 477.361 211.669 477.152 211.307C476.946 210.942 476.843 210.526 476.843 210.057C476.843 209.612 476.943 209.205 477.142 208.835C477.343 208.464 477.625 208.168 477.987 207.947C478.351 207.727 478.78 207.621 479.272 207.628ZM479.272 208.409C478.974 208.409 478.705 208.484 478.466 208.633C478.229 208.78 478.041 208.978 477.902 209.229C477.764 209.478 477.696 209.754 477.696 210.057C477.696 210.36 477.762 210.636 477.894 210.884C478.029 211.13 478.213 211.327 478.445 211.474C478.679 211.618 478.946 211.69 479.244 211.69C479.469 211.69 479.678 211.647 479.872 211.559C480.067 211.469 480.236 211.347 480.38 211.193C480.527 211.037 480.642 210.861 480.725 210.664C480.808 210.465 480.849 210.258 480.849 210.043C480.849 209.759 480.78 209.492 480.643 209.244C480.508 208.995 480.321 208.794 480.082 208.64C479.845 208.486 479.575 208.409 479.272 208.409Z" fill="#73777F"/>
<path d="M524.6 215V214.361L527.001 211.733C527.283 211.425 527.515 211.158 527.697 210.93C527.879 210.701 528.014 210.485 528.102 210.284C528.192 210.08 528.237 209.867 528.237 209.645C528.237 209.389 528.175 209.168 528.052 208.981C527.931 208.794 527.766 208.649 527.555 208.548C527.344 208.446 527.108 208.395 526.845 208.395C526.565 208.395 526.322 208.453 526.113 208.569C525.907 208.683 525.748 208.842 525.634 209.048C525.523 209.254 525.467 209.496 525.467 209.773H524.629C524.629 209.347 524.727 208.973 524.924 208.651C525.12 208.329 525.388 208.078 525.726 207.898C526.067 207.718 526.449 207.628 526.873 207.628C527.299 207.628 527.677 207.718 528.006 207.898C528.335 208.078 528.593 208.32 528.78 208.626C528.967 208.931 529.061 209.271 529.061 209.645C529.061 209.912 529.012 210.174 528.915 210.43C528.82 210.683 528.655 210.966 528.418 211.278C528.184 211.589 527.858 211.967 527.441 212.415L525.808 214.162V214.219H529.189V215H524.6ZM533.027 215.099C532.492 215.099 532.037 214.954 531.66 214.663C531.284 214.369 530.996 213.944 530.797 213.388C530.598 212.829 530.499 212.154 530.499 211.364C530.499 210.578 530.598 209.906 530.797 209.35C530.998 208.791 531.287 208.365 531.664 208.072C532.042 207.776 532.497 207.628 533.027 207.628C533.558 207.628 534.011 207.776 534.387 208.072C534.766 208.365 535.055 208.791 535.254 209.35C535.455 209.906 535.556 210.578 535.556 211.364C535.556 212.154 535.456 212.829 535.257 213.388C535.059 213.944 534.771 214.369 534.395 214.663C534.018 214.954 533.562 215.099 533.027 215.099ZM533.027 214.318C533.558 214.318 533.97 214.062 534.263 213.551C534.557 213.04 534.703 212.311 534.703 211.364C534.703 210.734 534.636 210.198 534.501 209.755C534.368 209.312 534.177 208.975 533.926 208.743C533.677 208.511 533.378 208.395 533.027 208.395C532.502 208.395 532.091 208.654 531.795 209.173C531.499 209.689 531.351 210.419 531.351 211.364C531.351 211.993 531.417 212.528 531.55 212.969C531.683 213.409 531.873 213.744 532.122 213.974C532.373 214.203 532.675 214.318 533.027 214.318Z" fill="#73777F"/>
<path d="M578.138 215V214.048L580.663 211.573C580.905 211.329 581.106 211.113 581.267 210.923C581.428 210.734 581.549 210.55 581.629 210.373C581.71 210.195 581.75 210.006 581.75 209.805C581.75 209.575 581.698 209.379 581.594 209.215C581.49 209.049 581.346 208.922 581.164 208.832C580.982 208.742 580.775 208.697 580.543 208.697C580.304 208.697 580.094 208.746 579.914 208.846C579.734 208.943 579.594 209.081 579.495 209.261C579.398 209.441 579.349 209.656 579.349 209.904H578.096C578.096 209.442 578.201 209.041 578.412 208.7C578.623 208.359 578.913 208.095 579.282 207.908C579.654 207.721 580.08 207.628 580.56 207.628C581.048 207.628 581.477 207.719 581.846 207.901C582.215 208.084 582.502 208.333 582.705 208.651C582.911 208.968 583.014 209.33 583.014 209.737C583.014 210.009 582.962 210.277 582.858 210.54C582.754 210.803 582.57 211.094 582.308 211.413C582.047 211.733 581.681 212.12 581.21 212.575L579.957 213.849V213.899H583.124V215H578.138ZM587.308 207.727V215H585.99V209.009H585.947L584.246 210.096V208.888L586.054 207.727H587.308Z" fill="#141630"/>
<path d="M3.69656 10.0994C3.22781 10.0994 2.80996 10.0189 2.443 9.85795C2.07842 9.69697 1.78841 9.47325 1.57298 9.18679C1.35991 8.89796 1.2439 8.56297 1.22496 8.18182H2.11985C2.13879 8.41619 2.21928 8.61861 2.36133 8.78906C2.50337 8.95715 2.68922 9.08736 2.91886 9.17969C3.1485 9.27202 3.40299 9.31818 3.68235 9.31818C3.99485 9.31818 4.27184 9.26373 4.51332 9.15483C4.75479 9.04593 4.94419 8.89441 5.0815 8.70028C5.21881 8.50616 5.28746 8.28125 5.28746 8.02557C5.28746 7.75805 5.22118 7.52249 5.0886 7.31889C4.95603 7.11293 4.7619 6.95194 4.50621 6.83594C4.25053 6.71993 3.93803 6.66193 3.56871 6.66193H2.98633V5.88068H3.56871C3.85754 5.88068 4.11085 5.8286 4.32866 5.72443C4.54883 5.62026 4.72047 5.47348 4.84357 5.28409C4.96905 5.0947 5.03178 4.87216 5.03178 4.61648C5.03178 4.37026 4.97733 4.15601 4.86843 3.97372C4.75953 3.79143 4.60565 3.64938 4.40678 3.54759C4.21029 3.44579 3.97828 3.39489 3.71076 3.39489C3.45981 3.39489 3.22307 3.44105 3.00053 3.53338C2.78036 3.62334 2.60044 3.75473 2.46076 3.92756C2.32108 4.09801 2.24532 4.30398 2.23349 4.54545H1.38121C1.39542 4.1643 1.51024 3.83049 1.72567 3.54403C1.94111 3.25521 2.22283 3.0303 2.57085 2.86932C2.92122 2.70833 3.30593 2.62784 3.72496 2.62784C4.17478 2.62784 4.56067 2.71899 4.88263 2.90128C5.2046 3.0812 5.452 3.31913 5.62482 3.61506C5.79764 3.91098 5.88406 4.23059 5.88406 4.57386C5.88406 4.98343 5.77634 5.33262 5.5609 5.62145C5.34783 5.91027 5.05782 6.11032 4.69087 6.22159V6.27841C5.15015 6.35417 5.50882 6.54948 5.76687 6.86435C6.02492 7.17685 6.15394 7.56392 6.15394 8.02557C6.15394 8.42093 6.04622 8.77604 5.83079 9.09091C5.61772 9.40341 5.32653 9.64962 4.95721 9.82955C4.58789 10.0095 4.16767 10.0994 3.69656 10.0994ZM9.97852 10.0994C9.44348 10.0994 8.98775 9.95384 8.61133 9.66264C8.23491 9.36908 7.94727 8.94413 7.7484 8.38778C7.54954 7.82907 7.45011 7.15436 7.45011 6.36364C7.45011 5.57765 7.54954 4.90649 7.7484 4.35014C7.94963 3.79143 8.23846 3.36529 8.61488 3.07173C8.99367 2.7758 9.44821 2.62784 9.97852 2.62784C10.5088 2.62784 10.9622 2.7758 11.3386 3.07173C11.7174 3.36529 12.0062 3.79143 12.2051 4.35014C12.4063 4.90649 12.5069 5.57765 12.5069 6.36364C12.5069 7.15436 12.4075 7.82907 12.2086 8.38778C12.0098 8.94413 11.7221 9.36908 11.3457 9.66264C10.9693 9.95384 10.5136 10.0994 9.97852 10.0994ZM9.97852 9.31818C10.5088 9.31818 10.9208 9.0625 11.2143 8.55114C11.5079 8.03977 11.6547 7.31061 11.6547 6.36364C11.6547 5.7339 11.5872 5.19768 11.4522 4.75497C11.3197 4.31226 11.1279 3.97491 10.877 3.7429C10.6284 3.51089 10.3289 3.39489 9.97852 3.39489C9.45295 3.39489 9.0422 3.65412 8.74627 4.17259C8.45034 4.68868 8.30238 5.41903 8.30238 6.36364C8.30238 6.99337 8.36867 7.52841 8.50124 7.96875C8.63382 8.40909 8.8244 8.74408 9.07298 8.97372C9.32392 9.20336 9.62577 9.31818 9.97852 9.31818ZM13.9842 2.72727H15.0353L17.5069 8.7642H17.5922L20.0637 2.72727H21.1149V10H20.291V4.47443H20.22L17.9473 10H17.1518L14.8791 4.47443H14.8081V10H13.9842V2.72727Z" fill="#7B8092"/>
<path d="M1.71768 41.668V41.0288L4.11825 38.4009C4.39998 38.0932 4.63198 37.8256 4.81428 37.5984C4.99657 37.3687 5.13151 37.1533 5.21911 36.9521C5.30907 36.7485 5.35405 36.5354 5.35405 36.3129C5.35405 36.0572 5.2925 35.8358 5.16939 35.6488C5.04865 35.4618 4.88293 35.3174 4.67223 35.2156C4.46153 35.1138 4.22479 35.0629 3.962 35.0629C3.68265 35.0629 3.4388 35.1209 3.23047 35.2369C3.0245 35.3505 2.8647 35.5103 2.75107 35.7163C2.6398 35.9222 2.58416 36.1637 2.58416 36.4407H1.74609C1.74609 36.0146 1.84434 35.6405 2.04084 35.3185C2.23733 34.9966 2.50485 34.7456 2.84339 34.5657C3.1843 34.3858 3.56664 34.2958 3.99041 34.2958C4.41655 34.2958 4.79415 34.3858 5.12322 34.5657C5.4523 34.7456 5.71035 34.9883 5.89737 35.2937C6.0844 35.5991 6.17791 35.9388 6.17791 36.3129C6.17791 36.5804 6.12938 36.842 6.03232 37.0977C5.93762 37.351 5.7719 37.6339 5.53516 37.9464C5.30078 38.2565 4.97526 38.6353 4.55859 39.0827L2.92507 40.8299V40.8867H6.30575V41.668H1.71768ZM10.0451 41.7674C9.62843 41.7674 9.2532 41.6845 8.91939 41.5188C8.58558 41.3531 8.31806 41.1258 8.11683 40.837C7.9156 40.5482 7.80552 40.2191 7.78658 39.8498H8.63885C8.67199 40.1789 8.82114 40.4511 9.08629 40.6665C9.35381 40.8796 9.67341 40.9862 10.0451 40.9862C10.3434 40.9862 10.6085 40.9163 10.8406 40.7766C11.0749 40.637 11.2584 40.4452 11.391 40.2013C11.5259 39.9551 11.5934 39.677 11.5934 39.3668C11.5934 39.0496 11.5236 38.7667 11.3839 38.5181C11.2466 38.2672 11.0572 38.0695 10.8157 37.9251C10.5742 37.7807 10.2984 37.7073 9.98828 37.7049C9.76574 37.7025 9.53729 37.7369 9.30291 37.8079C9.06854 37.8765 8.87559 37.9653 8.72408 38.0742L7.90021 37.9748L8.34055 34.3952H12.119V35.1765H9.07919L8.82351 37.3214H8.86612C9.01527 37.203 9.2023 37.1048 9.4272 37.0266C9.65211 36.9485 9.88648 36.9094 10.1303 36.9094C10.5754 36.9094 10.9719 37.016 11.32 37.229C11.6703 37.4397 11.945 37.7286 12.1438 38.0955C12.3451 38.4625 12.4457 38.8815 12.4457 39.3526C12.4457 39.8166 12.3415 40.2309 12.1332 40.5955C11.9272 40.9577 11.6431 41.2442 11.2809 41.4549C10.9187 41.6632 10.5067 41.7674 10.0451 41.7674ZM13.9842 34.3952H15.0353L17.5069 40.4322H17.5922L20.0637 34.3952H21.1149V41.668H20.291V36.1424H20.22L17.9473 41.668H17.1518L14.8791 36.1424H14.8081V41.668H13.9842V34.3952Z" fill="#7B8092"/>
<path d="M1.55167 73.332V72.6928L3.95224 70.065C4.23396 69.7572 4.46597 69.4897 4.64826 69.2624C4.83055 69.0328 4.96549 68.8174 5.05309 68.6161C5.14305 68.4125 5.18803 68.1995 5.18803 67.9769C5.18803 67.7212 5.12648 67.4999 5.00337 67.3129C4.88263 67.1258 4.71692 66.9814 4.50621 66.8796C4.29551 66.7778 4.05877 66.7269 3.79599 66.7269C3.51663 66.7269 3.27279 66.7849 3.06445 66.9009C2.85849 67.0146 2.69869 67.1744 2.58505 67.3803C2.47378 67.5863 2.41815 67.8278 2.41815 68.1048H1.58008C1.58008 67.6786 1.67833 67.3046 1.87482 66.9826C2.07132 66.6606 2.33884 66.4097 2.67738 66.2298C3.01829 66.0498 3.40063 65.9599 3.8244 65.9599C4.25053 65.9599 4.62814 66.0498 4.95721 66.2298C5.28628 66.4097 5.54433 66.6523 5.73136 66.9577C5.91838 67.2631 6.0119 67.6029 6.0119 67.9769C6.0119 68.2444 5.96336 68.506 5.8663 68.7617C5.7716 69.015 5.60588 69.2979 5.36914 69.6104C5.13477 69.9206 4.80924 70.2994 4.39258 70.7468L2.75906 72.494V72.5508H6.13974V73.332H1.55167ZM9.97852 73.4315C9.44348 73.4315 8.98775 73.2859 8.61133 72.9947C8.23491 72.7011 7.94727 72.2762 7.7484 71.7198C7.54954 71.1611 7.45011 70.4864 7.45011 69.6957C7.45011 68.9097 7.54954 68.2385 7.7484 67.6822C7.94963 67.1235 8.23846 66.6973 8.61488 66.4038C8.99367 66.1078 9.44821 65.9599 9.97852 65.9599C10.5088 65.9599 10.9622 66.1078 11.3386 66.4038C11.7174 66.6973 12.0062 67.1235 12.2051 67.6822C12.4063 68.2385 12.5069 68.9097 12.5069 69.6957C12.5069 70.4864 12.4075 71.1611 12.2086 71.7198C12.0098 72.2762 11.7221 72.7011 11.3457 72.9947C10.9693 73.2859 10.5136 73.4315 9.97852 73.4315ZM9.97852 72.6502C10.5088 72.6502 10.9208 72.3945 11.2143 71.8832C11.5079 71.3718 11.6547 70.6426 11.6547 69.6957C11.6547 69.0659 11.5872 68.5297 11.4522 68.087C11.3197 67.6443 11.1279 67.3069 10.877 67.0749C10.6284 66.8429 10.3289 66.7269 9.97852 66.7269C9.45295 66.7269 9.0422 66.9862 8.74627 67.5046C8.45034 68.0207 8.30238 68.7511 8.30238 69.6957C8.30238 70.3254 8.36867 70.8604 8.50124 71.3008C8.63382 71.7411 8.8244 72.0761 9.07298 72.3058C9.32392 72.5354 9.62577 72.6502 9.97852 72.6502ZM13.9842 66.0593H15.0353L17.5069 72.0962H17.5922L20.0637 66.0593H21.1149V73.332H20.291V67.8065H20.22L17.9473 73.332H17.1518L14.8791 67.8065H14.8081V73.332H13.9842V66.0593Z" fill="#7B8092"/>
<path d="M5.68075 97.7273V105H4.80007V98.6506H4.75746L2.98189 99.8295V98.9347L4.80007 97.7273H5.68075ZM10.0451 105.099C9.62843 105.099 9.2532 105.017 8.91939 104.851C8.58558 104.685 8.31806 104.458 8.11683 104.169C7.9156 103.88 7.80552 103.551 7.78658 103.182H8.63885C8.67199 103.511 8.82114 103.783 9.08629 103.999C9.35381 104.212 9.67341 104.318 10.0451 104.318C10.3434 104.318 10.6085 104.248 10.8406 104.109C11.0749 103.969 11.2584 103.777 11.391 103.533C11.5259 103.287 11.5934 103.009 11.5934 102.699C11.5934 102.382 11.5236 102.099 11.3839 101.85C11.2466 101.599 11.0572 101.402 10.8157 101.257C10.5742 101.113 10.2984 101.039 9.98828 101.037C9.76574 101.035 9.53729 101.069 9.30291 101.14C9.06854 101.209 8.87559 101.297 8.72408 101.406L7.90021 101.307L8.34055 97.7273H12.119V98.5085H9.07919L8.82351 100.653H8.86612C9.01527 100.535 9.2023 100.437 9.4272 100.359C9.65211 100.281 9.88648 100.241 10.1303 100.241C10.5754 100.241 10.9719 100.348 11.32 100.561C11.6703 100.772 11.945 101.061 12.1438 101.428C12.3451 101.795 12.4457 102.214 12.4457 102.685C12.4457 103.149 12.3415 103.563 12.1332 103.928C11.9272 104.29 11.6431 104.576 11.2809 104.787C10.9187 104.995 10.5067 105.099 10.0451 105.099ZM13.9842 97.7273H15.0353L17.5069 103.764H17.5922L20.0637 97.7273H21.1149V105H20.291V99.4744H20.22L17.9473 105H17.1518L14.8791 99.4744H14.8081V105H13.9842V97.7273Z" fill="#7B8092"/>
<path d="M5.51474 129.395V136.668H4.63406V130.319H4.59144L2.81587 131.498V130.603L4.63406 129.395H5.51474ZM9.97852 136.767C9.44348 136.767 8.98775 136.622 8.61133 136.331C8.23491 136.037 7.94727 135.612 7.7484 135.056C7.54954 134.497 7.45011 133.822 7.45011 133.032C7.45011 132.246 7.54954 131.574 7.7484 131.018C7.94963 130.459 8.23846 130.033 8.61488 129.74C8.99367 129.444 9.44821 129.296 9.97852 129.296C10.5088 129.296 10.9622 129.444 11.3386 129.74C11.7174 130.033 12.0062 130.459 12.2051 131.018C12.4063 131.574 12.5069 132.246 12.5069 133.032C12.5069 133.822 12.4075 134.497 12.2086 135.056C12.0098 135.612 11.7221 136.037 11.3457 136.331C10.9693 136.622 10.5136 136.767 9.97852 136.767ZM9.97852 135.986C10.5088 135.986 10.9208 135.73 11.2143 135.219C11.5079 134.708 11.6547 133.979 11.6547 133.032C11.6547 132.402 11.5872 131.866 11.4522 131.423C11.3197 130.98 11.1279 130.643 10.877 130.411C10.6284 130.179 10.3289 130.063 9.97852 130.063C9.45295 130.063 9.0422 130.322 8.74627 130.841C8.45034 131.357 8.30238 132.087 8.30238 133.032C8.30238 133.661 8.36867 134.196 8.50124 134.637C8.63382 135.077 8.8244 135.412 9.07298 135.642C9.32392 135.871 9.62577 135.986 9.97852 135.986ZM13.9842 129.395H15.0353L17.5069 135.432H17.5922L20.0637 129.395H21.1149V136.668H20.291V131.142H20.22L17.9473 136.668H17.1518L14.8791 131.142H14.8081V136.668H13.9842V129.395Z" fill="#7B8092"/>
<path d="M10.0451 168.431C9.62843 168.431 9.2532 168.349 8.91939 168.183C8.58558 168.017 8.31806 167.79 8.11683 167.501C7.9156 167.212 7.80552 166.883 7.78658 166.514H8.63885C8.67199 166.843 8.82114 167.115 9.08629 167.331C9.35381 167.544 9.67341 167.65 10.0451 167.65C10.3434 167.65 10.6085 167.58 10.8406 167.441C11.0749 167.301 11.2584 167.109 11.391 166.865C11.5259 166.619 11.5934 166.341 11.5934 166.031C11.5934 165.714 11.5236 165.431 11.3839 165.182C11.2466 164.931 11.0572 164.734 10.8157 164.589C10.5742 164.445 10.2984 164.371 9.98828 164.369C9.76574 164.367 9.53729 164.401 9.30291 164.472C9.06854 164.541 8.87559 164.629 8.72408 164.738L7.90021 164.639L8.34055 161.059H12.119V161.841H9.07919L8.82351 163.985H8.86612C9.01527 163.867 9.2023 163.769 9.4272 163.691C9.65211 163.613 9.88648 163.574 10.1303 163.574C10.5754 163.574 10.9719 163.68 11.32 163.893C11.6703 164.104 11.945 164.393 12.1438 164.76C12.3451 165.127 12.4457 165.546 12.4457 166.017C12.4457 166.481 12.3415 166.895 12.1332 167.26C11.9272 167.622 11.6431 167.908 11.2809 168.119C10.9187 168.327 10.5067 168.431 10.0451 168.431ZM13.9842 161.059H15.0353L17.5069 167.096H17.5922L20.0637 161.059H21.1149V168.332H20.291V162.806H20.22L17.9473 168.332H17.1518L14.8791 162.806H14.8081V168.332H13.9842V161.059Z" fill="#7B8092"/>
<path d="M18.875 200.099C18.34 200.099 17.8842 199.954 17.5078 199.663C17.1314 199.369 16.8438 198.944 16.6449 198.388C16.446 197.829 16.3466 197.154 16.3466 196.364C16.3466 195.578 16.446 194.906 16.6449 194.35C16.8461 193.791 17.1349 193.365 17.5114 193.072C17.8902 192.776 18.3447 192.628 18.875 192.628C19.4053 192.628 19.8587 192.776 20.2351 193.072C20.6139 193.365 20.9027 193.791 21.1016 194.35C21.3028 194.906 21.4034 195.578 21.4034 196.364C21.4034 197.154 21.304 197.829 21.1051 198.388C20.9062 198.944 20.6186 199.369 20.2422 199.663C19.8658 199.954 19.41 200.099 18.875 200.099ZM18.875 199.318C19.4053 199.318 19.8172 199.062 20.1108 198.551C20.4044 198.04 20.5511 197.311 20.5511 196.364C20.5511 195.734 20.4837 195.198 20.3487 194.755C20.2161 194.312 20.0244 193.975 19.7734 193.743C19.5249 193.511 19.2254 193.395 18.875 193.395C18.3494 193.395 17.9387 193.654 17.6428 194.173C17.3468 194.689 17.1989 195.419 17.1989 196.364C17.1989 196.993 17.2652 197.528 17.3977 197.969C17.5303 198.409 17.7209 198.744 17.9695 198.974C18.2204 199.203 18.5223 199.318 18.875 199.318Z" fill="#7B8092"/>
<rect x="43" y="41" width="15" height="157.733" fill="#F1F2F9"/>
<rect x="43" y="140" width="15" height="59" fill="#E7EAF8"/>
<rect x="96.5" y="41" width="15" height="157.733" fill="#F1F2F9"/>
<rect x="96.1797" y="152" width="15" height="47" fill="#E7EAF8"/>
<rect x="149.672" y="41" width="15" height="157.733" fill="#F1F2F9"/>
<rect x="149.773" y="152" width="15" height="47" fill="#E7EAF8"/>
<rect x="203.219" y="52" width="15" height="147" fill="#F1F2F9"/>
<rect x="202.953" y="152" width="15" height="47" fill="#E7EAF8"/>
<rect x="256.391" y="41" width="15" height="157.733" fill="#F1F2F9"/>
<rect x="256.641" y="140" width="15" height="59" fill="#E7EAF8"/>
<rect x="310.062" y="52" width="15" height="147" fill="#F1F2F9"/>
<rect x="309.82" y="152" width="15" height="47" fill="#E7EAF8"/>
<rect x="363.242" y="41" width="15" height="157.733" fill="#F1F2F9"/>
<rect x="363.242" y="168" width="15" height="31" fill="#E7EAF8"/>
<rect x="416.414" y="41" width="15" height="157.733" fill="#F1F2F9"/>
<rect x="416.656" y="140" width="15" height="59" fill="#E7EAF8"/>
<rect x="469.867" y="69" width="15" height="130" fill="#F1F2F9"/>
<rect x="469.836" y="152" width="15" height="47" fill="#E7EAF8"/>
<rect x="523.82" y="52" width="15" height="147" fill="#F1F2F9"/>
<rect x="523.039" y="140" width="15" height="59" fill="#E7EAF8"/>
<rect x="577" y="41" width="15" height="157.733" fill="#F1F2F9"/>
<rect x="577" y="152" width="15" height="47" fill="#E7EAF8"/>
<path d="M36 199L617 199" stroke="#D8DDE7"/>
</svg>
