<svg width="545" height="268" viewBox="0 0 545 268" fill="none" xmlns="http://www.w3.org/2000/svg">
<rect y="1" width="545" height="267" fill="white"/>
<path d="M1.67614 17.5085V16.7841L4.87216 11.7273H5.39773V12.8494H5.04261L2.62784 16.6705V16.7273H6.93182V17.5085H1.67614ZM5.09943 19V17.2884V16.951V11.7273H5.9375V19H5.09943ZM10.6774 19.0994C10.3791 19.0947 10.0808 19.0379 9.78249 18.929C9.4842 18.8201 9.21194 18.6366 8.96573 18.3786C8.71952 18.1181 8.52184 17.7666 8.37269 17.3239C8.22354 16.8788 8.14897 16.3201 8.14897 15.6477C8.14897 15.0038 8.20934 14.4332 8.33008 13.9361C8.45082 13.4366 8.62601 13.0163 8.85565 12.6754C9.08529 12.3321 9.36228 12.0717 9.68661 11.8942C10.0133 11.7166 10.3815 11.6278 10.791 11.6278C11.1982 11.6278 11.5604 11.7095 11.8777 11.8729C12.1973 12.0339 12.4577 12.2588 12.6589 12.5476C12.8601 12.8364 12.9904 13.169 13.0495 13.5455H12.1831C12.1026 13.2187 11.9463 12.9477 11.7143 12.7322C11.4823 12.5168 11.1745 12.4091 10.791 12.4091C10.2276 12.4091 9.78368 12.6541 9.45934 13.1442C9.13737 13.6342 8.9752 14.322 8.97283 15.2074H9.02965C9.16223 15.0062 9.31966 14.8345 9.50195 14.6925C9.68661 14.5481 9.89021 14.4368 10.1127 14.3587C10.3353 14.2805 10.5708 14.2415 10.8194 14.2415C11.2361 14.2415 11.6172 14.3456 11.9629 14.554C12.3085 14.7599 12.5855 15.0452 12.7939 15.4098C13.0022 15.772 13.1064 16.1875 13.1064 16.6562C13.1064 17.1061 13.0057 17.518 12.8045 17.892C12.6033 18.2637 12.3204 18.5597 11.9558 18.7798C11.5936 18.9976 11.1674 19.1042 10.6774 19.0994ZM10.6774 18.3182C10.9757 18.3182 11.2432 18.2436 11.4799 18.0945C11.719 17.9453 11.9073 17.7453 12.0446 17.4943C12.1842 17.2434 12.2541 16.964 12.2541 16.6562C12.2541 16.3556 12.1866 16.0821 12.0517 15.8359C11.9191 15.5874 11.7356 15.3897 11.5012 15.2429C11.2692 15.0961 11.0041 15.0227 10.7058 15.0227C10.4809 15.0227 10.2714 15.0677 10.0772 15.1577C9.88311 15.2453 9.71265 15.366 9.56587 15.5199C9.42146 15.6738 9.30782 15.8501 9.22496 16.049C9.1421 16.2455 9.10067 16.4527 9.10067 16.6705C9.10067 16.9593 9.16815 17.2292 9.30309 17.4801C9.4404 17.7311 9.62743 17.9335 9.86417 18.0874C10.1033 18.2412 10.3743 18.3182 10.6774 18.3182ZM16.875 19.0994C16.34 19.0994 15.8842 18.9538 15.5078 18.6626C15.1314 18.3691 14.8438 17.9441 14.6449 17.3878C14.446 16.8291 14.3466 16.1544 14.3466 15.3636C14.3466 14.5777 14.446 13.9065 14.6449 13.3501C14.8461 12.7914 15.1349 12.3653 15.5114 12.0717C15.8902 11.7758 16.3447 11.6278 16.875 11.6278C17.4053 11.6278 17.8587 11.7758 18.2351 12.0717C18.6139 12.3653 18.9027 12.7914 19.1016 13.3501C19.3028 13.9065 19.4034 14.5777 19.4034 15.3636C19.4034 16.1544 19.304 16.8291 19.1051 17.3878C18.9062 17.9441 18.6186 18.3691 18.2422 18.6626C17.8658 18.9538 17.41 19.0994 16.875 19.0994ZM16.875 18.3182C17.4053 18.3182 17.8172 18.0625 18.1108 17.5511C18.4044 17.0398 18.5511 16.3106 18.5511 15.3636C18.5511 14.7339 18.4837 14.1977 18.3487 13.755C18.2161 13.3123 18.0244 12.9749 17.7734 12.7429C17.5249 12.5109 17.2254 12.3949 16.875 12.3949C16.3494 12.3949 15.9387 12.6541 15.6428 13.1726C15.3468 13.6887 15.1989 14.419 15.1989 15.3636C15.1989 15.9934 15.2652 16.5284 15.3977 16.9688C15.5303 17.4091 15.7209 17.7441 15.9695 17.9737C16.2204 18.2034 16.5223 18.3182 16.875 18.3182Z" fill="#7B8092"/>
<path d="M1.50036 50.5085V49.7841L4.69638 44.7273H5.22195V45.8494H4.86683L2.45206 49.6705V49.7273H6.75604V50.5085H1.50036ZM4.92365 52V50.2884V49.951V44.7273H5.76172V52H4.92365ZM7.91637 50.5085V49.7841L11.1124 44.7273H11.638V45.8494H11.2828L8.86808 49.6705V49.7273H13.1721V50.5085H7.91637ZM11.3397 52V50.2884V49.951V44.7273H12.1777V52H11.3397ZM16.875 52.0994C16.34 52.0994 15.8842 51.9538 15.5078 51.6626C15.1314 51.3691 14.8438 50.9441 14.6449 50.3878C14.446 49.8291 14.3466 49.1544 14.3466 48.3636C14.3466 47.5777 14.446 46.9065 14.6449 46.3501C14.8461 45.7914 15.1349 45.3653 15.5114 45.0717C15.8902 44.7758 16.3447 44.6278 16.875 44.6278C17.4053 44.6278 17.8587 44.7758 18.2351 45.0717C18.6139 45.3653 18.9027 45.7914 19.1016 46.3501C19.3028 46.9065 19.4034 47.5777 19.4034 48.3636C19.4034 49.1544 19.304 49.8291 19.1051 50.3878C18.9062 50.9441 18.6186 51.3691 18.2422 51.6626C17.8658 51.9538 17.41 52.0994 16.875 52.0994ZM16.875 51.3182C17.4053 51.3182 17.8172 51.0625 18.1108 50.5511C18.4044 50.0398 18.5511 49.3106 18.5511 48.3636C18.5511 47.7339 18.4837 47.1977 18.3487 46.755C18.2161 46.3123 18.0244 45.9749 17.7734 45.7429C17.5249 45.5109 17.2254 45.3949 16.875 45.3949C16.3494 45.3949 15.9387 45.6541 15.6428 46.1726C15.3468 46.6887 15.1989 47.419 15.1989 48.3636C15.1989 48.9934 15.2652 49.5284 15.3977 49.9688C15.5303 50.4091 15.7209 50.7441 15.9695 50.9737C16.2204 51.2034 16.5223 51.3182 16.875 51.3182Z" fill="#7B8092"/>
<path d="M1.86168 83.5085V82.7841L5.05771 77.7273H5.58327V78.8494H5.22816L2.81339 82.6705V82.7273H7.11737V83.5085H1.86168ZM5.28498 85V83.2884V82.951V77.7273H6.12305V85H5.28498ZM8.44815 85V84.3608L10.8487 81.733C11.1304 81.4252 11.3625 81.1577 11.5447 80.9304C11.727 80.7008 11.862 80.4853 11.9496 80.2841C12.0395 80.0805 12.0845 79.8674 12.0845 79.6449C12.0845 79.3892 12.023 79.1679 11.8999 78.9808C11.7791 78.7938 11.6134 78.6494 11.4027 78.5476C11.192 78.4458 10.9553 78.3949 10.6925 78.3949C10.4131 78.3949 10.1693 78.4529 9.96094 78.5689C9.75497 78.6825 9.59517 78.8423 9.48153 79.0483C9.37027 79.2543 9.31463 79.4957 9.31463 79.7727H8.47656C8.47656 79.3466 8.57481 78.9725 8.77131 78.6506C8.9678 78.3286 9.23532 78.0777 9.57386 77.8977C9.91477 77.7178 10.2971 77.6278 10.7209 77.6278C11.147 77.6278 11.5246 77.7178 11.8537 77.8977C12.1828 78.0777 12.4408 78.3203 12.6278 78.6257C12.8149 78.9311 12.9084 79.2708 12.9084 79.6449C12.9084 79.9124 12.8598 80.174 12.7628 80.4297C12.6681 80.683 12.5024 80.9659 12.2656 81.2784C12.0312 81.5885 11.7057 81.9673 11.2891 82.4148L9.65554 84.1619V84.2188H13.0362V85H8.44815ZM16.875 85.0994C16.34 85.0994 15.8842 84.9538 15.5078 84.6626C15.1314 84.3691 14.8438 83.9441 14.6449 83.3878C14.446 82.8291 14.3466 82.1544 14.3466 81.3636C14.3466 80.5777 14.446 79.9065 14.6449 79.3501C14.8461 78.7914 15.1349 78.3653 15.5114 78.0717C15.8902 77.7758 16.3447 77.6278 16.875 77.6278C17.4053 77.6278 17.8587 77.7758 18.2351 78.0717C18.6139 78.3653 18.9027 78.7914 19.1016 79.3501C19.3028 79.9065 19.4034 80.5777 19.4034 81.3636C19.4034 82.1544 19.304 82.8291 19.1051 83.3878C18.9062 83.9441 18.6186 84.3691 18.2422 84.6626C17.8658 84.9538 17.41 85.0994 16.875 85.0994ZM16.875 84.3182C17.4053 84.3182 17.8172 84.0625 18.1108 83.5511C18.4044 83.0398 18.5511 82.3106 18.5511 81.3636C18.5511 80.7339 18.4837 80.1977 18.3487 79.755C18.2161 79.3123 18.0244 78.9749 17.7734 78.7429C17.5249 78.5109 17.2254 78.3949 16.875 78.3949C16.3494 78.3949 15.9387 78.6541 15.6428 79.1726C15.3468 79.6887 15.1989 80.419 15.1989 81.3636C15.1989 81.9934 15.2652 82.5284 15.3977 82.9688C15.5303 83.4091 15.7209 83.7441 15.9695 83.9737C16.2204 84.2034 16.5223 84.3182 16.875 84.3182Z" fill="#7B8092"/>
<path d="M1.66637 116.509V115.784L4.86239 110.727H5.38796V111.849H5.03285L2.61808 115.67V115.727H6.92205V116.509H1.66637ZM5.08967 118V116.288V115.951V110.727H5.92773V118H5.08967ZM10.625 118.099C10.09 118.099 9.63423 117.954 9.25781 117.663C8.88139 117.369 8.59375 116.944 8.39489 116.388C8.19602 115.829 8.09659 115.154 8.09659 114.364C8.09659 113.578 8.19602 112.906 8.39489 112.35C8.59612 111.791 8.88494 111.365 9.26136 111.072C9.64015 110.776 10.0947 110.628 10.625 110.628C11.1553 110.628 11.6087 110.776 11.9851 111.072C12.3639 111.365 12.6527 111.791 12.8516 112.35C13.0528 112.906 13.1534 113.578 13.1534 114.364C13.1534 115.154 13.054 115.829 12.8551 116.388C12.6562 116.944 12.3686 117.369 11.9922 117.663C11.6158 117.954 11.16 118.099 10.625 118.099ZM10.625 117.318C11.1553 117.318 11.5672 117.062 11.8608 116.551C12.1544 116.04 12.3011 115.311 12.3011 114.364C12.3011 113.734 12.2337 113.198 12.0987 112.755C11.9661 112.312 11.7744 111.975 11.5234 111.743C11.2749 111.511 10.9754 111.395 10.625 111.395C10.0994 111.395 9.68868 111.654 9.39276 112.173C9.09683 112.689 8.94886 113.419 8.94886 114.364C8.94886 114.993 9.01515 115.528 9.14773 115.969C9.2803 116.409 9.47088 116.744 9.71946 116.974C9.97041 117.203 10.2723 117.318 10.625 117.318ZM16.875 118.099C16.34 118.099 15.8842 117.954 15.5078 117.663C15.1314 117.369 14.8438 116.944 14.6449 116.388C14.446 115.829 14.3466 115.154 14.3466 114.364C14.3466 113.578 14.446 112.906 14.6449 112.35C14.8461 111.791 15.1349 111.365 15.5114 111.072C15.8902 110.776 16.3447 110.628 16.875 110.628C17.4053 110.628 17.8587 110.776 18.2351 111.072C18.6139 111.365 18.9027 111.791 19.1016 112.35C19.3028 112.906 19.4034 113.578 19.4034 114.364C19.4034 115.154 19.304 115.829 19.1051 116.388C18.9062 116.944 18.6186 117.369 18.2422 117.663C17.8658 117.954 17.41 118.099 16.875 118.099ZM16.875 117.318C17.4053 117.318 17.8172 117.062 18.1108 116.551C18.4044 116.04 18.5511 115.311 18.5511 114.364C18.5511 113.734 18.4837 113.198 18.3487 112.755C18.2161 112.312 18.0244 111.975 17.7734 111.743C17.5249 111.511 17.2254 111.395 16.875 111.395C16.3494 111.395 15.9387 111.654 15.6428 112.173C15.3468 112.689 15.1989 113.419 15.1989 114.364C15.1989 114.993 15.2652 115.528 15.3977 115.969C15.5303 116.409 15.7209 116.744 15.9695 116.974C16.2204 117.203 16.5223 117.318 16.875 117.318Z" fill="#7B8092"/>
<path d="M4.43093 151.099C3.96218 151.099 3.54433 151.019 3.17738 150.858C2.8128 150.697 2.52279 150.473 2.30735 150.187C2.09428 149.898 1.97828 149.563 1.95934 149.182H2.85423C2.87317 149.416 2.95366 149.619 3.0957 149.789C3.23775 149.957 3.42359 150.087 3.65323 150.18C3.88287 150.272 4.13737 150.318 4.41673 150.318C4.72923 150.318 5.00621 150.264 5.24769 150.155C5.48917 150.046 5.67856 149.894 5.81587 149.7C5.95318 149.506 6.02184 149.281 6.02184 149.026C6.02184 148.758 5.95555 148.522 5.82298 148.319C5.6904 148.113 5.49627 147.952 5.24059 147.836C4.98491 147.72 4.67241 147.662 4.30309 147.662H3.7207V146.881H4.30309C4.59192 146.881 4.84523 146.829 5.06303 146.724C5.2832 146.62 5.45484 146.473 5.57795 146.284C5.70342 146.095 5.76616 145.872 5.76616 145.616C5.76616 145.37 5.71171 145.156 5.60281 144.974C5.4939 144.791 5.34002 144.649 5.14116 144.548C4.94466 144.446 4.71265 144.395 4.44513 144.395C4.19419 144.395 3.95745 144.441 3.73491 144.533C3.51474 144.623 3.33481 144.755 3.19513 144.928C3.05546 145.098 2.9797 145.304 2.96786 145.545H2.11559C2.12979 145.164 2.24461 144.83 2.46005 144.544C2.67549 144.255 2.95721 144.03 3.30522 143.869C3.6556 143.708 4.04031 143.628 4.45934 143.628C4.90915 143.628 5.29504 143.719 5.61701 143.901C5.93898 144.081 6.18638 144.319 6.3592 144.615C6.53202 144.911 6.61843 145.231 6.61843 145.574C6.61843 145.983 6.51071 146.333 6.29528 146.621C6.08221 146.91 5.7922 147.11 5.42525 147.222V147.278C5.88453 147.354 6.24319 147.549 6.50124 147.864C6.75929 148.177 6.88832 148.564 6.88832 149.026C6.88832 149.421 6.7806 149.776 6.56516 150.091C6.3521 150.403 6.0609 150.65 5.69158 150.83C5.32227 151.009 4.90205 151.099 4.43093 151.099ZM10.6703 151.099C10.1826 151.099 9.75172 151.013 9.37766 150.84C9.00598 150.665 8.71597 150.425 8.50763 150.119C8.2993 149.812 8.19632 149.461 8.19869 149.068C8.19632 148.76 8.25669 148.476 8.37979 148.216C8.5029 147.953 8.67099 147.734 8.88406 147.559C9.09949 147.381 9.33978 147.269 9.60494 147.222V147.179C9.25692 147.089 8.97994 146.894 8.77397 146.593C8.568 146.29 8.46621 145.946 8.46857 145.56C8.46621 145.19 8.55972 144.86 8.74911 144.569C8.93851 144.278 9.19892 144.048 9.53036 143.88C9.86417 143.712 10.2441 143.628 10.6703 143.628C11.0917 143.628 11.4681 143.712 11.7995 143.88C12.131 144.048 12.3914 144.278 12.5808 144.569C12.7725 144.86 12.8696 145.19 12.872 145.56C12.8696 145.946 12.7643 146.29 12.5559 146.593C12.35 146.894 12.0765 147.089 11.7356 147.179V147.222C11.9984 147.269 12.2351 147.381 12.4458 147.559C12.6565 147.734 12.8246 147.953 12.9501 148.216C13.0756 148.476 13.1395 148.76 13.1419 149.068C13.1395 149.461 13.033 149.812 12.8223 150.119C12.6139 150.425 12.3239 150.665 11.9522 150.84C11.5829 151.013 11.1556 151.099 10.6703 151.099ZM10.6703 150.318C10.9993 150.318 11.2834 150.265 11.5225 150.158C11.7617 150.052 11.9463 149.902 12.0765 149.707C12.2067 149.513 12.273 149.286 12.2754 149.026C12.273 148.751 12.202 148.508 12.0623 148.298C11.9226 148.087 11.7321 147.921 11.4906 147.8C11.2515 147.68 10.978 147.619 10.6703 147.619C10.3601 147.619 10.0832 147.68 9.83931 147.8C9.59783 147.921 9.40726 148.087 9.26758 148.298C9.13027 148.508 9.0628 148.751 9.06516 149.026C9.0628 149.286 9.12553 149.513 9.25337 149.707C9.38358 149.902 9.56942 150.052 9.8109 150.158C10.0524 150.265 10.3388 150.318 10.6703 150.318ZM10.6703 146.866C10.9307 146.866 11.1615 146.814 11.3627 146.71C11.5663 146.606 11.7261 146.46 11.8422 146.273C11.9582 146.086 12.0173 145.867 12.0197 145.616C12.0173 145.37 11.9593 145.156 11.8457 144.974C11.7321 144.789 11.5746 144.647 11.3734 144.548C11.1722 144.446 10.9378 144.395 10.6703 144.395C10.398 144.395 10.1601 144.446 9.9565 144.548C9.7529 144.647 9.59547 144.789 9.4842 144.974C9.37293 145.156 9.31848 145.37 9.32085 145.616C9.31848 145.867 9.37411 146.086 9.48775 146.273C9.60375 146.46 9.76355 146.606 9.96715 146.71C10.1708 146.814 10.4051 146.866 10.6703 146.866ZM16.875 151.099C16.34 151.099 15.8842 150.954 15.5078 150.663C15.1314 150.369 14.8438 149.944 14.6449 149.388C14.446 148.829 14.3466 148.154 14.3466 147.364C14.3466 146.578 14.446 145.906 14.6449 145.35C14.8461 144.791 15.1349 144.365 15.5114 144.072C15.8902 143.776 16.3447 143.628 16.875 143.628C17.4053 143.628 17.8587 143.776 18.2351 144.072C18.6139 144.365 18.9027 144.791 19.1016 145.35C19.3028 145.906 19.4034 146.578 19.4034 147.364C19.4034 148.154 19.304 148.829 19.1051 149.388C18.9062 149.944 18.6186 150.369 18.2422 150.663C17.8658 150.954 17.41 151.099 16.875 151.099ZM16.875 150.318C17.4053 150.318 17.8172 150.062 18.1108 149.551C18.4044 149.04 18.5511 148.311 18.5511 147.364C18.5511 146.734 18.4837 146.198 18.3487 145.755C18.2161 145.312 18.0244 144.975 17.7734 144.743C17.5249 144.511 17.2254 144.395 16.875 144.395C16.3494 144.395 15.9387 144.654 15.6428 145.173C15.3468 145.689 15.1989 146.419 15.1989 147.364C15.1989 147.993 15.2652 148.528 15.3977 148.969C15.5303 149.409 15.7209 149.744 15.9695 149.974C16.2204 150.203 16.5223 150.318 16.875 150.318Z" fill="#7B8092"/>
<path d="M4.35281 184.099C3.88406 184.099 3.46621 184.019 3.09925 183.858C2.73467 183.697 2.44466 183.473 2.22923 183.187C2.01616 182.898 1.90015 182.563 1.88121 182.182H2.7761C2.79504 182.416 2.87553 182.619 3.01758 182.789C3.15962 182.957 3.34547 183.087 3.57511 183.18C3.80475 183.272 4.05924 183.318 4.3386 183.318C4.6511 183.318 4.92809 183.264 5.16957 183.155C5.41104 183.046 5.60044 182.894 5.73775 182.7C5.87506 182.506 5.94371 182.281 5.94371 182.026C5.94371 181.758 5.87743 181.522 5.74485 181.319C5.61228 181.113 5.41815 180.952 5.16246 180.836C4.90678 180.72 4.59428 180.662 4.22496 180.662H3.64258V179.881H4.22496C4.51379 179.881 4.7671 179.829 4.98491 179.724C5.20508 179.62 5.37672 179.473 5.49982 179.284C5.6253 179.095 5.68803 178.872 5.68803 178.616C5.68803 178.37 5.63358 178.156 5.52468 177.974C5.41578 177.791 5.2619 177.649 5.06303 177.548C4.86654 177.446 4.63453 177.395 4.36701 177.395C4.11606 177.395 3.87932 177.441 3.65678 177.533C3.43661 177.623 3.25669 177.755 3.11701 177.928C2.97733 178.098 2.90157 178.304 2.88974 178.545H2.03746C2.05167 178.164 2.16649 177.83 2.38192 177.544C2.59736 177.255 2.87908 177.03 3.2271 176.869C3.57747 176.708 3.96218 176.628 4.38121 176.628C4.83103 176.628 5.21692 176.719 5.53888 176.901C5.86085 177.081 6.10825 177.319 6.28107 177.615C6.45389 177.911 6.54031 178.231 6.54031 178.574C6.54031 178.983 6.43259 179.333 6.21715 179.621C6.00408 179.91 5.71407 180.11 5.34712 180.222V180.278C5.8064 180.354 6.16507 180.549 6.42312 180.864C6.68117 181.177 6.81019 181.564 6.81019 182.026C6.81019 182.421 6.70247 182.776 6.48704 183.091C6.27397 183.403 5.98278 183.65 5.61346 183.83C5.24414 184.009 4.82392 184.099 4.35281 184.099ZM10.6774 184.099C10.3791 184.095 10.0808 184.038 9.78249 183.929C9.4842 183.82 9.21194 183.637 8.96573 183.379C8.71952 183.118 8.52184 182.767 8.37269 182.324C8.22354 181.879 8.14897 181.32 8.14897 180.648C8.14897 180.004 8.20934 179.433 8.33008 178.936C8.45082 178.437 8.62601 178.016 8.85565 177.675C9.08529 177.332 9.36228 177.072 9.68661 176.894C10.0133 176.717 10.3815 176.628 10.791 176.628C11.1982 176.628 11.5604 176.71 11.8777 176.873C12.1973 177.034 12.4577 177.259 12.6589 177.548C12.8601 177.836 12.9904 178.169 13.0495 178.545H12.1831C12.1026 178.219 11.9463 177.948 11.7143 177.732C11.4823 177.517 11.1745 177.409 10.791 177.409C10.2276 177.409 9.78368 177.654 9.45934 178.144C9.13737 178.634 8.9752 179.322 8.97283 180.207H9.02965C9.16223 180.006 9.31966 179.835 9.50195 179.692C9.68661 179.548 9.89021 179.437 10.1127 179.359C10.3353 179.281 10.5708 179.241 10.8194 179.241C11.2361 179.241 11.6172 179.346 11.9629 179.554C12.3085 179.76 12.5855 180.045 12.7939 180.41C13.0022 180.772 13.1064 181.188 13.1064 181.656C13.1064 182.106 13.0057 182.518 12.8045 182.892C12.6033 183.264 12.3204 183.56 11.9558 183.78C11.5936 183.998 11.1674 184.104 10.6774 184.099ZM10.6774 183.318C10.9757 183.318 11.2432 183.244 11.4799 183.094C11.719 182.945 11.9073 182.745 12.0446 182.494C12.1842 182.243 12.2541 181.964 12.2541 181.656C12.2541 181.356 12.1866 181.082 12.0517 180.836C11.9191 180.587 11.7356 180.39 11.5012 180.243C11.2692 180.096 11.0041 180.023 10.7058 180.023C10.4809 180.023 10.2714 180.068 10.0772 180.158C9.88311 180.245 9.71265 180.366 9.56587 180.52C9.42146 180.674 9.30782 180.85 9.22496 181.049C9.1421 181.246 9.10067 181.453 9.10067 181.67C9.10067 181.959 9.16815 182.229 9.30309 182.48C9.4404 182.731 9.62743 182.933 9.86417 183.087C10.1033 183.241 10.3743 183.318 10.6774 183.318ZM16.875 184.099C16.34 184.099 15.8842 183.954 15.5078 183.663C15.1314 183.369 14.8438 182.944 14.6449 182.388C14.446 181.829 14.3466 181.154 14.3466 180.364C14.3466 179.578 14.446 178.906 14.6449 178.35C14.8461 177.791 15.1349 177.365 15.5114 177.072C15.8902 176.776 16.3447 176.628 16.875 176.628C17.4053 176.628 17.8587 176.776 18.2351 177.072C18.6139 177.365 18.9027 177.791 19.1016 178.35C19.3028 178.906 19.4034 179.578 19.4034 180.364C19.4034 181.154 19.304 181.829 19.1051 182.388C18.9062 182.944 18.6186 183.369 18.2422 183.663C17.8658 183.954 17.41 184.099 16.875 184.099ZM16.875 183.318C17.4053 183.318 17.8172 183.062 18.1108 182.551C18.4044 182.04 18.5511 181.311 18.5511 180.364C18.5511 179.734 18.4837 179.198 18.3487 178.755C18.2161 178.312 18.0244 177.975 17.7734 177.743C17.5249 177.511 17.2254 177.395 16.875 177.395C16.3494 177.395 15.9387 177.654 15.6428 178.173C15.3468 178.689 15.1989 179.419 15.1989 180.364C15.1989 180.993 15.2652 181.528 15.3977 181.969C15.5303 182.409 15.7209 182.744 15.9695 182.974C16.2204 183.203 16.5223 183.318 16.875 183.318Z" fill="#7B8092"/>
<path d="M4.17702 217.099C3.70827 217.099 3.29042 217.019 2.92347 216.858C2.55889 216.697 2.26888 216.473 2.05344 216.187C1.84038 215.898 1.72437 215.563 1.70543 215.182H2.60032C2.61926 215.416 2.69975 215.619 2.8418 215.789C2.98384 215.957 3.16969 216.087 3.39933 216.18C3.62897 216.272 3.88346 216.318 4.16282 216.318C4.47532 216.318 4.75231 216.264 4.99379 216.155C5.23526 216.046 5.42466 215.894 5.56197 215.7C5.69928 215.506 5.76793 215.281 5.76793 215.026C5.76793 214.758 5.70165 214.522 5.56907 214.319C5.43649 214.113 5.24237 213.952 4.98668 213.836C4.731 213.72 4.4185 213.662 4.04918 213.662H3.4668V212.881H4.04918C4.33801 212.881 4.59132 212.829 4.80913 212.724C5.0293 212.62 5.20094 212.473 5.32404 212.284C5.44951 212.095 5.51225 211.872 5.51225 211.616C5.51225 211.37 5.4578 211.156 5.3489 210.974C5.24 210.791 5.08612 210.649 4.88725 210.548C4.69076 210.446 4.45875 210.395 4.19123 210.395C3.94028 210.395 3.70354 210.441 3.481 210.533C3.26083 210.623 3.08091 210.755 2.94123 210.928C2.80155 211.098 2.72579 211.304 2.71396 211.545H1.86168C1.87589 211.164 1.99071 210.83 2.20614 210.544C2.42158 210.255 2.7033 210.03 3.05131 209.869C3.40169 209.708 3.7864 209.628 4.20543 209.628C4.65524 209.628 5.04113 209.719 5.3631 209.901C5.68507 210.081 5.93247 210.319 6.10529 210.615C6.27811 210.911 6.36452 211.231 6.36452 211.574C6.36452 211.983 6.25681 212.333 6.04137 212.621C5.8283 212.91 5.53829 213.11 5.17134 213.222V213.278C5.63062 213.354 5.98929 213.549 6.24734 213.864C6.50539 214.177 6.63441 214.564 6.63441 215.026C6.63441 215.421 6.52669 215.776 6.31126 216.091C6.09819 216.403 5.807 216.65 5.43768 216.83C5.06836 217.009 4.64814 217.099 4.17702 217.099ZM7.91637 215.509V214.784L11.1124 209.727H11.638V210.849H11.2828L8.86808 214.67V214.727H13.1721V215.509H7.91637ZM11.3397 217V215.288V214.951V209.727H12.1777V217H11.3397ZM16.875 217.099C16.34 217.099 15.8842 216.954 15.5078 216.663C15.1314 216.369 14.8438 215.944 14.6449 215.388C14.446 214.829 14.3466 214.154 14.3466 213.364C14.3466 212.578 14.446 211.906 14.6449 211.35C14.8461 210.791 15.1349 210.365 15.5114 210.072C15.8902 209.776 16.3447 209.628 16.875 209.628C17.4053 209.628 17.8587 209.776 18.2351 210.072C18.6139 210.365 18.9027 210.791 19.1016 211.35C19.3028 211.906 19.4034 212.578 19.4034 213.364C19.4034 214.154 19.304 214.829 19.1051 215.388C18.9062 215.944 18.6186 216.369 18.2422 216.663C17.8658 216.954 17.41 217.099 16.875 217.099ZM16.875 216.318C17.4053 216.318 17.8172 216.062 18.1108 215.551C18.4044 215.04 18.5511 214.311 18.5511 213.364C18.5511 212.734 18.4837 212.198 18.3487 211.755C18.2161 211.312 18.0244 210.975 17.7734 210.743C17.5249 210.511 17.2254 210.395 16.875 210.395C16.3494 210.395 15.9387 210.654 15.6428 211.173C15.3468 211.689 15.1989 212.419 15.1989 213.364C15.1989 213.993 15.2652 214.528 15.3977 214.969C15.5303 215.409 15.7209 215.744 15.9695 215.974C16.2204 216.203 16.5223 216.318 16.875 216.318Z" fill="#7B8092"/>
<path d="M4.53835 250.099C4.0696 250.099 3.65175 250.019 3.2848 249.858C2.92022 249.697 2.63021 249.473 2.41477 249.187C2.2017 248.898 2.0857 248.563 2.06676 248.182H2.96165C2.98059 248.416 3.06108 248.619 3.20312 248.789C3.34517 248.957 3.53101 249.087 3.76065 249.18C3.99029 249.272 4.24479 249.318 4.52415 249.318C4.83665 249.318 5.11364 249.264 5.35511 249.155C5.59659 249.046 5.78598 248.894 5.9233 248.7C6.06061 248.506 6.12926 248.281 6.12926 248.026C6.12926 247.758 6.06297 247.522 5.9304 247.319C5.79782 247.113 5.60369 246.952 5.34801 246.836C5.09233 246.72 4.77983 246.662 4.41051 246.662H3.82812V245.881H4.41051C4.69934 245.881 4.95265 245.829 5.17045 245.724C5.39063 245.62 5.56226 245.473 5.68537 245.284C5.81084 245.095 5.87358 244.872 5.87358 244.616C5.87358 244.37 5.81913 244.156 5.71023 243.974C5.60133 243.791 5.44744 243.649 5.24858 243.548C5.05208 243.446 4.82008 243.395 4.55256 243.395C4.30161 243.395 4.06487 243.441 3.84233 243.533C3.62216 243.623 3.44223 243.755 3.30256 243.928C3.16288 244.098 3.08712 244.304 3.07528 244.545H2.22301C2.23722 244.164 2.35204 243.83 2.56747 243.544C2.78291 243.255 3.06463 243.03 3.41264 242.869C3.76302 242.708 4.14773 242.628 4.56676 242.628C5.01657 242.628 5.40246 242.719 5.72443 242.901C6.0464 243.081 6.2938 243.319 6.46662 243.615C6.63944 243.911 6.72585 244.231 6.72585 244.574C6.72585 244.983 6.61813 245.333 6.4027 245.621C6.18963 245.91 5.89962 246.11 5.53267 246.222V246.278C5.99195 246.354 6.35062 246.549 6.60866 246.864C6.86671 247.177 6.99574 247.564 6.99574 248.026C6.99574 248.421 6.88802 248.776 6.67259 249.091C6.45952 249.403 6.16832 249.65 5.79901 249.83C5.42969 250.009 5.00947 250.099 4.53835 250.099ZM8.44815 250V249.361L10.8487 246.733C11.1304 246.425 11.3625 246.158 11.5447 245.93C11.727 245.701 11.862 245.485 11.9496 245.284C12.0395 245.08 12.0845 244.867 12.0845 244.645C12.0845 244.389 12.023 244.168 11.8999 243.981C11.7791 243.794 11.6134 243.649 11.4027 243.548C11.192 243.446 10.9553 243.395 10.6925 243.395C10.4131 243.395 10.1693 243.453 9.96094 243.569C9.75497 243.683 9.59517 243.842 9.48153 244.048C9.37027 244.254 9.31463 244.496 9.31463 244.773H8.47656C8.47656 244.347 8.57481 243.973 8.77131 243.651C8.9678 243.329 9.23532 243.078 9.57386 242.898C9.91477 242.718 10.2971 242.628 10.7209 242.628C11.147 242.628 11.5246 242.718 11.8537 242.898C12.1828 243.078 12.4408 243.32 12.6278 243.626C12.8149 243.931 12.9084 244.271 12.9084 244.645C12.9084 244.912 12.8598 245.174 12.7628 245.43C12.6681 245.683 12.5024 245.966 12.2656 246.278C12.0312 246.589 11.7057 246.967 11.2891 247.415L9.65554 249.162V249.219H13.0362V250H8.44815ZM16.875 250.099C16.34 250.099 15.8842 249.954 15.5078 249.663C15.1314 249.369 14.8438 248.944 14.6449 248.388C14.446 247.829 14.3466 247.154 14.3466 246.364C14.3466 245.578 14.446 244.906 14.6449 244.35C14.8461 243.791 15.1349 243.365 15.5114 243.072C15.8902 242.776 16.3447 242.628 16.875 242.628C17.4053 242.628 17.8587 242.776 18.2351 243.072C18.6139 243.365 18.9027 243.791 19.1016 244.35C19.3028 244.906 19.4034 245.578 19.4034 246.364C19.4034 247.154 19.304 247.829 19.1051 248.388C18.9062 248.944 18.6186 249.369 18.2422 249.663C17.8658 249.954 17.41 250.099 16.875 250.099ZM16.875 249.318C17.4053 249.318 17.8172 249.062 18.1108 248.551C18.4044 248.04 18.5511 247.311 18.5511 246.364C18.5511 245.734 18.4837 245.198 18.3487 244.755C18.2161 244.312 18.0244 243.975 17.7734 243.743C17.5249 243.511 17.2254 243.395 16.875 243.395C16.3494 243.395 15.9387 243.654 15.6428 244.173C15.3468 244.689 15.1989 245.419 15.1989 246.364C15.1989 246.993 15.2652 247.528 15.3977 247.969C15.5303 248.409 15.7209 248.744 15.9695 248.974C16.2204 249.203 16.5223 249.318 16.875 249.318Z" fill="#7B8092"/>
<path d="M36 245.961L545 245.961" stroke="#D8DDE7"/>
<path d="M36.7077 254.727H37.5884V259.926C37.5884 260.39 37.5032 260.784 37.3327 261.109C37.1623 261.433 36.922 261.679 36.6119 261.847C36.3017 262.015 35.936 262.099 35.5146 262.099C35.1168 262.099 34.7629 262.027 34.4528 261.883C34.1426 261.736 33.8988 261.528 33.7212 261.258C33.5437 260.988 33.4549 260.667 33.4549 260.295H34.3214C34.3214 260.501 34.3723 260.681 34.4741 260.835C34.5782 260.987 34.7203 261.105 34.9002 261.19C35.0801 261.276 35.2849 261.318 35.5146 261.318C35.7679 261.318 35.9833 261.265 36.1609 261.158C36.3384 261.052 36.4734 260.896 36.5657 260.69C36.6604 260.481 36.7077 260.227 36.7077 259.926V254.727ZM40.8448 262.128C40.4992 262.128 40.1855 262.063 39.9038 261.933C39.622 261.8 39.3983 261.609 39.2326 261.361C39.0669 261.11 38.984 260.807 38.984 260.452C38.984 260.139 39.0456 259.886 39.1687 259.692C39.2918 259.495 39.4563 259.341 39.6623 259.23C39.8683 259.119 40.0955 259.036 40.3441 258.982C40.5951 258.925 40.8472 258.88 41.1005 258.847C41.4319 258.804 41.7006 258.772 41.9066 258.751C42.1149 258.727 42.2665 258.688 42.3612 258.634C42.4582 258.579 42.5067 258.484 42.5067 258.349V258.321C42.5067 257.971 42.4109 257.698 42.2191 257.504C42.0297 257.31 41.7421 257.213 41.3562 257.213C40.9561 257.213 40.6424 257.301 40.4151 257.476C40.1879 257.651 40.0281 257.838 39.9357 258.037L39.1403 257.753C39.2823 257.421 39.4717 257.163 39.7085 256.979C39.9476 256.792 40.208 256.661 40.4897 256.588C40.7738 256.512 41.0531 256.474 41.3278 256.474C41.503 256.474 41.7042 256.496 41.9315 256.538C42.1611 256.579 42.3825 256.663 42.5955 256.79C42.811 256.918 42.9897 257.111 43.1317 257.369C43.2738 257.627 43.3448 257.973 43.3448 258.406V262H42.5067V261.261H42.4641C42.4073 261.38 42.3126 261.506 42.18 261.641C42.0475 261.776 41.8711 261.891 41.6509 261.986C41.4308 262.08 41.1621 262.128 40.8448 262.128ZM40.9727 261.375C41.3041 261.375 41.5835 261.31 41.8107 261.18C42.0404 261.049 42.2132 260.881 42.3292 260.675C42.4476 260.469 42.5067 260.253 42.5067 260.026V259.259C42.4712 259.301 42.3931 259.34 42.2724 259.376C42.154 259.409 42.0167 259.438 41.8604 259.464C41.7066 259.488 41.5562 259.509 41.4094 259.528C41.265 259.545 41.1478 259.559 41.0579 259.571C40.8401 259.599 40.6365 259.646 40.4471 259.71C40.2601 259.771 40.1085 259.865 39.9925 259.99C39.8789 260.113 39.8221 260.281 39.8221 260.494C39.8221 260.786 39.9298 261.006 40.1452 261.155C40.363 261.302 40.6388 261.375 40.9727 261.375ZM45.7125 258.719V262H44.8745V256.545H45.6841V257.398H45.7551C45.883 257.121 46.0771 256.898 46.3375 256.73C46.598 256.56 46.9341 256.474 47.3461 256.474C47.7154 256.474 48.0385 256.55 48.3155 256.702C48.5925 256.851 48.8079 257.078 48.9618 257.384C49.1157 257.687 49.1926 258.07 49.1926 258.534V262H48.3546V258.591C48.3546 258.162 48.2433 257.829 48.0208 257.589C47.7982 257.348 47.4928 257.227 47.1046 257.227C46.8371 257.227 46.598 257.285 46.3873 257.401C46.1789 257.517 46.0144 257.687 45.8936 257.909C45.7729 258.132 45.7125 258.402 45.7125 258.719Z" fill="#73777F"/>
<path d="M91.3807 262V254.727H95.7415V255.509H92.2614V257.966H95.4148V258.747H92.2614V262H91.3807ZM99.0227 262.114C98.4972 262.114 98.0438 261.998 97.6626 261.766C97.2839 261.531 96.9915 261.205 96.7855 260.786C96.5819 260.364 96.4801 259.874 96.4801 259.315C96.4801 258.757 96.5819 258.264 96.7855 257.838C96.9915 257.41 97.2779 257.076 97.6449 256.837C98.0142 256.595 98.4451 256.474 98.9375 256.474C99.2216 256.474 99.5021 256.522 99.7791 256.616C100.056 256.711 100.308 256.865 100.536 257.078C100.763 257.289 100.944 257.568 101.079 257.916C101.214 258.264 101.281 258.693 101.281 259.202V259.557H97.0767V258.832H100.429C100.429 258.525 100.367 258.25 100.244 258.009C100.124 257.767 99.9508 257.576 99.7259 257.437C99.5033 257.297 99.2405 257.227 98.9375 257.227C98.6037 257.227 98.3149 257.31 98.071 257.476C97.8295 257.639 97.6437 257.852 97.5135 258.115C97.3833 258.378 97.3182 258.66 97.3182 258.96V259.443C97.3182 259.855 97.3892 260.204 97.5312 260.491C97.6757 260.775 97.8757 260.991 98.1314 261.141C98.3871 261.287 98.6842 261.361 99.0227 261.361C99.2429 261.361 99.4418 261.33 99.6193 261.268C99.7992 261.205 99.9543 261.11 100.085 260.984C100.215 260.857 100.315 260.698 100.386 260.509L101.196 260.736C101.111 261.01 100.968 261.252 100.766 261.46C100.565 261.666 100.317 261.827 100.021 261.943C99.7247 262.057 99.392 262.114 99.0227 262.114ZM102.67 262V254.727H103.508V257.412H103.579C103.64 257.317 103.726 257.196 103.835 257.05C103.946 256.901 104.104 256.768 104.31 256.652C104.519 256.534 104.8 256.474 105.156 256.474C105.615 256.474 106.02 256.589 106.37 256.819C106.72 257.049 106.994 257.374 107.19 257.795C107.387 258.217 107.485 258.714 107.485 259.287C107.485 259.865 107.387 260.365 107.19 260.789C106.994 261.21 106.722 261.537 106.374 261.769C106.026 261.999 105.624 262.114 105.17 262.114C104.819 262.114 104.539 262.056 104.328 261.94C104.117 261.821 103.955 261.687 103.842 261.538C103.728 261.387 103.64 261.261 103.579 261.162H103.479V262H102.67ZM103.494 259.273C103.494 259.685 103.554 260.048 103.675 260.363C103.795 260.675 103.972 260.92 104.204 261.098C104.436 261.273 104.72 261.361 105.056 261.361C105.406 261.361 105.699 261.268 105.933 261.084C106.17 260.897 106.348 260.646 106.466 260.331C106.587 260.014 106.647 259.661 106.647 259.273C106.647 258.889 106.588 258.544 106.469 258.236C106.353 257.926 106.177 257.681 105.94 257.501C105.706 257.318 105.411 257.227 105.056 257.227C104.715 257.227 104.429 257.314 104.197 257.487C103.965 257.657 103.79 257.896 103.671 258.204C103.553 258.509 103.494 258.866 103.494 259.273Z" fill="#73777F"/>
<path d="M149.755 254.727H150.806L153.277 260.764H153.363L155.834 254.727H156.885V262H156.062V256.474H155.991L153.718 262H152.922L150.65 256.474H150.579V262H149.755V254.727ZM160.143 262.128C159.797 262.128 159.483 262.063 159.202 261.933C158.92 261.8 158.696 261.609 158.53 261.361C158.365 261.11 158.282 260.807 158.282 260.452C158.282 260.139 158.343 259.886 158.467 259.692C158.59 259.495 158.754 259.341 158.96 259.23C159.166 259.119 159.393 259.036 159.642 258.982C159.893 258.925 160.145 258.88 160.398 258.847C160.73 258.804 160.998 258.772 161.204 258.751C161.413 258.727 161.564 258.688 161.659 258.634C161.756 258.579 161.805 258.484 161.805 258.349V258.321C161.805 257.971 161.709 257.698 161.517 257.504C161.328 257.31 161.04 257.213 160.654 257.213C160.254 257.213 159.94 257.301 159.713 257.476C159.486 257.651 159.326 257.838 159.234 258.037L158.438 257.753C158.58 257.421 158.77 257.163 159.006 256.979C159.245 256.792 159.506 256.661 159.788 256.588C160.072 256.512 160.351 256.474 160.626 256.474C160.801 256.474 161.002 256.496 161.229 256.538C161.459 256.579 161.68 256.663 161.893 256.79C162.109 256.918 162.288 257.111 162.43 257.369C162.572 257.627 162.643 257.973 162.643 258.406V262H161.805V261.261H161.762C161.705 261.38 161.61 261.506 161.478 261.641C161.345 261.776 161.169 261.891 160.949 261.986C160.729 262.08 160.46 262.128 160.143 262.128ZM160.271 261.375C160.602 261.375 160.881 261.31 161.109 261.18C161.338 261.049 161.511 260.881 161.627 260.675C161.745 260.469 161.805 260.253 161.805 260.026V259.259C161.769 259.301 161.691 259.34 161.57 259.376C161.452 259.409 161.315 259.438 161.158 259.464C161.004 259.488 160.854 259.509 160.707 259.528C160.563 259.545 160.446 259.559 160.356 259.571C160.138 259.599 159.934 259.646 159.745 259.71C159.558 259.771 159.406 259.865 159.29 259.99C159.177 260.113 159.12 260.281 159.12 260.494C159.12 260.786 159.228 261.006 159.443 261.155C159.661 261.302 159.937 261.375 160.271 261.375ZM164.172 262V256.545H164.982V257.369H165.039C165.138 257.099 165.318 256.88 165.579 256.712C165.839 256.544 166.133 256.46 166.459 256.46C166.521 256.46 166.598 256.461 166.69 256.464C166.782 256.466 166.852 256.47 166.9 256.474V257.327C166.871 257.32 166.806 257.309 166.704 257.295C166.605 257.278 166.499 257.27 166.388 257.27C166.123 257.27 165.886 257.326 165.678 257.437C165.472 257.546 165.309 257.697 165.188 257.891C165.07 258.083 165.01 258.302 165.01 258.548V262H164.172Z" fill="#73777F"/>
<path d="M209.643 262H208.72L211.39 254.727H212.299L214.97 262H214.046L211.873 255.878H211.816L209.643 262ZM209.984 259.159H213.705V259.94H209.984V259.159ZM215.989 264.045V256.545H216.798V257.412H216.898C216.959 257.317 217.045 257.196 217.153 257.05C217.265 256.901 217.423 256.768 217.629 256.652C217.838 256.534 218.119 256.474 218.475 256.474C218.934 256.474 219.339 256.589 219.689 256.819C220.039 257.049 220.313 257.374 220.509 257.795C220.706 258.217 220.804 258.714 220.804 259.287C220.804 259.865 220.706 260.365 220.509 260.789C220.313 261.21 220.041 261.537 219.693 261.769C219.345 261.999 218.943 262.114 218.489 262.114C218.138 262.114 217.858 262.056 217.647 261.94C217.436 261.821 217.274 261.687 217.161 261.538C217.047 261.387 216.959 261.261 216.898 261.162H216.827V264.045H215.989ZM216.813 259.273C216.813 259.685 216.873 260.048 216.994 260.363C217.114 260.675 217.291 260.92 217.523 261.098C217.755 261.273 218.039 261.361 218.375 261.361C218.725 261.361 219.018 261.268 219.252 261.084C219.489 260.897 219.667 260.646 219.785 260.331C219.906 260.014 219.966 259.661 219.966 259.273C219.966 258.889 219.907 258.544 219.788 258.236C219.672 257.926 219.496 257.681 219.259 257.501C219.025 257.318 218.73 257.227 218.375 257.227C218.034 257.227 217.748 257.314 217.516 257.487C217.284 257.657 217.109 257.896 216.99 258.204C216.872 258.509 216.813 258.866 216.813 259.273ZM222.082 262V256.545H222.892V257.369H222.949C223.048 257.099 223.228 256.88 223.489 256.712C223.749 256.544 224.043 256.46 224.369 256.46C224.431 256.46 224.508 256.461 224.6 256.464C224.693 256.466 224.762 256.47 224.81 256.474V257.327C224.781 257.32 224.716 257.309 224.614 257.295C224.515 257.278 224.41 257.27 224.298 257.27C224.033 257.27 223.796 257.326 223.588 257.437C223.382 257.546 223.219 257.697 223.098 257.891C222.98 258.083 222.921 258.302 222.921 258.548V262H222.082Z" fill="#73777F"/>
<path d="M266.93 254.727H267.981L270.452 260.764H270.537L273.009 254.727H274.06V262H273.236V256.474H273.165L270.893 262H270.097L267.824 256.474H267.753V262H266.93V254.727ZM277.317 262.128C276.972 262.128 276.658 262.063 276.376 261.933C276.095 261.8 275.871 261.609 275.705 261.361C275.54 261.11 275.457 260.807 275.457 260.452C275.457 260.139 275.518 259.886 275.641 259.692C275.764 259.495 275.929 259.341 276.135 259.23C276.341 259.119 276.568 259.036 276.817 258.982C277.068 258.925 277.32 258.88 277.573 258.847C277.905 258.804 278.173 258.772 278.379 258.751C278.588 258.727 278.739 258.688 278.834 258.634C278.931 258.579 278.979 258.484 278.979 258.349V258.321C278.979 257.971 278.884 257.698 278.692 257.504C278.502 257.31 278.215 257.213 277.829 257.213C277.429 257.213 277.115 257.301 276.888 257.476C276.661 257.651 276.501 257.838 276.408 258.037L275.613 257.753C275.755 257.421 275.944 257.163 276.181 256.979C276.42 256.792 276.681 256.661 276.962 256.588C277.246 256.512 277.526 256.474 277.8 256.474C277.976 256.474 278.177 256.496 278.404 256.538C278.634 256.579 278.855 256.663 279.068 256.79C279.284 256.918 279.462 257.111 279.604 257.369C279.746 257.627 279.817 257.973 279.817 258.406V262H278.979V261.261H278.937C278.88 261.38 278.785 261.506 278.653 261.641C278.52 261.776 278.344 261.891 278.124 261.986C277.903 262.08 277.635 262.128 277.317 262.128ZM277.445 261.375C277.777 261.375 278.056 261.31 278.283 261.18C278.513 261.049 278.686 260.881 278.802 260.675C278.92 260.469 278.979 260.253 278.979 260.026V259.259C278.944 259.301 278.866 259.34 278.745 259.376C278.627 259.409 278.489 259.438 278.333 259.464C278.179 259.488 278.029 259.509 277.882 259.528C277.738 259.545 277.621 259.559 277.531 259.571C277.313 259.599 277.109 259.646 276.92 259.71C276.733 259.771 276.581 259.865 276.465 259.99C276.352 260.113 276.295 260.281 276.295 260.494C276.295 260.786 276.402 261.006 276.618 261.155C276.836 261.302 277.112 261.375 277.445 261.375ZM281.692 264.045C281.55 264.045 281.423 264.034 281.312 264.01C281.2 263.989 281.123 263.967 281.081 263.946L281.294 263.207C281.497 263.259 281.677 263.278 281.834 263.264C281.99 263.25 282.128 263.18 282.249 263.055C282.372 262.932 282.485 262.732 282.586 262.455L282.743 262.028L280.726 256.545H281.635L283.14 260.892H283.197L284.703 256.545H285.612L283.297 262.795C283.193 263.077 283.064 263.31 282.91 263.495C282.756 263.682 282.577 263.821 282.373 263.911C282.172 264 281.945 264.045 281.692 264.045Z" fill="#73777F"/>
<path d="M330.37 254.727H331.251V259.926C331.251 260.39 331.165 260.784 330.995 261.109C330.824 261.433 330.584 261.679 330.274 261.847C329.964 262.015 329.598 262.099 329.177 262.099C328.779 262.099 328.425 262.027 328.115 261.883C327.805 261.736 327.561 261.528 327.383 261.258C327.206 260.988 327.117 260.667 327.117 260.295H327.983C327.983 260.501 328.034 260.681 328.136 260.835C328.24 260.987 328.382 261.105 328.562 261.19C328.742 261.276 328.947 261.318 329.177 261.318C329.43 261.318 329.645 261.265 329.823 261.158C330.001 261.052 330.135 260.896 330.228 260.69C330.323 260.481 330.37 260.227 330.37 259.926V254.727ZM336.339 259.77V256.545H337.177V262H336.339V261.077H336.282C336.155 261.354 335.956 261.589 335.686 261.783C335.416 261.975 335.075 262.071 334.663 262.071C334.322 262.071 334.019 261.996 333.754 261.847C333.489 261.696 333.281 261.469 333.129 261.165C332.978 260.86 332.902 260.475 332.902 260.011V256.545H333.74V259.955C333.74 260.352 333.851 260.67 334.074 260.906C334.299 261.143 334.585 261.261 334.933 261.261C335.141 261.261 335.353 261.208 335.569 261.102C335.787 260.995 335.969 260.832 336.116 260.612C336.265 260.391 336.339 260.111 336.339 259.77ZM339.55 258.719V262H338.712V256.545H339.522V257.398H339.593C339.721 257.121 339.915 256.898 340.175 256.73C340.436 256.56 340.772 256.474 341.184 256.474C341.553 256.474 341.876 256.55 342.153 256.702C342.43 256.851 342.646 257.078 342.8 257.384C342.954 257.687 343.031 258.07 343.031 258.534V262H342.192V258.591C342.192 258.162 342.081 257.829 341.859 257.589C341.636 257.348 341.331 257.227 340.942 257.227C340.675 257.227 340.436 257.285 340.225 257.401C340.017 257.517 339.852 257.687 339.732 257.909C339.611 258.132 339.55 258.402 339.55 258.719Z" fill="#73777F"/>
<path d="M390.358 254.727H391.239V259.926C391.239 260.39 391.154 260.784 390.983 261.109C390.813 261.433 390.572 261.679 390.262 261.847C389.952 262.015 389.586 262.099 389.165 262.099C388.767 262.099 388.413 262.027 388.103 261.883C387.793 261.736 387.549 261.528 387.372 261.258C387.194 260.988 387.105 260.667 387.105 260.295H387.972C387.972 260.501 388.023 260.681 388.124 260.835C388.229 260.987 388.371 261.105 388.551 261.19C388.731 261.276 388.935 261.318 389.165 261.318C389.418 261.318 389.634 261.265 389.811 261.158C389.989 261.052 390.124 260.896 390.216 260.69C390.311 260.481 390.358 260.227 390.358 259.926V254.727ZM396.328 259.77V256.545H397.166V262H396.328V261.077H396.271C396.143 261.354 395.944 261.589 395.674 261.783C395.404 261.975 395.063 262.071 394.651 262.071C394.311 262.071 394.008 261.996 393.742 261.847C393.477 261.696 393.269 261.469 393.117 261.165C392.966 260.86 392.89 260.475 392.89 260.011V256.545H393.728V259.955C393.728 260.352 393.839 260.67 394.062 260.906C394.287 261.143 394.573 261.261 394.921 261.261C395.13 261.261 395.342 261.208 395.557 261.102C395.775 260.995 395.957 260.832 396.104 260.612C396.253 260.391 396.328 260.111 396.328 259.77ZM399.539 254.727V262H398.701V254.727H399.539Z" fill="#73777F"/>
<path d="M444.098 262H443.175L445.845 254.727H446.754L449.425 262H448.501L446.328 255.878H446.271L444.098 262ZM444.439 259.159H448.16V259.94H444.439V259.159ZM453.881 259.77V256.545H454.719V262H453.881V261.077H453.824C453.697 261.354 453.498 261.589 453.228 261.783C452.958 261.975 452.617 262.071 452.205 262.071C451.864 262.071 451.561 261.996 451.296 261.847C451.031 261.696 450.823 261.469 450.671 261.165C450.52 260.86 450.444 260.475 450.444 260.011V256.545H451.282V259.955C451.282 260.352 451.393 260.67 451.616 260.906C451.841 261.143 452.127 261.261 452.475 261.261C452.683 261.261 452.895 261.208 453.111 261.102C453.329 260.995 453.511 260.832 453.658 260.612C453.807 260.391 453.881 260.111 453.881 259.77ZM458.456 264.159C458.051 264.159 457.703 264.107 457.412 264.003C457.121 263.901 456.878 263.766 456.684 263.598C456.492 263.432 456.34 263.255 456.226 263.065L456.894 262.597C456.969 262.696 457.065 262.81 457.181 262.938C457.297 263.068 457.456 263.18 457.657 263.275C457.861 263.372 458.127 263.42 458.456 263.42C458.896 263.42 459.26 263.314 459.546 263.101C459.833 262.888 459.976 262.554 459.976 262.099V260.991H459.905C459.843 261.091 459.756 261.214 459.642 261.361C459.531 261.505 459.37 261.634 459.159 261.748C458.951 261.859 458.669 261.915 458.314 261.915C457.874 261.915 457.478 261.811 457.128 261.602C456.78 261.394 456.504 261.091 456.301 260.693C456.099 260.295 455.999 259.812 455.999 259.244C455.999 258.686 456.097 258.199 456.293 257.785C456.49 257.368 456.763 257.046 457.114 256.819C457.464 256.589 457.869 256.474 458.328 256.474C458.683 256.474 458.965 256.534 459.173 256.652C459.384 256.768 459.545 256.901 459.656 257.05C459.77 257.196 459.858 257.317 459.919 257.412H460.004V256.545H460.814V262.156C460.814 262.625 460.707 263.006 460.494 263.3C460.284 263.596 460 263.812 459.642 263.95C459.287 264.089 458.892 264.159 458.456 264.159ZM458.428 261.162C458.764 261.162 459.048 261.085 459.28 260.931C459.512 260.777 459.688 260.556 459.809 260.267C459.93 259.978 459.99 259.633 459.99 259.23C459.99 258.837 459.931 258.49 459.813 258.19C459.694 257.889 459.519 257.653 459.287 257.483C459.055 257.312 458.769 257.227 458.428 257.227C458.073 257.227 457.777 257.317 457.54 257.497C457.305 257.677 457.129 257.919 457.011 258.222C456.895 258.525 456.837 258.861 456.837 259.23C456.837 259.609 456.896 259.944 457.014 260.235C457.135 260.524 457.313 260.751 457.547 260.917C457.784 261.08 458.077 261.162 458.428 261.162Z" fill="#73777F"/>
<path d="M506.834 256.727C506.801 256.416 506.661 256.175 506.415 256.002C506.171 255.829 505.854 255.743 505.463 255.743C505.188 255.743 504.953 255.784 504.756 255.867C504.56 255.95 504.41 256.062 504.305 256.205C504.201 256.347 504.148 256.509 504.146 256.691C504.146 256.843 504.18 256.974 504.249 257.085C504.32 257.196 504.415 257.291 504.536 257.369C504.657 257.445 504.791 257.509 504.938 257.561C505.084 257.613 505.232 257.657 505.381 257.692L506.063 257.863C506.338 257.927 506.602 258.013 506.855 258.122C507.111 258.231 507.339 258.368 507.54 258.534C507.744 258.7 507.905 258.9 508.023 259.134C508.142 259.369 508.201 259.643 508.201 259.958C508.201 260.384 508.092 260.759 507.874 261.084C507.656 261.406 507.342 261.658 506.93 261.84C506.52 262.02 506.024 262.11 505.442 262.11C504.876 262.11 504.385 262.022 503.968 261.847C503.554 261.672 503.229 261.416 502.995 261.08C502.763 260.744 502.638 260.335 502.619 259.852H503.915C503.934 260.105 504.012 260.316 504.149 260.484C504.286 260.652 504.465 260.777 504.685 260.86C504.908 260.943 505.156 260.984 505.431 260.984C505.718 260.984 505.969 260.942 506.184 260.857C506.402 260.769 506.572 260.648 506.695 260.494C506.818 260.338 506.881 260.156 506.884 259.947C506.881 259.758 506.826 259.602 506.717 259.479C506.608 259.353 506.455 259.249 506.259 259.166C506.064 259.081 505.837 259.005 505.577 258.939L504.749 258.726C504.15 258.572 503.677 258.339 503.329 258.026C502.983 257.711 502.81 257.294 502.81 256.773C502.81 256.344 502.926 255.969 503.158 255.647C503.393 255.325 503.711 255.075 504.114 254.898C504.516 254.718 504.972 254.628 505.481 254.628C505.997 254.628 506.449 254.718 506.837 254.898C507.228 255.075 507.535 255.323 507.757 255.64C507.98 255.955 508.094 256.317 508.102 256.727H506.834ZM511.733 262.107C511.187 262.107 510.714 261.993 510.317 261.766C509.921 261.536 509.617 261.212 509.404 260.793C509.191 260.371 509.084 259.875 509.084 259.305C509.084 258.744 509.191 258.251 509.404 257.827C509.619 257.401 509.92 257.07 510.306 256.833C510.692 256.594 511.145 256.474 511.666 256.474C512.002 256.474 512.319 256.529 512.618 256.638C512.918 256.744 513.184 256.91 513.413 257.135C513.645 257.36 513.827 257.646 513.96 257.994C514.093 258.34 514.159 258.752 514.159 259.23V259.624H509.688V258.758H512.927C512.924 258.512 512.871 258.293 512.767 258.101C512.663 257.907 512.517 257.754 512.33 257.643C512.145 257.531 511.93 257.476 511.684 257.476C511.421 257.476 511.19 257.54 510.991 257.668C510.792 257.793 510.637 257.959 510.526 258.165C510.417 258.368 510.362 258.592 510.359 258.836V259.592C510.359 259.91 510.417 260.182 510.533 260.409C510.649 260.634 510.811 260.807 511.02 260.928C511.228 261.046 511.472 261.105 511.751 261.105C511.938 261.105 512.108 261.079 512.259 261.027C512.411 260.973 512.542 260.893 512.653 260.789C512.765 260.685 512.849 260.556 512.905 260.402L514.106 260.537C514.03 260.854 513.885 261.131 513.672 261.368C513.462 261.602 513.192 261.785 512.863 261.915C512.534 262.043 512.157 262.107 511.733 262.107ZM515.246 264.045V256.545H516.511V257.447H516.585C516.652 257.315 516.745 257.174 516.866 257.025C516.987 256.873 517.15 256.744 517.356 256.638C517.562 256.529 517.825 256.474 518.144 256.474C518.566 256.474 518.946 256.582 519.284 256.798C519.625 257.011 519.895 257.327 520.094 257.746C520.295 258.162 520.396 258.674 520.396 259.28C520.396 259.879 520.297 260.388 520.101 260.807C519.904 261.226 519.637 261.545 519.298 261.766C518.96 261.986 518.576 262.096 518.148 262.096C517.835 262.096 517.576 262.044 517.37 261.94C517.164 261.835 516.998 261.71 516.873 261.563C516.75 261.414 516.654 261.273 516.585 261.141H516.532V264.045H515.246ZM516.507 259.273C516.507 259.625 516.557 259.934 516.656 260.2C516.758 260.465 516.904 260.672 517.093 260.821C517.285 260.968 517.517 261.041 517.789 261.041C518.073 261.041 518.311 260.965 518.503 260.814C518.695 260.66 518.839 260.451 518.936 260.185C519.036 259.918 519.085 259.614 519.085 259.273C519.085 258.934 519.037 258.634 518.94 258.371C518.843 258.108 518.698 257.902 518.506 257.753C518.315 257.604 518.076 257.529 517.789 257.529C517.514 257.529 517.281 257.601 517.089 257.746C516.898 257.89 516.752 258.093 516.653 258.353C516.556 258.613 516.507 258.92 516.507 259.273Z" fill="#141630"/>
<line x1="511.5" y1="2.18557e-08" x2="511.5" y2="246" stroke="#E7EAF8" stroke-dasharray="2 2"/>
<path d="M513 50L454 63L394 82L334.5 107L276 145L215.5 175.5L156 205.5L96 220.5L34 246" stroke="#E7EAF8" stroke-width="3"/>
<circle cx="3.88675" cy="3.88675" r="3.88675" transform="matrix(-1 0 0 1 40.7734 241)" fill="white" stroke="#54A0FF" stroke-width="2"/>
<path d="M92.5312 220.887C92.5312 223.033 94.2713 224.774 96.4179 224.774C98.5645 224.774 100.305 223.033 100.305 220.887C100.305 218.74 98.5645 217 96.4179 217C94.2713 217 92.5312 218.74 92.5312 220.887Z" fill="white" stroke="#F1F2F9" stroke-width="2"/>
<circle cx="3.88675" cy="3.88675" r="3.88675" transform="matrix(-1 0 0 1 159.828 201)" fill="white" stroke="#F1F2F9" stroke-width="2"/>
<circle cx="3.88675" cy="3.88675" r="3.88675" transform="matrix(-1 0 0 1 219.359 172)" fill="white" stroke="#F1F2F9" stroke-width="2"/>
<circle cx="3.88675" cy="3.88675" r="3.88675" transform="matrix(-1 0 0 1 278.891 141)" fill="white" stroke="#F1F2F9" stroke-width="2"/>
<circle cx="3.88675" cy="3.88675" r="3.88675" transform="matrix(-1 0 0 1 338.414 104)" fill="white" stroke="#F1F2F9" stroke-width="2"/>
<circle cx="3.88675" cy="3.88675" r="3.88675" transform="matrix(-1 0 0 1 397.945 79)" fill="white" stroke="#F1F2F9" stroke-width="2"/>
<circle cx="3.88675" cy="3.88675" r="3.88675" transform="matrix(-1 0 0 1 457.469 60)" fill="white" stroke="#F1F2F9" stroke-width="2"/>
<circle cx="3.88675" cy="3.88675" r="3.88675" transform="matrix(-1 0 0 1 516 46)" fill="white" stroke="#F1F2F9" stroke-width="2"/>
<circle cx="3.88675" cy="3.88675" r="3.88675" transform="matrix(-1 0 0 1 40.7734 241)" fill="white" stroke="#F1F2F9" stroke-width="2"/>
</svg>
