<svg width="680" height="416" viewBox="0 0 680 416" fill="none" xmlns="http://www.w3.org/2000/svg">
<rect width="680" height="416" fill="#E7EAF8"/>
<g clip-path="url(#clip0_8280_33090)">
<rect width="680" height="416" fill="#E7EAF8"/>
<path fill-rule="evenodd" clip-rule="evenodd" d="M28.75 44.9032C29.041 44.9032 29.3322 44.9435 29.6233 44.9583C29.7322 44.9638 29.8206 44.8937 29.8206 44.7847C29.8206 44.7192 29.788 44.6397 29.734 44.6026C29.7044 44.5823 29.6748 44.5617 29.6452 44.5406C29.4442 44.3973 29.152 44.4186 28.9842 44.5998C28.9202 44.6689 28.8563 44.7346 28.7924 44.7996C28.7652 44.8273 28.75 44.8645 28.75 44.9032ZM25.6873 33.1532C25.67 33.1707 25.6432 33.1746 25.6217 33.1625C24.9819 32.8024 24.3983 32.3281 23.8147 31.8537C22.5065 30.6454 20.9009 30.3434 19.7116 31.733C18.8197 32.6996 18.0466 34.4516 18.225 35.6598C18.4034 36.8681 19.6521 38.741 20.7224 38.9223C22.4883 39.2412 24.28 39.2971 26.0977 39.3156C27.6511 39.3313 28.9285 38.0677 28.9285 36.5142C28.9285 36.4786 28.9285 36.443 28.9285 36.4073C28.9285 35.4299 28.3769 34.5406 27.5062 34.0963C26.9068 33.7904 26.313 33.4766 25.7545 33.1446C25.7328 33.1317 25.7051 33.1352 25.6873 33.1532ZM24.8747 46.776C24.8814 46.776 24.8871 46.7774 24.8929 46.7809C25.0043 46.8492 26.2634 47.6139 26.4906 47.4407C27.3231 46.7157 28.0364 45.8094 28.75 44.9032C27.1557 44.7233 25.5616 44.4837 24.8406 46.7281C24.8332 46.7514 24.8503 46.776 24.8747 46.776ZM130.553 -50.0075L128.773 -50.7309C127.543 -51.2308 126.802 -52.4945 126.966 -53.8123L127.144 -55.2406C127.252 -56.1112 126.616 -56.8976 125.742 -56.9737C125.429 -57.001 125.116 -56.9333 124.844 -56.7748C123.665 -56.0865 120.385 -54.1279 120.385 -53.6324C120.385 -53.2863 120.189 -52.0278 120.023 -51.0161C119.875 -50.1195 119.974 -49.1989 120.319 -48.3584L120.886 -46.9804C121.394 -45.7429 120.992 -44.3179 119.91 -43.5297C119.335 -43.1104 118.626 -42.917 117.917 -42.9863L112.468 -43.5194C111.5 -43.6141 110.524 -43.4474 109.642 -43.0366L109.071 -42.7706C107.615 -42.0925 105.904 -42.2655 104.613 -43.2213C103.706 -43.8932 102.574 -44.1889 101.454 -44.0466L101.188 -44.0129C100.324 -43.9031 99.5024 -43.5714 98.8041 -43.0502L97.7776 -42.2839C97.244 -41.8856 96.5959 -41.6703 95.93 -41.6703H95.2959C94.3051 -41.6703 93.4322 -42.3216 93.1499 -43.2713C92.8676 -44.2211 91.9947 -44.8723 91.0039 -44.8723H88.576C88.1775 -44.8723 87.7803 -44.9156 87.3912 -45.0016L85.2825 -45.4674C83.5574 -45.8484 81.7583 -45.3056 80.5319 -44.0341C79.9162 -43.3958 79.1441 -42.9299 78.2924 -42.6826L77.0661 -42.3266C76.5316 -42.1715 75.9825 -42.0725 75.4275 -42.0314L68.7777 -41.5382C68.3432 -41.506 67.9077 -41.583 67.5106 -41.7623L66.0796 -42.4084C66.0157 -42.4372 65.9747 -42.5008 65.9747 -42.5709C65.9747 -42.7295 65.7832 -42.8091 65.6707 -42.6973L63.6401 -40.6791C63.3835 -40.4241 63.0365 -40.2809 62.6748 -40.2809H61.5471C60.8626 -40.2809 60.189 -40.1097 59.5876 -39.7829L57.2716 -38.5242C56.039 -37.8544 54.652 -37.5204 53.2496 -37.5558L47.5661 -37.6993C46.4249 -37.7281 45.3005 -37.4208 44.3326 -36.8157L42.5347 -35.6917C42.166 -35.4612 41.9226 -35.0752 41.8735 -34.6432C41.8118 -34.1005 41.4458 -33.6407 40.9308 -33.459L36.9198 -32.0434C36.3906 -31.8567 35.8826 -31.6147 35.404 -31.3216L31.2784 -28.7949C29.1403 -27.4854 26.4208 -27.6079 24.4092 -29.1043L24.9544 -28.6952C26.9858 -27.1711 27.9706 -24.6222 27.4915 -22.1282C27.3796 -21.5456 27.1901 -20.9805 26.9282 -20.4482L25.9535 -18.4676C25.0861 -16.705 23.496 -15.4058 21.5959 -14.9072L19.0423 -14.2371C17.098 -13.7269 15.8643 -11.8175 16.198 -9.8353C16.318 -9.12239 16.2367 -8.39013 15.9632 -7.72092L14.0816 -3.11718C13.6894 -2.1574 12.9249 -1.39757 11.9627 -1.01118C11.2761 -0.735447 10.5243 -0.664429 9.79813 -0.806702L7.03535 -1.34803C4.34886 -1.8744 2.20242 -4.07248 3.00217 -6.69062C0.742526 0.438267 5.79688 3.15698 10.3162 6.60059C13.3487 8.89907 15.9914 11.7518 18.6862 14.5178C19.9173 15.7814 20.6577 17.429 21.2982 19.0728C23.1643 23.8616 27.7456 27.2857 29.2368 32.2816C29.7412 33.9715 31.1666 35.3748 31.3741 37.1261C31.3904 37.2641 31.3808 37.4012 31.3452 37.5408C30.9488 39.0955 29.7562 40.3846 29.7948 41.9885C29.8372 43.7465 30.7388 45.3619 32.1515 46.4092C37.6206 50.4638 42.241 55.1131 43.4973 62.665C43.7947 64.4775 46.3517 66.4711 48.3735 67.3773C54.1415 70.0356 60.2066 71.7273 66.6882 71.0627C69.5425 70.7606 71.6833 69.2502 70.494 66.6524C66.8072 58.6777 75.3702 53.7238 74.7161 46.7158C74.7161 46.4741 76.143 45.6886 76.7377 45.8699C82.803 47.924 86.8466 42.7283 91.9605 41.52C93.5661 41.1576 94.0419 39.5868 93.5662 37.7744C91.7228 31.5517 89.5227 25.5103 83.6357 21.8854C80.9599 20.1938 77.6894 18.9252 75.9055 16.5086C69.8996 8.11104 64.3099 -0.649078 58.7797 -9.40915C58.0067 -10.6174 58.1849 -12.5507 58.1849 -14.1215C58.1849 -14.8464 58.4229 -15.6922 58.7797 -16.3568C59.6717 -18.1088 61.0391 -18.3506 62.6447 -16.9006C63.834 -15.8736 64.845 -14.6048 66.0937 -13.5777C73.051 -7.71756 79.3542 -9.3487 82.3869 -17.8671C83.4572 -20.8274 84.3493 -23.9086 85.8359 -26.6273C86.3711 -27.6543 88.7494 -28.6813 89.7009 -28.2584C92.793 -27.0501 95.588 -26.1439 98.3828 -28.6813C102.367 -32.3062 107.184 -31.9437 111.881 -31.3396C112.039 -31.3186 112.195 -31.2936 112.349 -31.265C114.53 -30.8581 116.792 -30.6119 118.843 -31.4584L119.433 -31.702L121.772 -32.3639C123.286 -32.792 124.575 -33.7893 125.369 -35.1467L125.886 -36.0292C126.434 -36.966 126.556 -38.0923 126.222 -39.1249C125.637 -40.9309 126.472 -42.8918 128.179 -43.7215L128.393 -43.8254C129.787 -44.5028 130.672 -45.9166 130.672 -47.4664V-49.8139C130.672 -49.8956 130.626 -49.9704 130.553 -50.0075ZM29.1618 39.4055C29.0499 39.4055 28.9285 39.4962 28.9285 39.6081V39.6705C28.9285 39.8521 29.1376 39.9465 29.2657 39.8178C29.2728 39.8107 29.2798 39.8036 29.2868 39.7966C29.421 39.661 29.3525 39.4055 29.1618 39.4055ZM29.6583 34.9349C29.6478 34.9349 29.6379 34.9313 29.63 34.9244C29.588 34.8875 29.4411 34.7581 29.2726 34.6019C29.1442 34.4828 28.9285 34.573 28.9285 34.7481C28.9285 34.825 28.9734 34.8947 29.0434 34.9266C29.1669 34.983 29.368 35.0753 29.5336 35.1546C29.6109 35.1916 29.7016 35.1354 29.7016 35.0497C29.7016 35.0234 29.7016 34.9992 29.7016 34.9782C29.7016 34.9543 29.6822 34.9349 29.6583 34.9349Z" fill="#F1F2F9"/>
<path d="M28.75 44.9032C29.041 44.9032 29.3322 44.9435 29.6233 44.9583C29.7322 44.9638 29.8206 44.8937 29.8206 44.7847V44.7847C29.8206 44.7192 29.788 44.6397 29.734 44.6026C29.7044 44.5823 29.6748 44.5617 29.6452 44.5406C29.4442 44.3973 29.152 44.4186 28.9842 44.5998C28.9202 44.6689 28.8563 44.7346 28.7924 44.7996C28.7652 44.8273 28.75 44.8645 28.75 44.9032V44.9032ZM28.75 44.9032C28.0364 45.8094 27.3231 46.7157 26.4906 47.4407C26.2634 47.6139 25.0043 46.8492 24.8929 46.7809C24.8871 46.7774 24.8814 46.776 24.8747 46.776V46.776C24.8503 46.776 24.8332 46.7513 24.8406 46.7281C25.5616 44.4837 27.1557 44.7233 28.75 44.9032ZM23.8147 31.8537C24.3983 32.3281 24.9819 32.8024 25.6217 33.1625C25.6432 33.1746 25.67 33.1707 25.6873 33.1532V33.1532C25.7051 33.1352 25.7328 33.1317 25.7545 33.1446C26.313 33.4766 26.9068 33.7904 27.5062 34.0963C28.3769 34.5406 28.9285 35.4299 28.9285 36.4073C28.9285 36.443 28.9285 36.4786 28.9285 36.5142C28.9285 38.0677 27.6511 39.3313 26.0977 39.3156C24.28 39.2971 22.4883 39.2412 20.7224 38.9223C19.6521 38.741 18.4034 36.8681 18.225 35.6598C18.0466 34.4516 18.8197 32.6996 19.7116 31.733C20.9009 30.3434 22.5065 30.6454 23.8147 31.8537ZM130.553 -50.0075L128.773 -50.7309C127.543 -51.2308 126.802 -52.4945 126.966 -53.8123L127.144 -55.2406C127.252 -56.1112 126.616 -56.8976 125.742 -56.9737V-56.9737C125.429 -57.001 125.116 -56.9333 124.844 -56.7748C123.665 -56.0865 120.385 -54.1279 120.385 -53.6324C120.385 -53.2863 120.189 -52.0278 120.023 -51.0161C119.875 -50.1195 119.974 -49.1989 120.319 -48.3584L120.886 -46.9804C121.394 -45.7429 120.992 -44.3179 119.91 -43.5297V-43.5297C119.335 -43.1104 118.626 -42.917 117.917 -42.9863L112.468 -43.5194C111.5 -43.6141 110.524 -43.4474 109.642 -43.0366L109.071 -42.7706C107.615 -42.0925 105.904 -42.2655 104.613 -43.2213V-43.2213C103.706 -43.8932 102.574 -44.1889 101.454 -44.0466L101.188 -44.0129C100.324 -43.9031 99.5024 -43.5714 98.8041 -43.0502L97.7776 -42.2839C97.244 -41.8856 96.5959 -41.6703 95.93 -41.6703H95.2959C94.3051 -41.6703 93.4322 -42.3216 93.1499 -43.2713V-43.2713C92.8676 -44.2211 91.9947 -44.8723 91.0039 -44.8723H88.576C88.1775 -44.8723 87.7803 -44.9156 87.3912 -45.0016L85.2825 -45.4674C83.5574 -45.8484 81.7583 -45.3056 80.5319 -44.0341V-44.0341C79.9162 -43.3958 79.1441 -42.9299 78.2924 -42.6826L77.0661 -42.3266C76.5316 -42.1715 75.9825 -42.0725 75.4275 -42.0314L68.7777 -41.5382C68.3432 -41.506 67.9077 -41.583 67.5106 -41.7623L66.0796 -42.4084C66.0157 -42.4372 65.9747 -42.5008 65.9747 -42.5709V-42.5709C65.9747 -42.7295 65.7832 -42.8091 65.6707 -42.6973L63.6401 -40.6791C63.3835 -40.4241 63.0365 -40.2809 62.6748 -40.2809H61.5471C60.8626 -40.2809 60.189 -40.1097 59.5876 -39.7829L57.2716 -38.5242C56.039 -37.8544 54.652 -37.5204 53.2496 -37.5558L47.5661 -37.6993C46.4249 -37.7281 45.3005 -37.4208 44.3326 -36.8157L42.5347 -35.6917C42.166 -35.4612 41.9226 -35.0752 41.8735 -34.6432V-34.6432C41.8118 -34.1005 41.4458 -33.6407 40.9308 -33.459L36.9198 -32.0434C36.3906 -31.8567 35.8826 -31.6147 35.404 -31.3216L31.2784 -28.7949C29.1403 -27.4854 26.4208 -27.6079 24.4092 -29.1043V-29.1043L24.9544 -28.6952C26.9858 -27.1711 27.9706 -24.6222 27.4915 -22.1282V-22.1282C27.3796 -21.5456 27.1901 -20.9805 26.9282 -20.4482L25.9535 -18.4676C25.0861 -16.705 23.4961 -15.4058 21.5959 -14.9072L19.0423 -14.2371C17.098 -13.7269 15.8643 -11.8175 16.198 -9.8353V-9.8353C16.318 -9.12239 16.2367 -8.39013 15.9632 -7.72092L14.0816 -3.11718C13.6894 -2.1574 12.9249 -1.39757 11.9627 -1.01119V-1.01119C11.2761 -0.735449 10.5243 -0.664428 9.79813 -0.806702L7.03535 -1.34803C4.34886 -1.87441 2.20242 -4.07248 3.00217 -6.69062V-6.69062C0.742526 0.438266 5.79688 3.15698 10.3162 6.6006C13.3487 8.89907 15.9914 11.7518 18.6862 14.5178C19.9173 15.7814 20.6577 17.429 21.2982 19.0728C23.1643 23.8616 27.7456 27.2857 29.2368 32.2816C29.7412 33.9715 31.1666 35.3748 31.3741 37.1261C31.3904 37.2641 31.3808 37.4012 31.3452 37.5408C30.9488 39.0955 29.7562 40.3846 29.7948 41.9885V41.9885C29.8372 43.7465 30.7388 45.3619 32.1515 46.4092C37.6206 50.4638 42.241 55.1131 43.4973 62.665C43.7947 64.4775 46.3517 66.4711 48.3735 67.3773C54.1415 70.0356 60.2066 71.7273 66.6882 71.0627C69.5425 70.7606 71.6833 69.2502 70.494 66.6524C66.8072 58.6777 75.3702 53.7238 74.7161 46.7158C74.7161 46.4741 76.143 45.6886 76.7377 45.8699C82.803 47.924 86.8466 42.7283 91.9605 41.52C93.5661 41.1576 94.0419 39.5868 93.5662 37.7744C91.7228 31.5517 89.5227 25.5103 83.6358 21.8854C80.9599 20.1938 77.6894 18.9252 75.9055 16.5086C69.8996 8.11104 64.3099 -0.64908 58.7797 -9.40915C58.0067 -10.6174 58.1849 -12.5507 58.1849 -14.1215C58.1849 -14.8464 58.4229 -15.6922 58.7797 -16.3568C59.6717 -18.1088 61.0391 -18.3506 62.6447 -16.9006C63.834 -15.8736 64.845 -14.6048 66.0937 -13.5777C73.051 -7.71756 79.3542 -9.3487 82.3869 -17.8671C83.4572 -20.8274 84.3493 -23.9086 85.8359 -26.6273C86.3711 -27.6543 88.7494 -28.6813 89.7009 -28.2584C92.793 -27.0501 95.588 -26.1439 98.3828 -28.6813C102.367 -32.3062 107.184 -31.9437 111.881 -31.3396C112.039 -31.3186 112.195 -31.2936 112.349 -31.265C114.53 -30.8581 116.792 -30.6119 118.843 -31.4584L119.433 -31.702L121.772 -32.3639C123.286 -32.792 124.575 -33.7893 125.369 -35.1467L125.886 -36.0292C126.434 -36.966 126.556 -38.0923 126.222 -39.1249V-39.1249C125.637 -40.9309 126.472 -42.8918 128.179 -43.7215L128.393 -43.8254C129.787 -44.5028 130.672 -45.9166 130.672 -47.4664V-49.8139C130.672 -49.8956 130.626 -49.9704 130.553 -50.0075V-50.0075ZM29.7016 34.9782C29.7016 34.9992 29.7016 35.0234 29.7016 35.0497C29.7016 35.1354 29.6109 35.1916 29.5336 35.1546C29.368 35.0754 29.1669 34.983 29.0434 34.9266C28.9734 34.8947 28.9285 34.825 28.9285 34.7481V34.7481C28.9285 34.573 29.1442 34.4828 29.2726 34.6019C29.4411 34.7581 29.588 34.8875 29.63 34.9244C29.6379 34.9313 29.6478 34.9349 29.6583 34.9349V34.9349C29.6822 34.9349 29.7016 34.9543 29.7016 34.9782ZM29.2868 39.7966C29.2798 39.8036 29.2728 39.8107 29.2657 39.8178C29.1376 39.9465 28.9285 39.8521 28.9285 39.6705V39.6081C28.9285 39.4962 29.0499 39.4055 29.1618 39.4055V39.4055C29.3525 39.4055 29.421 39.661 29.2868 39.7966Z" stroke="#F1F2F9" stroke-width="0.5" stroke-miterlimit="10"/>
<path fill-rule="evenodd" clip-rule="evenodd" d="M89.5702 95.3041C89.5518 95.3227 89.5256 95.331 89.4998 95.3267C88.1943 95.1086 86.377 95.8865 85.2001 96.7235C84.0702 97.5693 82.881 99.0191 82.7027 100.348C82.5243 101.617 83.416 104.034 84.3079 104.275C91.741 106.511 99.3523 108.323 106.904 110.256C107.302 110.357 107.736 110.346 108.084 110.316C108.487 110.281 108.889 110.225 109.29 110.165C115.778 109.178 121.777 108.353 127.776 107.356C128.43 107.235 129.561 106.269 129.501 105.906C129.263 104.577 128.966 102.886 128.074 102.161C122.96 98.113 116.954 95.9984 110.591 96.3609C103.529 96.7829 96.5858 96.7236 89.6425 95.2822C89.6163 95.2768 89.589 95.285 89.5702 95.3041Z" fill="#F1F2F9" stroke="#F1F2F9" stroke-width="0.5" stroke-miterlimit="10"/>
<path d="M472.084 38.2525C472.128 38.2076 472.098 38.1302 472.035 38.1267C470.762 38.0572 467.565 37.2395 467.565 34.9902C467.565 33.409 467.029 30.5491 466.677 28.8388C466.49 27.9296 466.597 26.9832 467.002 26.1483L467.125 25.8952C468.005 24.0858 467.311 21.9049 465.548 20.9357C464.367 20.2864 463.622 19.0569 463.592 17.7096L463.314 5.05885C463.294 4.13664 462.964 3.24807 462.378 2.53619L461.587 1.57645C460.278 -0.0116501 460.821 -2.40777 462.687 -3.27643C463.08 -3.45959 463.431 -3.72213 463.718 -4.04756L465.954 -6.58312C468.201 -9.13101 468.096 -12.9826 465.713 -15.4038C464.431 -16.7064 462.658 -17.4062 460.832 -17.3302L455.598 -17.1125C454.248 -17.0564 452.909 -17.3837 451.738 -18.0565C449.47 -19.3585 448.094 -21.7935 448.147 -24.4076L448.326 -33.1867C448.383 -35.9488 447.01 -38.5447 444.695 -40.0529L444.164 -40.3988C443.359 -40.9235 442.655 -41.589 442.086 -42.3635L440.65 -44.3165C439.855 -45.3982 438.801 -46.2623 437.584 -46.8295L434.996 -48.0359C434.588 -48.2257 434.198 -48.4495 433.828 -48.7049L427.861 -52.8277C427.26 -53.2424 426.582 -53.5303 425.866 -53.6735L424.524 -53.9421C423.589 -54.1291 422.623 -53.8326 421.955 -53.1534C421.388 -52.5776 420.602 -52.2718 419.795 -52.3134L415.41 -52.5394C413.75 -52.625 412.157 -53.2256 410.854 -54.2577L409.349 -55.45C407.124 -57.027 403.932 -55.4685 402.652 -53.0605C401.771 -51.402 400.499 -49.9255 398.765 -48.6836C396.148 -46.8712 393.532 -45.0588 390.856 -43.4276C385.98 -40.4673 380.806 -38.7756 375.098 -40.8901C368.022 -43.4879 361.124 -42.1589 354.226 -39.8632C349.528 -38.2924 344.89 -38.7153 340.311 -40.2861C331.272 -43.3068 322.234 -46.0255 313.314 -49.167C311.174 -49.892 309.449 -51.8252 307.546 -53.2147C306.297 -54.1813 305.227 -55.9334 303.919 -56.1146C295.297 -56.9604 287.388 -60.9478 279.063 -62.3373C263.245 -64.9955 247.666 -61.6124 232.621 -56.1751C226.556 -54.0002 221.799 -49.6503 217.696 -44.636C214.96 -41.3132 211.274 -39.8632 207.111 -41.1923C198.548 -44.0318 189.866 -42.1588 181.185 -42.4005C169.232 -42.7025 159.956 -47.5963 154.901 -59.1958C153.296 -62.8207 151.155 -66.3246 149.847 -70.0703C150.562 -68.0059 151.515 -66.014 152.51 -64.0182C153.197 -62.6421 151.96 -61.1207 150.472 -61.5083C149.928 -61.65 149.349 -61.5301 148.906 -61.184L148.402 -60.7895C147.291 -59.9217 145.735 -59.9122 144.615 -60.7662L142.86 -62.1035C141.692 -62.9932 140.237 -63.4205 138.774 -63.3036L137.597 -63.2095C136.398 -63.1137 135.248 -62.6405 134.324 -61.8702C133.741 -61.3843 133.061 -61.0142 132.336 -60.7913C131.381 -60.4979 130.519 -59.9593 129.837 -59.2291L127.602 -56.8365C127.567 -56.7999 127.52 -56.7791 127.469 -56.7791C127.378 -56.7791 127.301 -56.7113 127.29 -56.6208L126.934 -53.79C126.77 -52.4888 127.501 -51.2401 128.716 -50.7463C129.807 -50.3028 130.521 -49.2423 130.521 -48.0642V-47.4146C130.521 -45.9366 129.677 -44.5884 128.348 -43.9425L128.028 -43.7871C126.321 -42.9575 125.486 -40.9965 126.071 -39.1905C126.405 -38.1579 126.283 -37.0317 125.735 -36.0949L125.218 -35.2123C124.424 -33.8549 123.135 -32.8577 121.621 -32.4295L119.282 -31.7677C117.856 -31.1788 117.783 -29.0257 118.955 -28.0211C121.695 -25.6709 123.418 -22.2833 123.504 -18.4162C123.802 -8.81031 123.802 0.795624 121.066 10.1598C120.531 12.0931 123.088 14.8722 125.288 14.9326C127.667 14.9326 129.986 14.7513 132.365 14.6909C133.138 14.6909 134.029 14.4492 134.743 14.6909C135.397 14.9326 136.408 15.6575 136.468 16.2013C136.587 17.7116 136.765 19.524 136.111 20.7323C133.435 25.4446 127.845 24.7801 123.861 27.1967C123.207 27.5592 122.493 28.103 122.196 28.7675C121.482 30.5195 122.018 32.0297 123.623 32.9359C126.418 34.4463 129.213 35.8359 132.008 37.3463C134.089 38.4337 136.468 39.2796 138.192 40.8504C140.927 43.3274 134.743 46.2876 137.716 48.3417C141.7 51.1208 145.863 53.7185 147.825 58.1288C149.966 62.8411 154.128 65.1973 157.518 68.52C159.956 70.9366 162.87 71.4803 166.259 70.5741C173.098 68.7013 178.568 70.7553 182.909 76.6155C184.277 78.428 186.537 79.6363 188.558 80.7841C189.867 81.5091 191.651 82.2945 193.018 82.1133C200.749 81.0258 209.073 80.8446 214.247 73.4741C218.231 67.8555 223.404 67.916 229.054 69.3659C234.524 70.7555 239.4 73.474 243.384 77.5217C249.747 83.986 257.359 84.2278 265.446 82.7174C274.306 81.0258 281.62 76.8572 287.447 69.7887C289.41 67.3721 292.68 66.043 296.07 67.4929C301.776 69.8353 307.762 69.1694 313.702 69.6215C314.005 69.6446 314.218 69.3785 314.385 69.1242C314.536 68.9187 314.862 69.0424 314.84 69.2969L314.825 69.4572C314.812 69.6107 314.683 69.7284 314.529 69.7284C314.52 69.7284 314.51 69.7284 314.501 69.7284C314.36 69.7284 314.235 69.8183 314.191 69.952C313.43 72.265 312.944 74.6103 312.665 76.9619C312.261 80.3701 315.121 83.1404 318.553 83.1404C319.102 83.1404 319.648 83.0684 320.178 82.9262L324.693 81.7152C325.944 81.3798 326.813 80.2465 326.813 78.9519V78.2196C326.813 77.3772 327.371 76.6366 328.18 76.4041C328.99 76.1715 329.548 75.431 329.548 74.5885V71.6666C329.548 68.115 332.727 65.4072 336.233 65.972L337.9 66.2404C338.825 66.3893 339.77 66.3566 340.682 66.1438L362.035 61.1647C363.757 60.7631 365.564 60.9435 367.173 61.6777L370.501 63.1963C371.3 63.5611 372.155 63.7917 373.029 63.8788L381.072 64.68C382.864 64.8585 384.664 64.4271 386.18 63.4556L392.029 59.7091C392.787 59.223 393.623 58.8685 394.5 58.6608L405.322 56.0968C406.06 55.9218 406.82 55.8529 407.578 55.892L420.853 56.5769C421.389 56.6045 421.925 56.5783 422.455 56.4986L433.199 54.8835C434.332 54.713 435.416 54.3009 436.377 53.675L439.132 51.8796C439.963 51.3381 440.888 50.9558 441.859 50.7524L451.298 48.7742C452.832 48.4526 454.427 48.589 455.884 49.1662L458.919 50.3681C460.053 50.817 461.302 50.8797 462.475 50.5466L464.247 50.043C466.158 49.5002 468.153 50.5821 468.74 52.4799C469.264 54.1747 470.929 55.2487 472.689 55.0273L473 54.9882C474.725 54.7713 476.116 53.4732 476.452 51.7677L476.47 51.678C476.597 51.0337 476.571 50.3743 476.385 49.7444C475.574 46.9913 473.196 39.1768 472.118 38.4308C472.066 38.3949 472.04 38.2974 472.084 38.2525ZM171.106 -23.8532C171.092 -23.8809 171.054 -23.8845 171.035 -23.86C169.723 -22.1382 167.546 -21.0052 165.545 -20.1681C164.237 -19.6243 162.453 -20.0472 160.907 -20.1681C159.361 -20.2889 157.815 -20.5307 156.864 -20.6515C153.95 -20.6515 151.571 -20.6515 149.252 -20.6515C146.338 -20.7119 144.079 -22.4638 144.792 -24.3367C145.625 -26.3908 146.755 -28.8677 148.479 -29.9551C154.901 -33.8821 162.037 -32.9155 169.054 -32.2509C173.555 -31.8297 174.576 -28.4118 171.176 -23.8476C171.158 -23.823 171.119 -23.8257 171.106 -23.8532Z" fill="#F1F2F9" stroke="#F1F2F9" stroke-width="0.5" stroke-miterlimit="10"/>
<path d="M159.557 84.2577C159.539 84.2763 159.532 84.3033 159.54 84.3279C159.65 84.6449 159.939 84.9121 160.274 85.1659C160.804 85.5685 161.52 85.6993 162.172 85.5638C162.633 85.4679 163.061 85.3496 163.333 85.0732C163.491 84.9035 163.643 84.7265 163.79 84.5439C165.113 82.9034 164.901 79.2004 162.798 79.3339C160.256 79.5742 158.889 81.8447 159.574 84.1864C159.582 84.2116 159.575 84.2391 159.557 84.2577Z" fill="#E7EAF8" stroke="#F1F2F9" stroke-width="0.5" stroke-miterlimit="10"/>
<path d="M507.615 -1.82651C508.72 -2.33705 508.97 -3.79772 508.097 -4.64637L506.669 -6.03394C506.113 -6.57375 505.376 -6.88629 504.602 -6.91012L501.866 -6.99437C500.586 -7.03375 499.335 -7.37954 498.217 -8.00267L493.414 -10.6796C492.078 -11.4245 491.018 -12.5811 490.392 -13.9772L489.579 -15.7892C488.99 -17.1031 489.185 -18.6359 490.083 -19.7611C490.778 -20.6311 491.062 -21.7596 490.86 -22.8547L490.694 -23.7629C490.467 -24.9964 489.852 -26.1248 488.937 -26.983L486.104 -29.6416C484.348 -31.2899 483.427 -33.6419 483.599 -36.0446L483.752 -38.1971C483.862 -39.7363 483.411 -41.2633 482.483 -42.4961C481.428 -43.8982 479.843 -44.8047 478.099 -45.0031L475.65 -45.2819C474.177 -45.4494 472.78 -46.0228 471.614 -46.938L470.339 -47.9388C468.93 -49.045 467.191 -49.6463 465.399 -49.6463H458.419C457.744 -49.6463 457.072 -49.7418 456.424 -49.93L455.782 -50.1164C454.936 -50.3621 454.038 -50.3692 453.187 -50.1369L439.403 -46.3704C439.211 -46.3181 439.2 -46.051 439.386 -45.9823C439.423 -45.9685 439.456 -45.944 439.48 -45.9118L442.11 -42.3339C442.667 -41.5761 443.353 -40.9225 444.137 -40.4031L444.738 -40.0049C447.031 -38.4855 448.382 -35.8946 448.317 -33.1447L448.107 -24.3944C448.045 -21.7841 449.404 -19.3456 451.658 -18.0267C452.846 -17.3317 454.208 -16.9926 455.583 -17.0497L460.075 -17.2366C462.347 -17.3311 464.552 -16.4541 466.138 -14.8249L466.778 -14.1679C468.274 -12.6317 470.444 -11.9529 472.549 -12.3624C473.982 -12.6413 475.468 -12.4182 476.757 -11.7306L479.577 -10.2258C480.242 -9.87089 481.046 -9.89851 481.685 -10.2983C482.02 -10.5077 482.407 -10.6187 482.802 -10.6187H483.185C484.477 -10.6187 485.66 -9.89495 486.249 -8.74467L487.205 -6.87575C488 -5.32137 489.356 -4.12784 490.999 -3.53753L491.08 -3.50848C492.532 -2.98676 493.775 -2.00551 494.619 -0.713676L500.802 8.75196C501.592 9.96198 503.056 10.5474 504.463 10.2162C505.96 9.86367 507.04 8.55805 507.106 7.02108L507.143 6.15089C507.163 5.69316 507.306 5.24926 507.557 4.86622C508.055 4.10702 508.11 3.13954 507.701 2.32889L506.793 0.530876C506.351 -0.345829 506.723 -1.41476 507.615 -1.82651Z" fill="#F1F2F9" stroke="#F1F2F9" stroke-width="0.5" stroke-miterlimit="10"/>
<path d="M494.606 -0.724703C493.762 -2.0166 492.52 -2.9979 491.068 -3.51964L490.987 -3.54866C489.344 -4.13898 487.987 -5.33251 487.192 -6.88688L486.236 -8.7558C485.648 -9.90609 484.465 -10.6299 483.173 -10.6299H482.79C482.395 -10.6299 482.008 -10.5188 481.673 -10.3094C481.034 -9.90965 480.23 -9.88202 479.565 -10.237L475.557 -12.3755C475.037 -12.6531 474.437 -12.7432 473.858 -12.6306L469.822 -11.8454C469.54 -11.7906 469.433 -11.4438 469.634 -11.239C469.77 -11.1012 469.772 -10.8809 469.64 -10.7398L469.389 -10.4724C469.044 -10.1036 469.16 -9.50456 469.618 -9.29182L471.144 -8.58414C471.329 -8.49847 471.499 -8.38453 471.648 -8.24641L472.914 -7.07767C473.217 -6.79787 473.614 -6.6425 474.026 -6.6425C474.622 -6.6425 475.17 -6.32 475.459 -5.79988L476.159 -4.5428C476.407 -4.0973 476.537 -3.59593 476.537 -3.08613C476.537 -1.99953 477.125 -0.998101 478.074 -0.469079L483.159 2.36528C484.381 3.04617 485.211 4.26201 485.401 5.64764C485.586 7.00393 486.386 8.19928 487.568 8.88828L488.633 9.50863C489.632 10.09 490.758 10.4144 491.913 10.4526L494.66 10.5437C495.295 10.5647 495.917 10.7287 496.479 11.0236L499.256 12.4785C500.28 13.0153 501.537 12.4456 501.808 11.3212C501.922 10.8454 501.836 10.3433 501.568 9.93346L494.606 -0.724703Z" fill="#F1F2F9" stroke="#F1F2F9" stroke-width="0.5" stroke-miterlimit="10"/>
<path d="M571.679 -33.1055C571.702 -33.1055 571.713 -33.1331 571.697 -33.1488C570.579 -34.2248 569.344 -35.4076 567.936 -35.8846C560.146 -38.7844 554.08 -44.0405 550.75 -51.5923C549.079 -55.4487 546.979 -58.8285 544.511 -61.8653C541.646 -65.3892 536.348 -64.9176 533.475 -61.4009L532.325 -59.9937C531.576 -59.0763 530.632 -58.3368 529.561 -57.8286L526.931 -56.5797C526.151 -56.2091 525.543 -55.5525 525.234 -54.746C524.707 -53.3728 523.349 -52.5011 521.881 -52.5937L518.788 -52.7889C516.291 -52.9465 514.05 -54.3775 512.857 -56.577C512.434 -57.3554 511.873 -58.0501 511.201 -58.6269L504.375 -64.4836C503.747 -65.0232 502.991 -65.3945 502.18 -65.5628L501.895 -65.6219C499.487 -66.1212 497.113 -64.6363 496.508 -62.2529C495.99 -60.212 496.925 -58.0803 498.778 -57.0797L499.199 -56.8521C499.939 -56.4527 500.57 -55.8804 501.041 -55.1838L502.983 -52.3071C503.528 -51.5008 503.732 -50.5123 503.553 -49.556C503.099 -47.1314 500.443 -45.8231 498.243 -46.9403L496.529 -47.811C495.933 -48.1137 495.284 -48.2973 494.618 -48.3514L489.943 -48.7314C488.791 -48.8251 487.672 -49.1674 486.665 -49.7347L480.108 -53.4275C478.291 -54.4509 476.124 -54.6508 474.151 -53.9771L471.735 -53.1525C470.563 -52.7524 469.722 -51.7187 469.568 -50.4898C469.429 -49.3729 469.879 -48.2637 470.758 -47.5603L471.92 -46.6303C472.8 -45.9255 473.864 -45.4879 474.986 -45.3694L477.902 -45.0613C479.686 -44.8727 481.31 -43.9454 482.378 -42.5045C483.292 -41.2736 483.734 -39.7564 483.625 -38.2277L483.471 -36.0795C483.299 -33.6642 484.23 -31.3008 486.003 -29.6519L488.768 -27.0816C489.707 -26.2082 490.333 -25.05 490.548 -23.7857L490.696 -22.9193C490.882 -21.828 490.594 -20.7092 489.903 -19.8442C488.999 -18.7122 488.801 -17.1712 489.388 -15.8472L490.197 -14.0259C490.826 -12.6069 491.9 -11.4309 493.256 -10.6751L498.028 -8.01538C499.146 -7.39224 500.398 -7.04646 501.677 -7.00707L504.426 -6.92243C505.192 -6.89885 505.922 -6.58968 506.471 -6.05567L507.914 -4.65316C508.779 -3.81239 508.522 -2.36378 507.421 -1.87198C506.534 -1.47631 506.156 -0.421936 506.589 0.446739L507.537 2.34864C507.931 3.13791 507.868 4.07803 507.372 4.80763C507.119 5.18078 506.974 5.61682 506.953 6.06737L506.864 8.03872C506.828 8.82773 507.197 9.58046 507.843 10.0348C508.617 10.5793 509.645 10.5969 510.438 10.0794L511.748 9.22322C512.216 8.91793 512.624 8.53047 512.953 8.07963L514.712 5.67131C515.03 5.23545 515.392 4.83292 515.791 4.46987L520.84 -0.119225L523.914 -3.24242C524.321 -3.65629 524.77 -4.02841 525.275 -4.31483C525.991 -4.7207 527.052 -5.25447 527.678 -5.25447C528.34 -5.25447 529.717 -6.08406 530.588 -6.65637C531.099 -6.99251 531.694 -7.18777 532.307 -7.18777C533.075 -7.18777 533.812 -6.88419 534.357 -6.34319L535.683 -5.02747C535.936 -4.77643 536.168 -4.50533 536.377 -4.21681L538.451 -1.35814C539.005 -0.593948 538.97 0.448906 538.366 1.17429C537.805 1.84715 537.731 2.80042 538.179 3.55241L538.283 3.72645C538.503 4.09566 538.821 4.39738 539.201 4.59874L539.313 4.65855C540.933 5.51705 541.155 7.74837 539.736 8.90872C538.678 9.77386 538.484 11.3168 539.296 12.4163L543.081 17.5438C543.861 18.6002 544.889 19.4484 546.074 20.0136L547.183 20.5424L549.423 21.8839C550.118 22.3 550.955 22.4098 551.734 22.1872C553.196 21.7693 554.08 20.3038 553.896 18.7944C553.326 14.1267 553.688 9.3243 555.686 4.35137C557.708 -0.783844 559.848 -6.22109 560.384 -11.6584C561.157 -19.7539 565.379 -24.7683 571.622 -28.8765C573.036 -29.8337 572.933 -31.6204 571.66 -33.0631C571.646 -33.0794 571.657 -33.1055 571.679 -33.1055Z" fill="#F1F2F9" stroke="#F1F2F9" stroke-width="0.5" stroke-miterlimit="10"/>
<path d="M263.026 116.927C263.022 116.927 263.021 116.922 263.025 116.921C267.534 115.89 271.866 113.6 276.138 111.611C281.623 108.93 283.551 103.686 285.448 98.5086C285.963 97.1031 286.138 94.4531 284.641 94.4531C278.397 95.2385 272.213 96.2654 266.029 97.1717C260.38 97.957 255.682 100.917 250.985 103.878C248.606 105.388 248.249 110.04 250.271 112.456C253.653 116.496 258.28 118.009 263.027 116.934C263.03 116.933 263.03 116.927 263.026 116.927Z" fill="#F1F2F9" stroke="#F1F2F9" stroke-width="0.5" stroke-miterlimit="10"/>
<path d="M421.858 56.392L407.778 55.6656C407.02 55.6265 406.26 55.6954 405.521 55.8704L394.699 58.4344C393.822 58.6422 392.987 58.9966 392.228 59.4827L386.38 63.2293C384.863 64.2007 383.063 64.6321 381.271 64.4536L373.229 63.6526C372.354 63.5655 371.5 63.3349 370.7 62.97L367.372 61.4515C365.764 60.7173 363.957 60.5369 362.235 60.9385L340.881 65.9175C339.969 66.1302 339.024 66.163 338.099 66.014L336.433 65.7456C332.927 65.1808 329.748 67.8886 329.748 71.44V74.3622C329.748 75.2047 329.19 75.9453 328.38 76.1778C327.57 76.4102 327.012 77.1509 327.012 77.9934V78.7256C327.012 80.0201 326.143 81.1534 324.893 81.4888L320.368 82.7023C319.845 82.8428 319.305 82.914 318.762 82.914C315.338 82.914 312.558 85.697 312.959 89.0975C313.195 91.1092 313.519 93.1207 313.871 95.1176C314.537 98.8969 314.707 102.613 314.502 106.303C314.272 110.437 317.146 114.263 321.271 114.605L322.254 114.687C324.099 114.84 325.729 115.95 326.546 117.611L326.863 118.255C327.153 118.845 327.624 119.326 328.207 119.629C329.226 120.159 329.866 121.213 329.866 122.362V124.297C329.866 124.935 330.002 125.565 330.263 126.147L330.847 127.448C331.193 128.219 331.072 129.121 330.533 129.773C330.111 130.285 329.482 130.581 328.819 130.581H327.875C327.306 130.581 326.742 130.696 326.219 130.919L325.812 131.092C324.223 131.769 322.975 133.062 322.354 134.674L320.289 140.04C319.589 141.858 319.882 143.91 321.063 145.46C321.687 146.278 322.074 147.253 322.181 148.277L322.734 153.546C322.771 153.901 322.75 154.26 322.672 154.608C322.301 156.262 323.248 157.927 324.86 158.453L327.539 159.327C328.175 159.534 328.774 159.841 329.315 160.234L332.089 162.253C332.627 162.644 333.212 162.967 333.83 163.213C336.197 164.157 338.873 163.914 341.031 162.558L376.368 140.368L410.664 115.245C411.382 114.719 412.008 114.077 412.514 113.345L415.262 109.376C416.188 108.038 416.685 106.45 416.685 104.822V103.259C416.685 102.627 416.609 101.995 416.461 101.38C416.103 99.8968 416.175 98.3384 416.672 96.8957L418.246 92.3216C418.394 91.8906 418.505 91.4478 418.578 90.9978L418.858 89.2713C419.108 87.7254 418.899 86.14 418.257 84.7116L415.545 78.6791C415.081 77.6476 414.841 76.5295 414.841 75.3986V74.1372C414.841 72.9548 415.103 71.787 415.609 70.7181L416.737 68.3306C417.826 66.0285 419.945 64.382 422.445 63.8965L424.455 63.5061C425.823 63.2403 427.079 62.5665 428.056 61.5732L429.821 59.7802C430.2 59.3959 430.734 59.2076 431.27 59.2697C432.008 59.3554 432.719 58.9654 433.044 58.2971L434.211 55.8981C434.52 55.2627 433.99 54.5413 433.291 54.6464L421.856 56.3655C421.84 56.3679 421.841 56.392 421.858 56.392Z" fill="#E7EAF8" stroke="#F1F2F9" stroke-width="0.5" stroke-miterlimit="10"/>
<path d="M327.072 130.544C327.065 130.551 327.07 130.563 327.08 130.563H329.437C329.735 130.563 330.017 130.43 330.206 130.201L330.574 129.756C331.112 129.103 331.234 128.202 330.887 127.43L330.303 126.129C330.042 125.548 329.907 124.917 329.907 124.279V122.345C329.907 121.195 329.267 120.141 328.247 119.611C327.664 119.308 327.194 118.827 326.904 118.238L325.43 115.243C325.365 115.11 325.253 115.006 325.115 114.95C325.059 114.927 325 114.913 324.94 114.908L318.952 114.39C316.092 114.143 313.618 116.2 312.841 118.964C311.176 125.126 309.154 131.228 307.013 137.269C306.783 137.931 306.545 138.587 306.301 139.24C304.998 142.714 307.377 146.488 311.085 146.637L311.626 146.658C313.122 146.718 314.544 146.005 315.391 144.77L316.149 143.665C316.532 143.107 317.177 142.787 317.854 142.82C318.695 142.86 319.467 142.357 319.77 141.571L323.315 132.361C323.386 132.177 323.528 132.03 323.709 131.953L327.059 130.525C327.071 130.521 327.081 130.535 327.072 130.544Z" fill="#E7EAF8" stroke="#F1F2F9" stroke-width="0.5" stroke-miterlimit="10"/>
<path d="M293.934 192.267C293.966 192.235 294.02 192.25 294.031 192.293L295.794 199.244C295.909 199.696 296.1 200.126 296.36 200.514L301.26 207.842L305.015 215.382C305.848 217.055 305.995 218.987 305.424 220.767L305.014 222.046C304.741 222.898 304.791 223.82 305.153 224.638L306.293 227.204C306.789 228.321 308.254 228.588 309.111 227.717C309.451 227.371 309.631 226.899 309.607 226.415L309.539 225.063C309.491 224.116 309.725 223.175 310.21 222.36L310.227 222.332C310.738 221.472 310.976 220.478 310.908 219.48L310.857 218.723C310.802 217.919 310.88 217.111 311.088 216.332L312.499 211.03C312.656 210.44 312.704 209.827 312.639 209.22L312.42 207.147C312.359 206.571 312.622 206.01 313.104 205.69C313.575 205.378 313.838 204.834 313.793 204.272L313.526 200.984C313.476 200.363 313.507 199.738 313.619 199.125L314.205 195.907C314.488 194.353 314.305 192.75 313.678 191.3L312.789 189.242C312.6 188.804 312.546 188.319 312.635 187.851L312.869 186.613C312.992 185.965 312.554 185.344 311.902 185.242C311.671 185.206 311.435 185.24 311.223 185.34L309.785 186.018C308.855 186.457 307.747 186.232 307.062 185.466C306.659 185.015 306.447 184.426 306.472 183.822L306.985 171.149C307.014 170.443 306.933 169.736 306.747 169.054L306.664 168.751C306.511 168.193 306.455 167.613 306.499 167.037C306.697 164.393 308.931 162.106 311.543 162.554C311.612 162.566 311.674 162.578 311.726 162.592C312.063 162.656 312.139 162.97 312.096 163.349C312 164.213 312.349 165.157 313.191 165.376C313.615 165.486 314.066 165.385 314.402 165.103L315.239 164.402C315.887 163.858 316.315 163.097 316.442 162.26L316.457 162.159C316.552 161.531 316.486 160.89 316.265 160.295L315.413 158L314.897 155.874C314.579 154.563 314.78 153.18 315.457 152.014C315.664 151.656 315.829 151.275 315.947 150.879L317.929 144.214C318.102 143.631 317.691 143.037 317.085 142.995C316.749 142.971 316.425 143.128 316.235 143.405L315.151 144.986C314.314 146.205 312.911 146.909 311.433 146.85L308.903 146.748C305.502 146.613 302.349 148.63 301.2 151.835C299.978 155.243 298.932 158.722 298.346 162.41C297.038 170.446 292.638 177.333 287.583 183.616C286.91 184.471 287.13 185.712 288.112 186.182L289.541 186.865C289.973 187.072 290.346 187.384 290.626 187.773L293.847 192.26C293.868 192.289 293.909 192.292 293.934 192.267Z" fill="#F1F2F9" stroke="#F1F2F9" stroke-width="0.5" stroke-miterlimit="10"/>
<path d="M313.949 165.451C313.949 165.441 313.942 165.433 313.933 165.431L313.076 165.208C312.342 165.016 312.014 164.184 312.17 163.441C312.269 162.974 312.23 162.55 311.808 162.474C311.756 162.461 311.694 162.449 311.625 162.437C309.013 161.988 306.779 164.276 306.581 166.919C306.538 167.496 306.594 168.076 306.746 168.634L306.829 168.937C307.016 169.619 307.096 170.326 307.067 171.032L306.554 183.705C306.529 184.309 306.741 184.898 307.144 185.349C307.829 186.115 308.937 186.339 309.867 185.901L311.305 185.222C311.517 185.123 311.753 185.089 311.983 185.125L312.457 185.199C312.85 185.26 313.114 185.635 313.04 186.025L312.95 186.497C312.891 186.807 313.185 187.068 313.486 186.972C313.656 186.918 313.773 186.762 313.777 186.583L313.924 179.55C313.939 178.804 314.308 178.109 314.917 177.678C315.541 177.236 315.911 176.52 315.911 175.756V170.416C315.911 169.756 315.993 169.099 316.154 168.459L316.445 167.306C316.485 167.147 316.501 166.983 316.493 166.819L316.402 165.002C316.372 164.386 315.649 164.07 315.176 164.467L313.983 165.467C313.969 165.478 313.949 165.468 313.949 165.451ZM322.13 146.724C322.107 146.713 322.087 146.696 322.071 146.675L320.756 144.95C319.796 143.689 318.327 142.917 316.744 142.84C317.628 142.902 318.228 143.767 317.975 144.618L316.148 150.761C316.03 151.158 315.866 151.539 315.658 151.897C314.981 153.063 314.78 154.446 315.098 155.757L315.614 157.883L316.57 160.457C316.71 160.835 317.07 161.085 317.472 161.085C317.797 161.085 318.099 160.922 318.277 160.65L319.076 159.433C319.38 158.97 319.786 158.581 320.262 158.297L320.505 158.152C321.636 157.478 322.448 156.376 322.756 155.096L322.78 154.997C322.917 154.428 322.956 153.84 322.895 153.258L322.224 146.86C322.218 146.802 322.183 146.751 322.13 146.724Z" fill="#E7EAF8" stroke="#F1F2F9" stroke-width="0.5" stroke-miterlimit="10"/>
<path d="M891.725 33.0192C891.737 33.0073 891.743 32.9909 891.741 32.9743L890.97 22.9717L890.93 22.4361C890.766 20.2336 889.698 18.197 887.98 16.8089L884.299 13.8348C883.537 13.2187 882.586 12.8826 881.606 12.8826C880.883 12.8826 880.173 12.7 879.54 12.3516L878.82 11.9556C878.046 11.5298 877.203 11.2443 876.329 11.1124L869.124 10.0248C867.888 9.83817 866.712 9.36426 865.692 8.64111L851.902 -1.13354L817.294 -21.1911L807.793 -27.4136C806.356 -28.3552 805.259 -29.7348 804.667 -31.348L801.912 -38.8501C801.396 -40.2534 800.458 -41.462 799.226 -42.3091C797.946 -43.1896 796.984 -44.4598 796.483 -45.9308L793.969 -53.317C793.258 -55.4079 791.713 -57.1115 789.702 -58.0243L782.701 -61.2017C781.696 -61.6577 780.558 -61.7236 779.507 -61.3865C778.382 -61.0257 777.16 -61.1274 776.111 -61.6692L754.548 -72.8005C752.997 -73.6011 751.84 -74.999 751.342 -76.6718C750.851 -78.3206 749.719 -79.7032 748.199 -80.5095L725.958 -92.3106C725.448 -92.5814 724.885 -92.7386 724.308 -92.7714L721.052 -92.9567C719.545 -93.0424 718.481 -91.5026 719.095 -90.1232C719.461 -89.3009 719.237 -88.3358 718.548 -87.7576L718.522 -87.736C717.819 -87.1464 716.81 -87.0928 716.048 -87.6044L715.278 -88.1217C714.37 -88.7315 713.219 -88.8511 712.205 -88.4412L709.568 -87.3753C708.548 -86.9627 707.683 -86.2392 707.097 -85.3074L706.57 -84.4694C705.777 -83.2079 704.309 -82.539 702.837 -82.7678C701.264 -83.0121 699.709 -82.2324 698.964 -80.8258L696.169 -75.5469C695.247 -73.8071 695 -71.7888 695.474 -69.878L696.416 -66.0766C696.6 -65.3366 697.038 -64.6849 697.654 -64.2359C698.729 -63.4522 699.217 -62.0912 698.884 -60.8029L698.864 -60.7262C698.351 -58.74 696.193 -57.6735 694.303 -58.4722L691.965 -59.4603C690.98 -59.8765 689.896 -59.9995 688.843 -59.8144L674.713 -57.3305C671.906 -56.8371 669.049 -57.8742 667.212 -60.0531L659.1 -69.6754C658.444 -70.4524 657.647 -71.0975 656.751 -71.5762L644.882 -77.9121C644.345 -78.1984 643.778 -78.4226 643.191 -78.5805L633.95 -81.0645C631.939 -81.605 629.797 -81.3403 627.978 -80.3266L622.251 -77.1346L612.429 -69.9946C609.778 -68.0681 608.454 -64.6538 609.932 -61.7293C610.635 -60.3376 611.485 -58.9902 612.499 -57.6814C617.791 -50.9754 619.397 -43.5443 618.148 -35.0863C617.732 -32.0052 618.148 -28.622 619.099 -25.6012C620.526 -20.8889 623.024 -16.7808 628.733 -16.5391C631.111 -16.4787 633.549 -16.5391 635.095 -14.3038C636.641 -12.0081 635.452 -9.83311 634.619 -7.6582C634.322 -6.93324 633.965 -5.84593 634.263 -5.36262C635.69 -3.42936 637.117 -1.37518 638.961 0.0143433C644.491 4.18292 647.345 9.62015 646.988 16.5678C646.565 24.3098 648.411 31.5226 650.703 38.5949C651.665 41.5643 655.059 42.952 657.858 41.5701C658.57 41.2185 659.354 41.0357 660.148 41.0357H663.605C666.767 41.0357 669.629 39.1616 670.893 36.2629L672.193 33.2814C672.667 32.1935 673.741 31.4901 674.928 31.4901C675.661 31.4901 676.368 31.2204 676.915 30.7322L682.693 25.5754C683.803 24.5843 685.168 23.9226 686.633 23.6647L690.557 22.9741C691.469 22.8136 692.405 22.8638 693.295 23.1209L696.296 23.9886C697.921 24.4582 699.613 23.4999 700.047 21.8654C700.33 20.7973 701.175 19.9698 702.248 19.7089L704.081 19.2637C705.297 18.9683 706.58 19.1569 707.66 19.7897C708.574 20.3254 709.638 20.5455 710.69 20.416L710.745 20.4092C712.174 20.2332 713.609 20.683 714.682 21.6431L718.115 24.7148C719.01 25.516 720.075 26.1053 721.229 26.4388L724.764 27.4602C725.554 27.6887 726.305 28.0378 726.989 28.4952L736.304 34.7225C737.04 35.2147 737.906 35.4775 738.792 35.4775C739.425 35.4775 740.051 35.3431 740.629 35.0833L741.258 34.7999C742.97 34.0297 744.904 33.9118 746.697 34.4683L751.971 36.1055C752.307 36.2099 752.657 36.2629 753.008 36.2629C754.672 36.2629 756.106 37.4341 756.438 39.0642L756.876 41.2148C756.917 41.417 756.979 41.6145 757.06 41.8041C757.587 43.033 758.859 43.7697 760.187 43.6158L763.079 43.2808C764.162 43.1552 765.261 43.2873 766.284 43.6662L767.945 44.2814C769.562 44.8806 770.943 45.9865 771.88 47.4343L775.623 53.2132C777.098 55.4898 779.626 56.8642 782.338 56.8642H783.925C785.296 56.8642 786.643 57.2163 787.839 57.8868L790.144 59.1795C791.184 59.7632 792.081 60.5723 792.769 61.5476L793.563 62.6738C794.399 63.86 794.694 65.3446 794.377 66.7607C794.197 67.5621 794.211 68.395 794.42 69.1896L796.504 77.1426C796.771 78.1592 797.894 78.6852 798.845 78.2391C799.164 78.0896 799.522 78.0439 799.868 78.1085L800.99 78.3179C801.817 78.4723 802.595 78.8241 803.257 79.3434L804.55 80.3573C805.259 80.9133 806.12 81.2408 807.02 81.2962L807.838 81.3466C808.907 81.4124 809.93 80.9064 810.527 80.0172C811.045 79.2457 811.889 78.756 812.816 78.6898L813.399 78.6483C814.269 78.5862 815.138 78.7962 815.884 79.2493L819.021 81.1543C819.607 81.5102 820.11 81.9874 820.497 82.5537L821.637 84.2247C822.408 85.3541 823.918 85.7009 825.104 85.0209C825.249 84.938 825.401 84.8691 825.559 84.8152L828.442 83.828C829.973 83.304 831.309 82.3282 832.274 81.0294L832.509 80.7123C832.948 80.1213 833.303 79.4725 833.565 78.7843L834.612 76.0292C835.184 74.5246 836.197 73.2274 837.517 72.3073L842.396 68.9086C843.305 68.2754 844.428 68.0278 845.519 68.2199C847.187 68.5138 848.869 67.774 849.779 66.3452L850.855 64.6585C851.384 63.8277 852.13 63.1562 853.011 62.7159C854.456 61.994 855.506 60.6673 855.876 59.0949L856.6 56.0183L856.934 54.0847C857.218 52.4408 858.045 50.9393 859.281 49.8193L860.505 48.7108C861.629 47.6928 862.157 46.1726 861.907 44.6768C861.819 44.1468 861.635 43.6371 861.364 43.1725L860.496 41.6789C860.32 41.3763 860.227 41.0325 860.227 40.6824C860.227 39.9043 860.682 39.1981 861.391 38.877L869.563 35.1755L876.703 31.5482C877.174 31.3093 877.675 31.136 878.192 31.0333L881.449 30.3866C882.118 30.2539 882.791 30.5914 883.085 31.2064C883.385 31.8324 884.076 32.1694 884.753 32.0195L888.581 31.1725C889.216 31.0318 889.88 31.2282 890.336 31.6922L891.643 33.0192C891.665 33.0421 891.702 33.0421 891.725 33.0192Z" fill="#F1F2F9" stroke="#F1F2F9" stroke-width="0.5" stroke-miterlimit="10"/>
<path d="M980.659 -69.0608C980.637 -69.0497 980.611 -69.0511 980.591 -69.0644L973.1 -73.9038C970.61 -75.513 967.271 -74.5356 966.041 -71.8372C964.886 -69.3014 961.839 -68.2547 959.369 -69.5453L952.548 -73.1092C948.527 -75.2104 947.056 -80.2317 949.308 -84.1705L952.77 -90.2264C953.238 -91.044 953.317 -92.0273 952.987 -92.9094C952.224 -94.9485 949.678 -95.6271 948.001 -94.2387L943.865 -90.8153C943.555 -90.5587 943.268 -90.2757 943.007 -89.9697L935.397 -81.0578C935.025 -80.6211 934.7 -80.1455 934.429 -79.6393L927.518 -66.733C927.011 -65.7856 926.318 -64.9501 925.481 -64.2764L921.211 -60.8408C919.135 -59.1704 916.363 -58.6433 913.819 -59.435L901.939 -63.1315C901.829 -63.1656 901.717 -63.1918 901.604 -63.2099L899.172 -63.5969C898.215 -63.7493 897.496 -62.7402 897.954 -61.8855C898.32 -61.2016 897.933 -60.357 897.176 -60.1878L894.354 -59.5571C893.339 -59.3304 892.498 -58.6249 892.099 -57.6653L891.934 -57.2708C891.618 -56.5123 891.71 -55.6453 892.177 -54.9693L892.325 -54.7543C893.099 -53.6341 892.677 -52.0871 891.442 -51.5147C890.799 -51.2165 890.051 -51.2475 889.434 -51.5979L886.155 -53.4612C884.385 -54.467 883.065 -56.1098 882.464 -58.0549L879.237 -68.4992L875.406 -77.7663C874.382 -80.2421 872.187 -82.0411 869.559 -82.5587L866.598 -83.1417C862.904 -83.8692 860.217 -87.0739 860.145 -90.8382L859.82 -107.856C859.777 -110.139 857.554 -111.741 855.375 -111.061C853.599 -110.507 851.705 -111.471 851.109 -113.233L849.061 -119.287C848.537 -120.834 847.552 -122.184 846.239 -123.156L839.734 -127.965C838.319 -129.011 836.6 -129.562 834.841 -129.532L805.799 -129.034L777.891 -125.878C776.24 -125.691 774.572 -126.023 773.119 -126.827L748.059 -140.694L715.292 -160.892C713.609 -161.93 711.602 -162.307 709.657 -161.952L672.83 -155.226C668.518 -154.438 665.642 -150.327 666.382 -146.006L680.143 -65.6435C680.804 -61.7849 684.472 -59.196 688.329 -59.8663L688.77 -59.9429C689.82 -60.1254 690.901 -60.0018 691.883 -59.5867L694.225 -58.5968C696.115 -57.7982 698.273 -58.8646 698.786 -60.8508L698.806 -60.9275C699.139 -62.2158 698.652 -63.5768 697.576 -64.3604C696.96 -64.8095 696.522 -65.4612 696.338 -66.2011L695.396 -70.0028C694.922 -71.9136 695.17 -73.9319 696.091 -75.6716L698.886 -80.9505C699.631 -82.3572 701.186 -83.1368 702.759 -82.8924C704.232 -82.6636 705.699 -83.3325 706.492 -84.594L707.019 -85.432C707.605 -86.3638 708.47 -87.0873 709.49 -87.4998L712.127 -88.5658C713.141 -88.9757 714.292 -88.856 715.2 -88.2463L715.97 -87.729C716.732 -87.2173 717.741 -87.271 718.444 -87.8606L718.47 -87.8822C719.16 -88.4604 719.383 -89.4255 719.017 -90.2478C718.403 -91.6272 719.467 -93.167 720.975 -93.0813L724.231 -92.896C724.807 -92.8632 725.37 -92.706 725.881 -92.4352L748.122 -80.6343C749.641 -79.828 750.773 -78.4453 751.264 -76.7965C751.762 -75.1236 752.92 -73.7257 754.471 -72.9251L776.033 -61.7938C777.082 -61.252 778.304 -61.1502 779.429 -61.5111C780.48 -61.8481 781.618 -61.7823 782.623 -61.3263L789.624 -58.149C791.636 -57.2363 793.18 -55.5326 793.892 -53.4417L796.406 -46.0554C796.906 -44.5844 797.868 -43.3142 799.149 -42.4336C800.38 -41.5865 801.319 -40.3779 801.834 -38.9747L804.589 -31.4727C805.182 -29.8595 806.278 -28.48 807.715 -27.5384L817.216 -21.3157L851.824 -1.25812L865.614 8.51654C866.635 9.23969 867.81 9.71359 869.047 9.90025L876.252 10.9879C877.125 11.1197 877.968 11.4052 878.742 11.8309L879.462 12.2269C880.095 12.5752 880.806 12.7578 881.528 12.7578C882.508 12.7578 883.459 13.0939 884.222 13.7101L887.903 16.6844C889.621 18.0724 890.688 20.109 890.853 22.3114L890.893 22.8471L891.193 26.7076C891.388 29.2097 893.581 31.0759 896.082 30.8685C896.926 30.7985 897.774 30.9669 898.527 31.3545L901.207 32.733C901.777 33.026 902.275 33.4404 902.667 33.9468C903.973 35.6324 906.302 36.1341 908.185 35.1356L909.186 34.6053C909.951 34.1993 910.86 34.1618 911.657 34.5031C913.461 35.276 915.49 34.0478 915.643 32.091L916.225 24.6047C916.303 23.6031 916.569 22.6251 917.009 21.7219L921.105 13.3143C921.762 11.9637 922.027 10.4553 921.867 8.96153L921.824 8.55884C921.662 7.04019 921.069 5.59969 920.114 4.40755L917.132 0.684158C916.318 -0.332321 915.913 -1.61591 915.995 -2.91553L916.049 -3.76256C916.231 -6.64331 913.715 -8.96121 910.859 -8.54396C908.776 -8.23961 906.756 -9.40686 905.98 -11.364L905.312 -13.0502C903.765 -16.9492 906.063 -21.3083 910.154 -22.2362C912.572 -22.7848 914.723 -23.2726 915.154 -23.3698C915.871 -23.5413 921.083 -27.2133 924.047 -29.33C925.302 -30.2262 925.917 -31.767 925.637 -33.2836C925.284 -35.1994 926.363 -37.0911 928.192 -37.7619L933.215 -39.6042C936.092 -40.6594 936.917 -44.3344 934.768 -46.5184C934.046 -47.2516 933.617 -48.2236 933.563 -49.251L933.553 -49.4332C933.464 -51.1013 934.268 -52.6911 935.664 -53.6084L943.828 -58.9727C944.176 -59.2014 944.542 -59.4026 944.921 -59.5744L950.094 -61.9169C952.863 -63.171 956.127 -62.4645 958.13 -60.1776C959.884 -58.1753 962.633 -57.3603 965.194 -58.0832L968.168 -58.9223C969.091 -59.1829 970.053 -59.2753 971.009 -59.1951L972.31 -59.0859C974.677 -58.8874 977.009 -59.7515 978.675 -61.444L980.6 -63.4C981.176 -63.985 981.439 -64.8093 981.307 -65.6196L980.758 -69.0106C980.751 -69.0565 980.701 -69.0819 980.659 -69.0608Z" fill="#F1F2F9" stroke="#F1F2F9" stroke-width="0.5" stroke-miterlimit="10"/>
<path fill-rule="evenodd" clip-rule="evenodd" d="M860.773 273.059C860.752 273.07 860.727 273.068 860.707 273.055L855.097 269.255C854.705 268.989 854.242 268.847 853.769 268.847C852.691 268.847 851.748 268.12 851.476 267.076L847.697 252.592C847.072 250.194 845.37 248.221 843.09 247.251L841.125 246.414C840.683 246.226 840.226 246.078 839.758 245.972L832.527 244.334C831.6 244.124 830.718 243.751 829.923 243.232L825.209 240.156C824.287 239.555 823.499 238.769 822.895 237.849L811.191 220.036C809.373 217.268 809.448 213.666 811.38 210.976L821.691 196.621C823.004 194.794 823.486 192.498 823.02 190.297L822.915 189.799C822.799 189.254 822.741 188.699 822.741 188.142V181.956C822.741 180.657 822.425 179.377 821.82 178.228L821.138 176.934C819.876 174.537 817.486 172.942 814.788 172.695L805.214 171.82C803.353 171.65 801.929 170.09 801.929 168.221C801.929 167.924 801.892 167.629 801.82 167.341L796.755 147.173L794.164 139.62C793.511 137.718 793.787 135.62 794.909 133.95L796.704 131.278C798.277 128.938 797.086 125.745 794.365 125.007C792.97 124.628 791.876 123.546 791.482 122.156L789.609 115.549C789.195 114.09 789.34 112.528 790.016 111.169L790.522 110.154C791.178 108.836 791.083 107.268 790.271 106.04C789.198 104.414 789.407 102.259 790.774 100.87L794.992 96.5853C796.465 95.0889 797.291 93.0732 797.291 90.9734V90.021L798.02 79.0764C798.04 78.7835 797.736 78.578 797.472 78.7046C797.254 78.8085 796.996 78.6887 796.935 78.4556L794.456 68.9978C794.248 68.2033 794.233 67.3704 794.413 66.5689C794.731 65.1528 794.435 63.6683 793.599 62.482L792.805 61.3558C792.117 60.3805 791.22 59.5714 790.18 58.9877L787.875 57.695C786.68 57.0245 785.332 56.6724 783.961 56.6724H782.374C779.661 56.6724 777.134 55.298 775.659 53.0213L771.917 47.2426C770.979 45.7946 769.598 44.6886 767.98 44.0894L766.32 43.4743C765.297 43.0955 764.199 42.9634 763.115 43.089L760.223 43.424C758.895 43.5779 757.623 42.8411 757.096 41.6121C757.015 41.4226 756.953 41.2253 756.912 41.0233L756.474 38.8724C756.142 37.2423 754.708 36.0711 753.045 36.0711C752.693 36.0711 752.343 36.0181 752.007 35.9138L746.733 34.2766C744.94 33.7201 743.006 33.838 741.294 34.6082L740.664 34.8916C740.087 35.1514 739.461 35.2857 738.828 35.2857C737.942 35.2857 737.077 35.023 736.34 34.5308L727.025 28.3033C726.341 27.846 725.59 27.4969 724.8 27.2685L721.265 26.247C720.111 25.9135 719.046 25.3243 718.151 24.5232L714.718 21.4511C713.645 20.4912 712.21 20.0414 710.781 20.2174L710.726 20.2242C709.675 20.3537 708.61 20.1336 707.696 19.598C706.616 18.9651 705.333 18.7765 704.117 19.072L702.284 19.5171C701.211 19.778 700.366 20.6056 700.083 21.6737C699.65 23.3081 697.957 24.2664 696.333 23.7969L693.331 22.9291C692.442 22.6721 691.505 22.6218 690.594 22.7822L686.67 23.4727C685.204 23.7307 683.839 24.3924 682.729 25.3835L676.951 30.5405C676.405 31.0286 675.697 31.2984 674.964 31.2984C673.777 31.2984 672.703 32.0017 672.229 33.0896L670.929 36.0711C669.665 38.9699 666.803 40.8439 663.641 40.8439H660.463C659.485 40.8439 658.52 41.0691 657.643 41.5022C654.768 42.9217 653.431 46.2459 654.392 49.305C654.599 49.9649 654.8 50.628 654.993 51.2955C655.528 53.1079 654.755 54.9807 652.971 55.2224C642.862 56.5515 632.693 57.639 622.585 58.7265C620.461 58.9962 618.337 59.0732 616.256 59.2157C615.758 59.2497 615.259 59.2428 614.763 59.1894C603.947 58.0224 593.084 57.0718 585.063 48.154C582.327 45.0729 578.64 43.6832 574.597 42.9583C571.505 42.4145 568.293 41.9313 565.439 40.7834C563.358 39.9376 560.801 38.4273 559.968 36.4941C558.109 32.4165 556.41 28.2571 555.27 24.0158C554.875 22.5442 553.367 21.6266 551.902 22.0452C551.206 22.2441 550.459 22.146 549.837 21.7741L547.481 20.3634L546.372 19.8346C545.187 19.2694 544.16 18.4213 543.38 17.365L539.594 12.2371C538.783 11.1376 538.976 9.59472 540.034 8.72963C541.453 7.56936 541.231 5.3381 539.612 4.47962L539.499 4.41977C539.119 4.21841 538.802 3.9167 538.581 3.54748L538.478 3.37346C538.029 2.62145 538.104 1.66818 538.664 0.995316C539.268 0.269931 539.303 -0.77291 538.749 -1.53711L536.676 -4.39598C536.466 -4.68448 536.234 -4.95558 535.981 -5.20662L534.662 -6.51533C534.113 -7.0607 533.37 -7.36674 532.596 -7.36674C531.989 -7.36674 531.399 -7.17682 530.89 -6.84678C530.007 -6.27415 528.604 -5.43344 527.977 -5.43344C527.395 -5.43344 526.348 -4.91504 525.622 -4.51155C525.085 -4.21352 524.608 -3.82303 524.177 -3.38538L521.138 -0.298376L516.09 4.29087C515.69 4.65394 515.329 5.0565 515.01 5.49239L513.252 7.90066C512.922 8.35151 512.514 8.73897 512.047 9.04426L510.042 10.3538C509.669 10.5976 509.185 10.5893 508.82 10.3329L507.28 9.24996C507.206 9.198 507.105 9.25084 507.105 9.34117C507.105 9.39242 507.07 9.43708 507.02 9.44941L504.549 10.0618C503.159 10.4061 501.704 9.83406 500.922 8.6358L493.428 -2.83567L501.706 9.83806C501.964 10.233 502.052 10.7151 501.951 11.1757C501.701 12.3043 500.448 12.8875 499.424 12.351L496.629 10.8865C496.087 10.6027 495.49 10.4415 494.879 10.4146L492.061 10.2901C490.928 10.24 489.822 9.91866 488.839 9.35309L487.698 8.69725C486.511 8.01537 485.708 6.82219 485.523 5.46653C485.333 4.08223 484.5 2.86914 483.276 2.19552L478.241 -0.575543C477.265 -1.1125 476.659 -2.13795 476.659 -3.25167C476.659 -3.77131 476.526 -4.28236 476.274 -4.73648L475.569 -6.00348C475.288 -6.50936 474.754 -6.82304 474.175 -6.82304C473.784 -6.82304 473.405 -6.96725 473.113 -7.22818L471.977 -8.24255C471.73 -8.46304 471.452 -8.64589 471.152 -8.78519C469.798 -9.41289 468.193 -9.07464 467.208 -7.95414L463.834 -4.11681C463.547 -3.78989 463.195 -3.5262 462.8 -3.34243C460.936 -2.47415 460.393 -0.0792398 461.701 1.50803L462.493 2.46924C463.079 3.18112 463.409 4.0697 463.43 4.99192L463.707 17.6427C463.737 18.99 464.482 20.2195 465.663 20.8688C467.426 21.838 468.12 24.0188 467.241 25.8281L467.119 26.0775C466.713 26.9147 466.607 27.8641 466.796 28.7755C467.148 30.4743 467.68 33.3069 467.68 34.9232C467.68 37.3398 471.188 38.0647 472.318 38.0647C473.273 38.0647 475.971 46.8723 476.782 49.5963C476.937 50.1176 476.959 50.6677 476.851 51.2008C476.689 52.0018 476.823 52.8344 477.229 53.5439L484.334 65.9697C484.725 66.6549 485.216 67.2784 485.791 67.8199L496.864 78.2588C497.694 79.0412 498.695 79.6192 499.787 79.9469L510.349 83.1157C512.446 83.7449 512.789 86.5695 510.903 87.6823C510.103 88.1548 509.629 89.0308 509.672 89.9594L509.939 95.7876C510.061 98.4576 508.734 100.986 506.466 102.401C504.508 103.622 503.232 105.688 503.017 107.986L501.761 121.403C501.467 124.547 503.049 127.57 505.801 129.119L508.769 130.791C510.634 131.841 512 133.594 512.562 135.659L514.228 141.775C515.158 145.191 518.446 147.415 521.963 147.008C523.729 146.803 525.507 147.262 526.953 148.295L538.272 156.384C538.583 156.607 538.878 156.851 539.155 157.116L546.413 164.069C546.846 164.484 547.231 164.946 547.561 165.447L550.862 170.461C552.383 172.772 552.602 175.706 551.441 178.217L550.349 180.579C549.582 182.237 549.542 184.14 550.238 185.829L550.807 187.207C551.394 188.629 552.726 189.605 554.259 189.735C556.145 189.894 557.678 191.321 557.972 193.191L559.096 200.339C559.386 202.182 560.452 203.812 562.024 204.816L563.634 205.844C565.932 207.312 566.513 210.415 564.901 212.614L563.971 213.883C563.807 214.106 563.741 214.387 563.789 214.66L563.959 215.644C564.113 216.531 565.289 216.542 565.558 215.683C565.974 214.414 567.521 212.783 568.769 212.602C573.348 211.816 578.046 211.152 582.624 211.273C587.203 211.393 592.258 211.635 596.182 213.689C599.274 215.381 601.058 219.791 603.14 223.174C609.086 232.659 614.973 242.205 620.682 251.871C623.298 256.281 626.866 259.06 631.742 260.268C634.002 260.873 636.321 261.537 638.64 262.081C644.111 263.35 648.927 265.464 652.673 270.358C654.933 273.378 658.798 275.191 662.009 277.426C670.751 283.588 681.038 285.038 690.968 287.515C695.012 288.542 698.639 287.999 702.326 286.005C707.916 282.984 713.505 279.964 719.273 277.547C726.052 274.708 732.237 277.245 735.269 283.588C737.648 288.663 739.848 293.859 741.929 299.054C743.951 304.129 747.816 306.304 752.99 306.606C775.11 308.177 796.696 313.252 818.519 316.756C820.579 317.082 822.614 317.335 824.637 317.531C828.689 317.923 832.111 314.698 832.226 310.629C832.246 309.924 832.367 309.226 832.587 308.557L833.735 305.058C834.115 303.899 833.944 302.63 833.27 301.613C832.626 300.641 832.44 299.436 832.76 298.315L833.326 296.336L834.176 292.55C834.623 290.558 835.815 288.813 837.507 287.671L842.027 284.621C842.449 284.336 842.898 284.092 843.367 283.892L850.466 280.869C851.808 280.297 853.339 280.374 854.617 281.078L855.045 281.313C856.904 282.336 859.233 281.811 860.474 280.091L860.702 279.774C861.148 279.156 861.354 278.398 861.284 277.639L860.867 273.111C860.863 273.065 860.814 273.038 860.773 273.059Z" fill="#F1F2F9" stroke="#F1F2F9" stroke-width="0.5" stroke-miterlimit="10"/>
<path fill-rule="evenodd" clip-rule="evenodd" d="M781.568 354.744C781.568 354.752 781.557 354.755 781.553 354.748C778.937 350.414 775.255 347.825 770.032 347.283C763.729 346.618 757.366 346.074 751.301 344.443C747.673 343.537 743.927 341.241 741.192 338.583C735.364 332.964 731.261 326.138 730.25 317.68C730.146 316.622 729.247 315.867 728.184 315.867H727.597C726.31 315.867 725.174 316.704 724.792 317.933L710.09 365.224C709.589 366.835 709.61 368.563 710.151 370.162L713.445 379.901C713.783 380.902 713.92 381.959 713.847 383.013L711.238 420.937C711.013 424.213 708.809 427.018 705.679 428.012L659.708 442.614C656.995 443.476 654.944 445.715 654.323 448.494L653.989 449.985C653.445 452.423 654.07 454.975 655.679 456.884L669.674 473.495C671.069 475.151 671.733 477.302 671.515 479.456L671.219 482.386C670.949 485.054 672.033 487.68 674.108 489.38L682.55 496.296C684.602 497.976 687.351 498.524 689.901 497.795C695.268 496.26 700.65 494.872 706.108 493.908C713.184 492.639 718.001 489.981 719.666 482.671C720.676 478.381 722.996 475.361 727.396 474.636C736.019 473.367 741.787 469.138 744.819 460.499C746.127 456.693 749.755 454.276 753.679 452.947C756.653 451.92 759.983 451.618 762.718 450.047C764.443 449.081 766.048 446.543 766.286 444.55C766.88 439.777 766.286 434.944 766.702 430.111C767.118 426.063 768.843 422.196 772.351 419.961C784.185 412.349 791.083 400.749 797.267 388.666C801.31 380.752 800.418 376.704 793.401 369.696C788.83 365.172 784.851 360.287 781.584 354.74C781.579 354.733 781.568 354.736 781.568 354.744Z" fill="#F1F2F9" stroke="#F1F2F9" stroke-width="0.5" stroke-miterlimit="10"/>
<path fill-rule="evenodd" clip-rule="evenodd" d="M709.466 367.487C709.452 367.46 709.45 367.428 709.459 367.399L724.857 317.975C725.239 316.747 726.376 315.911 727.662 315.911H728.25C729.313 315.911 730.213 316.666 730.317 317.723C729.927 314.554 729.497 311.384 729.06 308.181C728.894 306.968 727.857 306.063 726.633 306.063C725.406 306.063 724.368 305.155 724.206 303.939L723.775 300.715C723.629 299.619 722.89 298.693 721.854 298.308C720.715 297.883 719.432 298.191 718.604 299.081C710.502 307.789 702.01 316.18 695.649 326.302C689.881 335.425 682.448 339.775 672.101 339.05C664.074 338.506 656.402 338.687 648.85 342.07C645.758 343.46 642.666 341.527 640.407 339.11C639.153 337.786 636.411 338.541 636.309 340.362L636.178 342.699C636.144 343.306 636.332 343.905 636.708 344.383L639.843 348.374C640.49 349.198 640.969 350.141 641.253 351.15L643.723 359.935C644.565 362.931 647.068 365.166 650.14 365.666L698.817 373.585C701.238 373.978 703.703 373.203 705.462 371.493L709.442 367.626C709.479 367.59 709.489 367.534 709.466 367.487Z" fill="#F1F2F9" stroke="#F1F2F9" stroke-width="0.5" stroke-miterlimit="10"/>
<path fill-rule="evenodd" clip-rule="evenodd" d="M634.849 328.595C634.195 320.621 633.541 312.585 632.649 304.611C632.53 303.1 631.697 301.53 630.805 300.382C629.854 299.174 628.427 297.844 627.059 297.663C625.81 297.542 623.848 298.449 623.134 299.536C621.41 302.194 620.28 305.215 618.853 308.054C618.043 309.535 617.271 311.351 617.788 312.957L620.973 322.852C621.632 324.902 623.091 326.6 625.018 327.561L627.397 328.747C628.076 329.085 628.819 329.274 629.577 329.302L634.147 329.468C634.66 329.486 634.948 329.099 634.849 328.595Z" fill="#F1F2F9" stroke="#F1F2F9" stroke-width="0.5" stroke-miterlimit="10"/>
<path fill-rule="evenodd" clip-rule="evenodd" d="M719.375 298.093C719.381 298.093 719.387 298.09 719.391 298.085C719.429 298.037 719.634 297.78 719.742 297.67C720.396 296.945 721.11 296.281 721.764 295.495C721.001 296.389 720.181 297.224 719.36 298.058C719.347 298.071 719.357 298.093 719.375 298.093ZM709.463 367.509C709.42 367.509 709.377 367.526 709.346 367.556L705.44 371.318C703.625 373.065 701.093 373.856 698.606 373.452L650.031 365.549C646.959 365.05 644.456 362.814 643.614 359.819L641.144 351.033C640.86 350.025 640.381 349.082 639.734 348.258L637.881 345.899C636.679 344.369 636.076 342.453 636.185 340.51L636.483 335.199C636.528 334.402 636.331 333.622 636.012 332.89C635.197 331.024 633.586 329.455 631.55 329.381L629.777 329.317C628.873 329.284 627.986 329.058 627.176 328.654L624.996 327.568C623.069 326.607 621.611 324.909 620.951 322.859L618.778 316.109C617.787 313.03 613.597 310.512 611.636 307.941C608.663 304.135 606.284 300.026 605.63 295.012C604.559 286.675 600.159 280.029 594.748 273.988C591.002 269.819 587.018 265.953 583.033 262.086C581.368 260.455 578.811 259.368 577.741 257.434C575.21 253.001 572.807 248.502 570.439 243.963C569.007 241.218 565.645 240.115 562.873 241.493L557.478 244.176C555.862 244.979 553.991 243.697 554.157 241.9C554.249 240.898 553.681 239.952 552.753 239.563L538.229 233.472C537.151 233.02 535.986 232.809 534.818 232.856L499.736 234.249C497.992 234.319 496.273 233.816 494.841 232.817L405.317 170.362C404.362 169.696 403.273 169.246 402.127 169.044L390.215 166.948C387.403 166.453 384.54 167.495 382.704 169.681L380.91 171.816C379.942 172.968 378.668 173.824 377.235 174.285L361.097 179.476C355.685 181.217 353.765 187.891 357.426 192.242L366.822 203.41C369.303 206.36 369.328 210.659 366.882 213.638L364.29 216.794C363.658 217.563 363.313 218.528 363.313 219.524C363.313 221.684 361.711 223.51 359.568 223.79L349.794 225.068C348.071 225.293 346.468 226.073 345.227 227.291L336.056 236.293C334.205 238.11 331.588 238.916 329.036 238.457L315.021 235.935C310.459 235.114 306.156 238.33 305.652 242.939L304.279 255.494C304.076 257.35 306.209 258.689 308.071 258.824C312.412 259.005 315.266 261.845 317.823 264.986C319.845 267.463 321.391 270.303 323.413 272.78C332.511 283.956 338.457 297.308 347.198 308.666C352.193 315.13 355.88 321.957 357.545 330.052C358.556 335.067 361.707 338.692 366.643 340.262C376.454 343.404 382.58 350.231 386.207 359.776C387.337 362.797 388.764 365.697 390.369 368.476C393.164 373.551 394.413 378.867 394.056 384.667C393.937 387.083 394.175 389.5 394.294 391.917C394.948 404.966 401.489 414.632 411.42 422.244C415.166 425.144 419.626 427.198 423.372 430.098C429.735 435.113 434.967 441.033 437.227 449.25C439.843 458.795 445.255 466.588 451.796 473.778C457.148 479.638 462.5 485.68 466.9 492.265C468.834 495.122 470.363 498.156 471.659 501.192C471.672 501.222 471.717 501.24 471.717 501.208C471.717 501.189 471.733 501.148 471.751 501.15L477.453 501.933C479.283 502.184 481.067 501.236 481.883 499.579C482.196 498.942 482.663 498.392 483.242 497.98L483.545 497.764C485.845 496.126 486.618 493.062 485.371 490.528L485.239 490.26C484.537 488.833 484.418 487.19 484.908 485.677L486.384 481.116C486.813 479.79 487.783 478.708 489.054 478.136C490.717 477.387 492.657 477.617 494.1 478.733L496.148 480.317C497.505 481.367 499.163 481.953 500.878 481.988L508.344 482.142C509.406 482.164 510.452 482.397 511.422 482.827L541.607 496.211C543.417 497.014 544.618 498.77 544.709 500.748C544.937 505.672 551.228 507.573 554.145 503.599L579.732 468.738C580.756 467.343 582.204 466.317 583.86 465.815L655.64 444.054L705.993 428.06C709.123 427.066 711.327 424.261 711.552 420.985L714.161 383.061C714.234 382.007 714.097 380.95 713.759 379.949L709.644 367.783C709.637 367.762 709.633 367.739 709.633 367.717V367.679C709.633 367.585 709.557 367.509 709.463 367.509ZM685.792 499.088C685.806 499.073 685.791 499.048 685.771 499.054C682.645 500.012 679.518 500.911 676.333 501.81C679.483 500.904 682.633 499.999 685.783 499.093C685.786 499.092 685.789 499.09 685.792 499.088Z" fill="#F1F2F9" stroke="#F1F2F9" stroke-width="0.5" stroke-miterlimit="10"/>
<path fill-rule="evenodd" clip-rule="evenodd" d="M562.632 241.44C565.379 240.038 566.422 236.689 564.947 233.98C564.601 233.347 564.26 232.711 563.929 232.071C562.977 230.077 563.096 227.419 563.334 225.062C563.691 221.86 564.345 218.719 565.356 215.759C565.555 214.951 565.392 214.024 564.581 213.838L561.975 213.239C561.578 213.148 561.165 213.147 560.768 213.237L559.308 213.566C557.858 213.894 556.346 213.811 554.941 213.326L553.268 212.75C551.332 212.083 549.213 212.184 547.348 213.033L543.813 214.642C542.06 215.44 540.653 216.844 539.852 218.596L534.467 230.374C533.923 231.563 534.793 232.916 536.1 232.916C536.335 232.916 536.568 232.962 536.785 233.052L552.62 239.584C553.546 239.966 554.114 240.906 554.022 241.903C553.857 243.692 555.729 244.961 557.33 244.144L562.632 241.44Z" fill="#F1F2F9" stroke="#F1F2F9" stroke-width="0.5" stroke-miterlimit="10"/>
<path d="M377.01 140.548C376.92 140.306 376.623 140.217 376.414 140.369L341.078 162.559C338.919 163.914 336.244 164.157 333.876 163.213C333.258 162.967 332.674 162.645 332.136 162.253L329.373 160.243C328.825 159.844 328.217 159.534 327.572 159.326L325.362 158.612C323.46 157.997 322.339 156.033 322.777 154.083L322.569 155.042C322.285 156.355 321.462 157.489 320.301 158.167L320.133 158.265C319.604 158.574 319.154 159.001 318.818 159.513L317.919 160.882C317.833 161.014 317.691 161.1 317.534 161.116L316.621 161.209C316.609 161.21 316.6 161.197 316.605 161.186C316.613 161.17 316.637 161.178 316.634 161.196L316.243 163.469C316.238 163.494 316.237 163.52 316.238 163.546L316.355 165.876C316.394 166.669 316.316 167.463 316.122 168.232L316.063 168.464C315.902 169.104 315.82 169.762 315.82 170.421V175.781C315.82 176.534 315.46 177.242 314.852 177.686C314.262 178.117 313.905 178.796 313.885 179.526L313.694 186.358C313.685 186.675 313.477 186.952 313.175 187.048C312.902 187.134 312.702 187.37 312.662 187.654L312.604 188.069C312.568 188.324 312.603 188.583 312.704 188.82L313.746 191.262C314.362 192.704 314.54 194.295 314.259 195.837L313.662 199.111C313.555 199.7 313.525 200.299 313.574 200.895L313.842 204.21C313.888 204.775 313.61 205.317 313.125 205.61C312.628 205.908 312.35 206.467 312.41 207.043L312.634 209.191C312.696 209.783 312.649 210.381 312.496 210.956L311.073 216.303C310.869 217.067 310.793 217.86 310.846 218.649L310.9 219.436C310.967 220.428 310.722 221.416 310.2 222.261L310.18 222.294C309.671 223.117 309.432 224.078 309.497 225.043L309.624 226.946C309.631 227.059 309.59 227.169 309.511 227.25C309.438 227.324 309.398 227.423 309.398 227.527V228.053C309.398 228.238 309.367 228.421 309.308 228.595L307.971 232.513C307.892 232.744 307.86 232.988 307.876 233.231C307.931 234.08 308.558 234.78 309.395 234.93L328.901 238.422C331.44 238.876 334.042 238.079 335.89 236.28L338.595 233.648L345.06 227.266C346.305 226.037 347.919 225.25 349.654 225.025L359.393 223.766C359.836 223.709 360.267 223.583 360.671 223.394L360.704 223.378C362.199 222.677 363.154 221.175 363.154 219.525C363.154 218.539 363.495 217.585 364.121 216.823L366.723 213.655C369.169 210.676 369.144 206.377 366.662 203.427L357.266 192.259C353.606 187.908 355.525 181.234 360.938 179.493L377.075 174.302C378.508 173.841 379.782 172.985 380.75 171.833L385.328 166.385C385.441 166.25 385.62 166.188 385.792 166.225C386.16 166.304 386.47 165.945 386.339 165.593L377.01 140.548Z" fill="#E7EAF8" stroke="#F1F2F9" stroke-width="0.5" stroke-miterlimit="10"/>
<path d="M547.359 212.988C549.243 212.13 551.387 212.036 553.339 212.726L554.904 213.279C556.36 213.794 557.934 213.876 559.435 213.516L560.727 213.206C561.18 213.097 561.652 213.095 562.106 213.2C563.276 213.47 564.494 213.02 565.206 212.054L565.457 211.715C566.713 210.013 566.266 207.604 564.484 206.466L561.92 204.828C560.352 203.827 559.288 202.201 558.999 200.362L557.876 193.227C557.581 191.346 556.038 189.911 554.14 189.752C552.585 189.621 551.237 188.626 550.653 187.179L550.102 185.812C549.429 184.143 549.476 182.269 550.232 180.635L551.342 178.233C552.504 175.722 552.284 172.788 550.763 170.477L547.462 165.463C547.133 164.962 546.748 164.5 546.314 164.085L539.062 157.137C538.782 156.869 538.483 156.621 538.167 156.396L526.785 148.297C525.345 147.273 523.577 146.819 521.822 147.024C518.327 147.432 515.056 145.229 514.119 141.837L512.412 135.656C511.845 133.602 510.482 131.86 508.626 130.815L505.643 129.135C502.892 127.585 501.309 124.563 501.603 121.419L502.859 108.001C503.074 105.704 504.35 103.638 506.307 102.417C508.576 101.002 509.903 98.4731 509.78 95.8028L509.514 90.0456C509.471 89.1116 509.95 88.2309 510.757 87.759C512.654 86.6498 512.315 83.8117 510.21 83.1801L499.68 80.0207C498.593 79.6947 497.597 79.1196 496.772 78.3412L485.462 67.679C485.04 67.2816 484.68 66.8239 484.392 66.3209L477.249 53.8271C476.992 53.3785 476.316 53.4915 476.219 53.9991C476.175 54.2341 475.985 54.4142 475.748 54.4463L472.956 54.8244C471.193 55.0632 469.515 53.9926 468.989 52.2928C468.405 50.4035 466.419 49.3264 464.517 49.8669L462.729 50.3747C461.557 50.7078 460.307 50.6451 459.174 50.1963L456.139 48.9943C454.682 48.4171 453.087 48.2808 451.553 48.6023L442.081 50.5871C441.131 50.7863 440.225 51.1568 439.407 51.6805L436.493 53.5471C435.63 54.1002 434.934 54.8788 434.481 55.7988L433.221 58.3591C432.896 59.0198 432.182 59.3957 431.454 59.2899C430.914 59.2117 430.37 59.3972 429.99 59.7886L428.201 61.6342C427.243 62.6225 426.005 63.2932 424.654 63.5557L422.618 63.951C420.119 64.4365 418 66.0829 416.911 68.3848L415.782 70.7725C415.277 71.8415 415.015 73.0094 415.015 74.1919V75.4529C415.015 76.5839 415.255 77.702 415.718 78.7334L418.427 84.7583C419.072 86.1914 419.28 87.7826 419.025 89.3333L418.757 90.9715C418.681 91.4349 418.564 91.8908 418.408 92.3338L416.806 96.8831C416.297 98.3294 416.217 99.8922 416.577 101.383C416.724 101.993 416.799 102.618 416.799 103.246V104.817C416.799 106.444 416.303 108.032 415.376 109.37L412.629 113.339C412.122 114.071 411.497 114.713 410.779 115.239L381.779 136.484C378.892 138.6 377.761 142.376 379.01 145.73L386.307 165.318C386.481 165.787 386.069 166.264 385.58 166.159L402.035 169.055C403.182 169.256 404.271 169.706 405.226 170.372L494.75 232.827C496.182 233.826 497.901 234.329 499.645 234.26L536.5 232.796C535.041 232.824 534.053 231.318 534.66 229.99L539.897 218.536C540.698 216.784 542.104 215.38 543.858 214.582L547.359 212.988Z" fill="#E7EAF8" stroke="#F1F2F9" stroke-width="0.5"/>
<path fill-rule="evenodd" clip-rule="evenodd" d="M388.634 466.281C383.639 462.294 378.703 458.367 373.649 454.379C369.605 451.177 367.465 446.888 367.286 441.934C366.81 428.099 362.648 415.11 360.269 401.638C359.607 397.936 358.426 394.674 356.886 391.667C355.637 389.229 353.02 387.878 350.281 387.901L130.604 389.785C126.044 389.824 122.439 393.662 122.684 398.216L123.917 421.085C124.142 425.251 121.128 428.89 116.993 429.445L111.532 430.178C107.525 430.716 104.549 434.158 104.597 438.201L105.477 512.773C105.506 515.245 104.172 517.531 102.007 518.723C100.594 519.501 98.947 519.742 97.3697 519.404L94.4458 518.776C93.1919 518.506 91.8829 518.699 90.7593 519.317C88.4722 520.576 87.4344 523.306 88.3081 525.766L88.357 525.904C88.6953 526.856 88.7645 527.883 88.557 528.873L87.8775 532.112C87.5209 533.811 86.6211 535.349 85.3139 536.492L80.0737 541.074L78.8946 542.115C77.3251 543.5 76.3612 545.445 76.2096 547.533L76.0343 549.948C75.9531 551.068 75.6372 552.158 75.1071 553.147L74.4684 554.339C73.7411 555.697 73.4211 557.236 73.5469 558.771L73.7513 561.263C73.803 561.895 73.9732 562.511 74.253 563.079C75.2371 565.079 74.7928 567.487 73.16 569.003L70.8892 571.113C70.0833 571.861 69.4405 572.768 69.0008 573.776L68.0631 575.926C67.7549 576.633 67.7052 577.426 67.9228 578.166L68.1262 578.857C68.6335 580.582 70.6391 581.354 72.1722 580.416C73.4042 579.662 75.01 579.998 75.837 581.182L76.1683 581.656C76.6879 582.4 76.8831 583.323 76.7091 584.214L75.8641 588.539C75.5836 589.975 75.7022 591.461 76.207 592.834L78.0812 597.932C78.752 599.757 80.0644 601.275 81.7731 602.202L85.622 604.292C86.395 604.712 86.8195 605.573 86.6814 606.442L85.7 612.615C85.6886 612.687 85.7761 612.731 85.8272 612.68C85.8633 612.643 85.9248 612.653 85.9476 612.699L86.6223 614.07C86.6567 614.14 86.6841 614.213 86.7038 614.289L87.2688 616.452C87.3868 616.904 87.4231 617.373 87.3762 617.838C87.2694 618.895 87.5959 619.95 88.281 620.762L90.0636 622.875L95.7562 630.862C96.1223 631.375 96.4264 631.93 96.6621 632.516L100.007 640.819C100.655 642.426 100.763 644.2 100.315 645.874L98.7009 651.913C98.4938 652.688 98.4043 653.49 98.4356 654.291L98.5909 658.271C98.6141 658.867 98.808 659.444 99.1494 659.932C99.6496 660.649 100.428 661.122 101.294 661.236L104.395 661.646C105.311 661.767 106.22 661.378 106.766 660.632C107.187 660.056 107.832 659.685 108.541 659.61L110.706 659.383C111.868 659.261 113.002 659.801 113.639 660.781L114.166 661.592C114.482 662.079 114.498 662.702 114.206 663.204C114.015 663.533 113.952 663.921 114.03 664.293L114.313 665.641C114.551 666.78 115.171 667.803 116.069 668.544L116.709 669.071C117.452 669.683 118.305 670.147 119.223 670.436L123.78 671.871L125.229 672.305C126.613 672.72 127.751 673.712 128.352 675.026C128.745 675.885 129.372 676.616 130.162 677.135L130.658 677.46C131.414 677.956 132.275 678.266 133.173 678.364L134.537 678.514C135.581 678.629 136.5 679.257 136.986 680.188C137.467 681.108 137.463 682.206 136.977 683.123L135.673 685.585L134.853 686.799C133.694 688.517 134.007 690.831 135.582 692.178C135.995 692.532 136.475 692.799 136.993 692.964L139.422 693.74C140.052 693.941 140.704 694.063 141.364 694.104L142.909 694.199C143.826 694.256 144.727 694.47 145.571 694.832L150.614 696.995C151.727 697.473 152.67 698.275 153.32 699.297C153.875 700.17 154.195 701.171 154.25 702.203L154.408 705.159C154.444 705.834 154.64 706.491 154.98 707.075C155.631 708.193 156.754 708.956 158.034 709.148L158.822 709.266C159.354 709.346 159.853 709.574 160.261 709.925C160.85 710.431 161.207 711.155 161.251 711.931L161.28 712.441C161.366 713.976 162.313 715.331 163.726 715.939L166.891 717.302L171.248 719.93C172.065 720.423 172.502 721.363 172.352 722.305C172.319 722.513 172.314 722.725 172.338 722.934L172.698 726.142C172.939 728.292 174.041 730.253 175.753 731.577L179.109 734.174C179.393 734.394 179.567 734.727 179.583 735.086C179.626 736.009 178.672 736.644 177.837 736.251L173.016 733.977L177.978 736.321C179.171 736.884 180.206 737.733 180.991 738.793L183.463 742.131C184.142 743.048 185.009 743.809 186.006 744.363L192.318 747.87C194.573 749.123 197.293 749.211 199.625 748.108L201.032 747.443C202.754 746.628 204.71 746.455 206.548 746.954L207.615 747.243C210.053 747.905 212.661 747.376 214.648 745.817L215.571 745.093C215.981 744.772 216.421 744.491 216.886 744.255L219.582 742.885C220.768 742.283 222.13 742.127 223.421 742.445C224.808 742.787 226.01 743.652 226.775 744.858L230.316 750.442C230.958 751.454 231.82 752.31 232.837 752.945L235.593 754.664C237.193 755.662 238.389 757.193 238.97 758.986L240.313 763.133C240.83 764.729 242.233 765.875 243.9 766.064L248.475 766.58C248.571 766.591 248.655 766.516 248.655 766.419L248.393 764.477C248.188 762.955 248.829 761.442 250.064 760.531C251.124 759.75 252.489 759.51 253.752 759.883L258.844 761.389C259.423 761.56 260.019 761.665 260.621 761.701L263.77 761.891C264.959 761.963 265.997 762.721 266.426 763.832C266.802 764.804 267.646 765.519 268.677 765.674C270.674 765.973 273.805 766.292 274.046 765.392C274.717 762.894 277.1 761.283 279.685 761.189L283.016 761.069C283.497 761.051 283.975 760.99 284.445 760.887L292.06 759.211C292.733 759.063 293.423 759.003 294.113 759.032L298.236 759.204C300.479 759.297 302.658 758.444 304.241 756.852L307.004 754.075C307.31 753.767 307.658 753.506 308.038 753.298L311.137 751.603C311.249 751.541 311.301 751.409 311.261 751.287C311.231 751.193 311.255 751.09 311.324 751.019L319.103 743.061C319.539 742.615 320.107 742.322 320.723 742.226C321.589 742.091 322.347 741.569 322.783 740.808L324.387 738.01C324.68 737.498 325.03 737.019 325.429 736.584L329.82 731.792C331.706 729.734 332.383 726.843 331.607 724.162L330.054 718.799C329.94 718.406 329.857 718.005 329.804 717.599L329.376 714.284C329.201 712.935 328.686 711.653 327.878 710.559L322.156 702.807C321.36 701.728 320.14 701.041 318.805 700.917C317.631 700.809 316.54 700.263 315.749 699.389L312.697 696.012C312.42 695.707 312.168 695.38 311.942 695.036L306.811 687.216L303.331 682.681C302.055 681.019 300.177 679.923 298.102 679.63L294.155 679.073C293.261 678.947 292.434 678.53 291.801 677.887C290.514 676.579 290.25 674.576 291.155 672.979L292.777 670.119L294.613 667.726C295.163 667.011 296.075 666.675 296.957 666.866C297.298 666.939 297.651 666.935 297.991 666.854L301.655 665.978C302.231 665.84 302.83 665.829 303.411 665.945C305.211 666.305 307.03 665.425 307.864 663.79L310.635 658.359C311.209 657.233 311.509 655.988 311.509 654.724V645.821C311.509 644.596 311.79 643.388 312.331 642.289L314.498 637.886C315.332 636.19 315.539 634.254 315.082 632.42L314.838 631.439C314.681 630.807 314.601 630.157 314.601 629.505V628.591C314.601 626.731 315.248 624.93 316.432 623.497L319.643 619.608C320.196 618.939 320.922 618.436 321.742 618.154C323.159 617.665 324.259 616.532 324.705 615.101L329.898 598.426C330.381 596.875 331.496 595.6 332.969 594.914C334.238 594.323 335.248 593.29 335.812 592.009L338.446 586.022L341.363 579.826C342 578.472 343.216 577.478 344.67 577.123C346.18 576.754 347.43 575.697 348.045 574.269L353.244 562.196C353.565 561.45 353.771 560.66 353.854 559.853L354.481 553.773C354.495 553.645 354.52 553.517 354.558 553.394L356.293 547.722C356.327 547.609 356.486 547.607 356.523 547.72L353.477 536.352C353.328 535.796 353.239 535.226 353.213 534.651L353.12 532.645C353.052 531.183 353.506 529.745 354.4 528.586C355.051 527.743 355.473 526.745 355.624 525.69L355.631 525.641C355.749 524.821 356.026 524.032 356.446 523.318L358.058 520.579C358.729 519.438 359.107 518.149 359.157 516.827L359.266 513.978C359.3 513.078 359.486 512.191 359.816 511.353L361.934 505.973L363.078 503.403C363.586 502.261 363.458 500.937 362.741 499.913C362.085 498.976 361.919 497.782 362.294 496.701L363.271 493.89C363.41 493.489 363.497 493.072 363.53 492.649L363.587 491.906C363.67 490.834 364.249 489.863 365.152 489.281C365.802 488.862 366.575 488.675 367.346 488.75L368.605 488.873C369.691 488.979 370.691 488.271 370.951 487.211L370.967 487.148C371.086 486.666 371.023 486.156 370.791 485.717C370.268 484.726 370.648 483.499 371.64 482.977L374.897 481.264L377.606 480.297C378.72 479.899 379.728 479.256 380.557 478.413C381.599 477.355 382.92 476.614 384.366 476.278L385.826 475.938C387.14 475.632 388.305 474.873 389.115 473.794L389.179 473.708C390.925 471.383 390.611 468.111 388.455 466.16L388.634 466.281Z" fill="#F1F2F9" stroke="#F1F2F9" stroke-width="0.5" stroke-miterlimit="10"/>
<path fill-rule="evenodd" clip-rule="evenodd" d="M-88.0424 569.667C-88.0186 569.697 -87.9972 569.729 -87.9781 569.762L-85.7409 573.683C-85.72 573.72 -85.6641 573.699 -85.6723 573.658C-85.6784 573.627 -85.6452 573.603 -85.6176 573.618L-77.737 578.079C-77.4881 578.22 -77.2543 578.386 -77.0392 578.574L-74.281 580.99C-72.9263 582.176 -72.0116 583.785 -71.6848 585.556L-71.3052 587.613C-71.1816 588.283 -70.973 588.934 -70.6843 589.551L-68.2645 594.723L-67.0722 597.596C-66.4916 598.995 -66.3201 600.53 -66.5775 602.023L-66.8971 603.875C-67.0913 605.001 -66.9668 606.159 -66.5377 607.218C-66.1494 608.176 -66.0099 609.218 -66.1323 610.245L-66.2464 611.201C-66.3617 612.168 -66.6716 613.102 -67.1576 613.946C-67.8789 615.199 -68.207 616.639 -68.0996 618.081L-68.087 618.25C-68.008 619.309 -67.7125 620.341 -67.2188 621.282L-65.1084 625.302C-64.8052 625.879 -64.2981 626.324 -63.6856 626.548C-62.9343 626.824 -62.3493 627.427 -62.0963 628.186L-61.6534 629.516C-61.3495 630.428 -60.7938 631.235 -60.0506 631.845L-56.3931 634.845C-55.5558 635.532 -55.623 636.833 -56.5267 637.43C-56.8842 637.666 -57.321 637.75 -57.7404 637.663L-63.6207 636.439C-64.2956 636.299 -64.9858 636.247 -65.6741 636.283L-73.0279 636.674C-73.4987 636.699 -73.9708 636.682 -74.4386 636.624L-77.8013 636.206C-80.2502 635.902 -82.5786 637.351 -83.3871 639.683C-83.6865 640.546 -83.7544 641.473 -83.5838 642.372L-83.0149 645.367C-82.7035 647.006 -81.8871 648.508 -80.6799 649.66L-78.0462 652.175C-77.7495 652.458 -77.4314 652.718 -77.0948 652.953L-73.9066 655.174C-73.5945 655.391 -73.2983 655.63 -73.0203 655.89L-64.6373 663.716L-60.6571 667.76C-60.1808 668.244 -59.768 668.787 -59.4288 669.375L-55.2352 676.646C-54.7291 677.524 -54.3942 678.489 -54.2485 679.492L-53.696 683.291C-53.7327 682.937 -53.2919 682.746 -53.0587 683.015L-51.7634 684.509C-51.6655 684.622 -51.5944 684.755 -51.5557 684.9L-51.3911 685.513C-50.9058 687.321 -49.1608 688.494 -47.3033 688.26L-44.3006 687.882L-40.6784 687.362C-39.4805 687.19 -38.3743 686.623 -37.5353 685.751C-36.716 684.9 -36.1967 683.804 -36.0563 682.63L-35.7779 680.304C-35.7513 680.081 -35.6915 679.864 -35.6007 679.659L-35.4251 679.262C-35.0093 678.323 -33.903 677.91 -32.9734 678.346C-32.5704 678.535 -32.2501 678.864 -32.0722 679.272L-30.3597 683.199C-30.2981 683.34 -30.2234 683.476 -30.1367 683.603C-29.5688 684.436 -28.5514 684.841 -27.5662 684.626L-26.1477 684.315C-25.6079 684.197 -25.0937 683.983 -24.6294 683.683L-19.6228 680.451L-15.1805 677.872C-14.8127 677.659 -14.4285 677.475 -14.0315 677.322L-7.71378 674.896C-7.28929 674.733 -6.85166 674.607 -6.40567 674.518L-2.37755 673.718C-1.86394 673.615 -1.34154 673.564 -0.817871 673.564H3.97203C5.50926 673.564 6.9512 672.819 7.84081 671.565C8.1226 671.168 8.46384 670.817 8.85255 670.524L13.4136 667.083C13.9603 666.67 14.3075 666.046 14.3699 665.364C14.4553 664.432 13.9968 663.533 13.1915 663.054L12.4609 662.62C11.7456 662.195 11.1908 661.546 10.8824 660.773L10.2653 659.226C9.83184 658.14 9.95318 656.911 10.5907 655.93C11.2548 654.908 12.3907 654.292 13.6092 654.292H14.5097L18.1488 654.069C19.0075 654.017 19.8691 654.103 20.7004 654.325L24.9468 655.458C25.9475 655.725 26.9904 655.796 28.0179 655.665L34.5491 654.836L38.8797 654.271C40.2884 654.087 41.6227 653.531 42.7456 652.661L46.0617 650.091C46.5497 649.712 46.9716 649.256 47.3104 648.74C47.9815 647.717 48.2984 646.502 48.2127 645.282L48.1909 644.971C48.0976 643.645 48.4128 642.322 49.094 641.18L49.8138 639.973C50.2197 639.293 50.5222 638.556 50.7115 637.786L50.8205 637.344C51.069 636.333 51.5626 635.4 52.2576 634.626L53.0775 633.713C53.8447 632.859 54.9587 632.4 56.1052 632.465C57.5736 632.549 58.9575 631.774 59.6521 630.477L60.6272 628.657C60.9209 628.109 61.2986 627.605 61.7413 627.168C62.6542 626.267 63.2699 625.097 63.4904 623.833C63.8033 622.04 64.8934 620.476 66.4682 619.561L71.8363 616.445C72.9638 615.79 74.2444 615.446 75.5481 615.446H75.8824C76.586 615.446 77.2834 615.578 77.9384 615.835C78.997 616.25 80.1567 616.335 81.2646 616.079L81.3319 616.063C82.3917 615.817 83.362 615.281 84.1338 614.514L84.1897 614.459C85.1244 613.53 85.7348 612.325 85.9305 611.023L86.0107 610.489C86.4954 607.263 84.909 604.078 82.0418 602.522L81.7003 602.336C79.979 601.402 78.6604 599.868 77.9942 598.027L76.1541 592.939C75.6613 591.576 75.5478 590.106 75.8256 588.684L76.6759 584.331C76.8493 583.444 76.6548 582.524 76.1369 581.783L75.7997 581.3C74.9756 580.12 73.3733 579.79 72.1496 580.547C70.6375 581.483 68.6488 580.734 68.1293 579.033L67.9075 578.308C67.6779 577.556 67.7244 576.747 68.0385 576.027L68.9752 573.879C69.4093 572.883 70.0415 571.987 70.8333 571.244L73.1422 569.077C74.767 567.552 75.2047 565.144 74.2206 563.145C73.9397 562.574 73.7687 561.955 73.7168 561.321L73.5128 558.833C73.3869 557.298 73.7069 555.759 74.4343 554.401L75.0729 553.209C75.603 552.22 75.9189 551.13 76.0001 550.01L76.1727 547.633C76.3259 545.523 77.3086 543.559 78.906 542.172L80.0986 541.136L85.3392 536.554C86.6464 535.411 87.5463 533.873 87.9028 532.174L88.5823 528.934C88.7898 527.945 88.7206 526.918 88.3823 525.966L88.3335 525.828C87.4597 523.368 88.4976 520.637 90.7847 519.379C91.9082 518.761 93.2171 518.568 94.471 518.838L97.3954 519.466C98.9725 519.805 100.619 519.563 102.032 518.785C104.197 517.593 105.531 515.306 105.501 512.835L104.656 443.337C104.62 440.391 102.968 437.703 100.355 436.34L-49.315 358.296C-51.4133 357.202 -53.8883 357.093 -56.0747 357.999L-67.2015 362.607C-71.2506 364.283 -73.1968 368.906 -71.5666 372.974L-67.7295 382.549L-64.5041 395.657C-64.2396 396.732 -64.2214 397.852 -64.4507 398.935C-64.8732 400.929 -64.4477 403.01 -63.276 404.679L-53.3817 418.77C-52.5372 419.973 -52.0403 421.385 -51.9456 422.852L-51.792 425.231C-51.6801 426.965 -52.3771 428.653 -53.6797 429.803C-54.6876 430.693 -55.3428 431.914 -55.5265 433.246L-60.4155 468.699V493.19C-60.4155 495.123 -61.1154 496.99 -62.3856 498.447L-91.7214 532.094C-92.3587 532.825 -93.2211 533.323 -94.1727 533.51C-96.3262 533.933 -97.8318 535.887 -97.6905 538.077L-96.4919 556.658C-96.3877 558.274 -95.7955 559.82 -94.7938 561.093L-88.0424 569.667Z" fill="#F1F2F9" stroke="#F1F2F9" stroke-width="0.5" stroke-miterlimit="10"/>
<path fill-rule="evenodd" clip-rule="evenodd" d="M122.823 404.006C122.825 404.038 122.851 404.063 122.882 404.063C122.916 404.063 122.943 404.034 122.942 404L122.172 389.926L122.823 404.006Z" fill="#F1F2F9" stroke="#F1F2F9" stroke-width="0.5" stroke-miterlimit="10"/>
<path fill-rule="evenodd" clip-rule="evenodd" d="M339.75 373.557C339.75 373.584 339.722 373.6 339.699 373.587C337.684 372.403 335.098 372.034 333.388 370.536C331.663 369.086 330.355 366.851 329.522 364.676C328.69 362.501 328.096 359.903 328.333 357.608C329.166 349.089 326.728 341.96 321.435 335.436C318.938 332.354 317.392 328.548 315.251 325.165C305.856 310.303 296.044 295.683 291.882 278.042C291.168 275.021 289.087 272.303 287.719 269.403C286.589 267.047 288.135 264.63 290.93 264.63C294.082 264.63 297.293 265.597 299.909 263.059C300.203 262.776 300.5 262.493 300.802 262.213C302.545 260.597 303.864 258.492 304.123 256.13L306.432 235.016C306.474 234.632 306.835 234.366 307.214 234.44C307.64 234.523 308.028 234.181 308 233.749L307.953 233.033C307.942 232.874 307.963 232.714 308.015 232.563L309.463 228.319C309.476 228.28 309.483 228.24 309.483 228.199C309.483 227.868 309.081 227.703 308.848 227.939L308.146 228.652C307.76 229.044 307.1 228.924 306.877 228.421L305.17 224.576C304.807 223.758 304.758 222.836 305.031 221.985L305.441 220.706C306.012 218.926 305.865 216.994 305.032 215.321L301.277 207.78L296.75 201.01C296.244 200.253 295.87 199.415 295.646 198.531L294.395 193.601C294.149 192.631 293.723 191.716 293.139 190.903L290.761 187.591C290.482 187.202 290.109 186.889 289.677 186.683L288.248 185.999C287.265 185.53 287.002 184.253 287.719 183.433C285.638 186.031 283.2 188.206 279.87 188.267C268.096 188.508 256.262 190.441 244.786 185.367C240.623 183.494 235.569 183.615 230.871 183.252C220.287 182.406 210.535 185.427 201.555 190.925C197.274 193.583 192.814 193.885 187.878 192.798C170.931 189.112 154.162 184.219 136.858 182.225C130.636 181.503 123.763 180.78 118.655 177.546C118.62 177.524 118.582 177.505 118.545 177.489C118.136 177.318 117.645 177.502 117.516 177.925L113.828 190.029C113.374 191.52 113.365 193.111 113.803 194.607L114.569 197.225C114.914 198.406 114.983 199.651 114.769 200.862L113.132 210.136L112.043 214.604C111.743 215.837 111.74 217.124 112.035 218.358L114.917 230.421C115.035 230.913 115.106 231.415 115.128 231.921L121.883 382.102C122.077 386.403 125.639 389.779 129.944 389.742L344.153 387.905C348.723 387.866 351.289 382.88 347.97 379.738C345.544 377.442 342.819 375.372 339.802 373.528C339.78 373.515 339.75 373.531 339.75 373.557ZM267.382 238.35C267.187 238.317 266.973 238.265 266.771 238.216C266.568 238.166 266.487 237.913 266.626 237.757C266.757 237.61 266.995 237.649 267.082 237.826C267.192 238.046 267.258 238.14 267.382 238.35C267.858 238.471 268.334 238.531 268.334 238.652C268.334 239.739 267.977 239.437 267.382 238.35ZM278.502 250.735C279.016 251.517 276.999 252.121 276.36 251.437C276.296 251.368 276.237 251.296 276.183 251.218C275.741 250.469 277.435 249.914 278.15 250.408C278.291 250.505 278.412 250.612 278.502 250.735Z" fill="#E7EAF8"/>
<path d="M267.382 238.35C267.187 238.317 266.973 238.265 266.771 238.216C266.568 238.166 266.487 237.913 266.626 237.757V237.757C266.757 237.61 266.995 237.649 267.082 237.826C267.192 238.046 267.258 238.14 267.382 238.35ZM267.382 238.35C267.858 238.471 268.334 238.531 268.334 238.652C268.334 239.739 267.977 239.437 267.382 238.35ZM333.388 370.536C335.098 372.034 337.684 372.403 339.699 373.587C339.722 373.6 339.75 373.584 339.75 373.557V373.557C339.75 373.531 339.78 373.515 339.802 373.528C342.819 375.372 345.544 377.442 347.97 379.738C351.289 382.88 348.723 387.866 344.153 387.905L129.944 389.742C125.639 389.779 122.077 386.403 121.883 382.102L115.128 231.921C115.106 231.415 115.035 230.913 114.917 230.421L112.035 218.358C111.74 217.124 111.743 215.837 112.043 214.604L113.132 210.136L114.769 200.862C114.983 199.651 114.914 198.406 114.569 197.225L113.803 194.607C113.365 193.111 113.374 191.52 113.828 190.029L117.516 177.925C117.645 177.502 118.136 177.318 118.545 177.489V177.489C118.582 177.505 118.62 177.524 118.655 177.546C123.763 180.78 130.636 181.503 136.858 182.225C154.162 184.219 170.931 189.112 187.878 192.798C192.814 193.885 197.274 193.583 201.555 190.925C210.535 185.427 220.287 182.406 230.871 183.252C235.569 183.615 240.623 183.494 244.786 185.367C256.262 190.441 268.096 188.508 279.87 188.267C283.2 188.206 285.638 186.031 287.719 183.433V183.433C287.002 184.253 287.265 185.53 288.248 185.999L289.677 186.683C290.109 186.889 290.482 187.202 290.761 187.591L293.139 190.903C293.723 191.716 294.149 192.631 294.395 193.601L295.646 198.531C295.87 199.415 296.244 200.253 296.75 201.01L301.277 207.78L305.032 215.321C305.865 216.994 306.012 218.926 305.441 220.706L305.031 221.985C304.758 222.836 304.807 223.758 305.17 224.576L306.877 228.421C307.1 228.924 307.76 229.044 308.147 228.652L308.848 227.939C309.081 227.703 309.483 227.868 309.483 228.199V228.199C309.483 228.24 309.476 228.28 309.463 228.319L308.015 232.563C307.963 232.714 307.942 232.874 307.953 233.033L308 233.749C308.028 234.181 307.64 234.523 307.214 234.44V234.44C306.835 234.366 306.474 234.632 306.432 235.016L304.123 256.13C303.864 258.492 302.545 260.597 300.802 262.213C300.5 262.492 300.203 262.776 299.909 263.059C297.293 265.597 294.082 264.63 290.93 264.63C288.135 264.63 286.589 267.047 287.719 269.403C289.087 272.303 291.168 275.021 291.882 278.042C296.044 295.683 305.856 310.303 315.251 325.165C317.392 328.548 318.938 332.354 321.435 335.436C326.728 341.96 329.166 349.089 328.333 357.608C328.096 359.903 328.69 362.501 329.522 364.676C330.355 366.851 331.663 369.086 333.388 370.536ZM276.183 251.218C276.237 251.296 276.296 251.368 276.36 251.437C276.999 252.121 279.016 251.517 278.502 250.735V250.735C278.412 250.612 278.291 250.505 278.15 250.408C277.435 249.914 275.741 250.469 276.183 251.218V251.218Z" stroke="#F1F2F9" stroke-width="0.5" stroke-miterlimit="10"/>
<path fill-rule="evenodd" clip-rule="evenodd" d="M122.23 389.934L123 404.009C123.002 404.042 122.975 404.071 122.941 404.071C122.909 404.071 122.883 404.046 122.882 404.014L122.23 389.934L115.129 232.046C115.106 231.541 115.035 231.038 114.918 230.546L112.035 218.483C111.74 217.249 111.743 215.962 112.044 214.73L113.132 210.262L114.769 200.988C114.983 199.776 114.915 198.531 114.569 197.351L113.803 194.732C113.366 193.237 113.374 191.646 113.829 190.155L117.498 178.109C117.643 177.635 118.18 177.38 118.603 177.638C110.813 172.684 102.429 171.415 93.8658 170.026C86.6706 168.818 80.2485 166.28 74.9561 160.783C72.8749 158.608 69.7233 156.977 66.75 156.312C53.3111 153.17 40.0505 153.654 27.3252 159.695C19.1786 163.562 12.0429 175.826 15.0755 185.975C15.9675 189.057 17.2165 192.017 17.9301 195.158C18.6437 198.481 17.5136 201.502 15.4919 204.1C14.0647 205.973 12.4593 207.845 10.7943 209.476C6.51286 213.585 -0.0283661 214.551 -4.60712 211.772C-7.283 210.081 -9.78018 208.147 -12.4561 206.335C-16.3807 203.616 -20.1273 200.656 -24.2898 198.421C-34.1014 193.104 -44.3292 188.996 -55.8058 189.177C-60.9792 189.177 -64.7253 186.157 -66.8661 181.384C-68.1743 178.484 -69.1852 175.403 -70.2556 172.443C-71.98 167.61 -75.2506 164.287 -79.9483 162.595C-93.3872 157.581 -107.005 153.352 -121.573 155.104C-129.948 156.069 -136.958 152.333 -144.263 149.314C-144.28 149.307 -144.297 149.302 -144.314 149.297C-144.609 149.21 -144.889 149.354 -144.849 149.659L-143.47 160.215C-143.27 161.743 -143.666 163.289 -144.575 164.532L-146.83 167.616C-147.468 168.489 -148.276 169.223 -149.206 169.774L-154.181 172.726C-155.782 173.675 -157.001 175.153 -157.629 176.904L-158.487 179.293C-158.654 179.759 -158.877 180.203 -159.15 180.616L-159.382 180.966C-160.289 182.335 -161.778 183.208 -163.415 183.33C-166.079 183.53 -168.181 185.678 -168.323 188.346L-168.609 193.708L-169.425 200.566C-169.592 201.97 -170.128 203.305 -170.978 204.434L-175.996 211.097C-176.304 211.506 -176.652 211.883 -177.036 212.221C-178.941 213.903 -179.878 216.427 -179.533 218.945L-179.383 220.043C-179.182 221.507 -178.571 222.885 -177.621 224.018C-176.556 225.286 -175.921 226.86 -175.806 228.512L-174.913 241.315L-175.368 256.154C-175.42 257.857 -174.927 259.531 -173.962 260.934L-173.155 262.107C-171.651 264.292 -171.329 267.081 -172.294 269.553L-173.082 271.571C-173.581 272.846 -173.743 274.228 -173.555 275.584L-172.447 283.545C-172.347 284.266 -172.346 284.998 -172.443 285.719L-172.999 289.828C-173.23 291.538 -174.258 293.037 -175.77 293.869L-176.535 294.29C-178.063 295.131 -178.909 296.831 -178.659 298.557C-178.58 299.096 -178.398 299.614 -178.121 300.083L-172.71 309.245C-172.435 309.711 -172.208 310.203 -172.032 310.715L-169.204 318.947L-167.123 325.834L-165.219 332.22C-164.442 334.829 -162.39 336.864 -159.774 337.62L-157.486 338.282C-156.935 338.441 -156.368 338.541 -155.796 338.579L-151.865 338.841C-150.261 338.947 -148.726 339.535 -147.46 340.528L-143.614 343.545C-142.958 344.059 -142.386 344.673 -141.92 345.364L-133.009 358.566C-131.853 360.28 -130.077 361.479 -128.056 361.913L-98.5304 368.244C-97.4202 368.483 -96.3918 369.007 -95.5478 369.767C-93.7768 371.361 -91.2753 371.857 -89.0301 371.06L-74.4833 365.894C-74.3808 365.858 -74.3262 365.746 -74.3601 365.643C-74.3928 365.543 -74.3431 365.435 -74.246 365.395L-55.9767 357.88C-53.7947 356.983 -51.3278 357.094 -49.2355 358.184L100.513 436.239C103.121 437.599 104.773 440.281 104.814 443.222L104.926 451.315L104.771 438.096C104.724 434.054 107.7 430.611 111.706 430.074L117.168 429.34C121.303 428.785 124.317 425.146 124.092 420.981L122.423 390.007C122.417 389.909 122.299 389.864 122.23 389.934Z" fill="#F1F2F9"/>
<path d="M122.23 389.934L123 404.009C123.002 404.042 122.975 404.071 122.941 404.071V404.071C122.909 404.071 122.883 404.046 122.882 404.014L122.23 389.934ZM122.23 389.934L115.129 232.046C115.106 231.541 115.035 231.038 114.918 230.546L112.035 218.483C111.74 217.249 111.743 215.962 112.044 214.73L113.132 210.262L114.769 200.988C114.983 199.776 114.915 198.531 114.569 197.351L113.803 194.732C113.366 193.237 113.374 191.646 113.829 190.155L117.498 178.109C117.643 177.635 118.18 177.38 118.603 177.638V177.638C110.813 172.684 102.429 171.415 93.8657 170.026C86.6706 168.818 80.2485 166.28 74.9561 160.783C72.8749 158.608 69.7233 156.977 66.75 156.312C53.3111 153.17 40.0505 153.654 27.3252 159.695C19.1786 163.562 12.0429 175.826 15.0756 185.975C15.9675 189.057 17.2165 192.017 17.9301 195.158C18.6437 198.481 17.5136 201.502 15.4918 204.1C14.0647 205.973 12.4593 207.845 10.7943 209.476C6.51287 213.585 -0.0283647 214.551 -4.60712 211.772C-7.28301 210.081 -9.78019 208.147 -12.4561 206.335C-16.3807 203.616 -20.1273 200.656 -24.2898 198.421C-34.1014 193.104 -44.3292 188.996 -55.8058 189.177C-60.9792 189.177 -64.7253 186.157 -66.8661 181.384C-68.1743 178.484 -69.1852 175.403 -70.2556 172.443C-71.98 167.61 -75.2506 164.287 -79.9483 162.595C-93.3872 157.581 -107.005 153.352 -121.573 155.104C-129.948 156.069 -136.958 152.333 -144.263 149.314C-144.28 149.307 -144.297 149.302 -144.314 149.297V149.297C-144.609 149.21 -144.889 149.354 -144.849 149.659L-143.47 160.215C-143.27 161.743 -143.666 163.289 -144.575 164.532L-146.83 167.616C-147.468 168.489 -148.276 169.223 -149.206 169.774L-154.181 172.726C-155.782 173.675 -157.001 175.153 -157.629 176.904L-158.487 179.293C-158.654 179.759 -158.877 180.203 -159.15 180.616L-159.382 180.966C-160.289 182.335 -161.778 183.208 -163.415 183.33V183.33C-166.079 183.53 -168.181 185.678 -168.323 188.346L-168.609 193.708L-169.425 200.566C-169.592 201.97 -170.128 203.305 -170.978 204.434L-175.996 211.097C-176.304 211.506 -176.652 211.883 -177.036 212.221V212.221C-178.941 213.903 -179.878 216.427 -179.533 218.945L-179.383 220.043C-179.182 221.507 -178.571 222.885 -177.621 224.018V224.018C-176.556 225.286 -175.921 226.86 -175.806 228.512L-174.913 241.315L-175.368 256.154C-175.42 257.857 -174.927 259.531 -173.962 260.934L-173.155 262.107C-171.651 264.292 -171.329 267.081 -172.294 269.553L-173.082 271.571C-173.581 272.846 -173.743 274.228 -173.555 275.584L-172.447 283.545C-172.347 284.266 -172.346 284.998 -172.443 285.719L-172.999 289.828C-173.23 291.538 -174.258 293.037 -175.77 293.869L-176.535 294.29C-178.063 295.131 -178.909 296.831 -178.659 298.557V298.557C-178.58 299.096 -178.398 299.614 -178.121 300.083L-172.71 309.245C-172.435 309.711 -172.208 310.203 -172.032 310.715L-169.204 318.947L-167.123 325.834L-165.219 332.22C-164.442 334.829 -162.39 336.864 -159.774 337.62L-157.486 338.282C-156.935 338.441 -156.368 338.541 -155.796 338.579L-151.865 338.841C-150.261 338.947 -148.726 339.535 -147.46 340.528L-143.614 343.545C-142.958 344.059 -142.386 344.673 -141.92 345.364L-133.009 358.566C-131.853 360.28 -130.077 361.479 -128.056 361.913L-98.5304 368.244C-97.4202 368.483 -96.3918 369.007 -95.5478 369.767V369.767C-93.7768 371.361 -91.2753 371.857 -89.0301 371.06L-74.4833 365.894C-74.3808 365.858 -74.3262 365.746 -74.3601 365.643V365.643C-74.3928 365.543 -74.3431 365.435 -74.2461 365.395L-55.9767 357.88C-53.7947 356.983 -51.3278 357.094 -49.2355 358.184L100.513 436.239C103.121 437.599 104.773 440.281 104.814 443.222L104.926 451.315L104.771 438.096C104.724 434.054 107.7 430.611 111.706 430.074L117.168 429.34C121.303 428.785 124.317 425.146 124.092 420.981L122.423 390.007C122.417 389.909 122.299 389.864 122.23 389.934V389.934Z" stroke="#F1F2F9" stroke-width="0.5" stroke-miterlimit="10"/>
</g>
<defs>
<clipPath id="clip0_8280_33090">
<rect width="680" height="416" fill="white"/>
</clipPath>
</defs>
</svg>
