<svg width="200" height="200" viewBox="0 0 200 200" fill="none" xmlns="http://www.w3.org/2000/svg">
<path d="M100.366 128.082C85.8151 128.082 73.9766 116.244 73.9766 101.692C73.9766 87.141 85.8148 75.3027 100.366 75.3027C114.917 75.3027 126.756 87.141 126.756 101.692C126.756 116.244 114.917 128.082 100.366 128.082ZM100.366 81.4836C89.223 81.4836 80.1574 90.5491 80.1574 101.692C80.1574 112.835 89.223 121.901 100.366 121.901C111.509 121.901 120.575 112.835 120.575 101.692C120.575 90.5491 111.509 81.4836 100.366 81.4836Z" fill="#009EDB"/>
<path d="M166.141 54.1465C162.359 48.7102 157.077 44.6202 150.868 42.3178C149.919 41.9661 148.859 42.1009 148.029 42.6788C147.198 43.2564 146.703 44.2041 146.703 45.2155V76.9765C137.845 60.4122 120.375 49.1156 100.314 49.1156C94.1449 49.1156 88.1001 50.1762 82.3477 52.2681C81.4947 52.5782 80.8213 53.2475 80.5061 54.0987C80.1906 54.9497 80.2653 55.8962 80.71 56.6871C81.1421 57.4552 81.4686 58.2753 81.6813 59.1249C82.3187 61.6722 81.926 64.3153 80.5752 66.5674C79.2244 68.8195 77.078 70.4105 74.5303 71.0479C73.3481 71.3438 72.1367 71.4171 70.9292 71.2662C69.9967 71.1491 69.0629 71.4635 68.39 72.1186C67.7171 72.7738 67.3786 73.6995 67.4702 74.6342C67.866 78.6748 65.1883 82.4665 61.2419 83.4543C59.1693 83.9726 57.0041 83.6751 55.1436 82.6168C54.9394 82.5004 54.7245 82.41 54.5037 82.3437C54.9582 80.9328 55.6718 79.5924 56.6195 78.4034C58.8679 75.5833 60.106 72.0411 60.106 68.4287V45.2155C60.106 43.5087 58.7223 42.1251 57.0156 42.1251C55.3088 42.1251 53.9252 43.5087 53.9252 45.2155V59.0889H47.1825V45.2155C47.1825 43.5087 45.7988 42.1251 44.0921 42.1251C42.3853 42.1251 41.0017 43.5087 41.0017 45.2155V59.0889H34.2589V45.2155C34.2589 43.5087 32.8753 42.1251 31.1685 42.1251C29.4618 42.1251 28.0781 43.5087 28.0781 45.2155V68.4287C28.0781 72.0408 29.3163 75.5833 31.5641 78.4031C33.302 80.583 34.2589 83.2705 34.2589 85.9713L34.2587 147.89C34.2587 150.564 35.3591 153.178 37.2783 155.061C39.1317 156.88 41.5461 157.875 44.0949 157.875C44.1567 157.875 44.2188 157.874 44.2809 157.873C49.5986 157.772 53.9249 153.362 53.9249 148.042V126.395C62.7834 142.959 80.2532 154.256 100.314 154.256C120.375 154.256 137.845 142.959 146.703 126.395V148.042C146.703 153.464 151.114 157.875 156.536 157.875C161.958 157.875 166.369 153.464 166.369 148.042V110.43C170.006 104.996 171.923 98.6903 171.923 92.1271V72.5791C171.923 65.9566 169.923 59.5828 166.141 54.1465ZM47.7441 148.042C47.7441 150.018 46.1379 151.656 44.1637 151.694C43.2186 151.714 42.3114 151.341 41.6071 150.649C40.8651 149.921 40.4395 148.916 40.4395 147.89L40.4398 85.9713C40.4398 81.8762 39.0041 77.8202 36.3972 74.5505C34.9984 72.7957 34.2589 70.6788 34.2589 68.4287V65.2697H53.9252V68.4287C53.9252 70.6788 53.1857 72.7954 51.7869 74.5502C49.18 77.8202 47.7444 81.8762 47.7444 85.9713L47.7441 148.042ZM100.314 148.075C74.736 148.075 53.9263 127.266 53.9249 101.688V101.684C53.9252 97.51 54.477 93.3953 55.5684 89.412C57.8969 90.0259 60.3549 90.0475 62.7421 89.4502C68.5024 88.009 72.7152 83.1449 73.5414 77.4631C74.3772 77.3897 75.2086 77.2501 76.0306 77.0442C80.1796 76.0061 83.676 73.4144 85.8755 69.7466C88.0753 66.0788 88.715 61.7739 87.677 57.6249C87.6314 57.4426 87.5826 57.2611 87.5306 57.0804C91.6689 55.8957 95.9553 55.2967 100.314 55.2967C125.893 55.2967 146.703 76.1067 146.703 101.686C146.703 127.265 125.893 148.075 100.314 148.075ZM165.742 92.1271C165.742 97.7328 164.02 103.108 160.764 107.67C160.39 108.194 160.189 108.822 160.189 109.466V148.042C160.189 150.056 158.55 151.694 156.536 151.694C154.523 151.694 152.884 150.056 152.884 148.042V50.0966C160.723 54.7297 165.742 63.2778 165.742 72.5794V92.1271Z" fill="#505050"/>
</svg>
