<svg width="200" height="200" viewBox="0 0 200 200" fill="none" xmlns="http://www.w3.org/2000/svg">
<path d="M113.978 171.498H31.5568C30.4921 171.498 29.5033 170.947 28.9433 170.041C28.3836 169.135 28.3324 168.004 28.8087 167.052L32.9059 158.857C32.0074 154.024 28.4844 133.511 28.4844 109.118C28.4844 84.7255 32.0074 64.2127 32.9056 59.3792L28.8087 51.185C28.3324 50.2325 28.3836 49.1016 28.9433 48.1955C29.5033 47.2896 30.4921 46.7383 31.5568 46.7383H113.978C115.043 46.7383 116.031 47.2896 116.591 48.1955C117.151 49.1013 117.202 50.2325 116.726 51.185L112.629 59.3792C113.527 64.2127 117.05 84.7255 117.05 109.118C117.05 133.511 113.527 154.024 112.629 158.858L116.726 167.052C117.202 168.004 117.151 169.135 116.591 170.041C116.032 170.947 115.043 171.498 113.978 171.498ZM36.5281 165.353H109.007L106.668 160.676C106.362 160.065 106.269 159.369 106.403 158.7C106.448 158.474 110.905 135.843 110.905 109.118C110.905 82.3594 106.448 59.7629 106.403 59.5378C106.269 58.868 106.362 58.1723 106.668 57.5611L109.007 52.8835H36.5281L38.867 57.5611C39.1726 58.172 39.2656 58.8675 39.1318 59.5373C39.0866 59.7627 34.6293 82.3935 34.6293 109.118C34.6293 135.843 39.0866 158.474 39.1318 158.7C39.2656 159.369 39.1726 160.065 38.867 160.676L36.5281 165.353Z" fill="#505050"/>
<path d="M150.132 171.501H131.883C130.187 171.501 128.811 170.125 128.811 168.429V128.877H113.635C112.392 128.877 111.272 128.129 110.796 126.98C110.321 125.832 110.584 124.511 111.463 123.632L138.835 96.2593C140.035 95.0594 141.98 95.0594 143.181 96.2593L170.553 123.632C171.432 124.511 171.695 125.832 171.219 126.98C170.744 128.128 169.623 128.877 168.381 128.877H153.205V168.429C153.205 170.125 151.829 171.501 150.132 171.501ZM134.956 165.356H147.06V125.805C147.06 124.108 148.435 122.732 150.132 122.732H160.963L141.008 102.777L121.053 122.732H131.883C133.58 122.732 134.956 124.108 134.956 125.805V165.356Z" fill="#009EDB"/>
<path d="M98.6957 90.8712C98.6957 89.1743 97.3201 87.7987 95.6232 87.7987H87.1897C87.6731 83.4923 86.2137 79.0735 83.0508 75.9083L74.9848 67.8448C73.7846 66.6455 71.8403 66.6455 70.64 67.8448L62.5735 75.9095C59.4111 79.0738 57.9517 83.4923 58.4352 87.7987H50.0021C48.3053 87.7987 46.9297 89.1743 46.9297 90.8712V102.276C46.9297 105.39 47.921 108.275 49.5999 110.638C48.0936 110.836 46.9297 112.121 46.9297 113.682V125.087C46.9297 133.07 53.4243 139.564 61.4073 139.564H69.7401V147.897C69.7401 149.594 71.1157 150.97 72.8125 150.97C74.5094 150.97 75.885 149.594 75.885 147.897V139.565H84.218C92.2011 139.565 98.6957 133.07 98.6957 125.087V113.682C98.6957 112.121 97.5318 110.836 96.0255 110.638C97.7044 108.275 98.6957 105.39 98.6957 102.276V90.8712ZM92.5508 102.276C92.5508 106.871 88.8127 110.609 84.218 110.609H75.885V102.276C75.885 97.6817 79.6233 93.9436 84.218 93.9436H92.5508V102.276ZM66.9193 80.2542L72.8128 74.3623L78.7055 80.2531C80.7956 82.3446 81.5897 85.386 80.8869 88.19C77.6366 88.9587 74.808 90.8245 72.8128 93.3749C70.8177 90.8242 67.9891 88.9584 64.7387 88.19C64.0357 85.3857 64.83 82.3446 66.9193 80.2542ZM53.0746 93.9436H61.4073C66.002 93.9436 69.7401 97.6817 69.7401 102.276V110.609H61.4073C56.8126 110.609 53.0746 106.871 53.0746 102.276V93.9436ZM53.0746 125.087V116.754H61.4073C66.002 116.754 69.7401 120.492 69.7401 125.087V133.42H61.4073C56.8126 133.42 53.0746 129.682 53.0746 125.087ZM92.5508 125.087C92.5508 129.682 88.8127 133.42 84.218 133.42H75.885V125.087C75.885 120.492 79.6233 116.754 84.218 116.754H92.5508V125.087Z" fill="#009EDB"/>
<path d="M171.511 63.5075C171.511 59.7619 169.567 54.634 160.306 51.4752C157.093 50.3792 153.263 48.4109 153.263 45.2588C153.263 41.9218 155.978 39.2069 159.314 39.2069C160.929 39.2069 162.449 39.8368 163.592 40.9806C164.792 42.1805 166.738 42.1802 167.938 40.9806C169.137 39.7806 169.137 37.8352 167.938 36.6356C166.377 35.0748 164.468 33.991 162.387 33.4528V31.5724C162.387 29.8756 161.011 28.5 159.314 28.5C157.617 28.5 156.242 29.8756 156.242 31.5724V33.4547C150.999 34.8203 147.118 39.5946 147.118 45.2588C147.118 49.0044 149.062 54.132 158.322 57.2911C161.536 58.3871 165.366 60.3551 165.366 63.5075C165.366 66.8444 162.651 69.5594 159.314 69.5594C155.32 69.5594 151.918 67.4162 151.861 67.3796C150.442 66.4604 148.545 66.8601 147.619 68.2765C146.69 69.6965 147.088 71.6006 148.508 72.5296C148.671 72.6357 151.864 74.6929 156.242 75.4375V77.1941C156.242 78.8909 157.617 80.2666 159.314 80.2666C161.011 80.2666 162.386 78.8909 162.386 77.1941V75.3118C167.629 73.946 171.511 69.1717 171.511 63.5075Z" fill="#505050"/>
</svg>
