<svg width="200" height="202" viewBox="0 0 200 202" fill="none" xmlns="http://www.w3.org/2000/svg">
<path d="M100.002 182C99.594 182 99.1868 181.928 98.7982 181.785C80.11 174.9 64.2106 162.625 52.819 146.288C41.4275 129.951 35.4062 110.789 35.4062 90.8728V36.3468C35.4062 34.9464 36.2454 33.6824 37.536 33.1391C58.2422 24.4208 79.2586 20 100.002 20C120.744 20 141.761 24.4208 162.467 33.1391C163.758 33.6824 164.597 34.9464 164.597 36.3468V90.8728C164.597 110.789 158.576 129.952 147.184 146.289C135.792 162.626 119.893 174.9 101.205 181.785C100.816 181.928 100.409 182 100.002 182ZM42.3672 38.6743V90.8731C42.3672 127.95 65.4728 161.513 100.002 174.801C134.53 161.513 157.636 127.95 157.636 90.8731V38.6743C119.379 23.1492 80.6245 23.1492 42.3672 38.6743Z" fill="#505050"/>
<path d="M99.9989 161.051C99.479 161.051 98.9592 160.934 98.4792 160.701C85.4467 154.377 74.4462 144.505 66.6671 132.153C58.8401 119.726 54.7031 105.451 54.7031 90.873V49.7057C54.7031 48.2022 55.6688 46.8685 57.0967 46.3993C71.4337 41.6877 85.8682 39.2988 99.9989 39.2988C114.13 39.2988 128.564 41.6877 142.901 46.399C144.329 46.8682 145.295 48.2019 145.295 49.7054V90.873C145.295 105.451 141.158 119.726 133.331 132.153C125.552 144.505 114.551 154.377 101.519 160.701C101.039 160.934 100.519 161.051 99.9989 161.051ZM61.6641 52.2484V90.8734C61.6641 117.174 76.6544 141.638 99.9989 153.678C123.343 141.638 138.334 117.174 138.334 90.8734V52.2484C125.491 48.2737 112.606 46.2598 99.9989 46.2598C87.3914 46.2598 74.5067 48.2737 61.6641 52.2484Z" fill="#009EDB"/>
<path d="M92.0402 117.135C91.1173 117.135 90.232 116.769 89.5792 116.116L78.207 104.744C76.8477 103.384 76.8477 101.181 78.207 99.8213C79.5666 98.4624 81.7697 98.4624 83.1293 99.8213L92.0406 108.733L116.873 83.9001C118.232 82.5411 120.435 82.5411 121.795 83.9001C123.154 85.2594 123.154 87.4631 121.795 88.8224L94.5016 116.116C93.8488 116.769 92.9632 117.135 92.0402 117.135Z" fill="#009EDB"/>
</svg>
