<svg width="200" height="200" viewBox="0 0 200 200" fill="none" xmlns="http://www.w3.org/2000/svg">
<path d="M133.397 113.006C131.013 113.064 129.258 110.439 130.223 108.256C131.357 105.452 135.44 105.45 136.572 108.256C137.539 110.438 135.782 113.065 133.397 113.006Z" fill="#505050"/>
<path d="M84.9573 77.4975H104.762C90.8926 77.4975 79.6089 66.2142 79.6089 52.3451C79.6089 45.6087 82.235 39.2328 87.0035 34.3909C91.7775 29.5441 98.0843 26.8746 104.762 26.8746C111.439 26.8746 117.746 29.5441 122.52 34.3909C127.288 39.2328 129.914 45.6087 129.914 52.3451C129.914 66.2142 118.631 77.4975 104.762 77.4975H124.566C132.005 71.6276 136.789 62.5348 136.789 52.3451C136.789 43.7925 133.461 35.7031 127.417 29.5672C121.342 23.3976 113.296 20 104.762 20C96.2279 20 88.1818 23.3976 82.1056 29.5672C76.0626 35.7031 72.7344 43.7922 72.7344 52.3451C72.7347 62.5348 77.5181 71.6276 84.9573 77.4975Z" fill="#009EDB"/>
<path d="M104.764 65.3112C97.614 65.3112 91.7969 59.4944 91.7969 52.3442C91.7969 45.1941 97.614 39.377 104.764 39.377C111.914 39.377 117.731 45.1941 117.731 52.3442C117.731 59.4944 111.915 65.3112 104.764 65.3112ZM104.764 46.2515C101.405 46.2515 98.6714 48.9848 98.6714 52.3442C98.6714 55.7037 101.405 58.4367 104.764 58.4367C108.124 58.4367 110.857 55.7037 110.857 52.3442C110.857 48.9848 108.124 46.2515 104.764 46.2515Z" fill="#009EDB"/>
<path d="M167.027 106.087H163.523C161.96 100.104 159.382 94.5735 155.832 89.586L169.333 73.6236C170.488 72.259 170.403 70.2372 169.14 68.9733C162.393 62.2268 152.123 60.5547 143.584 64.8129L139.399 66.9C137.776 66.0331 136.105 65.2276 134.398 64.4857C133.515 66.6337 132.405 68.6652 131.097 70.5503C133.348 71.5031 135.532 72.5793 137.617 73.7673C138.613 74.3348 139.827 74.3688 140.853 73.8567L146.652 70.9647C151.585 68.5052 157.354 68.9142 161.833 71.8456L148.81 87.2424C147.749 88.4961 147.724 90.3244 148.748 91.6074C153.089 97.0418 156.01 103.302 157.429 110.215C157.757 111.813 159.164 112.961 160.795 112.961H167.026C170.386 112.961 173.119 115.694 173.119 119.054V128.584C173.119 131.943 170.386 134.677 167.026 134.677C166.216 134.677 159.07 134.678 157.809 134.732C156.499 134.788 155.334 135.585 154.808 136.786C151.672 143.941 146.714 150.311 140.847 154.725C139.989 155.371 139.482 156.38 139.477 157.454C139.471 158.567 139.464 162.819 139.458 167.03C139.462 172.43 132.787 175.15 128.96 171.415C127.866 170.319 127.263 168.863 127.265 167.315C127.266 165.324 127.268 163.743 127.27 163.215C127.318 160.659 124.446 158.937 122.215 160.172C114.368 164.657 95.1694 164.659 87.3187 160.176C86.2531 159.61 84.9685 159.642 83.9339 160.263C82.8989 160.885 82.2662 162.003 82.2662 163.21V167.319C82.2662 170.515 79.6673 173.114 76.4728 173.114C73.0149 173.276 70.0607 170.508 70.066 167.032C70.0585 162.486 70.0491 157.654 70.0416 155.874C70.037 154.726 69.4592 153.656 68.5017 153.022C34.4958 130.431 41.1876 85.9387 78.4205 70.5357C77.1174 68.6545 76.0109 66.6281 75.1298 64.4857C52.9749 74.1142 38.969 93.6935 39.3977 115.244C36.481 114.607 33.7834 113.162 31.5857 111.014C28.5506 108.047 26.8788 104.133 26.8788 99.9941C26.8788 98.0958 25.3398 96.5568 23.4415 96.5568C21.5432 96.5568 20.0042 98.0958 20.0042 99.9941C19.7721 111.074 29.098 121.21 40.0623 122.32C42.395 136.108 50.6445 148.866 63.1736 157.706C63.1799 160.024 63.1865 163.615 63.1924 167.043C63.722 183.425 87.2452 184.637 89.1045 168.294C97.9236 171.159 111.61 171.159 120.427 168.293C120.795 174.828 126.812 180.271 133.366 179.989C140.506 179.989 146.323 174.18 146.333 167.04C146.337 164.049 146.342 161.037 146.346 159.15C151.991 154.556 156.813 148.421 160.166 141.571C162.114 141.557 164.968 141.551 167.027 141.551C174.177 141.551 179.994 135.734 179.994 128.584V119.054C179.994 111.904 174.177 106.087 167.027 106.087Z" fill="#505050"/>
<path d="M128.587 84.3726H80.9373C79.039 84.3726 77.5 82.8336 77.5 80.9353C77.5 79.037 79.039 77.498 80.9373 77.498H128.587C130.486 77.498 132.025 79.037 132.025 80.9353C132.025 82.8336 130.486 84.3726 128.587 84.3726Z" fill="#505050"/>
</svg>
