<svg width="200" height="189" viewBox="0 0 200 189" fill="none" xmlns="http://www.w3.org/2000/svg">
<g clip-path="url(#clip0_8262_33549)">
<path d="M86.707 84.4079H28.7012C26.9333 84.4079 25.5 82.9746 25.5 81.2067V23.2012C25.5 21.4333 26.9333 20 28.7012 20H86.707C88.4749 20 89.9082 21.4333 89.9082 23.2012V81.2067C89.9082 82.9746 88.4749 84.4079 86.707 84.4079ZM31.9023 78.0055H83.5058V26.4023H31.9023V78.0055Z" fill="#505050"/>
<path d="M171.301 84.4079H113.295C111.527 84.4079 110.094 82.9746 110.094 81.2067V23.2012C110.094 21.4333 111.527 20 113.295 20H171.301C173.069 20 174.502 21.4333 174.502 23.2012V81.2067C174.502 82.9746 173.069 84.4079 171.301 84.4079ZM116.496 78.0055H168.1V26.4023H116.496V78.0055Z" fill="#009EDB"/>
<path d="M86.707 169H28.7012C26.9333 169 25.5 167.567 25.5 165.799V107.793C25.5 106.025 26.9333 104.592 28.7012 104.592H86.707C88.4749 104.592 89.9082 106.025 89.9082 107.793V165.799C89.9082 167.567 88.4749 169 86.707 169ZM31.9023 162.598H83.5058V110.994H31.9023V162.598Z" fill="#009EDB"/>
<path d="M171.301 169H113.295C111.527 169 110.094 167.567 110.094 165.799V107.793C110.094 106.025 111.527 104.592 113.295 104.592H171.301C173.069 104.592 174.502 106.025 174.502 107.793V165.799C174.502 167.567 173.069 169 171.301 169ZM116.496 162.598H168.1V110.994H116.496V162.598Z" fill="#505050"/>
</g>
<defs>
<clipPath id="clip0_8262_33549">
<rect width="149" height="149" fill="white" transform="translate(25.5 20)"/>
</clipPath>
</defs>
</svg>
