<svg width="200" height="200" viewBox="0 0 200 200" fill="none" xmlns="http://www.w3.org/2000/svg">
<path d="M71.6813 124.875H53.6314C51.8459 124.875 50.3984 123.428 50.3984 121.642V83.6763C50.3984 81.8908 51.8459 80.4434 53.6314 80.4434H71.6813C73.4668 80.4434 74.9142 81.8908 74.9142 83.6763V121.642C74.9142 123.428 73.4668 124.875 71.6813 124.875ZM56.8643 118.41H68.4484V86.9092H56.8643V118.41Z" fill="#009EDB"/>
<path d="M109.001 124.875H90.9517C89.1662 124.875 87.7188 123.428 87.7188 121.642V71.7251C87.7188 69.9397 89.1662 68.4922 90.9517 68.4922H109.001C110.787 68.4922 112.234 69.9397 112.234 71.7251V121.642C112.234 123.428 110.787 124.875 109.001 124.875ZM94.1846 118.41H105.768V74.958H94.1846V118.41Z" fill="#009EDB"/>
<path d="M146.392 124.875H128.342C126.557 124.875 125.109 123.428 125.109 121.643V59.7739C125.109 57.9885 126.557 56.541 128.342 56.541H146.392C148.178 56.541 149.625 57.9885 149.625 59.7739V121.643C149.625 123.428 148.178 124.875 146.392 124.875ZM131.575 118.41H143.159V63.0068H131.575V118.41Z" fill="#009EDB"/>
<path d="M172.004 28.8457H27.9918C26.2064 28.8457 24.7589 30.2932 24.7589 32.0786C24.7554 49.3706 24.7616 129.431 24.7589 144.956C24.7589 146.742 26.2064 148.189 27.9918 148.189H83.8011V164.69H81.2609C76.9826 164.855 76.964 170.982 81.2609 171.156C89.1363 171.156 110.858 171.156 118.734 171.156C123.013 170.991 123.031 164.864 118.734 164.69H116.195V148.189H172.004C173.789 148.189 175.237 146.742 175.237 144.956C175.235 129.832 175.238 48.9392 175.237 32.0786C175.236 30.2932 173.789 28.8457 172.004 28.8457ZM31.2248 35.3115H168.771V118.4H31.2248V35.3115ZM109.728 164.69H90.2666V148.189H109.728V164.69ZM168.771 141.723C129.199 141.723 70.7898 141.723 31.2248 141.723V124.866H168.771V141.723Z" fill="#505050"/>
</svg>
