<svg width="200" height="200" viewBox="0 0 200 200" fill="none" xmlns="http://www.w3.org/2000/svg">
<path d="M171.667 132.924L154.545 98.6846L154.511 98.6143C154.005 97.599 152.956 96.9043 151.744 96.9043H48.2434C47.0594 96.9043 46.0328 97.568 45.5153 98.5412C45.4872 98.589 45.4647 98.6368 45.4422 98.6846L28.3196 132.924C27.5546 134.454 28.1762 136.31 29.7034 137.075C30.1478 137.298 30.6203 137.402 31.0843 137.402C32.2206 137.402 33.3118 136.777 33.8547 135.692L45.1497 113.099V168.904C45.1497 170.614 46.5334 171.998 48.2434 171.998H151.744C153.454 171.998 154.837 170.614 154.837 168.904V113.099L166.132 135.692C166.675 136.777 167.767 137.402 168.903 137.402C169.367 137.402 169.839 137.298 170.284 137.075C171.811 136.31 172.432 134.454 171.667 132.924ZM148.65 165.81H51.3372V103.092H148.65V165.81Z" fill="#505050"/>
<path d="M103.37 45.4384C104.675 39.0259 110.356 34.1856 117.149 34.1856C118.856 34.1856 120.242 32.8018 120.242 31.0918C120.242 29.3818 118.856 27.998 117.149 27.998C106.964 27.998 98.51 35.5581 97.1038 45.3596C87.3022 46.7659 79.7422 55.2175 79.7422 65.4016C79.7422 76.5672 88.8266 85.6516 99.9922 85.6516C111.158 85.6516 120.242 76.5672 120.242 65.4016C120.242 55.3862 112.933 47.0471 103.37 45.4384ZM99.9922 79.4644C92.2382 79.4644 85.9297 73.1559 85.9297 65.4018C85.9297 57.6478 92.2382 51.3421 99.9922 51.3421C107.746 51.3421 114.055 57.6478 114.055 65.4018C114.055 73.1556 107.746 79.4644 99.9922 79.4644Z" fill="#009EDB"/>
<path d="M67.9218 76.1678L59.3437 84.7459C58.739 85.3478 57.9487 85.6516 57.1556 85.6516C56.3653 85.6516 55.5721 85.3478 54.9674 84.7459L46.3893 76.1678C45.1827 74.9584 45.1827 73.0009 46.3893 71.7915C47.5987 70.585 49.5562 70.585 50.7656 71.7915L54.0618 75.0878V48.2481C54.0618 46.538 55.4484 45.1543 57.1556 45.1543C58.8656 45.1543 60.2493 46.538 60.2493 48.2481V75.0878L63.5456 71.7915C64.755 70.585 66.7125 70.585 67.9218 71.7915C69.1284 73.0009 69.1284 74.9584 67.9218 76.1678Z" fill="#505050"/>
<path d="M153.641 76.1678L145.062 84.7459C144.458 85.3478 143.665 85.6516 142.874 85.6516C142.081 85.6516 141.291 85.3478 140.686 84.7459L132.108 76.1678C130.901 74.9584 130.901 73.0009 132.108 71.7915C133.317 70.585 135.275 70.585 136.484 71.7915L139.781 75.0878V48.2481C139.781 46.538 141.164 45.1543 142.874 45.1543C144.582 45.1543 145.968 46.538 145.968 48.2481V75.0878L149.264 71.7915C150.474 70.585 152.431 70.585 153.641 71.7915C154.847 73.0009 154.847 74.9584 153.641 76.1678Z" fill="#505050"/>
<path d="M134.343 154.557H117.188C115.479 154.557 114.094 153.171 114.094 151.463C114.094 149.754 115.479 148.369 117.188 148.369H134.343C136.051 148.369 137.436 149.754 137.436 151.463C137.436 153.171 136.051 154.557 134.343 154.557Z" fill="#009EDB"/>
</svg>
