<svg width="200" height="200" viewBox="0 0 200 200" fill="none" xmlns="http://www.w3.org/2000/svg">
<path d="M137.136 50.1836H127.843C115.68 50.1836 105.12 57.1743 99.9663 67.3482C94.8125 57.1743 84.2527 50.1836 72.0892 50.1836H62.7969C60.9459 50.1836 59.4453 51.6842 59.4453 53.5352C59.4453 70.7546 73.4545 84.7638 90.6739 84.7638H96.6147V99.997C96.6147 101.848 98.1153 103.349 99.9663 103.349C101.817 103.349 103.318 101.848 103.318 99.997V84.7638H109.259C126.478 84.7638 140.487 70.7546 140.487 53.5352C140.487 51.6842 138.987 50.1836 137.136 50.1836ZM90.6739 78.0607C78.2872 78.0607 68.0159 68.8305 66.3766 56.8867H72.0892C84.476 56.8867 94.7473 66.1169 96.3865 78.0607H90.6739ZM109.259 78.0607H103.546C105.185 66.1169 115.457 56.8867 127.843 56.8867H133.556C131.917 68.8305 121.645 78.0607 109.259 78.0607Z" fill="#009EDB"/>
<path d="M155.082 44.9098C140.309 30.1361 120.744 22 99.9922 22C79.2405 22 59.6756 30.1361 44.9019 44.9098C30.1283 59.6834 21.9922 79.248 21.9922 100C21.9922 117.713 27.9245 134.559 38.8481 148.301C38.9633 148.476 39.0946 148.639 39.2396 148.789C41.0029 150.971 42.8883 153.077 44.9019 155.09C59.6756 169.864 79.2405 178 99.9922 178C120.744 178 140.309 169.864 155.082 155.09C169.856 140.317 177.992 120.752 177.992 100C177.992 79.2483 169.856 59.6834 155.082 44.9098ZM171.208 96.6484H155.746C152.47 96.6484 149.805 93.9833 149.805 90.7076C149.805 87.4319 152.47 84.7668 155.746 84.7668H169.645C170.488 88.6214 171.019 92.5906 171.208 96.6484ZM30.3391 84.7668H43.9288C45.6426 84.7668 47.3276 85.4777 48.5521 86.7168C49.6191 87.7967 50.1971 89.1586 50.1804 90.5519C50.1389 93.9596 51.4347 97.1707 53.8284 99.5939C56.2223 102.017 59.4166 103.352 62.8227 103.352H99.9922C103.268 103.352 105.933 106.017 105.933 109.292C105.933 112.568 103.268 115.233 99.9922 115.233H81.4075C74.4356 115.233 68.7635 120.905 68.7635 127.877C68.7635 136.277 61.93 143.11 53.5304 143.11H43.2454C34.1215 131.129 28.6953 116.187 28.6953 100C28.6953 94.7728 29.266 89.6769 30.3391 84.7668ZM49.0372 149.813H53.5304C65.6262 149.813 75.4667 139.973 75.4667 127.877C75.4667 124.601 78.1318 121.936 81.4075 121.936H99.9922C106.964 121.936 112.636 116.264 112.636 109.292C112.636 102.32 106.964 96.6484 99.9922 96.6484H62.8227C61.2222 96.6484 59.7213 96.0214 58.5964 94.8828C57.4718 93.7445 56.8631 92.2353 56.8826 90.6333C56.9216 87.4344 55.6565 84.3707 53.3205 82.0061C50.8455 79.5006 47.4223 78.0637 43.9288 78.064H32.1526C41.427 49.4511 68.33 28.7031 99.9922 28.7031C131.654 28.7031 158.557 49.4511 167.832 78.0637H155.746C148.774 78.0637 143.102 83.7358 143.102 90.7076C143.102 97.6795 148.774 103.352 155.746 103.352H171.208C171.02 107.409 170.488 111.379 169.646 115.233H155.747C152.34 115.233 149.146 116.568 146.752 118.991C144.358 121.414 143.063 124.625 143.104 128.033C143.122 129.52 142.541 130.937 141.469 132.023C140.342 133.164 138.772 133.818 137.162 133.818H109.285C102.313 133.818 96.6409 139.49 96.6409 146.462C96.6409 153.434 102.313 159.106 109.285 159.106C112.505 159.106 115.226 161.968 115.226 165.356V169.653C110.315 170.726 105.219 171.297 99.9922 171.297C80.0458 171.297 61.9897 163.06 49.0372 149.813ZM121.928 167.84V165.356C121.928 158.335 116.138 152.402 109.285 152.402C106.009 152.402 103.344 149.737 103.344 146.461C103.344 143.186 106.009 140.521 109.285 140.521H137.162C140.551 140.521 143.859 139.14 146.237 136.733C148.579 134.363 149.846 131.244 149.806 127.951C149.786 126.349 150.395 124.84 151.52 123.702C152.645 122.563 154.146 121.936 155.746 121.936H167.831C160.798 143.635 143.627 160.806 121.928 167.84Z" fill="#505050"/>
</svg>
